<?xml version="1.0" encoding="UTF-8"?>
<svg id="Layer_2" data-name="Layer 2" xmlns="http://www.w3.org/2000/svg" viewBox="0 0 805.19 439.62">
  <defs>
    <style>
      .cls-1 {
        fill: #64bcad;
      }

      .cls-2 {
        fill: none;
        stroke: #64bcad;
        stroke-miterlimit: 10;
        stroke-width: 2px;
      }

      .cls-3 {
        fill: #fff;
      }

      .cls-4 {
        fill: #f2ad6e;
      }

      .cls-5 {
        fill: #e0d3ad;
      }
    </style>
  </defs>
  <g id="bottom_left_2" data-name="bottom left 2">
    <g>
      <path class="cls-5" d="M1.19,322.32c-.79,9.86-1.19,19.71-1.19,29.5,0,4.81.4,9.54,1.19,14.18v-43.68Z"/>
      <path class="cls-5" d="M227.58,439.62h335.58c-11.91-44.85-10.25-103.99,22.67-181.9C676.05,44.27,428.41,15.05,267.91,15.05c-21.69,0-42.4,3.22-62.02,9.19v396.44c3.95,2.28,7.61,5.02,10.79,8.16,3.63,3.6,7.27,7.19,10.9,10.79Z"/>
      <path class="cls-3" d="M514.86,361.29c13.16-16.48,31.21-28.91,51.62-34.48,9.77-2.67,19.94-3.71,30.05-2.95,11.49.86,22.62,4.27,33.48,7.93s22.2,7.96,33.7,10.54c5.68,1.28,11.48,2.16,17.3,2.36,6.15.22,12.29-.43,18.32-1.69,12.47-2.61,24.24-7.64,36.39-11.37,11.28-3.46,23.54-5.96,35.29-3.53,10.02,2.07,18.44,7.79,23.91,16.46,5.17,8.21,7.21,18.29,3.93,27.6-3.28,9.32-11.34,15.85-19.65,20.62-10.26,5.89-21.56,10.54-33.02,13.47s-23.95,3.77-35.8.98c-10.68-2.51-20.67-7.18-30.62-11.69-10.03-4.55-20.24-9.15-31.11-11.29-5.53-1.09-11.18-1.54-16.81-1.08-6.15.5-12.2,1.88-18.06,3.77-11.87,3.82-22.98,9.58-34.63,13.98s-23.17,7.49-35.09,5.86c-5.12-.7-10.25-2.32-14.61-5.14-3.47-2.24-6.5-5.26-8.91-8.6-5.04-7-8.08-15.69-7.35-24.38.33-3.98,1.66-7.83,3.84-11.2,1.66-2.57-2.44-4.94-4.09-2.39-10.48,16.19-1.94,38.96,12.59,49.61,9.28,6.8,21.65,8.14,32.77,6.68,12.83-1.69,24.72-6.75,36.5-11.85s23.22-10.18,35.73-11.47c11.31-1.17,22.25,1.51,32.75,5.56,10.71,4.13,20.91,9.46,31.6,13.65s22.52,7.01,34.45,6.42c13.01-.65,25.57-4.48,37.48-9.57,9.99-4.27,20.3-9.25,28.01-17.11s11.49-17.87,10.11-28.52c-1.32-10.2-6.81-19.83-14.7-26.4-9.18-7.63-21.18-10.23-32.91-9.49-12.81.81-24.94,5.07-36.97,9.24s-24.34,8.27-37.23,8.19c-12.01-.08-23.69-3.32-35.02-7.04-11.5-3.78-22.83-8.19-34.61-11.06-10.74-2.62-21.75-3.69-32.77-2.55-21.69,2.26-42.14,11.97-58.15,26.69-3.99,3.67-7.68,7.65-11.06,11.89-.8,1-.98,2.37,0,3.35.83.83,2.55,1,3.35,0h0Z"/>
      <g>
        <path class="cls-4" d="M364.36,0c-5.79,0-5.8,9,0,9s5.8-9,0-9Z"/>
        <path class="cls-4" d="M383.67,0c-5.79,0-5.8,9,0,9s5.8-9,0-9Z"/>
        <path class="cls-4" d="M406.33,0c-5.79,0-5.8,9,0,9s5.8-9,0-9Z"/>
        <path class="cls-4" d="M430.68,0c-5.79,0-5.8,9,0,9s5.8-9,0-9Z"/>
        <path class="cls-4" d="M455.03,0c-5.79,0-5.8,9,0,9s5.8-9,0-9Z"/>
        <path class="cls-4" d="M474.34,0c-5.79,0-5.8,9,0,9s5.8-9,0-9Z"/>
        <path class="cls-4" d="M363.76,17.91c-5.79,0-5.8,9,0,9s5.8-9,0-9Z"/>
        <path class="cls-4" d="M383.07,17.91c-5.79,0-5.8,9,0,9s5.8-9,0-9Z"/>
        <path class="cls-4" d="M405.74,17.91c-5.79,0-5.8,9,0,9s5.8-9,0-9Z"/>
        <path class="cls-4" d="M430.09,17.91c-5.79,0-5.8,9,0,9s5.8-9,0-9Z"/>
        <path class="cls-4" d="M454.43,17.91c-5.79,0-5.8,9,0,9s5.8-9,0-9Z"/>
        <path class="cls-4" d="M473.74,17.91c-5.79,0-5.8,9,0,9s5.8-9,0-9Z"/>
        <path class="cls-4" d="M364.36,34.2c-5.79,0-5.8,9,0,9s5.8-9,0-9Z"/>
        <path class="cls-4" d="M383.67,34.2c-5.79,0-5.8,9,0,9s5.8-9,0-9Z"/>
        <path class="cls-4" d="M406.33,34.2c-5.79,0-5.8,9,0,9s5.8-9,0-9Z"/>
        <path class="cls-4" d="M430.68,34.2c-5.79,0-5.8,9,0,9s5.8-9,0-9Z"/>
        <path class="cls-4" d="M455.03,34.2c-5.79,0-5.8,9,0,9s5.8-9,0-9Z"/>
        <path class="cls-4" d="M474.34,34.2c-5.79,0-5.8,9,0,9s5.8-9,0-9Z"/>
      </g>
      <circle class="cls-1" cx="267.91" cy="264.13" r="57.11"/>
      <path class="cls-2" d="M267.91,195.67c-27.44,0-51.1,16.15-62.02,39.46v57.99c10.92,23.31,34.57,39.46,62.02,39.46,37.81,0,68.46-30.65,68.46-68.46s-30.65-68.46-68.46-68.46Z"/>
    </g>
  </g>
</svg>