<?xml version="1.0" encoding="UTF-8"?>
<svg id="Layer_2" data-name="Layer 2" xmlns="http://www.w3.org/2000/svg" viewBox="0 0 900.25 330.99">
  <defs>
    <style>
      .cls-1 {
        fill: #64bcad;
      }

      .cls-2 {
        fill: #ffd040;
      }

      .cls-3 {
        fill: #fff;
      }

      .cls-4 {
        fill: #f2ad6e;
      }

      .cls-5 {
        fill: #e0d3ad;
      }

      .cls-6 {
        fill: none;
        stroke: #ffd040;
        stroke-miterlimit: 10;
        stroke-width: 5px;
      }
    </style>
  </defs>
  <g id="bottom_right_2" data-name="bottom right 2">
    <g>
      <g>
        <path class="cls-4" d="M900.25,17.1c-21.62-9.89-46.08-15.47-71.98-15.47-88,0-353.19,185.09-353.19,264.42s265.18,22.85,353.19,22.85c25.9,0,50.36-5.58,71.98-15.47V17.1Z"/>
        <path class="cls-1" d="M900.25,330.99V57.12c-34.67,44.68-130.16,130.42-350.59,126.15-215.66-4.18-409.69,93.63-500.06,147.72h850.65Z"/>
        <path class="cls-3" d="M884.04,82.53c-16.86,16.36-34.04,32.4-51.83,47.75-17.68,15.25-35.97,29.8-55.07,43.25-9.69,6.82-19.58,13.37-29.67,19.59-5.16,3.18-10.34,6.36-15.71,9.17s-10.91,6.09-16.44,9c-5.44,2.86-11.09,5.12-16.78,7.41s-11.37,4.57-17.13,6.66c-5.83,2.12-11.74,4.05-17.73,5.66s-12.58,2.94-18.87,4.34c-12.31,2.74-24.85,5.58-37.45,6.45-13.09.9-26.22,1.17-39.34.96-25.93-.42-51.79-2.72-77.56-5.49s-51.9-6.07-77.92-8.45c-10.72-.98-21.59-1.17-32.34-.92-10.77.25-21.53,1.14-32.17,2.91-21.06,3.49-41.6,10.8-59.21,23.02-4.68,3.25-8.95,6.9-13.25,10.61-2.21,1.91-4.57,3.63-6.84,5.46-1.07.87-2.13,1.76-3.14,2.71-1.18,1.11-2.15,2.43-3.24,3.62-1.99,2.16-4.13,4.17-6.15,6.3s-4.07,4.17-5.03,6.95c-.36,1.05-.96,1.41-1.8,2.21-1.09,1.03-2.13,2.11-3.14,3.23-1.93,2.14-3.7,4.42-5.4,6.74-3.15,4.31-5.98,8.84-9.06,13.2-.78,1.1-.2,2.78.9,3.42,1.25.73,2.64.21,3.42-.9,3.16-4.47,6.06-9.13,9.31-13.54,1.63-2.21,3.36-4.33,5.24-6.33.98-1.05,2-2.06,3.07-3.02s1.69-1.98,2.19-3.36c.83-2.35,3-4.21,4.77-6.01,2.07-2.11,4.2-4.15,6.15-6.37s4.1-4.24,6.48-6.12,4.64-3.55,6.79-5.51c15.84-14.46,35.78-23.83,56.5-28.88,20.58-5.01,41.93-5.96,63.02-5.16,12.27.47,24.47,1.82,36.68,3.13,13.06,1.41,26.1,2.93,39.15,4.41,25.77,2.91,51.59,5.62,77.52,6.71,12.98.55,25.98.69,38.97.26,6.52-.21,13.11-.39,19.59-1.16s12.69-1.77,18.98-2.97,12.31-2.52,18.44-3.9c6.29-1.41,12.62-2.7,18.82-4.47,11.86-3.38,23.29-8,34.71-12.6,5.81-2.34,11.5-4.77,17.02-7.74s10.91-6.16,16.5-9,10.45-6.08,15.54-9.24,10.05-6.35,15-9.65c19.55-13.01,38.31-27.2,56.39-42.17s35.3-30.58,52.23-46.67c4.17-3.96,8.31-7.94,12.43-11.94,2.31-2.24-1.22-5.78-3.54-3.54h0Z"/>
        <path class="cls-3" d="M4.69,317.51c2.11-3.5,4.74-6.62,7.18-9.89,1.18-1.58,2.16-3.31,3.38-4.85s2.51-3.18,3.79-4.75c4.77-5.88,10.17-11.29,15.59-16.57,10.51-10.25,21.76-19.73,33.65-28.34s24.28-16.32,37.15-23.26c12.78-6.89,25.98-13,39.47-18.37s27.79-10.24,42-14.4c16.84-4.93,34.09-8.59,51.39-11.51,17.4-2.94,34.93-5,52.52-6.37,17.43-1.35,34.92-2.02,52.4-2.2s34.93.12,52.39.71c17.48.59,34.95,1.45,52.41,2.4s34.98,1.97,52.48,2.86c17.4.89,34.8,1.77,52.22,1.92,16.7.15,33.45-.32,50.04-2.4,16.58-2.09,32.98-5.75,48.55-11.89,13.95-5.5,27.18-12.66,39.58-21.08s23.26-17.38,33.99-27.14c10.82-9.84,21.14-20.21,31.38-30.64s20.56-21.05,31.18-31.24c2.77-2.65,5.51-5.28,8.51-7.66s6.16-4.88,9.01-7.58,6.15-4.93,9.33-7.22,6.38-4.52,9.63-6.69c12.73-8.49,26.23-16.01,40.72-21.04,7.03-2.44,14.25-4.28,21.6-5.44,1.33-.21,2.08-1.88,1.75-3.08-.39-1.42-1.74-1.96-3.08-1.75-15.27,2.41-29.87,7.85-43.53,15.02-6.88,3.61-13.52,7.65-19.98,11.96-3.31,2.21-6.58,4.49-9.81,6.82s-6.8,4.64-9.71,7.44-5.76,5.07-8.76,7.46-5.94,5.08-8.79,7.81c-5.33,5.1-10.56,10.29-15.75,15.53-10.36,10.44-20.56,21.05-31.04,31.37-10.36,10.2-21.01,20.13-32.33,29.25s-23.25,17.3-36.02,24.13c-14.17,7.58-29.21,13.25-44.88,16.85-16.15,3.72-32.68,5.36-49.22,5.96-17.08.61-34.17.17-51.23-.56-17.59-.75-35.18-1.71-52.76-2.69-17.55-.98-35.11-1.97-52.67-2.76-17.53-.8-35.08-1.4-52.63-1.6-17.47-.2-34.94,0-52.39.8-17.6.8-35.19,2.22-52.67,4.43-17.78,2.25-35.46,5.28-52.94,9.29-15.58,3.57-30.9,8.06-45.99,13.32-14,4.88-27.78,10.43-41.19,16.75s-25.97,13.16-38.27,20.94c-12.48,7.9-24.43,16.65-35.69,26.2-5.72,4.85-11.26,9.91-16.6,15.17s-10.75,10.8-15.51,16.75c-1.25,1.56-2.5,3.13-3.74,4.7s-2.2,3.31-3.39,4.9c-2.4,3.21-4.97,6.28-7.05,9.71-1.67,2.76,2.65,5.28,4.32,2.52h0Z"/>
        <circle class="cls-3" cx="618.45" cy="57.74" r="26.82"/>
        <circle class="cls-5" cx="410.89" cy="75.62" r="17.88"/>
      </g>
      <circle class="cls-2" cx="152.98" cy="155.01" r="57.11"/>
      <circle class="cls-6" cx="152.98" cy="155.01" r="68.46"/>
    </g>
  </g>
</svg>