<?xml version="1.0" encoding="UTF-8"?>
<svg id="Layer_2" data-name="Layer 2" xmlns="http://www.w3.org/2000/svg" viewBox="0 0 647.31 696.95">
  <defs>
    <style>
      .cls-1 {
        fill: #64bcad;
      }

      .cls-2 {
        fill: none;
        stroke: #7da75b;
        stroke-miterlimit: 10;
        stroke-width: 3.82px;
      }

      .cls-3 {
        fill: #7da75b;
      }

      .cls-4 {
        fill: #fff;
      }

      .cls-5 {
        fill: #e0d3ad;
      }
    </style>
  </defs>
  <g id="top_right_2" data-name="top right 2">
    <g>
      <path class="cls-5" d="M608.07,38.92h-329.08c-31.41,41.31-50.07,92.85-50.07,148.75,0,135.88,110.15,246.03,246.03,246.03,49.05,0,94.74-14.37,133.12-39.11V38.92Z"/>
      <path class="cls-5" d="M645.22,146.63c-14.62-59.54-56.17-107.37-107.32-139.31-11.57-7.23-28.23-8.97-41.22-5.39s-25.86,13.01-31.97,24.59c-6.56,12.42-9.85,27.46-5.39,41.22s12.41,24.37,24.59,31.97c6.57,4.1,12.94,8.49,19.1,13.19l-10.83-8.37c12.75,9.89,24.3,21.07,34.27,33.77-2.79-3.61-5.58-7.22-8.37-10.83,8.62,11.2,15.84,23.3,21.42,36.29-1.8-4.26-3.6-8.52-5.39-12.78,3.27,7.83,5.92,15.85,7.94,24.09,3.15,12.84,13.3,25.37,24.59,31.97s28.37,9.55,41.22,5.39c12.95-4.19,25.44-12.21,31.97-24.59,6.84-12.94,8.93-26.82,5.39-41.22h0Z"/>
      <path class="cls-5" d="M647.13,392c-2.98-27.86-2.5-55.85,0-83.73,1.16-12.93-6.8-28.96-15.67-37.83s-24.5-16.27-37.83-15.67-28.19,5.16-37.83,15.67l-8.37,10.83c-4.84,8.34-7.27,17.35-7.3,27-2.5,27.87-2.97,55.87,0,83.73-.28,7.37,1.26,14.24,4.61,20.61,2.16,6.63,5.84,12.37,11.06,17.22,9.28,9.28,24.5,16.27,37.83,15.67s28.19-5.16,37.83-15.67c9.01-9.81,17.15-23.99,15.67-37.83h0Z"/>
      <path class="cls-5" d="M195.33,99.58c2.31,1.57,4.59,3.19,6.82,4.88l-10.83-8.37c5.33,4.13,10.26,8.62,14.47,13.9l-8.37-10.83c2.28,3.01,4.22,6.15,5.79,9.59l-5.39-12.78c1.27,3.07,2.13,6.12,2.61,9.41l-1.91-14.22c.33,3.26.21,6.38-.19,9.64l1.91-14.22c-2.7,16.79-7.07,33.29-9.56,50.14-3.06,20.72-5.69,41.31-4.35,62.28,2.65,41.65,14.01,81.06,32.24,118.5,7.11,14.59,15.69,28.45,25.44,41.42,11.95,15.88,24.29,31.42,38.94,44.93,29.54,27.24,63.68,46.46,101.48,59.78,35.96,12.68,74.39,17.39,109.72,32.08-4.26-1.8-8.52-3.6-12.78-5.39,10.45,4.52,20.06,10.44,29.08,17.38l-10.83-8.37c21.37,16.83,38.19,38.36,56.09,58.64,8.74,9.9,24.97,15.67,37.83,15.67s28.8-5.83,37.83-15.67c9.36-10.2,16.31-23.58,15.67-37.83s-5.89-26.76-15.67-37.83c-10.63-12.04-20.84-24.48-31.86-36.17-13.29-14.1-28.22-26.86-44.4-37.55-16.75-11.07-36.04-18.06-55.11-24.02-15.97-4.98-32.2-9.01-48.42-13.12-18.02-4.56-35.84-9.35-53.01-16.55l12.78,5.39c-17.43-7.45-33.98-16.72-49.06-28.24l10.83,8.37c-16.18-12.57-30.32-27.33-42.89-43.48,2.79,3.61,5.58,7.22,8.37,10.83-13.26-17.26-24.34-35.92-32.93-55.92l5.39,12.78c-8.87-21.05-15.2-43.17-18.26-65.82.64,4.74,1.27,9.48,1.91,14.22-2.47-19.51-2.06-38.87.54-58.34l-1.91,14.22c1.6-11.48,3.74-22.87,6.04-34.24,1.2-5.92,2.65-11.8,3.75-17.74,2.93-15.84,3.08-24.99.39-40.7-5.18-30.29-30.13-52.7-54.18-69.05-11.02-7.49-28.74-8.83-41.22-5.39s-25.86,13.01-31.97,24.59c-6.56,12.42-9.85,27.46-5.39,41.22,4.46,13.78,12.57,23.8,24.59,31.97h0Z"/>
      <path class="cls-5" d="M117.28,80.48c5.58,7.24,9.18,15.63,13.92,23.4l-5.39-12.78.44,1.34-1.91-14.22c.47,8.64,1.83,16.35,5.17,24.27,1.88,4.45,3.84,8.86,5.73,13.31l-5.39-12.78c24.27,58.31,25.48,123.91,53.36,180.86l-5.39-12.78.44,1.34-1.91-14.22c.29,5.41.7,11.33,2.04,16.53s4.31,10.61,6.48,15.67c1.54,3.59,3.14,7.16,4.82,10.69,2.99,6.27,6.21,12.43,9.69,18.45,9.1,15.76,20.1,30.45,31.74,44.41,21.38,25.65,48.45,46.92,75.75,65.85,49.74,34.5,105.58,58.16,158.89,86.32,29.82,15.75,58.93,32.95,85.71,53.53-3.61-2.79-7.22-5.58-10.83-8.37,5.13,3.98,10.17,8.06,15.12,12.27,11,9.35,22.96,15.67,37.83,15.67,13.12,0,28.8-5.83,37.83-15.67s16.31-23.58,15.67-37.83c-.61-13.52-4.96-28.72-15.67-37.83-35.44-30.14-74.44-54.69-115.57-76.22-37.59-19.67-76.36-37.09-113.22-58.15-20.28-11.59-39.99-24.14-58.53-38.36l10.83,8.37c-19.66-15.23-38.11-32.15-53.43-51.8l8.37,10.83c-13.61-17.71-24.57-37.15-33.26-57.7l5.39,12.78-.44-1.34,1.91,14.22c-.47-8.64-1.83-16.35-5.17-24.27-1.81-4.28-3.77-8.46-5.61-12.72l5.39,12.78c-11.17-26.97-16.24-56.73-22.57-85.1-7.45-33.33-16.81-65.14-30.91-96.35l5.39,12.78-.44-1.34,1.91,14.22c-.59-10.98-2.71-20.86-7.87-30.66-1.42-2.7-3.08-5.28-4.52-7.98-2.86-5.35-5.69-10.61-9.4-15.42-3.36-6.23-7.96-11.24-13.78-15.01-5.17-4.73-11.23-7.92-18.19-9.58-12.81-3.53-29.86-1.93-41.22,5.39-11.42,7.36-21.48,18.33-24.59,31.97s-3.15,30.13,5.39,41.22h0Z"/>
      <path class="cls-4" d="M131.11,57.88c46.21,34.26,50.46,96.32,61.96,147.93,5.81,26.04,14.14,52.39,29.77,74.34,14.56,20.44,34.91,35.93,57.29,46.97,50.72,25.02,109.45,30.85,157.09,62.59,45.98,30.63,69.52,82.89,82.38,134.86,7.88,31.83,11.93,64.75,23.11,95.71,10.2,28.24,25.97,53.93,47.22,75.2,4.55,4.56,11.63-2.51,7.07-7.07-19.18-19.2-33.87-42.23-43.47-67.6-10.46-27.63-14.9-57.02-21.23-85.74-11.64-52.76-32.1-106.49-74.48-142.27-43.37-36.62-100.45-45.38-151.9-65.27-24.6-9.51-48.21-22.46-66.14-42.16-18.65-20.5-28.53-47.08-35.07-73.6-7.68-31.14-11.02-63.35-21.48-93.79-9.22-26.82-24.05-51.63-47.09-68.72-5.17-3.84-10.17,4.84-5.05,8.63h0Z"/>
      <g>
        <path class="cls-1" d="M262.41,412.1c-5.79,0-5.8,9,0,9s5.8-9,0-9Z"/>
        <path class="cls-1" d="M281.72,412.1c-5.79,0-5.8,9,0,9s5.8-9,0-9Z"/>
        <path class="cls-1" d="M304.39,412.1c-5.79,0-5.8,9,0,9s5.8-9,0-9Z"/>
        <path class="cls-1" d="M328.74,412.1c-5.79,0-5.8,9,0,9s5.8-9,0-9Z"/>
        <path class="cls-1" d="M353.08,412.1c-5.79,0-5.8,9,0,9s5.8-9,0-9Z"/>
        <path class="cls-1" d="M372.39,412.1c-5.79,0-5.8,9,0,9s5.8-9,0-9Z"/>
        <path class="cls-1" d="M261.82,430.01c-5.79,0-5.8,9,0,9s5.8-9,0-9Z"/>
        <path class="cls-1" d="M281.13,430.01c-5.79,0-5.8,9,0,9s5.8-9,0-9Z"/>
        <path class="cls-1" d="M303.8,430.01c-5.79,0-5.8,9,0,9s5.8-9,0-9Z"/>
        <path class="cls-1" d="M328.14,430.01c-5.79,0-5.8,9,0,9s5.8-9,0-9Z"/>
        <path class="cls-1" d="M352.49,430.01c-5.79,0-5.8,9,0,9s5.8-9,0-9Z"/>
        <path class="cls-1" d="M371.8,430.01c-5.79,0-5.8,9,0,9s5.8-9,0-9Z"/>
        <path class="cls-1" d="M262.41,446.3c-5.79,0-5.8,9,0,9s5.8-9,0-9Z"/>
        <path class="cls-1" d="M281.72,446.3c-5.79,0-5.8,9,0,9s5.8-9,0-9Z"/>
        <path class="cls-1" d="M304.39,446.3c-5.79,0-5.8,9,0,9s5.8-9,0-9Z"/>
        <path class="cls-1" d="M328.74,446.3c-5.79,0-5.8,9,0,9s5.8-9,0-9Z"/>
        <path class="cls-1" d="M353.08,446.3c-5.79,0-5.8,9,0,9s5.8-9,0-9Z"/>
        <path class="cls-1" d="M372.39,446.3c-5.79,0-5.8,9,0,9s5.8-9,0-9Z"/>
      </g>
      <polygon class="cls-3" points="80.05 168.47 38.49 168.47 17.72 204.45 38.49 240.44 80.05 240.44 100.82 204.45 80.05 168.47"/>
      <polygon class="cls-2" points="87.8 155.03 30.74 155.03 2.21 204.45 30.74 253.87 87.8 253.87 116.34 204.45 87.8 155.03"/>
      <circle class="cls-4" cx="474.95" cy="522.33" r="19.89"/>
    </g>
  </g>
</svg>