<?xml version="1.0" encoding="UTF-8"?>
<svg id="Layer_2" data-name="Layer 2" xmlns="http://www.w3.org/2000/svg" viewBox="0 0 576.88 246.59">
  <defs>
    <style>
      .cls-1 {
        fill: #64bcad;
      }

      .cls-2 {
        fill: #ffd040;
      }

      .cls-3 {
        fill: #fff;
      }

      .cls-4 {
        fill: #e0d3ad;
      }
    </style>
  </defs>
  <g id="top_mid_2" data-name="top mid 2">
    <g>
      <path class="cls-1" d="M0,0c40.53,50.26,154.35,86.47,288.44,86.47S536.36,50.26,576.88,0H0Z"/>
      <circle class="cls-2" cx="124.08" cy="93.67" r="51.92"/>
      <circle class="cls-4" cx="288.44" cy="231.36" r="15.23"/>
      <path class="cls-3" d="M331.64,69.05c8.14-11.03,21.29-17.8,35.05-17.5,6.5.14,12.99,1.81,18.75,4.81,6.54,3.4,11.11,8.78,16.69,13.41,15.75,13.05,51.12,10.19,48.59,38.24-1.2,13.34-9.66,25.63-17.99,35.64-8.51,10.23-19.47,21.63-32.85,24.88-6.13,1.49-13.05,1.13-18.55-2.18-5.77-3.47-8.74-9.59-10.48-15.86-3.04-10.98-2.88-22.54-7.81-33.02-2.26-4.81-5.62-9.27-10.22-12.06-5.83-3.54-12.29-2.66-18.59-4.46-6.96-1.99-10.24-9.02-9.79-15.89.52-8.09,5.85-15.03,10.97-20.91,2.53-2.9-1.7-7.16-4.24-4.24-8.44,9.68-16.31,22.29-11.01,35.45,2.26,5.61,6.63,9.74,12.48,11.37,7.24,2.02,14.89.68,20.56,6.63,9.84,10.34,8.34,26.61,12.07,39.43,3.81,13.12,13.52,22.55,27.72,22.56,15.05,0,27.6-10.07,37.57-20.34s20.49-23.9,24.61-38.54c3.57-12.69,1.21-26.1-10.04-34.01-10.54-7.41-24.24-7.81-35.17-14.42-7.15-4.33-12.11-11.39-19.36-15.69s-15-6.46-23.1-6.79c-16.29-.65-31.47,7.49-41.04,20.44-2.3,3.11,2.91,6.1,5.18,3.03h0Z"/>
    </g>
  </g>
</svg>