<?xml version="1.0" encoding="UTF-8"?>
<svg id="Layer_2" data-name="Layer 2" xmlns="http://www.w3.org/2000/svg" viewBox="0 0 514.72 565.55">
  <defs>
    <style>
      .cls-1 {
        stroke-width: 5px;
      }

      .cls-1, .cls-2 {
        stroke: #fff;
      }

      .cls-1, .cls-2, .cls-3 {
        fill: none;
        stroke-miterlimit: 10;
      }

      .cls-2 {
        stroke-width: 10.14px;
      }

      .cls-4 {
        fill: #ffd040;
      }

      .cls-3 {
        stroke: #e0d3ad;
        stroke-width: 4px;
      }

      .cls-5 {
        fill: #fff;
      }

      .cls-6 {
        fill: #f2ad6e;
      }
    </style>
  </defs>
  <g id="top_left_2" data-name="top left 2">
    <g>
      <path class="cls-4" d="M0,33.88v497.43c73.67-25.72,128.69-127.31,128.69-248.72S73.67,59.61,0,33.88Z"/>
      <path class="cls-6" d="M355.35,0H0v328.14c30.83-20.96,82.07-38.05,164.63-45.54C352.08,265.61,369.68,114.28,355.35,0Z"/>
      <circle class="cls-2" cx="321.35" cy="206.06" r="40.53"/>
      <polygon class="cls-1" points="112.02 367.59 78.68 367.59 62.02 396.46 78.68 425.33 112.02 425.33 128.69 396.46 112.02 367.59"/>
      <polygon class="cls-3" points="124.05 444.51 107.43 444.51 99.12 458.91 107.43 473.3 124.05 473.3 132.36 458.91 124.05 444.51"/>
      <path class="cls-5" d="M5.74,565.12c62.98,4.97,121.16-34.41,150.94-88.1,15.76-28.41,24.6-60.19,29.15-92.22,2.13-14.97,2.67-31.13,9.57-44.89s18.94-20.81,33.2-23.69c29.09-5.88,59.09,3,88.44-.49,27.63-3.29,54.2-13.82,76.81-30,21.82-15.62,40.36-36.34,51.97-60.65,5.57-11.66,9.61-24.04,11.53-36.83,2.1-14.03.87-27.81.45-41.9-.43-14.63.63-30.38,12.1-40.92,10.84-9.97,26.12-13.7,35.48-25.56,14.17-17.97,11.66-45.11-3.63-61.6-3.92-4.23-8.69-7.6-13.9-10.04-4.64-2.17-8.7,4.73-4.04,6.91,20.62,9.64,29.67,36.76,17.58,56.53-7.55,12.34-22.33,16.61-33.37,24.98s-16.32,20.36-17.79,33.87c-1.54,14.19.85,28.41.48,42.62-.33,12.88-2.99,25.58-7.46,37.65-9.14,24.68-26,46.16-46.35,62.64-21.19,17.15-46.85,28.9-73.74,33.42-28.33,4.76-56.59-2.28-84.98.06-12.8,1.06-25.63,4.23-35.94,12.24-11.14,8.65-17,21.41-19.92,34.93-3.21,14.85-4.08,30.13-6.94,45.06-2.99,15.61-7.11,31.04-12.72,45.92-11.05,29.31-28.38,56.39-52.47,76.64s-52.04,32.73-82.15,35.38c-7.42.65-14.86.64-22.29.06-5.13-.4-5.11,7.6,0,8h0Z"/>
    </g>
  </g>
</svg>