<svg width="623" height="459" viewBox="0 0 623 459" fill="none" xmlns="http://www.w3.org/2000/svg">
<rect width="580" height="206" rx="20" fill="#64BCAD"/>
<path d="M269.598 122C269.086 120.891 268.745 119.653 268.574 118.288C268.446 116.88 268.339 115.472 268.254 114.064C268.169 112.613 267.955 111.291 267.614 110.096C267.273 108.901 266.654 107.941 265.758 107.216C264.862 106.491 263.539 106.128 261.79 106.128H251.806V100.816H266.974C269.747 100.816 271.945 101.115 273.566 101.712C275.187 102.309 276.382 103.141 277.15 104.208C277.918 105.275 278.43 106.512 278.686 107.92C278.985 109.328 279.198 110.821 279.326 112.4C279.454 113.979 279.646 115.6 279.902 117.264C280.158 118.885 280.67 120.464 281.438 122H269.598ZM243.038 122V78.48H253.47V122H243.038ZM249.374 103.44V97.552H261.726C264.627 97.552 266.697 97.1253 267.934 96.272C269.214 95.4187 269.854 94.1387 269.854 92.432C269.854 90.768 269.235 89.5307 267.998 88.72C266.803 87.8667 264.713 87.44 261.726 87.44H249.374V78.48H262.366C268.467 78.48 273.075 79.6107 276.19 81.872C279.305 84.1333 280.862 87.3547 280.862 91.536C280.862 94.3947 280.137 96.6987 278.686 98.448C277.235 100.155 275.123 101.413 272.35 102.224C269.619 103.035 266.291 103.44 262.366 103.44H249.374ZM301.894 122.768C296.219 122.768 291.888 121.36 288.902 118.544C285.915 115.728 284.422 111.76 284.422 106.64C284.422 103.099 285.126 100.027 286.534 97.424C287.942 94.8213 289.926 92.816 292.486 91.408C295.088 89.9573 298.118 89.232 301.574 89.232C304.688 89.232 307.312 89.7653 309.446 90.832C311.579 91.856 313.2 93.2213 314.31 94.928C315.419 96.6347 315.974 98.4907 315.974 100.496C315.974 102.416 315.483 104.016 314.502 105.296C313.563 106.576 312.262 107.557 310.598 108.24C308.934 108.923 307.035 109.349 304.902 109.52C302.811 109.648 300.592 109.563 298.246 109.264C295.899 108.965 293.574 108.475 291.27 107.792V102.032C293.488 102.587 295.494 102.971 297.286 103.184C299.12 103.397 300.699 103.419 302.022 103.248C303.387 103.077 304.432 102.715 305.158 102.16C305.883 101.605 306.246 100.859 306.246 99.92C306.246 98.896 305.819 98.0213 304.966 97.296C304.155 96.5707 302.982 96.208 301.446 96.208C300.08 96.208 298.843 96.5707 297.734 97.296C296.667 97.9787 295.814 99.0667 295.174 100.56C294.534 102.011 294.214 103.888 294.214 106.192C294.214 108.325 294.534 110.096 295.174 111.504C295.814 112.912 296.795 113.957 298.118 114.64C299.44 115.28 301.211 115.6 303.43 115.6C305.435 115.6 307.376 115.387 309.254 114.96C311.174 114.491 313.008 113.829 314.757 112.976V119.632C313.222 120.528 311.344 121.275 309.126 121.872C306.95 122.469 304.539 122.768 301.894 122.768ZM321.151 134.8V90H330.751V134.8H321.151ZM329.407 97.296C330.388 94.6933 331.839 92.7093 333.759 91.344C335.722 89.936 338.004 89.232 340.607 89.232C343.21 89.232 345.535 89.9147 347.583 91.28C349.674 92.6027 351.316 94.5013 352.511 96.976C353.748 99.4507 354.367 102.437 354.367 105.936C354.367 109.307 353.77 112.272 352.575 114.832C351.38 117.349 349.716 119.312 347.583 120.72C345.45 122.085 342.975 122.768 340.159 122.768C337.514 122.768 335.295 122.128 333.503 120.848C331.754 119.568 330.538 117.819 329.855 115.6L330.751 107.792C330.751 109.115 331.028 110.309 331.583 111.376C332.138 112.4 332.884 113.211 333.823 113.808C334.804 114.363 335.914 114.64 337.151 114.64C338.559 114.64 339.775 114.277 340.799 113.552C341.866 112.827 342.698 111.824 343.295 110.544C343.892 109.264 344.191 107.771 344.191 106.064C344.191 104.357 343.892 102.885 343.295 101.648C342.74 100.411 341.93 99.4507 340.863 98.768C339.796 98.0853 338.559 97.744 337.151 97.744C335.274 97.744 333.738 98.384 332.543 99.664C331.348 100.901 330.751 102.565 330.751 104.656L329.407 97.296ZM375.831 122.768C370.156 122.768 365.826 121.36 362.839 118.544C359.852 115.728 358.359 111.76 358.359 106.64C358.359 103.099 359.063 100.027 360.471 97.424C361.879 94.8213 363.863 92.816 366.423 91.408C369.026 89.9573 372.055 89.232 375.511 89.232C378.626 89.232 381.25 89.7653 383.383 90.832C385.516 91.856 387.138 93.2213 388.247 94.928C389.356 96.6347 389.911 98.4907 389.911 100.496C389.911 102.416 389.42 104.016 388.439 105.296C387.5 106.576 386.199 107.557 384.535 108.24C382.871 108.923 380.972 109.349 378.839 109.52C376.748 109.648 374.53 109.563 372.183 109.264C369.836 108.965 367.511 108.475 365.207 107.792V102.032C367.426 102.587 369.431 102.971 371.223 103.184C373.058 103.397 374.636 103.419 375.959 103.248C377.324 103.077 378.37 102.715 379.095 102.16C379.82 101.605 380.183 100.859 380.183 99.92C380.183 98.896 379.756 98.0213 378.903 97.296C378.092 96.5707 376.919 96.208 375.383 96.208C374.018 96.208 372.78 96.5707 371.671 97.296C370.604 97.9787 369.751 99.0667 369.111 100.56C368.471 102.011 368.151 103.888 368.151 106.192C368.151 108.325 368.471 110.096 369.111 111.504C369.751 112.912 370.732 113.957 372.055 114.64C373.378 115.28 375.148 115.6 377.367 115.6C379.372 115.6 381.314 115.387 383.191 114.96C385.111 114.491 386.946 113.829 388.695 112.976V119.632C387.159 120.528 385.282 121.275 383.063 121.872C380.887 122.469 378.476 122.768 375.831 122.768ZM415.06 121.424C414.036 121.808 412.926 122.128 411.732 122.384C410.537 122.64 409.3 122.768 408.02 122.768C404.649 122.768 402.089 121.808 400.34 119.888C398.59 117.968 397.716 115.28 397.716 111.824V98.512H396.372C395.22 98.512 394.217 98.1707 393.364 97.488C392.553 96.7627 392.148 95.7387 392.148 94.416C392.148 93.264 392.468 92.304 393.108 91.536C393.748 90.7253 394.686 90.0427 395.924 89.488L407.316 83.984V90H416.34V98.512H407.316V110.096C407.316 111.675 407.657 112.784 408.34 113.424C409.022 114.064 409.982 114.384 411.22 114.384C411.86 114.384 412.5 114.32 413.14 114.192C413.78 114.064 414.42 113.893 415.06 113.68V121.424ZM421.151 122V89.808C424.351 90.576 427.551 90.576 430.751 89.808V122H421.151ZM425.951 86.16C424.074 86.16 422.666 85.712 421.727 84.816C420.788 83.8773 420.319 82.6613 420.319 81.168C420.319 79.7173 420.788 78.544 421.727 77.648C422.666 76.7093 424.074 76.24 425.951 76.24C427.786 76.24 429.172 76.7093 430.111 77.648C431.092 78.544 431.583 79.7173 431.583 81.168C431.583 82.6613 431.092 83.8773 430.111 84.816C429.172 85.712 427.786 86.16 425.951 86.16ZM457.685 121.424C456.661 121.808 455.551 122.128 454.357 122.384C453.162 122.64 451.925 122.768 450.645 122.768C447.274 122.768 444.714 121.808 442.965 119.888C441.215 117.968 440.341 115.28 440.341 111.824V98.512H438.997C437.845 98.512 436.842 98.1707 435.989 97.488C435.178 96.7627 434.773 95.7387 434.773 94.416C434.773 93.264 435.093 92.304 435.733 91.536C436.373 90.7253 437.311 90.0427 438.549 89.488L449.941 83.984V90H458.965V98.512H449.941V110.096C449.941 111.675 450.282 112.784 450.965 113.424C451.647 114.064 452.607 114.384 453.845 114.384C454.485 114.384 455.125 114.32 455.765 114.192C456.405 114.064 457.045 113.893 457.685 113.68V121.424ZM463.776 122V89.808C466.976 90.576 470.176 90.576 473.376 89.808V122H463.776ZM468.576 86.16C466.699 86.16 465.291 85.712 464.352 84.816C463.413 83.8773 462.944 82.6613 462.944 81.168C462.944 79.7173 463.413 78.544 464.352 77.648C465.291 76.7093 466.699 76.24 468.576 76.24C470.411 76.24 471.797 76.7093 472.736 77.648C473.717 78.544 474.208 79.7173 474.208 81.168C474.208 82.6613 473.717 83.8773 472.736 84.816C471.797 85.712 470.411 86.16 468.576 86.16ZM489.561 122L476.889 90H487.833L498.009 122H489.561ZM500.249 122H492.505L502.169 90H512.921L500.249 122ZM530.519 122.768C524.844 122.768 520.513 121.36 517.527 118.544C514.54 115.728 513.047 111.76 513.047 106.64C513.047 103.099 513.751 100.027 515.159 97.424C516.567 94.8213 518.551 92.816 521.111 91.408C523.713 89.9573 526.743 89.232 530.199 89.232C533.313 89.232 535.937 89.7653 538.071 90.832C540.204 91.856 541.825 93.2213 542.935 94.928C544.044 96.6347 544.599 98.4907 544.599 100.496C544.599 102.416 544.108 104.016 543.127 105.296C542.188 106.576 540.887 107.557 539.223 108.24C537.559 108.923 535.66 109.349 533.527 109.52C531.436 109.648 529.217 109.563 526.871 109.264C524.524 108.965 522.199 108.475 519.895 107.792V102.032C522.113 102.587 524.119 102.971 525.911 103.184C527.745 103.397 529.324 103.419 530.647 103.248C532.012 103.077 533.057 102.715 533.783 102.16C534.508 101.605 534.871 100.859 534.871 99.92C534.871 98.896 534.444 98.0213 533.591 97.296C532.78 96.5707 531.607 96.208 530.071 96.208C528.705 96.208 527.468 96.5707 526.359 97.296C525.292 97.9787 524.439 99.0667 523.799 100.56C523.159 102.011 522.839 103.888 522.839 106.192C522.839 108.325 523.159 110.096 523.799 111.504C524.439 112.912 525.42 113.957 526.743 114.64C528.065 115.28 529.836 115.6 532.055 115.6C534.06 115.6 536.001 115.387 537.879 114.96C539.799 114.491 541.633 113.829 543.382 112.976V119.632C541.847 120.528 539.969 121.275 537.751 121.872C535.575 122.469 533.164 122.768 530.519 122.768Z" fill="white"/>
<path d="M43.64 87.784C43.272 87.944 42.88 88.064 42.464 88.144C42.048 88.24 41.608 88.288 41.144 88.288C39.96 88.288 39.056 87.952 38.432 87.28C37.808 86.608 37.496 85.624 37.496 84.328V78.736H36.824C36.424 78.736 36.096 78.624 35.84 78.4C35.584 78.176 35.456 77.856 35.456 77.44C35.456 77.072 35.56 76.76 35.768 76.504C35.976 76.248 36.28 76.016 36.68 75.808L40.568 73.792V76H44.12V78.736H40.568V83.824C40.568 84.464 40.696 84.92 40.952 85.192C41.224 85.448 41.608 85.576 42.104 85.576C42.36 85.576 42.608 85.552 42.848 85.504C43.104 85.44 43.368 85.36 43.64 85.264V87.784ZM46.1008 88V76H49.1728V88H46.1008ZM49.1728 82.192L48.7648 78.808C49.0848 77.8 49.5328 77.032 50.1088 76.504C50.6848 75.976 51.3328 75.712 52.0528 75.712C52.4208 75.712 52.7488 75.784 53.0368 75.928C53.3408 76.072 53.5808 76.288 53.7568 76.576C53.9488 76.848 54.0448 77.2 54.0448 77.632C54.0448 78.192 53.9008 78.616 53.6128 78.904C53.3408 79.176 52.9888 79.312 52.5568 79.312C52.2688 79.312 52.0128 79.272 51.7888 79.192C51.5808 79.096 51.3568 79.048 51.1168 79.048C50.5408 79.048 50.0688 79.328 49.7008 79.888C49.3488 80.448 49.1728 81.216 49.1728 82.192ZM66.1284 88H63.0084C62.8964 87.76 62.8084 87.424 62.7444 86.992C62.6964 86.544 62.6644 86.04 62.6484 85.48L62.5044 84.856V79.816C62.5044 79.224 62.3204 78.816 61.9524 78.592C61.6004 78.368 61.1204 78.256 60.5124 78.256C59.9204 78.256 59.4324 78.328 59.0484 78.472C58.6644 78.616 58.3444 78.784 58.0884 78.976C57.8324 79.168 57.5844 79.336 57.3444 79.48C57.1204 79.624 56.8564 79.696 56.5524 79.696C56.1684 79.696 55.8564 79.592 55.6164 79.384C55.3764 79.16 55.2564 78.864 55.2564 78.496C55.2564 78.224 55.3204 77.96 55.4484 77.704C55.5764 77.448 55.8004 77.2 56.1204 76.96C57.0964 76.128 58.5524 75.712 60.4884 75.712C61.5924 75.712 62.5204 75.856 63.2724 76.144C64.0244 76.432 64.6004 76.904 65.0004 77.56C65.4004 78.216 65.6004 79.096 65.6004 80.2V84.232C65.6004 85.064 65.6484 85.8 65.7444 86.44C65.8404 87.064 65.9684 87.584 66.1284 88ZM58.7124 88.288C57.5604 88.288 56.6404 87.976 55.9524 87.352C55.2644 86.728 54.9204 85.88 54.9204 84.808C54.9204 83.848 55.2244 83.088 55.8324 82.528C56.4564 81.952 57.3844 81.56 58.6164 81.352L60.9684 80.968C61.5924 80.84 62.0004 80.704 62.1924 80.56C62.4004 80.416 62.5044 80.184 62.5044 79.864V82.12C62.4244 82.216 62.2884 82.312 62.0964 82.408C61.9044 82.488 61.6164 82.568 61.2324 82.648L59.8404 82.936C59.3444 83.032 58.9444 83.2 58.6404 83.44C58.3364 83.68 58.1844 84.04 58.1844 84.52C58.1844 85 58.3364 85.376 58.6404 85.648C58.9604 85.92 59.3764 86.056 59.8884 86.056C60.3684 86.056 60.8004 85.944 61.1844 85.72C61.5844 85.48 61.9044 85.152 62.1444 84.736C62.3844 84.304 62.5044 83.8 62.5044 83.224L62.9604 85.384C62.5924 86.376 62.0324 87.112 61.2804 87.592C60.5284 88.056 59.6724 88.288 58.7124 88.288ZM79.8127 70.72V88H76.7167V70.72H79.8127ZM77.2447 85.192C76.8767 86.168 76.3167 86.928 75.5647 87.472C74.8287 88.016 73.9487 88.288 72.9247 88.288C71.9327 88.288 71.0367 88.04 70.2367 87.544C69.4527 87.032 68.8287 86.312 68.3647 85.384C67.9007 84.44 67.6687 83.32 67.6687 82.024C67.6687 80.744 67.8927 79.64 68.3407 78.712C68.8047 77.768 69.4367 77.032 70.2367 76.504C71.0527 75.976 71.9967 75.712 73.0687 75.712C74.0927 75.712 74.9487 75.96 75.6367 76.456C76.3247 76.936 76.7967 77.608 77.0527 78.472L76.7167 81.232C76.7167 80.672 76.5967 80.176 76.3567 79.744C76.1167 79.312 75.7887 78.976 75.3727 78.736C74.9727 78.48 74.5007 78.352 73.9567 78.352C73.3647 78.352 72.8367 78.504 72.3727 78.808C71.9247 79.112 71.5727 79.536 71.3167 80.08C71.0767 80.624 70.9567 81.256 70.9567 81.976C70.9567 82.696 71.0767 83.328 71.3167 83.872C71.5727 84.4 71.9247 84.808 72.3727 85.096C72.8367 85.384 73.3727 85.528 73.9807 85.528C74.7967 85.528 75.4527 85.264 75.9487 84.736C76.4607 84.208 76.7167 83.512 76.7167 82.648L77.2447 85.192ZM83.0148 88V75.928C84.0388 76.168 85.0628 76.168 86.0868 75.928V88H83.0148ZM84.5508 74.296C83.9428 74.296 83.4788 74.144 83.1588 73.84C82.8548 73.536 82.7028 73.136 82.7028 72.64C82.7028 72.144 82.8548 71.744 83.1588 71.44C83.4788 71.12 83.9428 70.96 84.5508 70.96C85.1748 70.96 85.6388 71.12 85.9428 71.44C86.2628 71.744 86.4228 72.144 86.4228 72.64C86.4228 73.136 86.2628 73.536 85.9428 73.84C85.6388 74.144 85.1748 74.296 84.5508 74.296ZM96.0697 87.784C95.7017 87.944 95.3097 88.064 94.8937 88.144C94.4777 88.24 94.0377 88.288 93.5737 88.288C92.3897 88.288 91.4857 87.952 90.8617 87.28C90.2377 86.608 89.9257 85.624 89.9257 84.328V78.736H89.2537C88.8537 78.736 88.5257 78.624 88.2697 78.4C88.0137 78.176 87.8857 77.856 87.8857 77.44C87.8857 77.072 87.9897 76.76 88.1977 76.504C88.4057 76.248 88.7097 76.016 89.1097 75.808L92.9977 73.792V76H96.5497V78.736H92.9977V83.824C92.9977 84.464 93.1257 84.92 93.3817 85.192C93.6537 85.448 94.0377 85.576 94.5337 85.576C94.7897 85.576 95.0377 85.552 95.2777 85.504C95.5337 85.44 95.7977 85.36 96.0697 85.264V87.784ZM98.5304 88V75.928C99.5544 76.168 100.578 76.168 101.602 75.928V88H98.5304ZM100.066 74.296C99.4584 74.296 98.9944 74.144 98.6744 73.84C98.3704 73.536 98.2184 73.136 98.2184 72.64C98.2184 72.144 98.3704 71.744 98.6744 71.44C98.9944 71.12 99.4584 70.96 100.066 70.96C100.69 70.96 101.154 71.12 101.458 71.44C101.778 71.744 101.938 72.144 101.938 72.64C101.938 73.136 101.778 73.536 101.458 73.84C101.154 74.144 100.69 74.296 100.066 74.296ZM103.716 82.096C103.716 80.816 103.972 79.704 104.484 78.76C104.996 77.8 105.724 77.056 106.668 76.528C107.612 75.984 108.732 75.712 110.028 75.712C111.26 75.712 112.34 75.968 113.268 76.48C114.196 76.976 114.916 77.688 115.428 78.616C115.956 79.528 116.22 80.632 116.22 81.928C116.22 83.192 115.964 84.304 115.452 85.264C114.956 86.208 114.236 86.952 113.292 87.496C112.348 88.024 111.236 88.288 109.956 88.288C108.724 88.288 107.636 88.04 106.692 87.544C105.764 87.032 105.036 86.312 104.508 85.384C103.98 84.456 103.716 83.36 103.716 82.096ZM106.956 82.048C106.956 82.8 107.084 83.448 107.34 83.992C107.596 84.52 107.948 84.928 108.396 85.216C108.86 85.488 109.372 85.624 109.932 85.624C110.508 85.624 111.028 85.48 111.492 85.192C111.956 84.888 112.316 84.464 112.572 83.92C112.844 83.36 112.98 82.704 112.98 81.952C112.98 81.2 112.852 80.56 112.596 80.032C112.34 79.488 111.988 79.08 111.54 78.808C111.108 78.52 110.604 78.376 110.028 78.376C109.436 78.376 108.908 78.528 108.444 78.832C107.996 79.12 107.636 79.536 107.364 80.08C107.092 80.624 106.956 81.28 106.956 82.048ZM126.495 88V81.328C126.495 80.688 126.391 80.176 126.183 79.792C125.975 79.392 125.687 79.096 125.319 78.904C124.967 78.712 124.575 78.616 124.143 78.616C123.679 78.616 123.239 78.72 122.823 78.928C122.407 79.136 122.071 79.456 121.815 79.888C121.559 80.304 121.431 80.84 121.431 81.496L120.903 78.808C121.159 78.104 121.503 77.528 121.935 77.08C122.383 76.616 122.887 76.272 123.447 76.048C124.023 75.824 124.615 75.712 125.223 75.712C125.991 75.712 126.703 75.888 127.359 76.24C128.031 76.592 128.567 77.144 128.967 77.896C129.367 78.648 129.567 79.632 129.567 80.848V88H126.495ZM118.359 88V76H121.431V88H118.359ZM142.839 88H139.719C139.607 87.76 139.519 87.424 139.455 86.992C139.407 86.544 139.375 86.04 139.359 85.48L139.215 84.856V79.816C139.215 79.224 139.031 78.816 138.663 78.592C138.311 78.368 137.831 78.256 137.223 78.256C136.631 78.256 136.143 78.328 135.759 78.472C135.375 78.616 135.055 78.784 134.799 78.976C134.543 79.168 134.295 79.336 134.055 79.48C133.831 79.624 133.567 79.696 133.263 79.696C132.879 79.696 132.567 79.592 132.327 79.384C132.087 79.16 131.967 78.864 131.967 78.496C131.967 78.224 132.031 77.96 132.159 77.704C132.287 77.448 132.511 77.2 132.831 76.96C133.807 76.128 135.263 75.712 137.199 75.712C138.303 75.712 139.231 75.856 139.983 76.144C140.735 76.432 141.311 76.904 141.711 77.56C142.111 78.216 142.311 79.096 142.311 80.2V84.232C142.311 85.064 142.359 85.8 142.455 86.44C142.551 87.064 142.679 87.584 142.839 88ZM135.423 88.288C134.271 88.288 133.351 87.976 132.663 87.352C131.975 86.728 131.631 85.88 131.631 84.808C131.631 83.848 131.935 83.088 132.543 82.528C133.167 81.952 134.095 81.56 135.327 81.352L137.679 80.968C138.303 80.84 138.711 80.704 138.903 80.56C139.111 80.416 139.215 80.184 139.215 79.864V82.12C139.135 82.216 138.999 82.312 138.807 82.408C138.615 82.488 138.327 82.568 137.943 82.648L136.551 82.936C136.055 83.032 135.655 83.2 135.351 83.44C135.047 83.68 134.895 84.04 134.895 84.52C134.895 85 135.047 85.376 135.351 85.648C135.671 85.92 136.087 86.056 136.599 86.056C137.079 86.056 137.511 85.944 137.895 85.72C138.295 85.48 138.615 85.152 138.855 84.736C139.095 84.304 139.215 83.8 139.215 83.224L139.671 85.384C139.303 86.376 138.743 87.112 137.991 87.592C137.239 88.056 136.383 88.288 135.423 88.288ZM148.149 70.72V84.064C148.149 84.624 148.229 85.008 148.389 85.216C148.565 85.424 148.845 85.528 149.229 85.528C149.389 85.528 149.541 85.52 149.685 85.504C149.845 85.472 150.013 85.432 150.189 85.384V87.856C149.565 88.144 148.893 88.288 148.173 88.288C147.053 88.288 146.253 87.96 145.773 87.304C145.309 86.632 145.077 85.744 145.077 84.64V70.72H148.149ZM42.512 116.288C40.672 116.288 39.232 115.768 38.192 114.728C37.152 113.672 36.632 112.232 36.632 110.408L39.704 110.576C39.704 111.488 39.96 112.232 40.472 112.808C41 113.368 41.68 113.648 42.512 113.648C43.424 113.648 44.144 113.32 44.672 112.664C45.216 112.008 45.488 111.128 45.488 110.024C45.488 109.288 45.36 108.656 45.104 108.128C44.848 107.6 44.496 107.192 44.048 106.904C43.6 106.616 43.072 106.472 42.464 106.472C41.648 106.472 40.984 106.736 40.472 107.264C39.96 107.792 39.704 108.488 39.704 109.352L39.176 106.808C39.56 105.816 40.12 105.056 40.856 104.528C41.608 103.984 42.496 103.712 43.52 103.712C44.512 103.712 45.4 103.968 46.184 104.48C46.984 104.976 47.608 105.68 48.056 106.592C48.52 107.504 48.752 108.592 48.752 109.856C48.752 111.12 48.504 112.24 48.008 113.216C47.528 114.176 46.824 114.928 45.896 115.472C44.968 116.016 43.84 116.288 42.512 116.288ZM39.704 111.584L36.632 110.408V98.72H39.704V111.584ZM50.489 110.096C50.489 108.816 50.745 107.704 51.257 106.76C51.769 105.8 52.497 105.056 53.441 104.528C54.385 103.984 55.505 103.712 56.801 103.712C58.033 103.712 59.113 103.968 60.041 104.48C60.969 104.976 61.689 105.688 62.201 106.616C62.729 107.528 62.993 108.632 62.993 109.928C62.993 111.192 62.737 112.304 62.225 113.264C61.729 114.208 61.009 114.952 60.065 115.496C59.121 116.024 58.009 116.288 56.729 116.288C55.497 116.288 54.409 116.04 53.465 115.544C52.537 115.032 51.809 114.312 51.281 113.384C50.753 112.456 50.489 111.36 50.489 110.096ZM53.729 110.048C53.729 110.8 53.857 111.448 54.113 111.992C54.369 112.52 54.721 112.928 55.169 113.216C55.633 113.488 56.145 113.624 56.705 113.624C57.281 113.624 57.801 113.48 58.265 113.192C58.729 112.888 59.089 112.464 59.345 111.92C59.617 111.36 59.753 110.704 59.753 109.952C59.753 109.2 59.625 108.56 59.369 108.032C59.113 107.488 58.761 107.08 58.313 106.808C57.881 106.52 57.377 106.376 56.801 106.376C56.209 106.376 55.681 106.528 55.217 106.832C54.769 107.12 54.409 107.536 54.137 108.08C53.865 108.624 53.729 109.28 53.729 110.048ZM75.6674 116H72.5474C72.4354 115.76 72.3474 115.424 72.2834 114.992C72.2354 114.544 72.2034 114.04 72.1874 113.48L72.0434 112.856V107.816C72.0434 107.224 71.8594 106.816 71.4914 106.592C71.1394 106.368 70.6594 106.256 70.0514 106.256C69.4594 106.256 68.9714 106.328 68.5874 106.472C68.2034 106.616 67.8834 106.784 67.6274 106.976C67.3714 107.168 67.1234 107.336 66.8834 107.48C66.6594 107.624 66.3954 107.696 66.0914 107.696C65.7074 107.696 65.3954 107.592 65.1554 107.384C64.9154 107.16 64.7954 106.864 64.7954 106.496C64.7954 106.224 64.8594 105.96 64.9874 105.704C65.1154 105.448 65.3394 105.2 65.6594 104.96C66.6354 104.128 68.0914 103.712 70.0274 103.712C71.1314 103.712 72.0594 103.856 72.8114 104.144C73.5634 104.432 74.1394 104.904 74.5394 105.56C74.9394 106.216 75.1394 107.096 75.1394 108.2V112.232C75.1394 113.064 75.1874 113.8 75.2834 114.44C75.3794 115.064 75.5074 115.584 75.6674 116ZM68.2514 116.288C67.0994 116.288 66.1794 115.976 65.4914 115.352C64.8034 114.728 64.4594 113.88 64.4594 112.808C64.4594 111.848 64.7634 111.088 65.3714 110.528C65.9954 109.952 66.9234 109.56 68.1554 109.352L70.5074 108.968C71.1314 108.84 71.5394 108.704 71.7314 108.56C71.9394 108.416 72.0434 108.184 72.0434 107.864V110.12C71.9634 110.216 71.8274 110.312 71.6354 110.408C71.4434 110.488 71.1554 110.568 70.7714 110.648L69.3794 110.936C68.8834 111.032 68.4834 111.2 68.1794 111.44C67.8754 111.68 67.7234 112.04 67.7234 112.52C67.7234 113 67.8754 113.376 68.1794 113.648C68.4994 113.92 68.9154 114.056 69.4274 114.056C69.9074 114.056 70.3394 113.944 70.7234 113.72C71.1234 113.48 71.4434 113.152 71.6834 112.736C71.9234 112.304 72.0434 111.8 72.0434 111.224L72.4994 113.384C72.1314 114.376 71.5714 115.112 70.8194 115.592C70.0674 116.056 69.2114 116.288 68.2514 116.288ZM77.9992 116V104H81.0712V116H77.9992ZM81.0712 110.192L80.6632 106.808C80.9832 105.8 81.4312 105.032 82.0072 104.504C82.5832 103.976 83.2312 103.712 83.9512 103.712C84.3192 103.712 84.6472 103.784 84.9352 103.928C85.2392 104.072 85.4792 104.288 85.6552 104.576C85.8472 104.848 85.9432 105.2 85.9432 105.632C85.9432 106.192 85.7992 106.616 85.5112 106.904C85.2392 107.176 84.8872 107.312 84.4552 107.312C84.1672 107.312 83.9112 107.272 83.6872 107.192C83.4792 107.096 83.2552 107.048 83.0152 107.048C82.4392 107.048 81.9672 107.328 81.5992 107.888C81.2472 108.448 81.0712 109.216 81.0712 110.192ZM98.6564 98.72V116H95.5604V98.72H98.6564ZM96.0884 113.192C95.7204 114.168 95.1604 114.928 94.4084 115.472C93.6724 116.016 92.7924 116.288 91.7684 116.288C90.7764 116.288 89.8804 116.04 89.0804 115.544C88.2964 115.032 87.6724 114.312 87.2084 113.384C86.7444 112.44 86.5124 111.32 86.5124 110.024C86.5124 108.744 86.7364 107.64 87.1844 106.712C87.6484 105.768 88.2804 105.032 89.0804 104.504C89.8964 103.976 90.8404 103.712 91.9124 103.712C92.9364 103.712 93.7924 103.96 94.4804 104.456C95.1684 104.936 95.6404 105.608 95.8964 106.472L95.5604 109.232C95.5604 108.672 95.4404 108.176 95.2004 107.744C94.9604 107.312 94.6324 106.976 94.2164 106.736C93.8164 106.48 93.3444 106.352 92.8004 106.352C92.2084 106.352 91.6804 106.504 91.2164 106.808C90.7684 107.112 90.4164 107.536 90.1604 108.08C89.9204 108.624 89.8004 109.256 89.8004 109.976C89.8004 110.696 89.9204 111.328 90.1604 111.872C90.4164 112.4 90.7684 112.808 91.2164 113.096C91.6804 113.384 92.2164 113.528 92.8244 113.528C93.6404 113.528 94.2964 113.264 94.7924 112.736C95.3044 112.208 95.5604 111.512 95.5604 110.648L96.0884 113.192ZM106.901 121.088C105.829 121.088 104.917 121.008 104.165 120.848C103.429 120.688 102.845 120.48 102.413 120.224C102.109 120.048 101.877 119.848 101.717 119.624C101.557 119.416 101.477 119.168 101.477 118.88C101.477 118.56 101.581 118.304 101.789 118.112C101.997 117.92 102.285 117.824 102.653 117.824C102.941 117.824 103.221 117.872 103.493 117.968C103.765 118.064 104.069 118.184 104.405 118.328C104.741 118.472 105.141 118.592 105.605 118.688C106.085 118.8 106.661 118.856 107.333 118.856C108.245 118.856 108.973 118.728 109.517 118.472C110.061 118.216 110.333 117.808 110.333 117.248C110.333 116.896 110.189 116.608 109.901 116.384C109.613 116.16 109.053 116.048 108.221 116.048H104.957C104.045 116.048 103.301 115.944 102.725 115.736C102.165 115.512 101.757 115.208 101.501 114.824C101.245 114.424 101.117 113.976 101.117 113.48C101.117 112.728 101.381 112.112 101.909 111.632C102.437 111.136 103.157 110.84 104.069 110.744L106.733 111.44C105.997 111.44 105.429 111.496 105.029 111.608C104.629 111.704 104.349 111.84 104.189 112.016C104.045 112.176 103.973 112.352 103.973 112.544C103.973 112.816 104.093 113.016 104.333 113.144C104.573 113.256 104.973 113.312 105.533 113.312H108.749C110.221 113.312 111.365 113.592 112.181 114.152C113.013 114.712 113.429 115.624 113.429 116.888C113.429 118.264 112.901 119.304 111.845 120.008C110.789 120.728 109.141 121.088 106.901 121.088ZM106.733 111.44C105.069 111.44 103.757 111.128 102.797 110.504C101.837 109.864 101.357 108.92 101.357 107.672C101.357 106.808 101.589 106.088 102.053 105.512C102.517 104.92 103.173 104.472 104.021 104.168C104.885 103.864 105.901 103.712 107.069 103.712L110.381 104.888C110.749 105.064 111.069 105.296 111.341 105.584C111.629 105.856 111.853 106.176 112.013 106.544C112.173 106.912 112.253 107.336 112.253 107.816C112.253 108.584 112.037 109.24 111.605 109.784C111.173 110.328 110.549 110.744 109.733 111.032C108.917 111.304 107.917 111.44 106.733 111.44ZM106.853 109.592C107.557 109.592 108.125 109.416 108.557 109.064C108.989 108.712 109.205 108.208 109.205 107.552C109.205 106.896 108.997 106.4 108.581 106.064C108.165 105.728 107.613 105.56 106.925 105.56C106.221 105.56 105.653 105.736 105.221 106.088C104.789 106.44 104.573 106.944 104.573 107.6C104.573 108.256 104.781 108.752 105.197 109.088C105.613 109.424 106.165 109.592 106.853 109.592ZM113.885 106.616C113.229 106.616 112.613 106.584 112.037 106.52C111.477 106.456 110.837 106.384 110.117 106.304L107.069 103.712C108.221 103.712 109.357 103.76 110.477 103.856C111.597 103.952 112.733 104 113.885 104V106.616ZM126.222 116H123.102C122.99 115.76 122.902 115.424 122.838 114.992C122.79 114.544 122.758 114.04 122.742 113.48L122.598 112.856V107.816C122.598 107.224 122.414 106.816 122.046 106.592C121.694 106.368 121.214 106.256 120.606 106.256C120.014 106.256 119.526 106.328 119.142 106.472C118.758 106.616 118.438 106.784 118.182 106.976C117.926 107.168 117.678 107.336 117.438 107.48C117.214 107.624 116.95 107.696 116.646 107.696C116.262 107.696 115.95 107.592 115.71 107.384C115.47 107.16 115.35 106.864 115.35 106.496C115.35 106.224 115.414 105.96 115.542 105.704C115.67 105.448 115.894 105.2 116.214 104.96C117.19 104.128 118.646 103.712 120.582 103.712C121.686 103.712 122.614 103.856 123.366 104.144C124.118 104.432 124.694 104.904 125.094 105.56C125.494 106.216 125.694 107.096 125.694 108.2V112.232C125.694 113.064 125.742 113.8 125.838 114.44C125.934 115.064 126.062 115.584 126.222 116ZM118.806 116.288C117.654 116.288 116.734 115.976 116.046 115.352C115.358 114.728 115.014 113.88 115.014 112.808C115.014 111.848 115.318 111.088 115.926 110.528C116.55 109.952 117.478 109.56 118.71 109.352L121.062 108.968C121.686 108.84 122.094 108.704 122.286 108.56C122.494 108.416 122.598 108.184 122.598 107.864V110.12C122.518 110.216 122.382 110.312 122.19 110.408C121.998 110.488 121.71 110.568 121.326 110.648L119.934 110.936C119.438 111.032 119.038 111.2 118.734 111.44C118.43 111.68 118.278 112.04 118.278 112.52C118.278 113 118.43 113.376 118.734 113.648C119.054 113.92 119.47 114.056 119.982 114.056C120.462 114.056 120.894 113.944 121.278 113.72C121.678 113.48 121.998 113.152 122.238 112.736C122.478 112.304 122.598 111.8 122.598 111.224L123.054 113.384C122.686 114.376 122.126 115.112 121.374 115.592C120.622 116.056 119.766 116.288 118.806 116.288ZM144.154 116V109.256C144.154 108.312 143.946 107.64 143.53 107.24C143.13 106.824 142.634 106.616 142.042 106.616C141.61 106.616 141.194 106.72 140.794 106.928C140.394 107.136 140.066 107.456 139.81 107.888C139.57 108.304 139.45 108.84 139.45 109.496L138.442 106.808C138.762 106.104 139.17 105.528 139.666 105.08C140.178 104.616 140.73 104.272 141.322 104.048C141.93 103.824 142.538 103.712 143.146 103.712C143.914 103.712 144.602 103.888 145.21 104.24C145.834 104.592 146.33 105.128 146.698 105.848C147.066 106.568 147.25 107.504 147.25 108.656V116H144.154ZM128.554 116V104H131.626V116H128.554ZM136.354 116V109.256C136.354 108.312 136.146 107.64 135.73 107.24C135.33 106.824 134.826 106.616 134.218 106.616C133.786 106.616 133.37 106.72 132.97 106.928C132.586 107.136 132.266 107.456 132.01 107.888C131.754 108.304 131.626 108.84 131.626 109.496L131.098 106.808C131.354 106.104 131.698 105.528 132.13 105.08C132.578 104.616 133.074 104.272 133.618 104.048C134.178 103.824 134.762 103.712 135.37 103.712C136.154 103.712 136.85 103.888 137.458 104.24C138.066 104.576 138.546 105.104 138.898 105.824C139.266 106.528 139.45 107.432 139.45 108.536V116H136.354ZM155.662 116.288C153.614 116.288 152.038 115.76 150.934 114.704C149.83 113.632 149.278 112.144 149.278 110.24C149.278 108.912 149.534 107.76 150.046 106.784C150.574 105.808 151.31 105.056 152.254 104.528C153.214 103.984 154.318 103.712 155.566 103.712C156.67 103.712 157.598 103.904 158.35 104.288C159.118 104.656 159.702 105.152 160.102 105.776C160.502 106.4 160.702 107.08 160.702 107.816C160.702 108.52 160.526 109.112 160.174 109.592C159.822 110.056 159.334 110.416 158.71 110.672C158.102 110.912 157.398 111.064 156.598 111.128C155.814 111.192 154.974 111.176 154.078 111.08C153.198 110.968 152.318 110.784 151.438 110.528V108.632C152.286 108.84 153.078 108.984 153.814 109.064C154.55 109.128 155.198 109.128 155.758 109.064C156.334 108.984 156.782 108.832 157.102 108.608C157.422 108.368 157.582 108.04 157.582 107.624C157.582 107.192 157.406 106.816 157.054 106.496C156.702 106.16 156.198 105.992 155.542 105.992C154.934 105.992 154.398 106.144 153.934 106.448C153.47 106.752 153.102 107.208 152.83 107.816C152.574 108.424 152.446 109.184 152.446 110.096C152.446 110.944 152.574 111.656 152.83 112.232C153.086 112.792 153.486 113.216 154.03 113.504C154.574 113.792 155.278 113.936 156.142 113.936C156.846 113.936 157.55 113.856 158.254 113.696C158.958 113.52 159.646 113.256 160.318 112.904V115.112C159.774 115.448 159.102 115.728 158.302 115.952C157.518 116.176 156.638 116.288 155.662 116.288ZM167.061 116.288C166.133 116.288 165.285 116.184 164.517 115.976C163.749 115.752 163.069 115.48 162.477 115.16V112.52C163.277 113.064 164.093 113.488 164.925 113.792C165.757 114.08 166.517 114.224 167.205 114.224C167.893 114.224 168.397 114.096 168.717 113.84C169.037 113.584 169.197 113.272 169.197 112.904C169.197 112.536 169.029 112.248 168.693 112.04C168.373 111.816 167.957 111.632 167.445 111.488C166.949 111.328 166.413 111.168 165.837 111.008C165.277 110.848 164.741 110.64 164.229 110.384C163.733 110.128 163.325 109.776 163.005 109.328C162.685 108.88 162.525 108.304 162.525 107.6C162.525 106.864 162.717 106.2 163.101 105.608C163.501 105.016 164.085 104.552 164.853 104.216C165.637 103.88 166.597 103.712 167.733 103.712C168.645 103.712 169.429 103.824 170.085 104.048C170.757 104.256 171.269 104.544 171.621 104.912C171.989 105.28 172.173 105.704 172.173 106.184C172.173 106.52 172.069 106.792 171.861 107C171.669 107.192 171.413 107.288 171.093 107.288C170.789 107.288 170.525 107.216 170.301 107.072C170.093 106.912 169.869 106.736 169.629 106.544C169.389 106.336 169.109 106.16 168.789 106.016C168.485 105.856 168.093 105.776 167.613 105.776C166.989 105.776 166.525 105.912 166.221 106.184C165.917 106.456 165.765 106.768 165.765 107.12C165.765 107.504 165.925 107.808 166.245 108.032C166.581 108.256 166.997 108.44 167.493 108.584C168.005 108.728 168.541 108.888 169.101 109.064C169.661 109.224 170.197 109.44 170.709 109.712C171.221 109.968 171.637 110.32 171.957 110.768C172.277 111.2 172.437 111.776 172.437 112.496C172.437 113.232 172.237 113.888 171.837 114.464C171.437 115.04 170.837 115.488 170.037 115.808C169.253 116.128 168.261 116.288 167.061 116.288ZM191.332 116H188.212C188.1 115.76 188.012 115.424 187.948 114.992C187.9 114.544 187.868 114.04 187.852 113.48L187.708 112.856V107.816C187.708 107.224 187.524 106.816 187.156 106.592C186.804 106.368 186.324 106.256 185.716 106.256C185.124 106.256 184.636 106.328 184.252 106.472C183.868 106.616 183.548 106.784 183.292 106.976C183.036 107.168 182.788 107.336 182.548 107.48C182.324 107.624 182.06 107.696 181.756 107.696C181.372 107.696 181.06 107.592 180.82 107.384C180.58 107.16 180.46 106.864 180.46 106.496C180.46 106.224 180.524 105.96 180.652 105.704C180.78 105.448 181.004 105.2 181.324 104.96C182.3 104.128 183.756 103.712 185.692 103.712C186.796 103.712 187.724 103.856 188.476 104.144C189.228 104.432 189.804 104.904 190.204 105.56C190.604 106.216 190.804 107.096 190.804 108.2V112.232C190.804 113.064 190.852 113.8 190.948 114.44C191.044 115.064 191.172 115.584 191.332 116ZM183.916 116.288C182.764 116.288 181.844 115.976 181.156 115.352C180.468 114.728 180.124 113.88 180.124 112.808C180.124 111.848 180.428 111.088 181.036 110.528C181.66 109.952 182.588 109.56 183.82 109.352L186.172 108.968C186.796 108.84 187.204 108.704 187.396 108.56C187.604 108.416 187.708 108.184 187.708 107.864V110.12C187.628 110.216 187.492 110.312 187.3 110.408C187.108 110.488 186.82 110.568 186.436 110.648L185.044 110.936C184.548 111.032 184.148 111.2 183.844 111.44C183.54 111.68 183.388 112.04 183.388 112.52C183.388 113 183.54 113.376 183.844 113.648C184.164 113.92 184.58 114.056 185.092 114.056C185.572 114.056 186.004 113.944 186.388 113.72C186.788 113.48 187.108 113.152 187.348 112.736C187.588 112.304 187.708 111.8 187.708 111.224L188.164 113.384C187.796 114.376 187.236 115.112 186.484 115.592C185.732 116.056 184.876 116.288 183.916 116.288ZM193.663 116V104H196.735V116H193.663ZM196.735 110.192L196.327 106.808C196.647 105.8 197.095 105.032 197.671 104.504C198.247 103.976 198.895 103.712 199.615 103.712C199.983 103.712 200.311 103.784 200.599 103.928C200.903 104.072 201.143 104.288 201.319 104.576C201.511 104.848 201.607 105.2 201.607 105.632C201.607 106.192 201.463 106.616 201.175 106.904C200.903 107.176 200.551 107.312 200.119 107.312C199.831 107.312 199.575 107.272 199.351 107.192C199.143 107.096 198.919 107.048 198.679 107.048C198.103 107.048 197.631 107.328 197.263 107.888C196.911 108.448 196.735 109.216 196.735 110.192ZM208.467 116.288C206.419 116.288 204.843 115.76 203.739 114.704C202.635 113.632 202.083 112.144 202.083 110.24C202.083 108.912 202.339 107.76 202.851 106.784C203.379 105.808 204.115 105.056 205.059 104.528C206.019 103.984 207.123 103.712 208.371 103.712C209.475 103.712 210.403 103.904 211.155 104.288C211.923 104.656 212.507 105.152 212.907 105.776C213.307 106.4 213.507 107.08 213.507 107.816C213.507 108.52 213.331 109.112 212.979 109.592C212.627 110.056 212.139 110.416 211.515 110.672C210.907 110.912 210.203 111.064 209.403 111.128C208.619 111.192 207.779 111.176 206.883 111.08C206.003 110.968 205.123 110.784 204.243 110.528V108.632C205.091 108.84 205.883 108.984 206.619 109.064C207.355 109.128 208.003 109.128 208.563 109.064C209.139 108.984 209.587 108.832 209.907 108.608C210.227 108.368 210.387 108.04 210.387 107.624C210.387 107.192 210.211 106.816 209.859 106.496C209.507 106.16 209.003 105.992 208.347 105.992C207.739 105.992 207.203 106.144 206.739 106.448C206.275 106.752 205.907 107.208 205.635 107.816C205.379 108.424 205.251 109.184 205.251 110.096C205.251 110.944 205.379 111.656 205.635 112.232C205.891 112.792 206.291 113.216 206.835 113.504C207.379 113.792 208.083 113.936 208.947 113.936C209.651 113.936 210.355 113.856 211.059 113.696C211.763 113.52 212.451 113.256 213.123 112.904V115.112C212.579 115.448 211.907 115.728 211.107 115.952C210.323 116.176 209.443 116.288 208.467 116.288ZM37.496 144V130.752C37.496 129.76 37.688 128.952 38.072 128.328C38.456 127.688 38.976 127.216 39.632 126.912C40.288 126.592 41.024 126.432 41.84 126.432C42.672 126.432 43.304 126.584 43.736 126.888C44.184 127.176 44.408 127.592 44.408 128.136C44.408 128.52 44.304 128.824 44.096 129.048C43.904 129.256 43.656 129.36 43.352 129.36C43.144 129.36 42.928 129.328 42.704 129.264C42.496 129.184 42.256 129.144 41.984 129.144C41.6 129.144 41.264 129.272 40.976 129.528C40.704 129.784 40.568 130.224 40.568 130.848V144H37.496ZM36.872 134.736C36.488 134.736 36.152 134.624 35.864 134.4C35.592 134.176 35.456 133.832 35.456 133.368C35.456 132.92 35.592 132.584 35.864 132.36C36.152 132.12 36.488 132 36.872 132H44.12V134.736H36.872ZM44.7234 138.096C44.7234 136.816 44.9794 135.704 45.4914 134.76C46.0034 133.8 46.7314 133.056 47.6754 132.528C48.6194 131.984 49.7394 131.712 51.0354 131.712C52.2674 131.712 53.3474 131.968 54.2754 132.48C55.2034 132.976 55.9234 133.688 56.4354 134.616C56.9634 135.528 57.2274 136.632 57.2274 137.928C57.2274 139.192 56.9714 140.304 56.4594 141.264C55.9634 142.208 55.2434 142.952 54.2994 143.496C53.3554 144.024 52.2434 144.288 50.9634 144.288C49.7314 144.288 48.6434 144.04 47.6994 143.544C46.7714 143.032 46.0434 142.312 45.5154 141.384C44.9874 140.456 44.7234 139.36 44.7234 138.096ZM47.9634 138.048C47.9634 138.8 48.0914 139.448 48.3474 139.992C48.6034 140.52 48.9554 140.928 49.4034 141.216C49.8674 141.488 50.3794 141.624 50.9394 141.624C51.5154 141.624 52.0354 141.48 52.4994 141.192C52.9634 140.888 53.3234 140.464 53.5794 139.92C53.8514 139.36 53.9874 138.704 53.9874 137.952C53.9874 137.2 53.8594 136.56 53.6034 136.032C53.3474 135.488 52.9954 135.08 52.5474 134.808C52.1154 134.52 51.6114 134.376 51.0354 134.376C50.4434 134.376 49.9154 134.528 49.4514 134.832C49.0034 135.12 48.6434 135.536 48.3714 136.08C48.0994 136.624 47.9634 137.28 47.9634 138.048ZM64.8568 144.288C63.0488 144.288 61.6648 143.832 60.7048 142.92C59.7608 141.992 59.2888 140.632 59.2888 138.84V132H62.3848V138.816C62.3848 139.728 62.6008 140.408 63.0328 140.856C63.4648 141.304 64.0728 141.528 64.8568 141.528C65.6408 141.528 66.2408 141.304 66.6568 140.856C67.0888 140.408 67.3048 139.728 67.3048 138.816V132H70.4008V138.84C70.4008 140.632 69.9208 141.992 68.9608 142.92C68.0168 143.832 66.6488 144.288 64.8568 144.288ZM81.2368 144V137.328C81.2368 136.688 81.1328 136.176 80.9248 135.792C80.7168 135.392 80.4288 135.096 80.0608 134.904C79.7088 134.712 79.3168 134.616 78.8848 134.616C78.4208 134.616 77.9808 134.72 77.5648 134.928C77.1488 135.136 76.8128 135.456 76.5568 135.888C76.3008 136.304 76.1728 136.84 76.1728 137.496L75.6448 134.808C75.9008 134.104 76.2448 133.528 76.6768 133.08C77.1248 132.616 77.6288 132.272 78.1888 132.048C78.7648 131.824 79.3568 131.712 79.9648 131.712C80.7328 131.712 81.4448 131.888 82.1008 132.24C82.7728 132.592 83.3088 133.144 83.7088 133.896C84.1088 134.648 84.3088 135.632 84.3088 136.848V144H81.2368ZM73.1008 144V132H76.1728V144H73.1008ZM98.4924 126.72V144H95.3964V126.72H98.4924ZM95.9244 141.192C95.5564 142.168 94.9964 142.928 94.2444 143.472C93.5084 144.016 92.6284 144.288 91.6044 144.288C90.6124 144.288 89.7164 144.04 88.9164 143.544C88.1324 143.032 87.5084 142.312 87.0444 141.384C86.5804 140.44 86.3484 139.32 86.3484 138.024C86.3484 136.744 86.5724 135.64 87.0204 134.712C87.4844 133.768 88.1164 133.032 88.9164 132.504C89.7324 131.976 90.6764 131.712 91.7484 131.712C92.7724 131.712 93.6284 131.96 94.3164 132.456C95.0044 132.936 95.4764 133.608 95.7324 134.472L95.3964 137.232C95.3964 136.672 95.2764 136.176 95.0364 135.744C94.7964 135.312 94.4684 134.976 94.0524 134.736C93.6524 134.48 93.1804 134.352 92.6364 134.352C92.0444 134.352 91.5164 134.504 91.0524 134.808C90.6044 135.112 90.2524 135.536 89.9964 136.08C89.7564 136.624 89.6364 137.256 89.6364 137.976C89.6364 138.696 89.7564 139.328 89.9964 139.872C90.2524 140.4 90.6044 140.808 91.0524 141.096C91.5164 141.384 92.0524 141.528 92.6604 141.528C93.4764 141.528 94.1324 141.264 94.6284 140.736C95.1404 140.208 95.3964 139.512 95.3964 138.648L95.9244 141.192ZM114.726 143.784C114.358 143.944 113.966 144.064 113.55 144.144C113.134 144.24 112.694 144.288 112.23 144.288C111.046 144.288 110.142 143.952 109.518 143.28C108.894 142.608 108.582 141.624 108.582 140.328V134.736H107.91C107.51 134.736 107.182 134.624 106.926 134.4C106.67 134.176 106.542 133.856 106.542 133.44C106.542 133.072 106.646 132.76 106.854 132.504C107.062 132.248 107.366 132.016 107.766 131.808L111.654 129.792V132H115.206V134.736H111.654V139.824C111.654 140.464 111.782 140.92 112.038 141.192C112.31 141.448 112.694 141.576 113.19 141.576C113.446 141.576 113.694 141.552 113.934 141.504C114.19 141.44 114.454 141.36 114.726 141.264V143.784ZM116.091 138.096C116.091 136.816 116.347 135.704 116.859 134.76C117.371 133.8 118.099 133.056 119.043 132.528C119.987 131.984 121.107 131.712 122.403 131.712C123.635 131.712 124.715 131.968 125.643 132.48C126.571 132.976 127.291 133.688 127.803 134.616C128.331 135.528 128.595 136.632 128.595 137.928C128.595 139.192 128.339 140.304 127.827 141.264C127.331 142.208 126.611 142.952 125.667 143.496C124.723 144.024 123.611 144.288 122.331 144.288C121.099 144.288 120.011 144.04 119.067 143.544C118.139 143.032 117.411 142.312 116.883 141.384C116.355 140.456 116.091 139.36 116.091 138.096ZM119.331 138.048C119.331 138.8 119.459 139.448 119.715 139.992C119.971 140.52 120.323 140.928 120.771 141.216C121.235 141.488 121.747 141.624 122.307 141.624C122.883 141.624 123.403 141.48 123.867 141.192C124.331 140.888 124.691 140.464 124.947 139.92C125.219 139.36 125.355 138.704 125.355 137.952C125.355 137.2 125.227 136.56 124.971 136.032C124.715 135.488 124.363 135.08 123.915 134.808C123.483 134.52 122.979 134.376 122.403 134.376C121.811 134.376 121.283 134.528 120.819 134.832C120.371 135.12 120.011 135.536 119.739 136.08C119.467 136.624 119.331 137.28 119.331 138.048ZM142.965 144.288C141.125 144.288 139.685 143.768 138.645 142.728C137.605 141.672 137.085 140.232 137.085 138.408L140.157 138.576C140.157 139.488 140.413 140.232 140.925 140.808C141.453 141.368 142.133 141.648 142.965 141.648C143.877 141.648 144.597 141.32 145.125 140.664C145.669 140.008 145.941 139.128 145.941 138.024C145.941 137.288 145.813 136.656 145.557 136.128C145.301 135.6 144.949 135.192 144.501 134.904C144.053 134.616 143.525 134.472 142.917 134.472C142.101 134.472 141.437 134.736 140.925 135.264C140.413 135.792 140.157 136.488 140.157 137.352L139.629 134.808C140.013 133.816 140.573 133.056 141.309 132.528C142.061 131.984 142.949 131.712 143.973 131.712C144.965 131.712 145.853 131.968 146.637 132.48C147.437 132.976 148.061 133.68 148.509 134.592C148.973 135.504 149.205 136.592 149.205 137.856C149.205 139.12 148.957 140.24 148.461 141.216C147.981 142.176 147.277 142.928 146.349 143.472C145.421 144.016 144.293 144.288 142.965 144.288ZM140.157 139.584L137.085 138.408V126.72H140.157V139.584ZM157.326 144.288C155.278 144.288 153.702 143.76 152.598 142.704C151.494 141.632 150.942 140.144 150.942 138.24C150.942 136.912 151.198 135.76 151.71 134.784C152.238 133.808 152.974 133.056 153.918 132.528C154.878 131.984 155.982 131.712 157.23 131.712C158.334 131.712 159.262 131.904 160.014 132.288C160.782 132.656 161.366 133.152 161.766 133.776C162.166 134.4 162.366 135.08 162.366 135.816C162.366 136.52 162.19 137.112 161.838 137.592C161.486 138.056 160.998 138.416 160.374 138.672C159.766 138.912 159.062 139.064 158.262 139.128C157.478 139.192 156.638 139.176 155.742 139.08C154.862 138.968 153.982 138.784 153.102 138.528V136.632C153.95 136.84 154.742 136.984 155.478 137.064C156.214 137.128 156.862 137.128 157.422 137.064C157.998 136.984 158.446 136.832 158.766 136.608C159.086 136.368 159.246 136.04 159.246 135.624C159.246 135.192 159.07 134.816 158.718 134.496C158.366 134.16 157.862 133.992 157.206 133.992C156.598 133.992 156.062 134.144 155.598 134.448C155.134 134.752 154.766 135.208 154.494 135.816C154.238 136.424 154.11 137.184 154.11 138.096C154.11 138.944 154.238 139.656 154.494 140.232C154.75 140.792 155.15 141.216 155.694 141.504C156.238 141.792 156.942 141.936 157.806 141.936C158.51 141.936 159.214 141.856 159.918 141.696C160.622 141.52 161.31 141.256 161.982 140.904V143.112C161.438 143.448 160.766 143.728 159.966 143.952C159.182 144.176 158.302 144.288 157.326 144.288Z" fill="white"/>
<rect x="3" y="223" width="576.857" height="205.95" rx="20" fill="#7DA75B"/>
<path d="M253.888 321V314.568H262.672C264.496 314.568 265.824 314.28 266.656 313.704C267.52 313.128 267.952 312.248 267.952 311.064C267.952 309.88 267.52 309.032 266.656 308.52C265.824 308.008 264.496 307.752 262.672 307.752H253.888V303.576H263.248C264.912 303.576 266.512 303.688 268.048 303.912C269.616 304.136 271.008 304.536 272.224 305.112C273.44 305.688 274.4 306.52 275.104 307.608C275.84 308.664 276.208 310.04 276.208 311.736C276.208 313.912 275.648 315.672 274.528 317.016C273.44 318.36 271.856 319.368 269.776 320.04C267.728 320.68 265.248 321 262.336 321H253.888ZM247.216 321V288.36H255.04V321H247.216ZM251.632 305.544V301.512H261.616C263.408 301.512 264.72 301.224 265.552 300.648C266.416 300.072 266.848 299.192 266.848 298.008C266.848 296.856 266.416 296.04 265.552 295.56C264.72 295.048 263.408 294.792 261.616 294.792H251.632V288.36H261.088C265.504 288.36 268.896 289.064 271.264 290.472C273.664 291.848 274.864 294.12 274.864 297.288C274.864 298.728 274.624 299.944 274.144 300.936C273.664 301.928 272.992 302.728 272.128 303.336C271.296 303.944 270.336 304.408 269.248 304.728C268.16 305.048 266.992 305.272 265.744 305.4C264.496 305.496 263.248 305.544 262 305.544H251.632ZM279.238 309.144C279.238 306.584 279.75 304.36 280.774 302.472C281.83 300.552 283.318 299.064 285.238 298.008C287.158 296.952 289.462 296.424 292.15 296.424C294.71 296.424 296.934 296.936 298.822 297.96C300.742 298.952 302.23 300.376 303.286 302.232C304.374 304.088 304.918 306.296 304.918 308.856C304.918 311.384 304.39 313.608 303.334 315.528C302.31 317.448 300.838 318.936 298.918 319.992C296.998 321.048 294.71 321.576 292.054 321.576C289.494 321.576 287.254 321.08 285.334 320.088C283.414 319.064 281.91 317.624 280.822 315.768C279.766 313.912 279.238 311.704 279.238 309.144ZM286.822 309.096C286.822 310.408 287.046 311.528 287.494 312.456C287.942 313.384 288.55 314.104 289.318 314.616C290.118 315.096 291.014 315.336 292.006 315.336C292.998 315.336 293.894 315.08 294.694 314.568C295.526 314.056 296.166 313.32 296.614 312.36C297.094 311.4 297.334 310.248 297.334 308.904C297.334 307.592 297.11 306.472 296.662 305.544C296.214 304.616 295.59 303.912 294.79 303.432C294.022 302.92 293.142 302.664 292.15 302.664C291.126 302.664 290.214 302.92 289.414 303.432C288.614 303.944 287.974 304.68 287.494 305.64C287.046 306.6 286.822 307.752 286.822 309.096ZM308.52 321V297H315.72V321H308.52ZM315.72 310.2L314.952 302.472C315.528 300.552 316.376 299.064 317.496 298.008C318.616 296.952 319.912 296.424 321.384 296.424C322.152 296.424 322.856 296.584 323.496 296.904C324.168 297.224 324.696 297.704 325.08 298.344C325.496 298.984 325.704 299.816 325.704 300.84C325.704 302.216 325.368 303.224 324.696 303.864C324.024 304.504 323.208 304.824 322.248 304.824C321.64 304.824 321.096 304.744 320.616 304.584C320.168 304.392 319.688 304.296 319.176 304.296C318.12 304.296 317.272 304.808 316.632 305.832C316.024 306.856 315.72 308.312 315.72 310.2ZM328.441 321V296.856C330.841 297.432 333.241 297.432 335.641 296.856V321H328.441ZM332.041 294.12C330.633 294.12 329.577 293.784 328.873 293.112C328.169 292.408 327.817 291.496 327.817 290.376C327.817 289.288 328.169 288.408 328.873 287.736C329.577 287.032 330.633 286.68 332.041 286.68C333.417 286.68 334.457 287.032 335.161 287.736C335.897 288.408 336.265 289.288 336.265 290.376C336.265 291.496 335.897 292.408 335.161 293.112C334.457 293.784 333.417 294.12 332.041 294.12ZM357.083 321V307.992C357.083 306.904 356.907 306.008 356.555 305.304C356.203 304.6 355.707 304.088 355.067 303.768C354.459 303.416 353.771 303.24 353.003 303.24C352.171 303.24 351.387 303.432 350.651 303.816C349.947 304.168 349.371 304.728 348.923 305.496C348.475 306.232 348.251 307.176 348.251 308.328L347.243 302.472C347.723 301.096 348.379 299.96 349.211 299.064C350.043 298.168 351.003 297.512 352.091 297.096C353.211 296.648 354.379 296.424 355.595 296.424C357.163 296.424 358.603 296.776 359.915 297.48C361.259 298.152 362.331 299.256 363.131 300.792C363.931 302.296 364.331 304.296 364.331 306.792V321H357.083ZM341.051 321V297H348.251V321H341.051ZM380.114 331.176C377.97 331.176 376.146 331.016 374.642 330.696C373.17 330.408 372.002 330.024 371.138 329.544C370.434 329.16 369.89 328.728 369.506 328.248C369.154 327.768 368.978 327.208 368.978 326.568C368.978 325.8 369.218 325.192 369.698 324.744C370.178 324.328 370.85 324.12 371.714 324.12C372.322 324.12 372.93 324.216 373.538 324.408C374.146 324.6 374.802 324.824 375.506 325.08C376.21 325.336 377.026 325.56 377.954 325.752C378.914 325.944 380.018 326.04 381.266 326.04C382.898 326.04 384.162 325.816 385.058 325.368C385.986 324.952 386.45 324.296 386.45 323.4C386.45 322.792 386.194 322.296 385.682 321.912C385.17 321.528 384.162 321.336 382.658 321.336H376.418C374.498 321.336 372.93 321.112 371.714 320.664C370.53 320.216 369.65 319.592 369.074 318.792C368.498 317.992 368.21 317.064 368.21 316.008C368.21 314.408 368.754 313.096 369.842 312.072C370.93 311.048 372.402 310.456 374.258 310.296L379.874 311.784C378.562 311.784 377.538 311.864 376.802 312.024C376.098 312.184 375.602 312.408 375.314 312.696C375.026 312.952 374.882 313.256 374.882 313.608C374.882 314.088 375.09 314.44 375.506 314.664C375.954 314.856 376.69 314.952 377.714 314.952H383.81C386.978 314.952 389.41 315.544 391.106 316.728C392.834 317.88 393.698 319.784 393.698 322.44C393.698 325.32 392.61 327.496 390.434 328.968C388.258 330.44 384.818 331.176 380.114 331.176ZM379.874 311.784C376.386 311.784 373.65 311.16 371.666 309.912C369.714 308.664 368.738 306.776 368.738 304.248C368.738 302.52 369.202 301.08 370.13 299.928C371.09 298.744 372.466 297.864 374.258 297.288C376.05 296.712 378.178 296.424 380.642 296.424L387.602 298.968C388.306 299.256 388.93 299.672 389.474 300.216C390.05 300.76 390.498 301.4 390.818 302.136C391.17 302.872 391.346 303.736 391.346 304.728C391.346 306.264 390.898 307.56 390.002 308.616C389.138 309.672 387.858 310.472 386.162 311.016C384.466 311.528 382.37 311.784 379.874 311.784ZM380.21 307.704C381.394 307.704 382.354 307.384 383.09 306.744C383.826 306.104 384.194 305.208 384.194 304.056C384.194 302.904 383.842 302.024 383.138 301.416C382.434 300.776 381.49 300.456 380.306 300.456C379.09 300.456 378.114 300.776 377.378 301.416C376.674 302.056 376.322 302.968 376.322 304.152C376.322 305.272 376.674 306.152 377.378 306.792C378.082 307.4 379.026 307.704 380.21 307.704ZM394.562 303.096C393.282 303.096 392.066 303.032 390.914 302.904C389.762 302.744 388.498 302.6 387.122 302.472L380.642 296.424C383.01 296.424 385.33 296.52 387.602 296.712C389.906 296.904 392.226 297 394.562 297V303.096ZM398.042 326.904C398.874 325.56 399.434 324.312 399.722 323.16C400.042 322.04 400.154 320.92 400.058 319.8L406.25 317.64C406.25 319.112 405.93 320.68 405.29 322.344C404.65 324.008 403.69 325.528 402.41 326.904H398.042ZM402.074 321.528C400.762 321.528 399.738 321.176 399.002 320.472C398.266 319.736 397.898 318.792 397.898 317.64C397.898 316.424 398.266 315.48 399.002 314.808C399.738 314.104 400.762 313.752 402.074 313.752C403.354 313.752 404.362 314.104 405.098 314.808C405.866 315.48 406.25 316.424 406.25 317.64C406.25 318.792 405.866 319.736 405.098 320.472C404.362 321.176 403.354 321.528 402.074 321.528ZM246.736 357.512V338.36H254.56V357.368C254.56 359.64 255.136 361.4 256.288 362.648C257.44 363.864 259.136 364.472 261.376 364.472C262.944 364.472 264.224 364.184 265.216 363.608C266.208 363 266.944 362.168 267.424 361.112C267.904 360.024 268.144 358.776 268.144 357.368V338.36H276.016V357.512C276.016 362.12 274.752 365.608 272.224 367.976C269.728 370.344 266.112 371.528 261.376 371.528C258.304 371.528 255.68 371.032 253.504 370.04C251.328 369.048 249.648 367.528 248.464 365.48C247.312 363.4 246.736 360.744 246.736 357.512ZM296.755 371V357.992C296.755 356.904 296.579 356.008 296.227 355.304C295.875 354.6 295.379 354.088 294.739 353.768C294.131 353.416 293.443 353.24 292.675 353.24C291.843 353.24 291.059 353.432 290.323 353.816C289.619 354.168 289.043 354.728 288.595 355.496C288.147 356.232 287.923 357.176 287.923 358.328L286.915 352.472C287.395 351.096 288.051 349.96 288.883 349.064C289.715 348.168 290.675 347.512 291.763 347.096C292.883 346.648 294.051 346.424 295.267 346.424C296.835 346.424 298.275 346.776 299.587 347.48C300.931 348.152 302.003 349.256 302.803 350.792C303.603 352.296 304.003 354.296 304.003 356.792V371H296.755ZM280.723 371V347H287.923V371H280.723ZM330.882 371H323.586C323.362 370.552 323.186 369.896 323.058 369.032C322.962 368.168 322.914 367.16 322.914 366.008L322.674 364.616V354.92C322.674 353.928 322.354 353.24 321.714 352.856C321.106 352.472 320.258 352.28 319.17 352.28C318.05 352.28 317.122 352.424 316.386 352.712C315.65 352.968 315.01 353.288 314.466 353.672C313.922 354.024 313.394 354.328 312.882 354.584C312.402 354.84 311.826 354.968 311.154 354.968C310.226 354.968 309.49 354.728 308.946 354.248C308.402 353.736 308.13 353.048 308.13 352.184C308.13 351.576 308.274 351 308.562 350.456C308.85 349.88 309.346 349.352 310.05 348.872C312.066 347.24 315.09 346.424 319.122 346.424C321.49 346.424 323.474 346.728 325.074 347.336C326.674 347.944 327.874 348.952 328.674 350.36C329.474 351.736 329.874 353.592 329.874 355.928V363.176C329.874 364.936 329.97 366.472 330.162 367.784C330.354 369.064 330.594 370.136 330.882 371ZM315.186 371.576C312.786 371.576 310.898 370.936 309.522 369.656C308.146 368.376 307.458 366.68 307.458 364.568C307.458 362.584 308.098 361.032 309.378 359.912C310.658 358.76 312.546 357.992 315.042 357.608L319.938 356.84C321.026 356.648 321.746 356.424 322.098 356.168C322.482 355.912 322.674 355.512 322.674 354.968V359.72C322.482 359.88 322.226 360.04 321.906 360.2C321.618 360.328 321.138 360.472 320.466 360.632L318.018 361.112C317.154 361.272 316.45 361.56 315.906 361.976C315.394 362.36 315.138 362.968 315.138 363.8C315.138 364.632 315.394 365.288 315.906 365.768C316.45 366.216 317.17 366.44 318.066 366.44C318.93 366.44 319.698 366.232 320.37 365.816C321.074 365.4 321.634 364.808 322.05 364.04C322.466 363.272 322.674 362.392 322.674 361.4L323.538 365.912C322.834 367.8 321.746 369.224 320.274 370.184C318.802 371.112 317.106 371.576 315.186 371.576ZM334.863 380.6V347H342.063V380.6H334.863ZM341.055 352.472C341.791 350.52 342.879 349.032 344.319 348.008C345.791 346.952 347.503 346.424 349.455 346.424C351.407 346.424 353.151 346.936 354.687 347.96C356.255 348.952 357.487 350.376 358.383 352.232C359.311 354.088 359.775 356.328 359.775 358.952C359.775 361.48 359.327 363.704 358.431 365.624C357.535 367.512 356.287 368.984 354.687 370.04C353.087 371.064 351.231 371.576 349.119 371.576C347.135 371.576 345.471 371.096 344.127 370.136C342.815 369.176 341.903 367.864 341.391 366.2L342.063 360.344C342.063 361.336 342.271 362.232 342.687 363.032C343.103 363.8 343.663 364.408 344.367 364.856C345.103 365.272 345.935 365.48 346.863 365.48C347.919 365.48 348.831 365.208 349.599 364.664C350.399 364.12 351.023 363.368 351.471 362.408C351.919 361.448 352.143 360.328 352.143 359.048C352.143 357.768 351.919 356.664 351.471 355.736C351.055 354.808 350.447 354.088 349.647 353.576C348.847 353.064 347.919 352.808 346.863 352.808C345.455 352.808 344.303 353.288 343.407 354.248C342.511 355.176 342.063 356.424 342.063 357.992L341.055 352.472ZM363.41 380.6V347H370.61V380.6H363.41ZM369.602 352.472C370.338 350.52 371.426 349.032 372.866 348.008C374.338 346.952 376.05 346.424 378.002 346.424C379.954 346.424 381.698 346.936 383.234 347.96C384.802 348.952 386.034 350.376 386.93 352.232C387.858 354.088 388.322 356.328 388.322 358.952C388.322 361.48 387.874 363.704 386.978 365.624C386.082 367.512 384.834 368.984 383.234 370.04C381.634 371.064 379.778 371.576 377.666 371.576C375.682 371.576 374.018 371.096 372.674 370.136C371.362 369.176 370.45 367.864 369.938 366.2L370.61 360.344C370.61 361.336 370.818 362.232 371.234 363.032C371.65 363.8 372.21 364.408 372.914 364.856C373.65 365.272 374.482 365.48 375.41 365.48C376.466 365.48 377.378 365.208 378.146 364.664C378.946 364.12 379.57 363.368 380.018 362.408C380.466 361.448 380.69 360.328 380.69 359.048C380.69 357.768 380.466 356.664 380.018 355.736C379.602 354.808 378.994 354.088 378.194 353.576C377.394 353.064 376.466 352.808 375.41 352.808C374.002 352.808 372.85 353.288 371.954 354.248C371.058 355.176 370.61 356.424 370.61 357.992L369.602 352.472ZM404.42 371.576C400.164 371.576 396.916 370.52 394.676 368.408C392.436 366.296 391.316 363.32 391.316 359.48C391.316 356.824 391.844 354.52 392.9 352.568C393.956 350.616 395.444 349.112 397.364 348.056C399.316 346.968 401.588 346.424 404.18 346.424C406.516 346.424 408.484 346.824 410.084 347.624C411.684 348.392 412.9 349.416 413.732 350.696C414.564 351.976 414.98 353.368 414.98 354.872C414.98 356.312 414.612 357.512 413.876 358.472C413.172 359.432 412.196 360.168 410.948 360.68C409.7 361.192 408.276 361.512 406.676 361.64C405.108 361.736 403.444 361.672 401.684 361.448C399.924 361.224 398.18 360.856 396.452 360.344V356.024C398.116 356.44 399.62 356.728 400.964 356.888C402.34 357.048 403.524 357.064 404.516 356.936C405.54 356.808 406.324 356.536 406.868 356.12C407.412 355.704 407.684 355.144 407.684 354.44C407.684 353.672 407.364 353.016 406.724 352.472C406.116 351.928 405.236 351.656 404.084 351.656C403.06 351.656 402.132 351.928 401.3 352.472C400.5 352.984 399.86 353.8 399.38 354.92C398.9 356.008 398.66 357.416 398.66 359.144C398.66 360.744 398.9 362.072 399.38 363.128C399.86 364.184 400.596 364.968 401.588 365.48C402.58 365.96 403.908 366.2 405.572 366.2C407.076 366.2 408.532 366.04 409.94 365.72C411.38 365.368 412.756 364.872 414.068 364.232V369.224C412.916 369.896 411.508 370.456 409.844 370.904C408.212 371.352 406.404 371.576 404.42 371.576ZM440.898 371H433.602C433.378 370.552 433.202 369.896 433.074 369.032C432.978 368.168 432.93 367.16 432.93 366.008L432.69 364.616V354.92C432.69 353.928 432.37 353.24 431.73 352.856C431.122 352.472 430.274 352.28 429.186 352.28C428.066 352.28 427.138 352.424 426.402 352.712C425.666 352.968 425.026 353.288 424.482 353.672C423.938 354.024 423.41 354.328 422.898 354.584C422.418 354.84 421.842 354.968 421.17 354.968C420.242 354.968 419.506 354.728 418.962 354.248C418.418 353.736 418.146 353.048 418.146 352.184C418.146 351.576 418.29 351 418.578 350.456C418.866 349.88 419.362 349.352 420.066 348.872C422.082 347.24 425.106 346.424 429.138 346.424C431.506 346.424 433.49 346.728 435.09 347.336C436.69 347.944 437.89 348.952 438.69 350.36C439.49 351.736 439.89 353.592 439.89 355.928V363.176C439.89 364.936 439.986 366.472 440.177 367.784C440.37 369.064 440.61 370.136 440.898 371ZM425.202 371.576C422.802 371.576 420.914 370.936 419.538 369.656C418.162 368.376 417.474 366.68 417.474 364.568C417.474 362.584 418.114 361.032 419.394 359.912C420.674 358.76 422.562 357.992 425.058 357.608L429.954 356.84C431.042 356.648 431.762 356.424 432.114 356.168C432.498 355.912 432.69 355.512 432.69 354.968V359.72C432.498 359.88 432.242 360.04 431.922 360.2C431.634 360.328 431.154 360.472 430.482 360.632L428.034 361.112C427.17 361.272 426.466 361.56 425.922 361.976C425.41 362.36 425.154 362.968 425.154 363.8C425.154 364.632 425.41 365.288 425.922 365.768C426.466 366.216 427.186 366.44 428.082 366.44C428.946 366.44 429.714 366.232 430.386 365.816C431.09 365.4 431.65 364.808 432.066 364.04C432.482 363.272 432.69 362.392 432.69 361.4L433.554 365.912C432.85 367.8 431.762 369.224 430.29 370.184C428.818 371.112 427.122 371.576 425.202 371.576ZM451.845 336.44V362.408C451.845 363.464 451.989 364.2 452.277 364.616C452.597 365 453.125 365.192 453.861 365.192C454.149 365.192 454.437 365.16 454.725 365.096C455.045 365.032 455.349 364.968 455.637 364.904V370.616C454.325 371.256 452.885 371.576 451.317 371.576C448.885 371.576 447.157 370.888 446.133 369.512C445.141 368.104 444.645 366.2 444.645 363.8V336.44H451.845ZM459.035 371V346.856C461.435 347.432 463.835 347.432 466.235 346.856V371H459.035ZM462.635 344.12C461.227 344.12 460.171 343.784 459.467 343.112C458.763 342.408 458.411 341.496 458.411 340.376C458.411 339.288 458.763 338.408 459.467 337.736C460.171 337.032 461.227 336.68 462.635 336.68C464.011 336.68 465.051 337.032 465.755 337.736C466.491 338.408 466.859 339.288 466.859 340.376C466.859 341.496 466.491 342.408 465.755 343.112C465.051 343.784 464.011 344.12 462.635 344.12ZM487.677 371V357.992C487.677 356.904 487.501 356.008 487.149 355.304C486.797 354.6 486.301 354.088 485.661 353.768C485.053 353.416 484.365 353.24 483.597 353.24C482.765 353.24 481.981 353.432 481.245 353.816C480.541 354.168 479.965 354.728 479.517 355.496C479.069 356.232 478.845 357.176 478.845 358.328L477.837 352.472C478.317 351.096 478.973 349.96 479.805 349.064C480.637 348.168 481.597 347.512 482.685 347.096C483.805 346.648 484.973 346.424 486.189 346.424C487.757 346.424 489.197 346.776 490.509 347.48C491.853 348.152 492.925 349.256 493.725 350.792C494.525 352.296 494.925 354.296 494.925 356.792V371H487.677ZM471.645 371V347H478.845V371H471.645ZM510.708 381.176C508.564 381.176 506.74 381.016 505.236 380.696C503.764 380.408 502.596 380.024 501.732 379.544C501.028 379.16 500.484 378.728 500.1 378.248C499.748 377.768 499.572 377.208 499.572 376.568C499.572 375.8 499.812 375.192 500.292 374.744C500.772 374.328 501.444 374.12 502.308 374.12C502.916 374.12 503.524 374.216 504.132 374.408C504.74 374.6 505.396 374.824 506.1 375.08C506.804 375.336 507.62 375.56 508.548 375.752C509.508 375.944 510.612 376.04 511.86 376.04C513.492 376.04 514.756 375.816 515.652 375.368C516.58 374.952 517.044 374.296 517.044 373.4C517.044 372.792 516.788 372.296 516.276 371.912C515.764 371.528 514.756 371.336 513.252 371.336H507.012C505.092 371.336 503.524 371.112 502.308 370.664C501.124 370.216 500.244 369.592 499.668 368.792C499.092 367.992 498.804 367.064 498.804 366.008C498.804 364.408 499.348 363.096 500.436 362.072C501.524 361.048 502.996 360.456 504.852 360.296L510.468 361.784C509.156 361.784 508.132 361.864 507.396 362.024C506.692 362.184 506.196 362.408 505.908 362.696C505.62 362.952 505.476 363.256 505.476 363.608C505.476 364.088 505.684 364.44 506.1 364.664C506.548 364.856 507.284 364.952 508.308 364.952H514.404C517.572 364.952 520.004 365.544 521.7 366.728C523.428 367.88 524.292 369.784 524.292 372.44C524.292 375.32 523.204 377.496 521.028 378.968C518.852 380.44 515.412 381.176 510.708 381.176ZM510.468 361.784C506.98 361.784 504.244 361.16 502.26 359.912C500.308 358.664 499.332 356.776 499.332 354.248C499.332 352.52 499.796 351.08 500.724 349.928C501.684 348.744 503.06 347.864 504.852 347.288C506.644 346.712 508.772 346.424 511.236 346.424L518.196 348.968C518.9 349.256 519.524 349.672 520.068 350.216C520.644 350.76 521.092 351.4 521.412 352.136C521.764 352.872 521.94 353.736 521.94 354.728C521.94 356.264 521.492 357.56 520.596 358.616C519.732 359.672 518.452 360.472 516.756 361.016C515.06 361.528 512.964 361.784 510.468 361.784ZM510.804 357.704C511.988 357.704 512.948 357.384 513.684 356.744C514.42 356.104 514.788 355.208 514.788 354.056C514.788 352.904 514.436 352.024 513.732 351.416C513.028 350.776 512.084 350.456 510.9 350.456C509.684 350.456 508.708 350.776 507.972 351.416C507.268 352.056 506.916 352.968 506.916 354.152C506.916 355.272 507.268 356.152 507.972 356.792C508.676 357.4 509.62 357.704 510.804 357.704ZM525.156 353.096C523.876 353.096 522.66 353.032 521.508 352.904C520.356 352.744 519.092 352.6 517.716 352.472L511.236 346.424C513.604 346.424 515.924 346.52 518.196 346.712C520.5 346.904 522.82 347 525.156 347V353.096Z" fill="white"/>
<path d="M52.232 324V317.256C52.232 316.312 52.024 315.64 51.608 315.24C51.208 314.824 50.712 314.616 50.12 314.616C49.688 314.616 49.272 314.72 48.872 314.928C48.472 315.136 48.144 315.456 47.888 315.888C47.648 316.304 47.528 316.84 47.528 317.496L46.52 314.808C46.84 314.104 47.248 313.528 47.744 313.08C48.256 312.616 48.808 312.272 49.4 312.048C50.008 311.824 50.616 311.712 51.224 311.712C51.992 311.712 52.68 311.888 53.288 312.24C53.912 312.592 54.408 313.128 54.776 313.848C55.144 314.568 55.328 315.504 55.328 316.656V324H52.232ZM36.632 324V312H39.704V324H36.632ZM44.432 324V317.256C44.432 316.312 44.224 315.64 43.808 315.24C43.408 314.824 42.904 314.616 42.296 314.616C41.864 314.616 41.448 314.72 41.048 314.928C40.664 315.136 40.344 315.456 40.088 315.888C39.832 316.304 39.704 316.84 39.704 317.496L39.176 314.808C39.432 314.104 39.776 313.528 40.208 313.08C40.656 312.616 41.152 312.272 41.696 312.048C42.256 311.824 42.84 311.712 43.448 311.712C44.232 311.712 44.928 311.888 45.536 312.24C46.144 312.576 46.624 313.104 46.976 313.824C47.344 314.528 47.528 315.432 47.528 316.536V324H44.432ZM68.5893 324H65.4693C65.3573 323.76 65.2693 323.424 65.2053 322.992C65.1573 322.544 65.1253 322.04 65.1093 321.48L64.9653 320.856V315.816C64.9653 315.224 64.7813 314.816 64.4133 314.592C64.0613 314.368 63.5813 314.256 62.9733 314.256C62.3813 314.256 61.8933 314.328 61.5093 314.472C61.1253 314.616 60.8053 314.784 60.5493 314.976C60.2933 315.168 60.0453 315.336 59.8053 315.48C59.5813 315.624 59.3173 315.696 59.0133 315.696C58.6293 315.696 58.3173 315.592 58.0773 315.384C57.8373 315.16 57.7173 314.864 57.7173 314.496C57.7173 314.224 57.7813 313.96 57.9093 313.704C58.0373 313.448 58.2613 313.2 58.5813 312.96C59.5573 312.128 61.0133 311.712 62.9493 311.712C64.0533 311.712 64.9813 311.856 65.7333 312.144C66.4853 312.432 67.0613 312.904 67.4613 313.56C67.8613 314.216 68.0613 315.096 68.0613 316.2V320.232C68.0613 321.064 68.1093 321.8 68.2053 322.44C68.3013 323.064 68.4293 323.584 68.5893 324ZM61.1733 324.288C60.0213 324.288 59.1013 323.976 58.4133 323.352C57.7253 322.728 57.3813 321.88 57.3813 320.808C57.3813 319.848 57.6853 319.088 58.2933 318.528C58.9173 317.952 59.8453 317.56 61.0773 317.352L63.4293 316.968C64.0533 316.84 64.4613 316.704 64.6533 316.56C64.8613 316.416 64.9653 316.184 64.9653 315.864V318.12C64.8853 318.216 64.7493 318.312 64.5573 318.408C64.3653 318.488 64.0773 318.568 63.6933 318.648L62.3013 318.936C61.8053 319.032 61.4053 319.2 61.1013 319.44C60.7973 319.68 60.6453 320.04 60.6453 320.52C60.6453 321 60.7973 321.376 61.1013 321.648C61.4213 321.92 61.8373 322.056 62.3493 322.056C62.8293 322.056 63.2613 321.944 63.6453 321.72C64.0453 321.48 64.3653 321.152 64.6053 320.736C64.8453 320.304 64.9653 319.8 64.9653 319.224L65.4213 321.384C65.0533 322.376 64.4933 323.112 63.7413 323.592C62.9893 324.056 62.1333 324.288 61.1733 324.288ZM79.0571 324V317.328C79.0571 316.688 78.9531 316.176 78.7451 315.792C78.5371 315.392 78.2491 315.096 77.8811 314.904C77.5291 314.712 77.1371 314.616 76.7051 314.616C76.2411 314.616 75.8011 314.72 75.3851 314.928C74.9691 315.136 74.6331 315.456 74.3771 315.888C74.1211 316.304 73.9931 316.84 73.9931 317.496L73.4651 314.808C73.7211 314.104 74.0651 313.528 74.4971 313.08C74.9451 312.616 75.4491 312.272 76.0091 312.048C76.5851 311.824 77.1771 311.712 77.7851 311.712C78.5531 311.712 79.2651 311.888 79.9211 312.24C80.5931 312.592 81.1291 313.144 81.5291 313.896C81.9291 314.648 82.1291 315.632 82.1291 316.848V324H79.0571ZM70.9211 324V312H73.9931V324H70.9211ZM86.0045 329.088C85.5565 329.088 85.1325 329.024 84.7325 328.896C84.3485 328.784 84.0365 328.6 83.7965 328.344C83.5565 328.088 83.4365 327.768 83.4365 327.384C83.4365 327 83.5485 326.704 83.7725 326.496C83.9965 326.288 84.2765 326.184 84.6125 326.184C84.8365 326.184 85.0365 326.216 85.2125 326.28C85.3885 326.344 85.5805 326.376 85.7885 326.376C86.0125 326.376 86.2285 326.312 86.4365 326.184C86.6445 326.056 86.8685 325.816 87.1085 325.464C87.3485 325.128 87.5965 324.64 87.8525 324L96.0605 312L90.9965 324.576C90.3565 326.192 89.6285 327.344 88.8125 328.032C88.0125 328.736 87.0765 329.088 86.0045 329.088ZM87.8525 324L83.0285 312H86.5325L90.6125 324H87.8525ZM91.2365 324H88.7165L92.6285 312H96.0605L91.2365 324ZM112.034 324V317.328C112.034 316.688 111.93 316.176 111.722 315.792C111.514 315.392 111.226 315.096 110.858 314.904C110.506 314.712 110.114 314.616 109.682 314.616C109.218 314.616 108.778 314.72 108.362 314.928C107.946 315.136 107.61 315.456 107.354 315.888C107.098 316.304 106.97 316.84 106.97 317.496L106.442 314.808C106.714 314.104 107.066 313.528 107.498 313.08C107.946 312.616 108.45 312.272 109.01 312.048C109.57 311.824 110.154 311.712 110.762 311.712C111.53 311.712 112.242 311.888 112.898 312.24C113.57 312.592 114.106 313.144 114.506 313.896C114.906 314.648 115.106 315.632 115.106 316.848V324H112.034ZM103.898 324V306.72H106.97V324H103.898ZM128.378 324H125.258C125.146 323.76 125.058 323.424 124.994 322.992C124.946 322.544 124.914 322.04 124.898 321.48L124.754 320.856V315.816C124.754 315.224 124.57 314.816 124.202 314.592C123.85 314.368 123.37 314.256 122.762 314.256C122.17 314.256 121.682 314.328 121.298 314.472C120.914 314.616 120.594 314.784 120.338 314.976C120.082 315.168 119.834 315.336 119.594 315.48C119.37 315.624 119.106 315.696 118.802 315.696C118.418 315.696 118.106 315.592 117.866 315.384C117.626 315.16 117.506 314.864 117.506 314.496C117.506 314.224 117.57 313.96 117.698 313.704C117.826 313.448 118.05 313.2 118.37 312.96C119.346 312.128 120.802 311.712 122.738 311.712C123.842 311.712 124.77 311.856 125.522 312.144C126.274 312.432 126.85 312.904 127.25 313.56C127.65 314.216 127.85 315.096 127.85 316.2V320.232C127.85 321.064 127.898 321.8 127.994 322.44C128.09 323.064 128.218 323.584 128.378 324ZM120.962 324.288C119.81 324.288 118.89 323.976 118.202 323.352C117.514 322.728 117.17 321.88 117.17 320.808C117.17 319.848 117.474 319.088 118.082 318.528C118.706 317.952 119.634 317.56 120.866 317.352L123.218 316.968C123.842 316.84 124.25 316.704 124.442 316.56C124.65 316.416 124.754 316.184 124.754 315.864V318.12C124.674 318.216 124.538 318.312 124.346 318.408C124.154 318.488 123.866 318.568 123.482 318.648L122.09 318.936C121.594 319.032 121.194 319.2 120.89 319.44C120.586 319.68 120.434 320.04 120.434 320.52C120.434 321 120.586 321.376 120.89 321.648C121.21 321.92 121.626 322.056 122.138 322.056C122.618 322.056 123.05 321.944 123.434 321.72C123.834 321.48 124.154 321.152 124.394 320.736C124.634 320.304 124.754 319.8 124.754 319.224L125.21 321.384C124.842 322.376 124.282 323.112 123.53 323.592C122.778 324.056 121.922 324.288 120.962 324.288ZM133.556 324L128.732 312H132.236L136.316 324H133.556ZM136.94 324H134.42L138.332 312H141.764L136.94 324ZM148.443 324.288C146.395 324.288 144.819 323.76 143.715 322.704C142.611 321.632 142.059 320.144 142.059 318.24C142.059 316.912 142.315 315.76 142.827 314.784C143.355 313.808 144.091 313.056 145.035 312.528C145.995 311.984 147.099 311.712 148.347 311.712C149.451 311.712 150.379 311.904 151.131 312.288C151.899 312.656 152.483 313.152 152.883 313.776C153.283 314.4 153.483 315.08 153.483 315.816C153.483 316.52 153.307 317.112 152.955 317.592C152.603 318.056 152.115 318.416 151.491 318.672C150.883 318.912 150.179 319.064 149.379 319.128C148.595 319.192 147.755 319.176 146.859 319.08C145.979 318.968 145.099 318.784 144.219 318.528V316.632C145.067 316.84 145.859 316.984 146.595 317.064C147.331 317.128 147.979 317.128 148.539 317.064C149.115 316.984 149.563 316.832 149.883 316.608C150.203 316.368 150.363 316.04 150.363 315.624C150.363 315.192 150.187 314.816 149.835 314.496C149.483 314.16 148.979 313.992 148.323 313.992C147.715 313.992 147.179 314.144 146.715 314.448C146.251 314.752 145.883 315.208 145.611 315.816C145.355 316.424 145.227 317.184 145.227 318.096C145.227 318.944 145.355 319.656 145.611 320.232C145.867 320.792 146.267 321.216 146.811 321.504C147.355 321.792 148.059 321.936 148.923 321.936C149.627 321.936 150.331 321.856 151.035 321.696C151.739 321.52 152.427 321.256 153.099 320.904V323.112C152.555 323.448 151.883 323.728 151.083 323.952C150.299 324.176 149.419 324.288 148.443 324.288ZM167.715 324.288C165.875 324.288 164.435 323.768 163.395 322.728C162.355 321.672 161.835 320.232 161.835 318.408L164.907 318.576C164.907 319.488 165.163 320.232 165.675 320.808C166.203 321.368 166.883 321.648 167.715 321.648C168.627 321.648 169.347 321.32 169.875 320.664C170.419 320.008 170.691 319.128 170.691 318.024C170.691 317.288 170.563 316.656 170.307 316.128C170.051 315.6 169.699 315.192 169.251 314.904C168.803 314.616 168.275 314.472 167.667 314.472C166.851 314.472 166.187 314.736 165.675 315.264C165.163 315.792 164.907 316.488 164.907 317.352L164.379 314.808C164.763 313.816 165.323 313.056 166.059 312.528C166.811 311.984 167.699 311.712 168.723 311.712C169.715 311.712 170.603 311.968 171.387 312.48C172.187 312.976 172.811 313.68 173.259 314.592C173.723 315.504 173.955 316.592 173.955 317.856C173.955 319.12 173.707 320.24 173.211 321.216C172.731 322.176 172.027 322.928 171.099 323.472C170.171 324.016 169.043 324.288 167.715 324.288ZM164.907 319.584L161.835 318.408V306.72H164.907V319.584ZM182.076 324.288C180.028 324.288 178.452 323.76 177.348 322.704C176.244 321.632 175.692 320.144 175.692 318.24C175.692 316.912 175.948 315.76 176.46 314.784C176.988 313.808 177.724 313.056 178.668 312.528C179.628 311.984 180.732 311.712 181.98 311.712C183.084 311.712 184.012 311.904 184.764 312.288C185.532 312.656 186.116 313.152 186.516 313.776C186.916 314.4 187.116 315.08 187.116 315.816C187.116 316.52 186.94 317.112 186.588 317.592C186.236 318.056 185.748 318.416 185.124 318.672C184.516 318.912 183.812 319.064 183.012 319.128C182.228 319.192 181.388 319.176 180.492 319.08C179.612 318.968 178.732 318.784 177.852 318.528V316.632C178.7 316.84 179.492 316.984 180.228 317.064C180.964 317.128 181.612 317.128 182.172 317.064C182.748 316.984 183.196 316.832 183.516 316.608C183.836 316.368 183.996 316.04 183.996 315.624C183.996 315.192 183.82 314.816 183.468 314.496C183.116 314.16 182.612 313.992 181.956 313.992C181.348 313.992 180.812 314.144 180.348 314.448C179.884 314.752 179.516 315.208 179.244 315.816C178.988 316.424 178.86 317.184 178.86 318.096C178.86 318.944 178.988 319.656 179.244 320.232C179.5 320.792 179.9 321.216 180.444 321.504C180.988 321.792 181.692 321.936 182.556 321.936C183.26 321.936 183.964 321.856 184.668 321.696C185.372 321.52 186.06 321.256 186.732 320.904V323.112C186.188 323.448 185.516 323.728 184.716 323.952C183.932 324.176 183.052 324.288 182.076 324.288ZM194.967 324.288C192.919 324.288 191.343 323.76 190.239 322.704C189.135 321.632 188.583 320.144 188.583 318.24C188.583 316.912 188.839 315.76 189.351 314.784C189.879 313.808 190.615 313.056 191.559 312.528C192.519 311.984 193.623 311.712 194.871 311.712C195.975 311.712 196.903 311.904 197.655 312.288C198.423 312.656 199.007 313.152 199.407 313.776C199.807 314.4 200.007 315.08 200.007 315.816C200.007 316.52 199.831 317.112 199.479 317.592C199.127 318.056 198.639 318.416 198.015 318.672C197.407 318.912 196.703 319.064 195.903 319.128C195.119 319.192 194.279 319.176 193.383 319.08C192.503 318.968 191.623 318.784 190.743 318.528V316.632C191.591 316.84 192.383 316.984 193.119 317.064C193.855 317.128 194.503 317.128 195.063 317.064C195.639 316.984 196.087 316.832 196.407 316.608C196.727 316.368 196.887 316.04 196.887 315.624C196.887 315.192 196.711 314.816 196.359 314.496C196.007 314.16 195.503 313.992 194.847 313.992C194.239 313.992 193.703 314.144 193.239 314.448C192.775 314.752 192.407 315.208 192.135 315.816C191.879 316.424 191.751 317.184 191.751 318.096C191.751 318.944 191.879 319.656 192.135 320.232C192.391 320.792 192.791 321.216 193.335 321.504C193.879 321.792 194.583 321.936 195.447 321.936C196.151 321.936 196.855 321.856 197.559 321.696C198.263 321.52 198.951 321.256 199.623 320.904V323.112C199.079 323.448 198.407 323.728 197.607 323.952C196.823 324.176 195.943 324.288 194.967 324.288ZM210.401 324V317.328C210.401 316.688 210.297 316.176 210.089 315.792C209.881 315.392 209.593 315.096 209.225 314.904C208.873 314.712 208.481 314.616 208.049 314.616C207.585 314.616 207.145 314.72 206.729 314.928C206.313 315.136 205.977 315.456 205.721 315.888C205.465 316.304 205.337 316.84 205.337 317.496L204.809 314.808C205.065 314.104 205.409 313.528 205.841 313.08C206.289 312.616 206.793 312.272 207.353 312.048C207.929 311.824 208.521 311.712 209.129 311.712C209.897 311.712 210.609 311.888 211.265 312.24C211.937 312.592 212.473 313.144 212.873 313.896C213.273 314.648 213.473 315.632 213.473 316.848V324H210.401ZM202.265 324V312H205.337V324H202.265ZM37.496 352V338.752C37.496 337.76 37.688 336.952 38.072 336.328C38.456 335.688 38.976 335.216 39.632 334.912C40.288 334.592 41.024 334.432 41.84 334.432C42.672 334.432 43.304 334.584 43.736 334.888C44.184 335.176 44.408 335.592 44.408 336.136C44.408 336.52 44.304 336.824 44.096 337.048C43.904 337.256 43.656 337.36 43.352 337.36C43.144 337.36 42.928 337.328 42.704 337.264C42.496 337.184 42.256 337.144 41.984 337.144C41.6 337.144 41.264 337.272 40.976 337.528C40.704 337.784 40.568 338.224 40.568 338.848V352H37.496ZM36.872 342.736C36.488 342.736 36.152 342.624 35.864 342.4C35.592 342.176 35.456 341.832 35.456 341.368C35.456 340.92 35.592 340.584 35.864 340.36C36.152 340.12 36.488 340 36.872 340H44.12V342.736H36.872ZM44.7234 346.096C44.7234 344.816 44.9794 343.704 45.4914 342.76C46.0034 341.8 46.7314 341.056 47.6754 340.528C48.6194 339.984 49.7394 339.712 51.0354 339.712C52.2674 339.712 53.3474 339.968 54.2754 340.48C55.2034 340.976 55.9234 341.688 56.4354 342.616C56.9634 343.528 57.2274 344.632 57.2274 345.928C57.2274 347.192 56.9714 348.304 56.4594 349.264C55.9634 350.208 55.2434 350.952 54.2994 351.496C53.3554 352.024 52.2434 352.288 50.9634 352.288C49.7314 352.288 48.6434 352.04 47.6994 351.544C46.7714 351.032 46.0434 350.312 45.5154 349.384C44.9874 348.456 44.7234 347.36 44.7234 346.096ZM47.9634 346.048C47.9634 346.8 48.0914 347.448 48.3474 347.992C48.6034 348.52 48.9554 348.928 49.4034 349.216C49.8674 349.488 50.3794 349.624 50.9394 349.624C51.5154 349.624 52.0354 349.48 52.4994 349.192C52.9634 348.888 53.3234 348.464 53.5794 347.92C53.8514 347.36 53.9874 346.704 53.9874 345.952C53.9874 345.2 53.8594 344.56 53.6034 344.032C53.3474 343.488 52.9954 343.08 52.5474 342.808C52.1154 342.52 51.6114 342.376 51.0354 342.376C50.4434 342.376 49.9154 342.528 49.4514 342.832C49.0034 343.12 48.6434 343.536 48.3714 344.08C48.0994 344.624 47.9634 345.28 47.9634 346.048ZM64.8568 352.288C63.0488 352.288 61.6648 351.832 60.7048 350.92C59.7608 349.992 59.2888 348.632 59.2888 346.84V340H62.3848V346.816C62.3848 347.728 62.6008 348.408 63.0328 348.856C63.4648 349.304 64.0728 349.528 64.8568 349.528C65.6408 349.528 66.2408 349.304 66.6568 348.856C67.0888 348.408 67.3048 347.728 67.3048 346.816V340H70.4008V346.84C70.4008 348.632 69.9208 349.992 68.9608 350.92C68.0168 351.832 66.6488 352.288 64.8568 352.288ZM81.2368 352V345.328C81.2368 344.688 81.1328 344.176 80.9248 343.792C80.7168 343.392 80.4288 343.096 80.0608 342.904C79.7088 342.712 79.3168 342.616 78.8848 342.616C78.4208 342.616 77.9808 342.72 77.5648 342.928C77.1488 343.136 76.8128 343.456 76.5568 343.888C76.3008 344.304 76.1728 344.84 76.1728 345.496L75.6448 342.808C75.9008 342.104 76.2448 341.528 76.6768 341.08C77.1248 340.616 77.6288 340.272 78.1888 340.048C78.7648 339.824 79.3568 339.712 79.9648 339.712C80.7328 339.712 81.4448 339.888 82.1008 340.24C82.7728 340.592 83.3088 341.144 83.7088 341.896C84.1088 342.648 84.3088 343.632 84.3088 344.848V352H81.2368ZM73.1008 352V340H76.1728V352H73.1008ZM98.4924 334.72V352H95.3964V334.72H98.4924ZM95.9244 349.192C95.5564 350.168 94.9964 350.928 94.2444 351.472C93.5084 352.016 92.6284 352.288 91.6044 352.288C90.6124 352.288 89.7164 352.04 88.9164 351.544C88.1324 351.032 87.5084 350.312 87.0444 349.384C86.5804 348.44 86.3484 347.32 86.3484 346.024C86.3484 344.744 86.5724 343.64 87.0204 342.712C87.4844 341.768 88.1164 341.032 88.9164 340.504C89.7324 339.976 90.6764 339.712 91.7484 339.712C92.7724 339.712 93.6284 339.96 94.3164 340.456C95.0044 340.936 95.4764 341.608 95.7324 342.472L95.3964 345.232C95.3964 344.672 95.2764 344.176 95.0364 343.744C94.7964 343.312 94.4684 342.976 94.0524 342.736C93.6524 342.48 93.1804 342.352 92.6364 342.352C92.0444 342.352 91.5164 342.504 91.0524 342.808C90.6044 343.112 90.2524 343.536 89.9964 344.08C89.7564 344.624 89.6364 345.256 89.6364 345.976C89.6364 346.696 89.7564 347.328 89.9964 347.872C90.2524 348.4 90.6044 348.808 91.0524 349.096C91.5164 349.384 92.0524 349.528 92.6604 349.528C93.4764 349.528 94.1324 349.264 94.6284 348.736C95.1404 348.208 95.3964 347.512 95.3964 346.648L95.9244 349.192ZM114.726 351.784C114.358 351.944 113.966 352.064 113.55 352.144C113.134 352.24 112.694 352.288 112.23 352.288C111.046 352.288 110.142 351.952 109.518 351.28C108.894 350.608 108.582 349.624 108.582 348.328V342.736H107.91C107.51 342.736 107.182 342.624 106.926 342.4C106.67 342.176 106.542 341.856 106.542 341.44C106.542 341.072 106.646 340.76 106.854 340.504C107.062 340.248 107.366 340.016 107.766 339.808L111.654 337.792V340H115.206V342.736H111.654V347.824C111.654 348.464 111.782 348.92 112.038 349.192C112.31 349.448 112.694 349.576 113.19 349.576C113.446 349.576 113.694 349.552 113.934 349.504C114.19 349.44 114.454 349.36 114.726 349.264V351.784ZM116.091 346.096C116.091 344.816 116.347 343.704 116.859 342.76C117.371 341.8 118.099 341.056 119.043 340.528C119.987 339.984 121.107 339.712 122.403 339.712C123.635 339.712 124.715 339.968 125.643 340.48C126.571 340.976 127.291 341.688 127.803 342.616C128.331 343.528 128.595 344.632 128.595 345.928C128.595 347.192 128.339 348.304 127.827 349.264C127.331 350.208 126.611 350.952 125.667 351.496C124.723 352.024 123.611 352.288 122.331 352.288C121.099 352.288 120.011 352.04 119.067 351.544C118.139 351.032 117.411 350.312 116.883 349.384C116.355 348.456 116.091 347.36 116.091 346.096ZM119.331 346.048C119.331 346.8 119.459 347.448 119.715 347.992C119.971 348.52 120.323 348.928 120.771 349.216C121.235 349.488 121.747 349.624 122.307 349.624C122.883 349.624 123.403 349.48 123.867 349.192C124.331 348.888 124.691 348.464 124.947 347.92C125.219 347.36 125.355 346.704 125.355 345.952C125.355 345.2 125.227 344.56 124.971 344.032C124.715 343.488 124.363 343.08 123.915 342.808C123.483 342.52 122.979 342.376 122.403 342.376C121.811 342.376 121.283 342.528 120.819 342.832C120.371 343.12 120.011 343.536 119.739 344.08C119.467 344.624 119.331 345.28 119.331 346.048ZM142.965 352.288C141.125 352.288 139.685 351.768 138.645 350.728C137.605 349.672 137.085 348.232 137.085 346.408L140.157 346.576C140.157 347.488 140.413 348.232 140.925 348.808C141.453 349.368 142.133 349.648 142.965 349.648C143.877 349.648 144.597 349.32 145.125 348.664C145.669 348.008 145.941 347.128 145.941 346.024C145.941 345.288 145.813 344.656 145.557 344.128C145.301 343.6 144.949 343.192 144.501 342.904C144.053 342.616 143.525 342.472 142.917 342.472C142.101 342.472 141.437 342.736 140.925 343.264C140.413 343.792 140.157 344.488 140.157 345.352L139.629 342.808C140.013 341.816 140.573 341.056 141.309 340.528C142.061 339.984 142.949 339.712 143.973 339.712C144.965 339.712 145.853 339.968 146.637 340.48C147.437 340.976 148.061 341.68 148.509 342.592C148.973 343.504 149.205 344.592 149.205 345.856C149.205 347.12 148.957 348.24 148.461 349.216C147.981 350.176 147.277 350.928 146.349 351.472C145.421 352.016 144.293 352.288 142.965 352.288ZM140.157 347.584L137.085 346.408V334.72H140.157V347.584ZM157.326 352.288C155.278 352.288 153.702 351.76 152.598 350.704C151.494 349.632 150.942 348.144 150.942 346.24C150.942 344.912 151.198 343.76 151.71 342.784C152.238 341.808 152.974 341.056 153.918 340.528C154.878 339.984 155.982 339.712 157.23 339.712C158.334 339.712 159.262 339.904 160.014 340.288C160.782 340.656 161.366 341.152 161.766 341.776C162.166 342.4 162.366 343.08 162.366 343.816C162.366 344.52 162.19 345.112 161.838 345.592C161.486 346.056 160.998 346.416 160.374 346.672C159.766 346.912 159.062 347.064 158.262 347.128C157.478 347.192 156.638 347.176 155.742 347.08C154.862 346.968 153.982 346.784 153.102 346.528V344.632C153.95 344.84 154.742 344.984 155.478 345.064C156.214 345.128 156.862 345.128 157.422 345.064C157.998 344.984 158.446 344.832 158.766 344.608C159.086 344.368 159.246 344.04 159.246 343.624C159.246 343.192 159.07 342.816 158.718 342.496C158.366 342.16 157.862 341.992 157.206 341.992C156.598 341.992 156.062 342.144 155.598 342.448C155.134 342.752 154.766 343.208 154.494 343.816C154.238 344.424 154.11 345.184 154.11 346.096C154.11 346.944 154.238 347.656 154.494 348.232C154.75 348.792 155.15 349.216 155.694 349.504C156.238 349.792 156.942 349.936 157.806 349.936C158.51 349.936 159.214 349.856 159.918 349.696C160.622 349.52 161.31 349.256 161.982 348.904V351.112C161.438 351.448 160.766 351.728 159.966 351.952C159.182 352.176 158.302 352.288 157.326 352.288Z" fill="white"/>
</svg>
