<?xml version="1.0" encoding="UTF-8"?>
<svg id="Layer_2" data-name="Layer 2" xmlns="http://www.w3.org/2000/svg" viewBox="0 0 783.21 851.5">
  <defs>
    <style>
      .cls-1 {
        fill: #64bcad;
      }

      .cls-2, .cls-3, .cls-4 {
        fill: #22303a;
      }

      .cls-3 {
        stroke: #000;
      }

      .cls-3, .cls-5, .cls-6, .cls-4 {
        stroke-miterlimit: 10;
      }

      .cls-3, .cls-4 {
        stroke-width: 1.63px;
      }

      .cls-7 {
        fill: #7da75b;
      }

      .cls-8 {
        fill: #597240;
      }

      .cls-9 {
        fill: #fff;
      }

      .cls-5 {
        fill: none;
        stroke: #f2ad6e;
        stroke-width: 4.9px;
      }

      .cls-10 {
        fill: #f2ad6e;
      }

      .cls-11, .cls-6 {
        fill: #f7d25d;
      }

      .cls-12 {
        fill: #b5e8de;
      }

      .cls-6 {
        stroke: #f7d25d;
        stroke-width: .5px;
      }

      .cls-4 {
        stroke: #22303a;
      }
    </style>
  </defs>
  <g id="Layer_27" data-name="Layer 27">
    <g>
      <path class="cls-1" d="M434.62,114.24h-33.61c-2.19-3.52-2.36-7.83-2.05-12.07.09-.18.19-.36.29-.54,1.65-2.85,5.19-4.47,8.96-4.83-.02.11-.04.22-.06.34-.69,4.81.56,10.45,5.13,12.99,3.84,2.13,9.24,1.35,11.42-2.75,2.37-4.44-.09-9.65-3.96-12.24-1.75-1.17-3.78-2.01-5.91-2.53,3.96-6.52,11.97-6.28,18.73-5.93,3.15.17,3.14-4.73,0-4.9-5.77-.3-12.1-.48-17.26,2.59-2.98,1.77-5.23,4.48-6.64,7.6-2-.03-3.98.2-5.82.66-10.71,2.73-11.21,12.37-11.16,21.61h-35.29c-75.75,0-137.73,61.98-137.73,137.73v115.79c0,5.39,4.41,9.79,9.79,9.79h333.1c5.39,0,9.79-4.41,9.79-9.79v-115.79c0-75.75-61.98-137.73-137.73-137.73ZM413.07,97.02c2.59.51,4.92,1.65,6.41,3.44,1.83,2.19,1.6,6.11-2,5.93-1.73-.09-3-1.28-3.8-2.69-1.09-1.92-1.13-4.38-.61-6.68Z"/>
      <path class="cls-1" d="M211.03,612.49c6.73,5.46,17.97,2.73,25.78.78,8.38-2.09,21.07-5.42,25.15-14.06,1.17-.26,2.34-.53,3.52-.78,3.31-.72,6.62-1.15,9.92-1.43-.48-1.42-.93-2.85-1.4-4.27,1.05-1.07,1.62-2.62,1.22-4.54-.49-2.34-2.09-3.59-3.89-3.95-1.6-5.27-3.13-10.55-4.6-15.82-.76-2.73-1.49-5.46-2.21-8.19-12.9-11.81-24.1-25.32-35.51-38.6-2.74-3.19-5.49-6.36-8.38-9.42-1.32-1.39-2.66-2.73-4.1-4-1.19-1.05-2.4-2.09-3.61-3.13-3.37-2.65-2.38-1.97-1.4-1.19-.01-.01-.03-.02-.04-.04-3.02-2.53-6.08-5-9.18-7.42-2.15-.2-4.3-.31-6.47-.29-1.72.23-3.43.53-5.13.91-5.99,1.35-11.76.04-16.45-3-4.29,10.3-2.44,26.51,13.28,52.03,0,0-4.16,34.09-22.95-1.65,0,0-8.1,53.55,32.72,48.46-4.34.81-16.8,5.01-9.94,26.5,0,0,4.07-10.32,23.67-6.9Z"/>
      <path class="cls-1" d="M219.66,367.76s-1.51,109.41-60.97,108.02c0,0,25.54,30.02,69.05-5.53,0,0-29.11,71.9,0,99.55,0,0-18.31,68.04,63.21,38.71,0,0,32.51,11.06-6.32,22.12,0,0,51.93,19.36,54.25-23.5,0,0-3.12,19.36,23.8,16.59,0,0-15.62-10.26,9.79-44.54,25.42-34.27,10.03-103.4,10.03-103.4l-162.83-108.02Z"/>
      <path class="cls-1" d="M561.61,329.1s57.61,91.34,40.59,154.77c0,0-10.59-45.89-25.3-56.39,0,0,49.87,96.98,5.2,144.94,0,0-11.33,35.9-48.46,52.91,0,0,.93-14.64-17.83-23.75,0,0-4.34-12.15,7.09,18.8,0,0-42.12,5.36-32.51-16.3,0,0-10.91,42.12-53.13,22.49,0,0,28.58,10.85-18.67-39.36-47.25-50.21-41.07-107-41.07-107l176.3-143"/>
      <path class="cls-8" d="M416.32,639.19L123.3,172.75s-62.43,53-77.99,42.53c-15.56-10.47,261.78,508.61,261.78,508.61,0,0,97.1-50.51,109.22-84.7Z"/>
      <path class="cls-7" d="M262.36,848.92c0,.89.11,1.75.3,2.59h277.74l17.91-172.18c4.46-42.91-14.48-85.27-50.2-109.46-18.62-12.61-41.04-19.99-65.09-19.99h-76.8c-19.91,0-38.81,4.52-55.72,12.59-51.63,24.63-80.34,80.88-71.48,137.4l23.36,149.05Z"/>
      <path class="cls-10" d="M444.9,551.29c-1.51,14.32-6.28,28.07-14.05,40.22-3.93,6.16-8.65,11.82-13.95,16.85-5.96,5.66-13.1,11.53-21.59,12.29-.03,0-.05.01-.07.01-11.7-6.44-22.12-15.02-30.66-25.31-8.72-10.5-17.64-28.98-17.54-43.39-1.3.23-2.61.44-3.93.53-.1.04-.21.08-.31.12-.22.08-.43.16-.65.21.11,15.16,9.22,34.19,18.33,45.2,9.19,11.09,20.3,20.35,32.96,27.23l.51,10.6c-1.88.05-3.76.13-5.64.29-3.13.27-2.91,5.16.24,4.89,1.88-.16,3.76-.25,5.64-.29l.63,13.05c.15,3.15,5.04,2.92,4.89-.24l-.62-12.82c1.77.04,3.54.12,5.32.26,3.13.25,2.87-4.64-.24-4.89-1.77-.14-3.55-.22-5.32-.26l-.52-10.73c14.53-2.8,26.84-16.75,34.78-28.23,9.2-13.3,14.96-28.78,16.6-44.86-1.61-.26-3.18-.78-4.81-.75Z"/>
      <path class="cls-9" d="M373.54,493.01h44.92c6,0,10.87,4.87,10.87,10.87v41.97c0,18.4-14.94,33.33-33.33,33.33h0c-18.4,0-33.33-14.94-33.33-33.33v-41.97c0-6,4.87-10.87,10.87-10.87Z"/>
      <path class="cls-11" d="M363.77,527.1c2.23.72,4.51,1.28,6.8,1.72.7.13,1.41.25,2.11.36.1.01.19.02.31.04,1.19.11,2.37.23,3.56.32,10.48.75,21.68,1,32.14.04.38-.03.75-.08,1.13-.12.2-.03.48-.08.87-.14,1.14-.23,2.28-.43,3.41-.7,2.53-.59,4.95-1.41,7.4-2.25.22-.08.4-.14.55-.19.1-.05.2-.09.32-.15,1.12-.53,2.24-1.06,3.34-1.62,1.23-.63,2.44-1.31,3.63-2v-19.59c0-5.39-4.41-9.79-9.79-9.79h-47.08c-5.39,0-9.79,4.41-9.79,9.79v23.9c.36.13.73.26,1.09.38Z"/>
      <path class="cls-2" d="M366,522.49c1.08-.05,2.15-.11,3.22-.2.12-.01.91-.09,1.41-.13.58-.1,2.16-.35,2.36-.39.91-.18,1.81-.38,2.71-.6,2.17-.54,4.29-1.22,6.39-1.97,4.09-1.48,8.17-3.03,12.19-4.68.38-.16,2.51-1.08,4.12-1.83,2.16-1,4.3-2.07,6.39-3.2,1.9-1.03,3.77-2.12,5.6-3.27.79-.5,1.58-1.01,2.34-1.56.07-.05.11-.08.16-.11.18-.16.41-.37.74-.66,3.56-3.15,7.03-6.52,10.73-9.58-1.43-.82-3.07-1.29-4.83-1.29h-47.08c-5.39,0-9.79,4.41-9.79,9.79v19.78c1.11-.02,2.22-.04,3.32-.09Z"/>
      <g id="face">
        <g>
          <path class="cls-9" d="M320.65,382.42c-13.23,27.12-45.94,38.38-73.05,25.15-27.12-13.23-38.38-45.94-25.15-73.05,13.23-27.12,37.75-21.6,64.87-8.37,27.12,13.23,46.56,29.16,33.33,56.28Z"/>
          <path class="cls-11" d="M221.48,334.48c6.57-13.46,15.92-18.88,27-19.3v93.2c-.62-.27-1.24-.55-1.85-.85-27.12-13.23-38.38-45.94-25.15-73.05Z"/>
          <path class="cls-2" d="M272.39,382.27c-1.87-8.43-4.63-16.64-8.22-24.49-3.46-7.57-7.63-15.01-12.81-21.54-2.8-3.53-6.04-6.7-9.86-9.11-.89-.56-1.71.85-.82,1.41,6.76,4.26,11.47,10.96,15.54,17.68,4.37,7.21,7.97,14.87,10.74,22.83,1.56,4.47,2.84,9.03,3.87,13.66.23,1.03,1.8.59,1.57-.43Z"/>
        </g>
        <path class="cls-9" d="M258.36,191.99h275.29v177.15c0,76.4-62.03,138.43-138.43,138.43h-9.82c-70.12,0-127.04-56.93-127.04-127.04v-188.53h0Z"/>
        <path class="cls-9" d="M483.9,374.67c13.23,27.12,45.94,38.38,73.05,25.15,27.12-13.23,38.38-45.94,25.15-73.05-13.23-27.12-37.75-21.6-64.87-8.37-27.12,13.23-46.56,29.16-33.33,56.28Z"/>
        <path class="cls-11" d="M583.08,326.73c-6.57-13.46-15.92-18.88-27-19.3v93.2c.62-.27,1.24-.55,1.85-.85,27.12-13.23,38.38-45.94,25.15-73.05Z"/>
        <path class="cls-2" d="M533.67,374.53c1.87-8.43,4.63-16.64,8.22-24.49,3.46-7.57,7.63-15.01,12.81-21.54,2.8-3.53,6.04-6.7,9.86-9.11.89-.56,1.71.85.82,1.41-6.76,4.26-11.47,10.96-15.54,17.68-4.37,7.21-7.97,14.87-10.74,22.83-1.56,4.47-2.84,9.03-3.87,13.66-.23,1.03-1.8.59-1.57-.43Z"/>
      </g>
      <g id="eyebrows">
        <path class="cls-3" d="M347.5,323.83c-16.91-1.89-34.4-3.77-51.02,1.07-4.37,1.27-8.62,3.02-12.59,5.26-1.37.77-.14,2.89,1.24,2.11,14.41-8.14,31.43-8.74,47.53-7.49,4.95.39,9.89.94,14.83,1.49,1.56.17,1.55-2.28,0-2.45Z"/>
        <path class="cls-4" d="M419.22,323.54c16.91-1.89,34.4-3.77,51.02,1.07,4.37,1.27,8.62,3.02,12.59,5.26,1.37.77.14,2.89-1.24,2.11-14.41-8.14-31.43-8.74-47.53-7.49-4.95.39-9.89.94-14.83,1.49-1.56.17-1.55-2.28,0-2.45Z"/>
      </g>
      <g id="mouth_and_nose" data-name="mouth and nose">
        <path class="cls-2" d="M376.44,427.56l11.69,4.66c.21.08,1.11-2.19.91-2.27l-11.69-4.66c-.21-.08-1.11,2.19-.91,2.27Z"/>
        <path class="cls-2" d="M404.2,427.56l-11.69,4.66c-.21.08-1.11-2.19-.91-2.27l11.69-4.66c.21-.08,1.11,2.19.91,2.27Z"/>
        <path class="cls-2" d="M432.51,446.75c-19.27,11.08-42.76,14.21-64.34,9.06-6.04-1.44-11.92-3.53-17.51-6.26-1.41-.69-2.65,1.42-1.24,2.11,10.27,5.02,21.46,7.95,32.86,8.77,11.38.82,22.95-.49,33.84-3.88,6.13-1.91,12.06-4.49,17.62-7.69,1.37-.79.13-2.9-1.24-2.11Z"/>
      </g>
      <g id="blush">
        <path class="cls-11" d="M310.23,400.5v27.59c0,1.58,2.45,1.58,2.45,0v-27.59c0-1.58-2.45-1.58-2.45,0Z"/>
        <path class="cls-11" d="M294.66,399.95l-12.89,24.4c-.74,1.39,1.43,2.54,2.17,1.14l12.89-24.4c.74-1.39-1.43-2.54-2.17-1.14Z"/>
        <path class="cls-11" d="M325.99,401.81l8.14,26.37c.46,1.51,2.81.79,2.34-.72l-8.14-26.37c-.46-1.51-2.81-.79-2.34.72Z"/>
        <path class="cls-11" d="M461.28,400.5v27.59c0,1.58,2.45,1.58,2.45,0v-27.59c0-1.58-2.45-1.58-2.45,0Z"/>
        <path class="cls-11" d="M445.71,399.95l-12.89,24.4c-.74,1.39,1.43,2.54,2.17,1.14l12.89-24.4c.74-1.39-1.43-2.54-2.17-1.14Z"/>
        <path class="cls-11" d="M477.04,401.81l8.14,26.37c.46,1.51,2.81.79,2.34-.72l-8.14-26.37c-.46-1.51-2.81-.79-2.34.72Z"/>
        <path class="cls-11" d="M387.67,372.25v30.56c0,1.58,2.45,1.58,2.45,0v-30.56c0-1.58-2.45-1.58-2.45,0Z"/>
        <path class="cls-11" d="M395.04,377.44v29.2c0,1.58,2.45,1.58,2.45,0v-29.2c0-1.58-2.45-1.58-2.45,0Z"/>
        <path class="cls-11" d="M380.03,378.53v29.74c0,1.58,2.45,1.58,2.45,0v-29.74c0-1.58-2.45-1.58-2.45,0Z"/>
      </g>
      <g id="glasses">
        <circle class="cls-5" cx="319.71" cy="371.07" r="55.14"/>
        <circle class="cls-5" cx="455.66" cy="368.21" r="55.14"/>
        <path class="cls-10" d="M402.15,367.1c-8.92-4.4-19.31-3.91-27.63,1.64-2.61,1.74-.16,5.98,2.47,4.23,6.81-4.54,15.3-5.28,22.69-1.64,2.82,1.39,5.3-2.83,2.47-4.23Z"/>
      </g>
      <g id="eyes">
        <path class="cls-2" d="M429.02,365.79c-1.5,1.2-2.89,2.55-4.13,4.13-2.26,2.86,1.76,6.93,4.04,4.04,6.71-8.5,17.93-10.13,28.15-9.99,5.96.08,11.94.66,17.67,2.35,5.19,1.54,11.85,4.25,14.57,9.26,1.76,3.23,6.69.35,4.93-2.88-1.56-2.87-3.82-5.18-6.51-7.04l3.19-3.85c.98-1.19,1.16-2.88,0-4.04-1.01-1.01-3.05-1.19-4.04,0-1.41,1.7-2.81,3.39-4.22,5.09-6.52-2.88-14.28-4.03-20.88-4.43v-4.39c0-3.68-5.71-3.68-5.71,0v4.2c-7.55,0-15.56,1.04-22.26,4.46-1.19-1.73-2.54-3.34-4.06-4.78-2.67-2.53-6.72,1.5-4.04,4.04,1.24,1.18,2.33,2.44,3.3,3.82Z"/>
        <path class="cls-2" d="M346.33,365.79c1.5,1.2,2.89,2.55,4.13,4.13,2.26,2.86-1.76,6.93-4.04,4.04-6.71-8.5-17.93-10.13-28.15-9.99-5.96.08-11.94.66-17.67,2.35-5.19,1.54-11.85,4.25-14.57,9.26-1.76,3.23-6.69.35-4.93-2.88,1.56-2.87,3.82-5.18,6.51-7.04l-3.19-3.85c-.98-1.19-1.16-2.88,0-4.04,1.01-1.01,3.05-1.19,4.04,0,1.41,1.7,2.81,3.39,4.22,5.09,6.52-2.88,14.28-4.03,20.88-4.43v-4.39c0-3.68,5.71-3.68,5.71,0v4.2c7.55,0,15.56,1.04,22.26,4.46,1.19-1.73,2.54-3.34,4.06-4.78,2.67-2.53,6.72,1.5,4.04,4.04-1.24,1.18-2.33,2.44-3.3,3.82Z"/>
      </g>
      <path class="cls-10" d="M549.7,392.41c-1.54-2.75-5.77-.29-4.23,2.47,8.2,14.68,14.33,33.54,5.79,49.47-3.51,6.54-9.02,11.9-15.68,15.21-8.12,4.03-19.95,5.35-25.45-3.46-.44-.7-1.05-1.03-1.69-1.11-.08.1-.17.2-.26.29-.1.11-.17.21-.26.37-.2.34-.44.65-.69.96-.24.3-.43.52-.65.82-.21.29-.42.58-.66.84-.02.06-.04.12-.09.17.02.04.04.08.07.13,11.49,18.38,37.49,5.81,47.12-7.77,12.7-17.9,6.53-40.78-3.32-58.4Z"/>
      <path class="cls-10" d="M564.71,387.76c-.74.05-1.29.36-1.69.8-1.58.51-2.96,1.65-3.65,3.48-1.98,5.24,3.86,12.52,9.4,9.49,6.25-3.41,2.98-14.23-4.06-13.77Z"/>
      <path class="cls-10" d="M246.39,391.92c1.54-2.75,5.77-.29,4.23,2.47-8.2,14.68-14.33,33.54-5.79,49.47,3.51,6.54,9.02,11.9,15.68,15.21,8.12,4.03,19.95,5.35,25.45-3.46.44-.7,1.05-1.03,1.69-1.11.08.1.17.2.26.29.1.11.17.21.26.37.2.34.44.65.69.96.24.3.43.52.65.82.21.29.42.58.66.84.02.06.04.12.09.17-.02.04-.04.08-.07.13-11.49,18.38-37.49,5.81-47.12-7.77-12.7-17.9-6.53-40.78,3.32-58.4Z"/>
      <path class="cls-10" d="M231.32,387.76c.74.05,1.29.36,1.69.8,1.58.51,2.96,1.65,3.65,3.48,1.98,5.24-3.86,12.52-9.4,9.49-6.25-3.41-2.98-14.23,4.06-13.77Z"/>
      <path class="cls-1" d="M396.01,229.55s49.72,77.88,113.05,77.88v24.16s4.62-11.49,25.25-20.42l5.63-135.12H243.2v139.13s21.37-2.1,23.8,20.91l11.5-28.65s82.53-13.65,117.51-77.88Z"/>
      <path class="cls-1" d="M396.01,229.55s-4.43,77.88-99.06,89.71c0,0,82.52-52.98,58.77-73.36-27.9-23.95,40.29-16.35,40.29-16.35Z"/>
      <path class="cls-12" d="M515.36,287.83c-11.52-4.57-22.33-10.94-31.94-18.77-9.58-7.81-18-17.05-24.8-27.37-4.12-6.26-8.05-13.16-8.26-20.84-.03-1.05-1.66-1.05-1.63,0,.19,6.96,3.27,13.35,6.88,19.16,3.35,5.4,7.16,10.52,11.32,15.33,8.29,9.57,18.06,17.86,28.84,24.49,6.09,3.75,12.51,6.94,19.16,9.58.98.39,1.4-1.19.43-1.57Z"/>
      <path class="cls-12" d="M365.95,222.91c-.93,6.95-6.96,11.83-12.05,15.99-6.48,5.29-13.18,10.3-19.95,15.2-12.4,8.97-24.9,18.36-38.77,24.97-7.56,3.6-15.62,6.23-23.97,7.06-1.04.1-1.05,1.74,0,1.63,15.39-1.53,29.3-8.83,42.04-17.2,6.77-4.45,13.36-9.18,19.94-13.91,6.9-4.96,13.73-10.04,20.35-15.37,5.99-4.83,12.96-10.22,14.05-18.38.14-1.04-1.5-1.03-1.63,0Z"/>
      <path class="cls-12" d="M578.78,531.55c-3.41-13.22-9.54-25.72-17.97-36.47-4.73-6.03-10.2-11.45-16.27-16.13-.83-.64-1.64.78-.82,1.41,10.59,8.17,19.21,18.75,25.4,30.59,6.16,11.79,9.94,24.86,10.88,38.14.53,7.5.16,15.05-1.17,22.45-.18,1.03,1.39,1.47,1.57.43,2.41-13.4,1.76-27.25-1.64-40.42Z"/>
      <path class="cls-1" d="M546.43,556.71c-.59-1.42-2.38-5.41,0,0h0Z"/>
      <path class="cls-1" d="M609.4,487.23c-3.08,1.52-6.17,3.01-9.23,4.53-3.82,1.9-8.12,3.12-11.76,5.23,1.07-.46,2.14-.93,3.21-1.39-.7.32-1.39.64-2.09.98-1.04.5-2.07,1.03-3.08,1.58-2.39,1.28-4.71,2.67-6.97,4.16-.98.64-1.94,1.3-2.89,1.98-.23.16-.88.65-1.49,1.11-.57.46-1.15.94-1.35,1.11-.9.77-1.78,1.56-2.66,2.36-2.05,1.88-4.03,3.84-5.94,5.86-1.78,1.9-3.51,3.85-5.17,5.85-.39.47-.76.96-1.14,1.44,1.01-1.17,1.89-1.97-1.04,1.33-5.66,7.96-10.39,16.53-14.23,25.5-2.37,6.41-4.28,12.96-5.64,19.67-1.33,6.52-5.65,11.36-11.13,14.15-1.58-2.54-3.06-5.14-4.44-7.81-3.12-6.09-12.22-.63-9.12,5.43,5.51,10.76,12.79,20.64,21.53,29.02,6.29,6.03,13.38,11.81,21.5,14.91,2.34,2.16,5.53,3.37,8.7,3.54,8.63.47,16.36-6.69,22.87-11.43,3.05-2.22,6.06-4.49,9.04-6.78,22.52-8.31,12.18,6.45,12.18,6.45,24.22-29.74,2.61-49.18-5.76-55.11,16.21,8.16,20.81-29.43,20.81-29.43-11.07,1.17-16.94,1.81-19.86,2.14,13.42-15.81,27.3-11.34,27.3-11.34-2.77-15.07-9-27.28-15.71-36.64-2.14.58-4.29,1.11-6.46,1.6Z"/>
      <path class="cls-7" d="M550.79,665.19l204.99-511.28s-79.58-19.33-80.26-38.08-257.47,510.81-257.47,510.81c0,0,97.95,48.84,132.74,38.54Z"/>
      <path class="cls-9" d="M722.76,50.38c-6.17,0-12.12.93-17.73,2.65,1.57-17.63-4.77-41.47-21.34-50.44-6.96-3.77-16.07-3.62-22.19,1.81-7.05,6.26-5.33,15.33-1.54,22.87,2.8,5.58,5.59,10.74,6.83,16.94,1.22,6.11,1.24,12.43.82,18.63-.92,13.34-4.13,26.41-4.73,39.79-.36,2.68-.57,5.42-.57,8.2,0,33.38,27.06,60.45,60.45,60.45s60.45-27.06,60.45-60.45-27.06-60.45-60.45-60.45Z"/>
      <path class="cls-2" d="M755.09,104.54c-3.25.52-6.44,1.3-9.55,2.31-4.48.72-9.02.97-13.57.7-3.89-.23-7.8-.82-11.56-1.85-3.38-.92-6.72-2.34-9.15-4.93-3.9-4.14-4.51-10.29-3.31-15.63,1.36-6.05,4.88-11.14,9.67-15.01,6-4.84,13.67-7.46,21.37-7.33,1.29.02,1.29-1.98,0-2-13.74-.22-28.13,8.18-32.39,21.67-1.79,5.67-1.82,12.36,1.51,17.5,4.13,6.38,12.19,8.18,19.24,9.13,3.72.5,7.47.65,11.2.48-4.86,2.23-9.45,5.06-13.63,8.45-3.84,3.11-7.88,7.06-7.58,12.42.26,4.72,3.39,8.96,7.31,11.39,2.35,1.46,4.95,2.32,7.64,2.84-3.74.9-7.17,2.55-9.47,5.74-3.23,4.48-3.61,11.88,1.61,15.04,1.1.67,2.11-1.06,1.01-1.73-4.46-2.7-3.45-9.36-.49-12.81,4.27-4.99,12.06-5.17,18.09-5.37,1.29-.04,1.29-1.97,0-2-5.26-.13-10.79-.25-15.66-2.51-3.95-1.84-7.46-5.56-8-10.03-.6-5.05,3.38-8.68,6.95-11.57,3.92-3.18,8.26-5.85,12.84-7.97,2.2-1.02,4.47-1.9,6.77-2.65,3.28-.53,6.52-1.3,9.69-2.34,1.24-.41.72-2.13-.53-1.93Z"/>
      <path class="cls-9" d="M36.36,106.24c5.66-2.46,11.49-3.98,17.32-4.64-8.47-15.54-12.16-39.94-.55-54.77,4.88-6.24,13.3-9.73,21.07-7.19,8.97,2.93,11,11.93,10.53,20.36-.35,6.24-.85,12.08.49,18.26,1.32,6.09,3.82,11.9,6.68,17.41,6.17,11.87,14.32,22.57,20.21,34.6,1.4,2.32,2.68,4.74,3.79,7.29,13.31,30.61-.71,66.22-31.33,79.54s-66.22-.71-79.54-31.33c-13.31-30.61.71-66.22,31.33-79.54Z"/>
      <path class="cls-2" d="M28.31,168.8c3.18-.82,6.42-1.38,9.68-1.69,4.39-1.12,8.66-2.71,12.72-4.77,3.48-1.77,6.82-3.86,9.87-6.3,2.73-2.19,5.23-4.82,6.43-8.17,1.92-5.35.03-11.23-3.2-15.65-3.66-5-8.92-8.28-14.85-9.91-7.43-2.05-15.51-1.39-22.52,1.8-1.17.53-1.97-1.3-.8-1.83,12.51-5.68,29.06-3.72,38.34,6.96,3.9,4.49,6.6,10.61,5.59,16.65-1.25,7.5-7.92,12.37-14.01,16.04-3.21,1.94-6.59,3.57-10.08,4.91,5.35.11,10.69.88,15.86,2.31,4.77,1.32,10.04,3.34,11.91,8.37,1.65,4.43.46,9.56-2.17,13.36-1.57,2.27-3.61,4.1-5.87,5.65,3.78-.67,7.6-.52,10.98,1.48,4.75,2.82,8.04,9.46,4.52,14.44-.75,1.05-2.36-.13-1.61-1.18,3.01-4.26-.57-9.95-4.66-11.94-5.91-2.87-13.12.07-18.73,2.29-1.2.47-1.97-1.29-.8-1.83,4.77-2.22,9.8-4.53,13.35-8.55,2.89-3.26,4.63-8.07,3.33-12.38-1.46-4.87-6.57-6.61-10.99-7.84-4.86-1.35-9.91-2.07-14.95-2.19-2.43-.06-4.85.04-7.27.27-3.22.82-6.5,1.4-9.82,1.71-1.3.12-1.51-1.67-.28-1.98Z"/>
      <path class="cls-6" d="M274.38,112.03c-14.3-1.46-27.14-11.19-32.57-24.46-.44-1.07-2.11-.39-1.86.69,1.31,5.54,2.13,11.18,2.39,16.87.25,5.39.26,11.08-.75,16.4-.45,2.36-1.29,4.97-3.39,6.37-2.19,1.47-5.09,1.27-7.6,1.19-5.97-.19-11.93-.78-17.82-1.8-6.61-1.14-13.12-2.8-19.47-4.94-.93-.31-1.72.92-1.03,1.63,5.44,5.66,9.67,12.46,12.18,19.9.72,2.12,1.32,4.38-1.13,5.51-1.92.88-4.05,1.44-6.07,2.07-4.19,1.33-8.43,2.51-12.71,3.55-4.8,1.16-9.64,2.14-14.52,2.94-.81.13-1.08,1.43-.31,1.82,8.39,4.23,16.13,9.65,22.94,16.13.93.88,2.41-.46,1.48-1.35-6.25-5.95-13.24-11.03-20.82-15.13,8.63-1.54,17.15-3.65,25.5-6.35,3.55-1.15,8.87-2.08,8.29-6.93-.26-2.12-1.2-4.25-2.01-6.21-.81-1.96-1.74-3.88-2.77-5.73-1.75-3.13-3.8-6.09-6.11-8.83,11.13,3.4,22.69,5.36,34.32,5.72,2.54.08,5.2.16,7.58-.88,2.27-.99,3.75-3,4.61-5.26.95-2.48,1.18-5.22,1.4-7.85.25-2.99.35-5.99.3-8.99-.07-4.51-.47-9.01-1.18-13.46,6.76,10.68,18.42,18.08,31.07,19.37,1.28.13,1.34-1.87.06-2Z"/>
    </g>
  </g>
</svg>