<?xml version="1.0" encoding="UTF-8"?>
<svg id="Layer_2" data-name="Layer 2" xmlns="http://www.w3.org/2000/svg" viewBox="0 0 443.72 547.4">
  <defs>
    <style>
      .cls-1, .cls-2 {
        fill: #151d28;
      }

      .cls-3 {
        fill: #64bcad;
      }

      .cls-4 {
        fill: #22303a;
      }

      .cls-5 {
        fill: #f7d25d;
      }

      .cls-6 {
        fill: #7da75b;
      }

      .cls-7, .cls-8 {
        fill: #597240;
      }

      .cls-9 {
        fill: #fff;
      }

      .cls-10 {
        fill: none;
        stroke: #f2ad6e;
        stroke-width: 3.98px;
      }

      .cls-10, .cls-8, .cls-2 {
        stroke-miterlimit: 10;
      }

      .cls-8 {
        stroke: #597240;
      }

      .cls-8, .cls-2 {
        stroke-width: .5px;
      }

      .cls-2 {
        stroke: #000;
      }

      .cls-11 {
        fill: #f2ad6e;
      }

      .cls-12 {
        fill: #f7d25d;
      }

      .cls-13 {
        fill: #b5e8de;
      }
    </style>
  </defs>
  <g id="Layer_13" data-name="Layer 13">
    <g>
      <path class="cls-6" d="M332.16,547.15h105.2c15.37-61.95-155.47-173.46-155.25-162.55.23,11.46-47.26,25.94-47.26,25.94,0,0,46.06,86.54,97.3,136.61Z"/>
      <path class="cls-9" d="M264.4,340c-3.5-5-7.28-9.8-11.38-14.34-3.32-3.68-6.8-7.24-10.44-10.61-3.27-3.02-6.84-6.98-11.32-8.08-3.85-.95-7.97.7-9.38,4.55-1.59,4.34.86,9.65,2.59,13.62,2.94,6.74,7.06,12.79,11.55,18.57-14.74,7.67-24.07,23.77-22.27,41.31,2.35,22.95,22.86,39.64,45.8,37.29s39.64-22.86,37.29-45.8c-1.88-18.35-15.38-32.69-32.44-36.5Z"/>
      <path class="cls-2" d="M250.23,323.83c-2.32-3.62-5.09-6.94-8.24-9.86-3.08-2.84-6.57-5.62-10.54-7.09-1.9-.7-3.95-1.05-5.96-.72-.93.15-1.97.44-2.73,1.03-.77.6-.91,1.49-.99,2.41-.38,4.19.03,8.46,1.14,12.51,1.25,4.58,3.4,8.88,6.31,12.63.39.51,1.1-.2.71-.71-4.82-6.21-7.42-14.08-7.29-21.93.02-.97.05-1.95.17-2.91.16-1.19,1.01-1.57,2.06-1.86,1.89-.53,3.88-.29,5.72.31,3.79,1.24,7.12,3.85,10.06,6.47,3.36,3,6.29,6.44,8.72,10.23.35.54,1.21.04.86-.5Z"/>
      <path class="cls-8" d="M403.28,480.61c-7.21-5.24-13.39-11.71-19.61-18.05-6.23-6.35-12.61-12.57-19.13-18.63-6.52-6.06-13.19-11.96-19.99-17.71-6.77-5.73-13.68-11.29-20.72-16.7-7.06-5.43-14.25-10.68-21.55-15.77-.91-.63-1.82-1.26-2.73-1.89-.53-.37-1.03.5-.5.86,7.34,5.05,14.55,10.26,21.65,15.65,7.12,5.4,14.11,10.98,20.96,16.71,6.83,5.71,13.52,11.59,20.08,17.61,6.55,6.03,12.97,12.21,19.23,18.53,6.23,6.29,12.28,12.83,19.26,18.31.84.66,1.69,1.3,2.56,1.93.52.38,1.02-.49.5-.86Z"/>
      <path class="cls-8" d="M280.38,481.17c7.43,9.05,14.93,18.04,22.63,26.87,7.74,8.87,15.69,17.57,23.93,25.98,4.39,4.47,8.87,8.85,13.44,13.13h1.47c-3.77-3.52-7.49-7.1-11.14-10.75-8.24-8.25-16.17-16.8-23.89-25.54-7.73-8.75-15.25-17.67-22.68-26.68-7.05-8.55-14.23-17.06-20.47-26.24-6-8.83-11.12-18.44-13.51-28.92-.3-1.3-.55-2.61-.76-3.92-.1-.63-1.07-.36-.96.27,1.72,10.66,6.33,20.57,12.09,29.62,5.88,9.25,12.9,17.72,19.84,26.19Z"/>
      <path class="cls-5" d="M47.73,319.2c-.06-.12-.13-.23-.2-.34-.25-.51-.56-.97-.97-1.36-.7-.66-1.62-1.07-2.55-1.15-.84-.18-1.74-.15-2.63.16-.62.22-1.16.58-1.62,1.02-.34.24-.65.54-.92.9-1.93,2.55-.49,6.26,2.06,7.78.14.14.3.28.48.41,1.28.97,3.08,1.26,4.56.58,1.65-.77,2.27-2.5,2.33-4.21,0,0,0,0,0,0,.56-1.28.35-2.77-.54-3.78Z"/>
      <path class="cls-5" d="M30.5,247.66c-7.43-4.55-17.6-4.99-24.42,1.01-8.48,7.45-6.31,19.49-3.98,29.12,1.06,4.36,7.58,1.8,6.53-2.53-1.29-5.33-2.72-11.18-.91-16.56,1.82-5.42,6.98-8.07,12.53-7.45,8.74.98,16.74,10.19,15.78,19.12-.58,5.4-5.01,7.65-9.56,9.52-2.81,1.15-5.55,2.19-5.77,5.58-.26,3.92,2.64,8.29,4.59,11.5,2.54,4.18,5.35,8.07,6.92,12.75,1.43,4.27,7.96,1.74,6.53-2.53-1.26-3.74-3.19-7.08-5.29-10.41-1.93-3.07-4.69-6.49-5.54-10.18,1.36-.69,3.4-1.14,4.46-1.66,2-.98,3.92-2.11,5.57-3.61,3.37-3.04,4.98-7.2,5.08-11.68.2-8.89-5.04-17.4-12.53-21.98Z"/>
      <path class="cls-1" d="M67.86,346.14c0-.07,0-.15,0-.22.04-.31.03-.63-.04-.94-.13-.52-.44-1-.86-1.33-.34-.34-.78-.6-1.3-.72-.36-.08-.73-.08-1.08-.01-.23.01-.47.06-.71.15-1.7.62-2.14,2.82-1.39,4.32.02.11.06.23.1.34.31.85,1.08,1.54,1.99,1.66,1.02.14,1.84-.49,2.39-1.29,0,0,0,0,0,0,.66-.44,1.01-1.21.89-1.96Z"/>
      <path class="cls-1" d="M81.5,306.93c-2.14-4.42-6.83-7.73-11.9-6.97-6.3.95-8.94,7.32-10.77,12.61-.83,2.39,3.05,3.16,3.87.79,1.01-2.93,2.12-6.14,4.62-8.14,2.52-2.02,5.77-1.7,8.22.29,3.85,3.13,4.84,9.94,1.66,13.89-1.92,2.39-4.71,2.11-7.44,1.6-1.68-.31-3.3-.65-4.44.89-1.32,1.78-1.28,4.74-1.33,6.86-.07,2.76.08,5.46-.6,8.16-.62,2.46,3.25,3.25,3.87.79.54-2.16.65-4.33.66-6.55.02-2.05-.25-4.51.48-6.52.86.08,1.96.49,2.62.57,1.25.14,2.5.19,3.75-.01,2.53-.42,4.56-1.9,5.97-4,2.8-4.16,2.91-9.8.75-14.26Z"/>
      <g>
        <path class="cls-3" d="M352.53,79.96s59.65,93.64,51.06,181.61c0,0-4.06-44.01-25.11-66.32,0,0,33.03,41.69,0,94.74,0,0,32.12,94.41-11.31,106.11l-95.77-16.87-34.36-71.69,115.48-227.59Z"/>
        <path class="cls-1" d="M63.74,169.27s61.72,183.46,59.13,215.13c-9.03,110.48,71.8,51.54,71.8,51.54l3.01-116.28L63.74,169.27Z"/>
        <path class="cls-7" d="M161.12,547.15c51.09-80.11,125.39-154.22,125.39-154.22,0,0-70.43-76.53-126.36-45.3-36.64,20.46-61.48,127.86-74.27,199.52h75.24Z"/>
        <path class="cls-6" d="M147.47,547.15h220.43l16.25-96.97c8.02-47.84-14.07-95.67-54.2-117.38l-66.62-36.04-74.73,25.78-30.56,30.68c-12.28,12.33-19.98,37.15-23.97,63.38-5.06,33.19-2.98,67.04,5.41,99.59l7.98,30.95Z"/>
        <path class="cls-6" d="M350.97,547.15h92.76c-.12-10-3.64-21.6-9.7-34.59l-70.3-150.6c-9.45-20.25-33.76-29.09-54.01-19.63l-3.5,1.63c-20.25,9.45-29.09,33.76-19.63,54.01l64.39,149.18Z"/>
        <path class="cls-7" d="M331.75,347.23c-.63-.64-1.48-.49-2.12,0-11.42,8.84-20.65,20.48-26.7,33.59-6.57,14.24-9.31,30.08-7.91,45.71.82,9.11,2.97,18.07,6.47,26.53.73,1.76,3.63.99,2.89-.8-6.04-14.61-8.13-30.83-5.81-46.48,2.12-14.3,7.86-27.89,16.49-39.48,4.75-6.38,10.41-12.08,16.7-16.95.65-.5.52-1.59,0-2.12Z"/>
        <path class="cls-7" d="M345.1,539.88c1.38,2.42,2.76,4.85,4.13,7.27h3.45c-11.34-19.94-22.68-39.88-34.02-59.82-3.77-6.63-7.55-13.26-11.32-19.9-.95-1.68-3.55-.17-2.59,1.51,13.45,23.64,26.91,47.29,40.35,70.94Z"/>
        <path class="cls-9" d="M243.49,383.45h0c-8.62,2.87-18.35-.96-21.63-8.51l-23.1-53.22c-3.27-7.55,1.1-16.06,9.72-18.93l35.63-11.85c8.62-2.87,18.35.96,21.63,8.51l9.56,22.03c10.72,24.7-3.6,52.58-31.82,61.97Z"/>
        <path class="cls-12" d="M213.91,356.64c4.53,1.64,9.09,1.22,14.39.04,9.53-2.13,16.88-4.93,25.19-8.71,7.68-3.49,14.2-7.42,19.92-12.06,3.66-2.97,4.86-7.61,3.09-11.69l-11.84-27.27c-2.68-6.17-10.64-9.3-17.69-6.96l-41.35,13.75c-7.05,2.34-10.63,9.31-7.95,15.48l16.24,37.41Z"/>
        <path class="cls-4" d="M209.52,346.94c4.31-.18,8.07-.72,13.09-1.83,1.96-.44,3.9-.93,5.82-1.49.44-.13,4.17-1.36,3.97-1.25,3.52-1.34,6.93-2.97,10.16-4.78,11.87-6.64,20.46-17.28,24.43-30.01.28-.88.63-1.69,1.05-2.43l-3.37-7.76c-2.68-6.17-10.64-9.3-17.69-6.96l-41.35,13.75c-7.05,2.34-10.63,9.31-7.95,15.48l11.84,27.28Z"/>
        <path class="cls-3" d="M352.98,214.21l-227.65,41.07c-5.2,0-29.89,0-50.87-30.83-7.12-10.46-10.03-25.96-10.73-33.36v-63.5c0-54.83,56.37-105.98,111.2-105.98h81.34c59.78,0,122.09,70.67,108.69,108.69v71.91c0,6.6-5.4,12-12,12Z"/>
        <g id="face">
          <path class="cls-9" d="M199.3,340.13h0c-50.45.21-103.71-49.02-104.6-107.78-.07-4.45-.19-8.9-.51-13.34l-8-110.12c0-6.6,68.09-32.8,74.69-32.8l149.76,10.34c6.6,0,12,5.4,12,12v118.37c0,67.83-72.17,127.58-123.33,123.33Z"/>
          <path class="cls-9" d="M352.18,169.45c23.61,13.63,31.7,43.82,18.07,67.43-13.63,23.61-43.82,31.7-67.43,18.07-23.61-13.63-11.58-32.21,2.05-55.82,13.63-23.61,23.7-43.31,47.31-29.68Z"/>
          <path class="cls-12" d="M352.18,169.45c-.58-.34-1.15-.63-1.71-.93v87.35c7.99-4.19,14.93-10.6,19.78-18.99,13.63-23.61,5.54-53.8-18.07-67.43Z"/>
          <path class="cls-4" d="M357.31,184.51c-6.92,2.86-11.52,9.04-15.26,15.26-4.36,7.26-8.49,14.89-11.1,22.98-1.48,4.59-2.39,9.36-2.46,14.19,0,.64.99.64,1,0,.12-8.49,2.95-16.62,6.62-24.19,1.8-3.71,3.79-7.33,5.86-10.89,1.82-3.14,3.76-6.25,6.11-9.04,2.6-3.09,5.72-5.79,9.49-7.35.59-.24.33-1.21-.27-.96Z"/>
          <path class="cls-4" d="M163.51,206.79c-2.46-3.83-5.39-6.92-8.62-9.34.81-1.13,1.62-2.26,2.42-3.39.55-.76.6-2.11,0-2.86-.59-.73-1.54-.81-2.12,0-1.04,1.45-2.08,2.9-3.12,4.35-3.63-2.19-7.56-3.64-11.57-4.39-.03-2.6,0-5.2.13-7.8.06-1.06-.73-2.07-1.5-2.02-.86.05-1.44.89-1.5,2.02-.13,2.45-.16,4.91-.13,7.37-5.55-.56-11.17.15-16.3,2-.34.12-.67.26-1.01.4-1.62-1.72-3.3-3.33-5.05-4.78-.67-.55-1.68-.23-2.05.73-.39.99-.18,2.18.54,2.77,1.1.91,2.17,1.9,3.22,2.93-2.72,1.58-5.24,3.71-7.37,6.55-1.38,1.83.75,4.69,2.12,2.86,5.27-7.01,13.13-9.09,20.28-9.44,1.14-.06,2.29-.04,3.44,0-.02,3.51.31,7.05,1.02,10.43.73,3.48,1.82,7.1,3.41,10.04,1.64,3.04,4.43,5.59,7.34,4.27,2.58-1.17,3.91-4.41,4.8-7.65.95-3.43,1.47-7.09,1.6-10.76,2.98,2.25,5.65,5.08,7.9,8.58,1.27,1.97,3.38-.9,2.12-2.86Z"/>
          <g>
            <path class="cls-4" d="M258.76,195.26s0,0,0-.01c-.26.24-.08.08,0,.01Z"/>
            <path class="cls-4" d="M278.44,212.48c-4.85-6.89-11.16-11.22-17.8-14.13,1.15-1.21,2.21-2.57,3.13-4.07.26-.42.44-.86.44-1.43,0-.5-.16-1.09-.44-1.43-.55-.68-1.59-.87-2.12,0-.77,1.26-1.63,2.43-2.56,3.47-.11.12-.22.24-.33.36.01-.01.01-.01.03-.03-.05.05-.1.1-.15.16-.24.25-.49.48-.74.71-.31.29-.65.54-.97.8-.3-.11-.6-.22-.9-.32-5.05-1.73-10.43-3.33-15.8-3.85v-6.79c0-1.06-.69-2.07-1.5-2.02-.81.05-1.5.89-1.5,2.02v6.63c-3.32-.05-6.61.37-9.8,1.52-1.36.49-2.69,1.13-3.98,1.89-3.45-1.41-7.05-2.18-10.65-2.26-.81-.02-1.5.94-1.5,2.02s.69,2,1.5,2.02c2.29.05,4.55.43,6.78,1.06-1.64,1.48-3.15,3.23-4.43,5.28-1.24,1.98.87,4.85,2.12,2.86,3.52-5.61,8.36-8.49,13.51-9.64v5.73c-.01,2.18-.12,4.43.04,6.6.32,4.25,2.37,7.79,5.02,10.01,2.4,2.01,5.96,3.02,8.42.63,2.29-2.23,3.73-6.51,4.48-10.07.79-3.77.88-7.77.3-11.59,1.62.43,3.23.9,4.83,1.41.81.26,1.62.54,2.42.83.25.2.53.31.82.3,2.84,1.06,5.64,2.34,8.32,3.99,4.07,2.51,7.8,5.81,10.89,10.21,1.33,1.89,3.45-.97,2.12-2.86Z"/>
          </g>
          <path class="cls-4" d="M184.6,261.6c-3.58-1.56-6.17-4.83-6.84-8.68-.09-.53-.74-.83-1.23-.7-.56.15-.79.7-.7,1.23.75,4.29,3.77,8.14,7.76,9.88.49.22,1.07.15,1.37-.36.25-.42.14-1.15-.36-1.37Z"/>
          <path class="cls-4" d="M199.14,261.23c-3.79-1.74-7.94-2.31-12.06-1.65-.53.08-.83.75-.7,1.23.16.57.69.78,1.23.7,3.54-.56,7.26-.05,10.52,1.45.49.23,1.08.14,1.37-.36.25-.43.13-1.14-.36-1.37Z"/>
          <path class="cls-4" d="M172.23,150.17c-16.09-2.42-33.02.36-46.9,7.62-3.95,2.06-7.63,4.49-10.96,7.21-1.65,1.35.87,3.47,2.52,2.12,14.18-11.57,34.94-16.98,54.4-14.06,2.24.34,3.2-2.55.95-2.89Z"/>
          <path class="cls-4" d="M204.89,150.17c12.42,13.21,30.72,18.23,48.33,18.98,5.58.24,11.17.08,16.75-.25,1.92-.12,1.93-3.12,0-3-17.74,1.08-36.47.14-52.13-9.19-4-2.38-7.64-5.27-10.83-8.66-1.33-1.41-3.44.71-2.12,2.12Z"/>
          <path class="cls-12" d="M188.4,212.71l-3.86,26.11c-.19,1.27,1.79,1.57,1.98.29l3.86-26.11c.19-1.27-1.79-1.57-1.98-.29Z"/>
          <path class="cls-12" d="M195.84,218.66l-4.31,29.16c-.19,1.27,1.79,1.57,1.98.29l4.31-29.16c.19-1.27-1.79-1.57-1.98-.29Z"/>
          <path class="cls-12" d="M243.02,228.64l-2.15,14.97c-.09.65,1.89.94,1.98.28l2.15-14.97c.09-.65-1.89-.94-1.98-.28Z"/>
          <path class="cls-12" d="M255.78,230.95l4.6,15.33c.2.67,2.15.6,1.95-.07l-4.6-15.33c-.2-.67-2.15-.6-1.95.07Z"/>
          <path class="cls-12" d="M232.6,227.24l-8.21,13.58c-.36.59,1.51,1.19,1.87.59l8.21-13.58c.36-.59-1.51-1.19-1.87-.59Z"/>
          <path class="cls-12" d="M141.54,226.1l-2.15,14.97c-.09.65,1.89.94,1.98.28l2.15-14.97c.09-.65-1.89-.94-1.98-.28Z"/>
          <path class="cls-12" d="M154.3,228.41l4.6,15.33c.2.67,2.15.6,1.95-.07l-4.6-15.33c-.2-.67-2.15-.6-1.95.07Z"/>
          <path class="cls-12" d="M131.12,224.69l-8.21,13.58c-.36.59,1.51,1.19,1.87.59l8.21-13.58c.36-.59-1.51-1.19-1.87-.59Z"/>
          <path class="cls-12" d="M177.51,222.89l-2.63,17.82c-.19,1.27,1.79,1.57,1.98.29l2.63-17.82c.19-1.27-1.79-1.57-1.98-.29Z"/>
        </g>
        <circle class="cls-10" cx="127.95" cy="211.22" r="44.06"/>
        <circle class="cls-10" cx="242.19" cy="211.22" r="44.06"/>
        <path class="cls-11" d="M198.74,216.55c-4.3-3.83-9.62-6.3-15.34-7.02-4.61-.58-10.35.15-12.79,4.67-.91,1.7,1.67,3.22,2.59,1.51,1.96-3.65,7.03-3.7,10.61-3.12,4.75.77,9.22,2.88,12.81,6.08,1.44,1.28,3.57-.83,2.12-2.12Z"/>
        <path class="cls-11" d="M308.89,362.54c-10.96,3.58-21.57,8.17-31.72,13.67-13.41,7.27-25.9,16.16-37.21,26.38-5.9,5.33-11.44,11.06-16.61,17.1-12.74-19.46-25.81-40.04-30.12-63.22-1.03-5.52-1.53-11.15-1.38-16.77-.02,0-.03,0-.05,0-1.04,0-2-.1-2.91-.29-.6,23.68,9.7,45.78,21.7,65.72,3.54,5.87,7.26,11.63,11.02,17.37-.04,2.76-.07,5.52-.11,8.27h-4.73c-1.93,0-1.93,3,0,3h4.69c-.07,5.08-.14,10.16-.2,15.24-.03,1.93,2.97,1.93,3,0,.07-5.08.14-10.16.2-15.24h5.36c1.93,0,1.93-3,0-3h-5.32c.04-2.65.07-5.3.11-7.95,9.61-11.41,20.57-21.64,32.61-30.44,12.15-8.88,25.35-16.33,39.26-22.08,3.53-1.46,7.1-2.79,10.71-4.03.37-1.33.93-2.6,1.7-3.74Z"/>
        <path class="cls-3" d="M186.33,83.48s-42.67,76.49-86.73,81.5l-7.44,26.11-10.31-96.52,124.7-30.48,121.94,17.76-5.87,90.52s-6.87,7.27-13.03,18.59l-3.95-22.43s-88.78-33.16-119.32-85.05Z"/>
        <path class="cls-3" d="M337.77,309.17l-35.96-6.79c.9-4.08-2.13-8.95-7.13-7.17-2.96,1.06-5.32,2.59-7.21,4.46l-1.23-.23s.09.46.25,1.28c-5.15,5.99-6.11,14.89-5.89,23.29.26,10.11,2.41,19.94,8.89,27.28-1.47,7.1-4.64,11.6-10.63,10.26,0,0,21.06,11.55,31.63-3.7-7.14,15-22.78,55.97,6.92,78.09,0,0-8.61-22.47,19.58-35.51,0,0,11.75,11.23,0,28.46,0,0,39.21-19.91,45.96-44.49,6.76-24.58-45.18-75.23-45.18-75.23Z"/>
        <path class="cls-13" d="M172.42,75.55c-8.16,1.82-15.86,5.19-23.33,8.87-3.71,1.83-7.41,3.69-11.07,5.61-3.57,1.87-7.1,3.83-10.44,6.09-3.3,2.23-6.38,4.75-9.12,7.63-2.7,2.83-5.09,5.95-7.3,9.18-2.26,3.31-4.33,6.74-6.36,10.2-2.07,3.53-4.06,7.09-5.9,10.74-3.61,7.18-6.64,14.73-8.19,22.65-.19.99-.36,1.98-.51,2.97-.09.63.87.9.96.27,1.17-7.93,3.88-15.54,7.31-22.76,3.43-7.21,7.46-14.2,11.78-20.91,4.29-6.66,9.25-12.85,15.66-17.58,6.41-4.73,13.67-8.21,20.77-11.78,7.4-3.72,14.95-7.3,22.97-9.47,1-.27,2.02-.52,3.03-.75.63-.14.36-1.1-.27-.96Z"/>
        <path class="cls-13" d="M321.27,144.48c-8.99-2.44-17.95-5-26.8-7.93-8.9-2.94-17.68-6.25-26.19-10.17-7.79-3.58-15.35-7.67-22.51-12.4-6.81-4.5-13.26-9.58-19.13-15.26-5.81-5.63-11.04-11.87-15.41-18.69-.55-.85-1.08-1.71-1.6-2.58-.33-.55-1.2-.05-.86.5,4.19,6.99,9.25,13.44,14.95,19.26,5.72,5.85,12.05,11.09,18.77,15.75,6.98,4.84,14.38,9.06,22.03,12.75,8.45,4.08,17.18,7.53,26.05,10.58,8.92,3.07,17.98,5.73,27.07,8.24,1.12.31,2.24.62,3.37.92.62.17.89-.8.27-.96Z"/>
        <path class="cls-13" d="M321.43,329.04c-.05-3.17-.27-6.34-.49-9.51-.05-.64-1.05-.64-1,0,.38,5.41.75,10.85.3,16.27-.22,2.7-.66,5.38-1.41,7.99-.77,2.69-1.93,5.2-3.27,7.65-1.58,2.9-3.25,5.75-4.88,8.62-.32.56.55,1.06.86.5,1.48-2.6,2.97-5.19,4.43-7.8,1.37-2.45,2.62-4.96,3.49-7.64,1.68-5.18,2.05-10.68,1.96-16.09Z"/>
        <path class="cls-13" d="M379.64,247.4c-1.2-3.84-2.77-7.57-4.66-11.13-.3-.57-1.17-.06-.86.5,6.61,12.4,8.98,26.97,6.81,40.84-.61,3.9-1.58,7.74-2.9,11.47-.21.61.75.87.96.27,2.38-6.73,3.61-13.84,3.71-20.97.09-7.09-.93-14.21-3.05-20.98Z"/>
        <path class="cls-3" d="M185.09,85.62s-12.98,69.1-53.47,74.51c0,0,22.66-10.81,36.11-57.76,6.93-24.2,17.36-16.75,17.36-16.75Z"/>
        <path class="cls-3" d="M191.56,9.53c-2.02-1.64-4.88-2.92-7.77-3.31-.57-1.16-1.35-2.22-2.28-3.05-2.46-2.2-5.73-3.04-8.97-3.16-3.48-.12-7.31.33-10.58,1.54-1.79.67-1.02,3.57.8,2.89,3.95-1.47,9.11-2.09,13.2-.93,1.55.44,3.17,1.42,4.33,2.73-1.52.25-2.96.83-4.16,1.86-1.89,1.63-2.69,4.58-1.23,6.75,1.46,2.17,4.58,2.59,6.74,1.29,2.56-1.54,3.39-4.14,3.09-6.73,1.83.45,3.57,1.32,4.85,2.35,3.56,2.88,4.95,7.71,3.76,12.08-.51,1.87,2.38,2.66,2.89.8,1.48-5.44-.25-11.53-4.67-15.12ZM181.68,11.47c-.44,1.45-1.91,2.96-3.55,2.29-1.84-.76-.76-2.99.48-3.74.95-.58,2.04-.85,3.18-.91.15.75.14,1.54-.11,2.36Z"/>
      </g>
      <path class="cls-4" d="M166.59,279.86c-1.79,3.08-1.06,7.24,1.85,9.37,3.35,2.45,7.7,1.38,11.44.73,8.83-1.53,18.13-.32,26.3,3.33,1.75.78,3.28-1.8,1.51-2.59-7.33-3.27-15.37-4.81-23.39-4.27-1.96.13-3.9.39-5.83.74-1.74.31-3.49.66-5.27.58-1.59-.07-3.21-.66-4.04-2.1-.77-1.34-.77-2.96,0-4.29.97-1.67-1.62-3.19-2.59-1.51h0Z"/>
    </g>
  </g>
</svg>