<?xml version="1.0" encoding="UTF-8"?>
<svg id="Layer_2" data-name="Layer 2" xmlns="http://www.w3.org/2000/svg" viewBox="0 0 571.28 761.9">
  <defs>
    <style>
      .cls-1, .cls-2, .cls-3 {
        fill: #151d28;
      }

      .cls-4 {
        fill: #64bcad;
      }

      .cls-5 {
        fill: #93774e;
      }

      .cls-6 {
        stroke: #93774e;
        stroke-width: 12.92px;
      }

      .cls-6, .cls-2, .cls-3, .cls-7 {
        stroke-miterlimit: 10;
      }

      .cls-6, .cls-7 {
        fill: none;
      }

      .cls-2 {
        stroke-width: .47px;
      }

      .cls-2, .cls-3 {
        stroke: #151d28;
      }

      .cls-8 {
        fill: #7da75b;
      }

      .cls-9 {
        fill: #597240;
      }

      .cls-3 {
        stroke-width: .25px;
      }

      .cls-10 {
        fill: #fff;
      }

      .cls-7 {
        stroke: #f2ad6e;
        stroke-width: 3px;
      }

      .cls-11 {
        fill: #f2ad6e;
      }

      .cls-12 {
        fill: #f7d25d;
      }

      .cls-13 {
        fill: #b5e8de;
      }
    </style>
  </defs>
  <g id="Layer_16" data-name="Layer 16">
    <g id="Layer_25" data-name="Layer 25">
      <g>
        <path class="cls-1" d="M500.94,240.03s-14.13,92.01,13.15,134.51c0,0-19.94,7.88-34.67-14.03,0,0,34.26,45.79-22.6,97.61s-49.88,50.93-49.88,50.93l-69.21-116.83,163.2-152.18Z"/>
        <path class="cls-4" d="M423.88,22.47h-27.33s0,0,0,0c1.23-5.04,4.81-9.21,9.35-11.62,1.01-.54,2.11-1,3.24-1.36-.43,2.28-.04,4.7,1.59,6.47,1.88,2.04,5.18,2.47,7.62,1.27,2.87-1.42,3.52-4.89,2.03-7.57-1.23-2.22-3.39-3.32-5.74-3.66,1.47-1.11,3.33-1.75,5.11-2.11,3.67-.75,7.48-.4,11.19-.86,1.89-.24,1.91-3.24,0-3-6.64.83-16.34-.55-20.47,6.11-6.45,1.14-12.4,5.61-15.31,11.46-.78,1.56-1.32,3.21-1.65,4.89h-130.1c-84.74,7.21-123.27,102.39-123.27,172.64l9.76,54.53c0,6.6,5.4,12,12,12l316.09,44.18c6.6,0,22.93-59.19,22.93-65.79l13.16-89.54c5.94-40.45-9.18-81.46-40.76-107.42-15.2-12.5-32.62-20.6-49.45-20.6ZM417.99,13.61c-.76,1.51-3.06,1.57-4.38.83-1.93-1.09-1.94-3.73-1.21-5.58.39-.02.79-.03,1.18-.01,2.1.11,5.77,2.07,4.41,4.76Z"/>
        <path class="cls-4" d="M140.15,195.11s6.54,72.24-33.18,77.51c0,0,18.52,26.49,42.73-6.52s-42.73,94.4-42.73,94.4l171.04,108.47,75.55-117.16-213.4-156.69Z"/>
        <path class="cls-9" d="M560.11,761.9s-65.79-347.17-168.19-355.76c-102.4-8.59,32.58,355.76,32.58,355.76h135.61Z"/>
        <path class="cls-8" d="M243.19,395.34h84.31c77.76,0,140.89,63.13,140.89,140.89v213.67c0,6.62-5.38,12-12,12h-250.82c-6.62,0-12-5.38-12-12v-304.93c0-27.39,22.24-49.63,49.63-49.63Z"/>
        <path class="cls-8" d="M193.56,501.1L15.05,395.34c-6.02-2.71-8.72-9.85-6.02-15.87l26.26-34.99c2.71-6.02,9.85-8.72,15.87-6.02l192.03,56.88c21.28-2.23,46.63,21.55,43.92,27.57l-32.02,71.12c-2.71,6.02-55.51,9.78-61.53,7.07Z"/>
        <path class="cls-8" d="M73.31,400.1l116.62-86.52s-45.67-20.85-40.24-47.48l-126.12,66.34c-11.83,6.23-20.48,17.39-22.92,30.54-2.67,14.33,1.82,31.72,31.33,42.94,13.84,5.26,29.43,3,41.33-5.82Z"/>
        <path class="cls-9" d="M278.27,454.19c-.22-9.26-1.36-18.66-4.66-27.37-3.22-8.51-8.32-16.2-15.58-21.78-1.53-1.17-3.03,1.43-1.51,2.59,13.32,10.23,17.91,27.65,18.65,43.67.22,4.72.16,9.46-.02,14.18-.16,4.39-.28,8.9-1.82,13.07-1.41,3.82-4.15,6.93-7.11,9.65-3.14,2.88-6.53,5.52-9.96,8.04-8.01,5.9-16.55,11.06-25.5,15.41-1.74.85-.22,3.43,1.51,2.59,8.33-4.06,16.32-8.81,23.85-14.22,3.66-2.63,7.24-5.39,10.66-8.33,3.2-2.76,6.27-5.86,8.24-9.63,2.11-4.05,2.72-8.6,2.97-13.11.27-4.92.38-9.86.27-14.78Z"/>
        <path class="cls-10" d="M358.97,462.25h0c-12.65,1.23-25.29-2.24-36.05-9.82-12.73-8.96-26.66-20.56-26.66-24.42v-94.1c0-6.6,4.79-12,10.65-12h61.67c5.85,0,10.65,5.4,10.65,12v94.1c0,.78,0,1.7,0,2.72-.04,14.31-8.2,26.99-20.25,31.52Z"/>
        <path class="cls-12" d="M316.49,398.69c9.44,4.23,19.84,6.04,29.93,6.88,9.65.81,19.31.38,28.93-.65,1.3-.14,2.58-.31,3.86-.51v-70.5c0-6.6-4.79-12-10.65-12h-61.67c-5.85,0-10.65,5.4-10.65,12v51.99c6.38,4.96,13.06,9.58,20.23,12.79Z"/>
        <path class="cls-1" d="M336.59,395.28c7.72,3.17,15.97,4.32,24.16,3.59.19-.02.39-.04.58-.05,6.22-.58,12.23-2.49,17.88-5.34v-59.56c0-6.6-4.79-12-10.65-12h-61.67c-5.85,0-10.65,5.4-10.65,12v31.36c2.74,3.01,5.59,5.9,8.53,8.66,9.87,8.04,20.41,15.29,31.4,21.17.13.05.26.11.4.16Z"/>
        <g>
          <path class="cls-10" d="M372.03,388.79h-15.73c-60.04-2.88-147.47-65.39-147.47-145.31V96.12c0-6.5,5.4-11.82,12-11.82h259.23c6.6,0,12,5.32,12,11.82v158.9c0,73.58-50.43,133.78-120.03,133.78Z"/>
          <path class="cls-10" d="M176.47,223.96c21.35-13.72,38.78-.03,51.94,22.22,13.16,22.24,17.08,44.62-4.27,58.34-21.35,13.72-49.33,6.8-62.49-15.44-13.16-22.24-6.53-51.4,14.82-65.11Z"/>
          <path class="cls-1" d="M405.15,303.57c-2.76,3.76-6.77,6.74-11.36,8.43-.47.17-.81.58-.66,1.07.12.41.69.78,1.17.61,5.08-1.87,9.43-5.07,12.5-9.23.68-.93-.96-1.8-1.64-.88Z"/>
          <path class="cls-1" d="M387.6,309.18c-3.07-.88-6.58-.54-9.34.87-.53.27-.74.86-.42,1.32.31.44,1.05.62,1.58.34,2.29-1.17,5.02-1.4,7.56-.68.59.17,1.27-.19,1.42-.67.17-.53-.22-1.01-.81-1.18Z"/>
          <path class="cls-1" d="M350.65,234.46c-2.91-1.86-5.97-3.46-9.15-4.79.11-.05.23-.09.34-.15,2.1-1.08,3.88-3.17,4.22-5.55.12-.8-.2-1.61-1.05-1.85-.7-.19-1.73.24-1.85,1.05-.03.23-.08.46-.14.68-.03.12-.08.24-.11.37,0,.03-.03.07-.04.1-.09.2-.19.39-.31.58-.05.09-.11.18-.17.26-.02.03-.1.14-.12.17-.28.35-.61.67-.95.96-.03.02-.06.05-.08.06-.11.08-.21.15-.33.22-.2.13-.4.25-.61.35-1.25.64-2.81.82-4.33.73-5.81-1.82-11.89-2.8-17.98-2.88,1.58-3.04,2.48-6.41,2.64-9.84.04-.81-.72-1.5-1.5-1.5-.84,0-1.46.69-1.5,1.5-.17,3.52-1.27,6.91-3.12,9.89-5.05.21-10.08,1.02-14.92,2.5-.53.16-1.06.34-1.59.52-3.1-1.7-5.98-3.74-8.57-6.15-.59-.55-1.53-.59-2.12,0-.56.56-.59,1.57,0,2.12,2.19,2.04,4.58,3.87,7.12,5.45-2.83,1.31-5.46,3.03-7.53,5.41-1.68,1.93,1.13,4.77,2.83,2.83,2.56-2.94,6.03-4.68,9.67-5.91.14-.02.26-.07.38-.13.03,0,.06-.02.08-.03.4-.13.82-.24,1.23-.36.33,7.32,2.43,14.55,6.2,20.85,1.87,3.11,4.29,6.87,8.1,7.69,1.72.37,3.61.19,5.1-.81,1.66-1.11,2.38-2.92,3.01-4.73,1.4-4.04,2.42-8.22,3.05-12.45.31-2.1.55-4.21.68-6.33.11-1.76.44-3.91-.03-5.66,3.01.52,5.99,1.27,8.9,2.25,4.4,1.49,8.58,3.53,12.5,6.04,2.17,1.39,4.18-2.07,2.02-3.45Z"/>
          <g>
            <path class="cls-1" d="M451.96,225.19c-.06,0-.11.03-.11.04.03-.01.05-.02.08-.03.01,0,.02,0,.03-.01Z"/>
            <path class="cls-1" d="M465.96,230.31c-2.43-2.45-5.73-3.54-9.06-4.09-.41-.07-.82-.12-1.23-.18,1.12-1.31,1.78-2.96,2.42-4.54.3-.73-.32-1.68-1.05-1.85-.87-.2-1.53.27-1.85,1.05-.08.2-.16.39-.24.59,0,0-.01.03-.02.04-.03.08-.07.16-.1.24-.16.37-.33.74-.52,1.1-.19.36-.39.7-.62,1.03-.05.07-.1.16-.16.22,0,0-.01.01-.02.03-.13.16-.27.31-.42.46-.1.1-.26.31-.39.36.15-.11.18-.14.09-.07-.03.02-.06.04-.09.06-.07.05-.15.1-.22.15-.17.1-.34.2-.51.29,0,0,0,0,0,0,0,0,.01,0,.02,0-.01,0-.04.01-.06.02-.05.02-.08.03-.08.03-.04.02-.09.04-.11.05-.18.06-.37.1-.56.15-.07,0-.15.01-.22.01-.1,0-.2,0-.29,0-.17-.05-.36-.08-.53-.13-.29-.1-.61-.07-.91.04-1.55-.11-3.11-.19-4.66-.22-2.69-.06-5.45-.03-8.2.16v-6.62c0-.78-.69-1.54-1.5-1.5-.81.04-1.5.66-1.5,1.5v6.92c-3.38.41-6.7,1.14-9.82,2.41-.5.2-.99.42-1.48.65-4.07-.34-9.58,1.03-12.57-2.54-.52-.62-1.58-.54-2.12,0-.62.62-.52,1.5,0,2.12,2.55,3.05,6.29,3.29,10,3.31-1.03.82-1.98,1.74-2.83,2.77-1.62,1.97,1.19,4.82,2.83,2.83,1.04-1.26,2.23-2.32,3.52-3.21-.36,4.61.28,9.25,2.03,13.56,1.76,4.34,5.75,11.47,11.52,8.65,2.23-1.09,3.39-3.5,4.31-5.68,1.22-2.88,2.39-5.8,3.19-8.83.58-2.19.97-4.48,1.02-6.76.18-1.45.21-2.92.09-4.39,0-.07-.01-.14-.02-.21.02-.16.05-.32.07-.47.03-.22-.01-.45-.09-.67,3.03,0,6.07.15,9.08.47,3.73.39,8.25.73,11.03,3.55,1.81,1.83,4.64-1,2.83-2.83Z"/>
          </g>
          <path class="cls-1" d="M355.9,181.46c-9.45-6.02-21.26-7.33-32.09-4.96-10.88,2.38-20.68,8.39-28.89,15.76-4.6,4.13-9.13,8.79-11,14.83-.57,1.85,2.32,2.64,2.89.8,1.55-5,5.25-8.89,8.99-12.38,3.78-3.53,7.88-6.71,12.31-9.38,8.99-5.42,19.32-8.53,29.87-7.58,5.82.52,11.47,2.36,16.4,5.5,1.63,1.04,3.14-1.56,1.51-2.59Z"/>
          <path class="cls-1" d="M462.07,206.68c-16.74.61-33.57-5.11-46.55-15.7-3.65-2.98-6.98-6.32-9.95-9.98-1.22-1.5-3.33.64-2.12,2.12,10.93,13.45,26.92,22.62,43.97,25.55,4.84.83,9.74,1.18,14.65,1,1.92-.07,1.93-3.07,0-3Z"/>
          <path class="cls-3" d="M412.9,330.34c-18.69,6.74-40.43,6.92-59.77.5-1.42-.47-2.24,1.38-.82,1.85,19.93,6.61,42.33,6.42,61.59-.52,1.37-.49.38-2.33-1-1.84Z"/>
          <path class="cls-12" d="M381.67,251.63v31.05c0,1.29,2,1.29,2,0v-31.05c0-1.29-2-1.29-2,0Z"/>
          <path class="cls-12" d="M390.77,239.4v51.12c0,1.29,2,1.29,2,0v-51.12c0-1.29-2-1.29-2,0Z"/>
          <path class="cls-12" d="M400.49,256.33v21.01c0,1.29,2,1.29,2,0v-21.01c0-1.29-2-1.29-2,0Z"/>
          <path class="cls-12" d="M311.83,269.73l-3.21,22.72c-.13.94,2.09,1.12,2.23.17l3.21-22.72c.13-.94-2.09-1.12-2.23-.17Z"/>
          <path class="cls-12" d="M319.22,270.04l2.47,23.61c.06.59,2.29.53,2.23-.06l-2.47-23.61c-.06-.59-2.29-.53-2.23.06Z"/>
          <path class="cls-12" d="M328.36,269.59l5.48,20.09c.34,1.23,2.54,1.01,2.2-.22l-5.48-20.09c-.34-1.23-2.54-1.01-2.2.22Z"/>
          <path class="cls-12" d="M432.39,267.94l-3.21,22.72c-.13.94,2.09,1.12,2.23.17l3.21-22.72c.13-.94-2.09-1.12-2.23-.17Z"/>
          <path class="cls-12" d="M439.78,268.26l2.47,23.61c.06.59,2.29.53,2.23-.06l-2.47-23.61c-.06-.59-2.29-.53-2.23.06Z"/>
          <path class="cls-12" d="M448.93,267.8l5.48,20.09c.34,1.23,2.54,1.01,2.2-.22l-5.48-20.09c-.34-1.23-2.54-1.01-2.2.22Z"/>
          <path class="cls-12" d="M178.68,222.62c-.73.41-1.47.85-2.21,1.33-21.35,13.72-27.98,42.87-14.82,65.11,4.33,7.31,10.26,12.95,17.03,16.76v-83.2Z"/>
          <path class="cls-2" d="M207.71,289.29c-3.46-7.32-6.94-14.65-10.97-21.66-3.95-6.89-8.45-13.49-13.87-19.22-1.52-1.61-3.11-3.14-4.78-4.59-1.63-1.42-3.42-2.79-5.61-2.94-.49-.03-.48.76,0,.79,2,.14,3.66,1.48,5.13,2.76,1.46,1.28,2.87,2.62,4.22,4.02,2.67,2.77,5.13,5.76,7.4,8.89,4.6,6.35,8.44,13.24,11.98,20.27,2.01,3.99,3.93,8.03,5.84,12.08.22.46.87.06.65-.4Z"/>
        </g>
        <circle class="cls-7" cx="323.42" cy="244.3" r="51.78"/>
        <circle class="cls-7" cx="453.7" cy="240.03" r="51.78"/>
        <path class="cls-11" d="M403.09,247.8c-3.21-3.74-8.03-5.67-12.88-5.94-5.65-.31-11.17,1.74-16.03,4.46-1.68.94-.17,3.54,1.51,2.59,4.31-2.42,9.12-4.24,14.14-4.07,4.24.15,8.36,1.83,11.14,5.08,1.26,1.47,3.37-.66,2.12-2.12Z"/>
        <path class="cls-4" d="M396.37,96.66s-42.94,74.82-157.15,105.17l-3.72,44.92s-16.5-29.93-50.66-26.87l-6.22-135.59,280.67-8.13c13.51-.39,33.66,1.98,34.87,15.44v104.02s-69.78-25.75-97.78-98.97Z"/>
        <path class="cls-4" d="M465.37,191.19s-70.44-9.48-69-94.54c.96-57.12,5.97,0,5.97,0l9.52,19.17s8.21,48.1,53.52,75.37Z"/>
        <path class="cls-13" d="M340.85,93.2c-9.5,15.63-20.71,30.18-33.36,43.38-12.65,13.2-26.72,25.03-41.91,35.21-8.5,5.69-17.34,10.86-26.47,15.47-1.15.58-.14,2.31,1.01,1.73,16.41-8.3,31.88-18.4,46.11-30.04,14.27-11.67,27.27-24.89,38.7-39.35,6.39-8.09,12.29-16.57,17.64-25.38.67-1.1-1.06-2.11-1.73-1.01Z"/>
        <path class="cls-13" d="M503.28,182.33c-4.05-19.23-10.19-38.34-20.7-55.08-9.71-15.47-23.37-28.63-40.14-36.17-9.11-4.09-18.95-6.42-28.96-6.39-1.29,0-1.29,2,0,2,17.75-.06,34.69,7.53,48.05,18.93,14.28,12.18,24.19,28.61,30.86,46,3.88,10.13,6.74,20.64,8.97,31.25.27,1.26,2.19.73,1.93-.53Z"/>
        <path class="cls-11" d="M391.75,405.28c.84,22.67-3.72,45.51-13.26,65.98-2.56,5.5-5.49,10.81-8.72,15.91-.03,0-.07,0-.1,0-.01,0-.02-.01-.04-.02-16.67-5.83-32.31-14.75-46.06-26.06-13.81-11.36-25.79-25.07-35.19-40.48-4.91-8.04-9.1-16.53-12.5-25.36-.47.06-.96.09-1.47.09-.61,0-1.19-.06-1.75-.13,6.4,16.96,15.63,32.68,27.13,46.51,11.74,14.11,25.82,26.2,41.44,35.51,8.61,5.13,17.7,9.39,27.1,12.72,0,4.11.13,8.21.35,12.32h-6c-1.93,0-1.93,3.09,0,3.09h6.18c.28,4.15.65,8.3,1.16,12.43.24,1.94,3.24,1.97,3,0-.51-4.13-.88-8.28-1.16-12.43h2.91c1.93,0,1.93-3.09,0-3.09h-3.09c-.22-4.02-.34-8.05-.35-12.08.13-.1.25-.23.36-.39,12.67-19.63,20.42-42.46,22.58-65.91.56-6.03.7-12.09.5-18.14-1.09-.03-2.1-.19-3.01-.47Z"/>
        <path class="cls-12" d="M545.25,258.07c-.43-.21-.85-.44-1.27-.68-.3-.1-.6-.17-.92-.2-1.52-.53-3.19-.23-4.53.65-1.36.89-2.3,2.47-2.48,4.07-.22,1.84.59,3.56,1.93,4.78,1.01.93,2.4,1.47,3.78,1.5.75.24,1.55.28,2.31,0,.83-.3,1.38-.89,1.74-1.6.33-.31.62-.66.86-1.04.88-1.42,1.17-3.18.48-4.73-.25-1.11-.97-2.08-1.88-2.76Z"/>
        <path class="cls-12" d="M544.68,252.62c1.42.62,2.86,1.27,4.32,1.7,2.24.66,3.55-.75,5.02-2.17,3.1-2.99,6.2-5.97,9.29-8.96,1.55-1.49,3.1-2.99,4.65-4.48,1.32-1.28,3.59-2.76,3.28-4.88-.28-1.92-2.37-2.9-3.82-3.83-1.76-1.13-3.55-2.24-5.36-3.3-4.18-2.47-8.47-4.77-12.84-6.88-1.24-.6-2.52.43-2.74,1.63-1.7,9.32-3.4,18.63-5.1,27.95.87,1.24,2,2.32,3.28,3.23Z"/>
        <circle class="cls-10" cx="185.59" cy="278.1" r="45.44"/>
        <rect class="cls-5" x="175.94" y="226.56" width="26.24" height="117.04" rx="8.68" ry="8.68" transform="translate(428.29 40.57) rotate(77.92)"/>
        <circle class="cls-6" cx="301.38" cy="255.86" r="62.74"/>
        <path class="cls-10" d="M226.43,276.05c-8.22-2.59-18.37,2.74-24.94,7.36-6.91,4.86-12.58,11.07-16.69,18.45-4.34,7.79,4.6,14.93,10.94,12.14,2.68,1.83,6.43,2.39,9.12.43,7.91-5.76,16.57-10.17,24.61-15.64,8.97-6.1,7.78-19.34-3.04-22.75Z"/>
        <path class="cls-10" d="M207.44,242.47c-3.46-.67-6.77,1.13-8.98,4.06-.68.9-1.33,1.82-1.98,2.76-3.61-5.37-13.42-5.99-15.31,2.06-.89,3.79-1.97,7.57-3.55,11.14-.16.36-.34.7-.5,1.06,0-2.46,0-4.93.01-7.39.02-10.94-16.98-10.96-17,0-.01,6.45-1.62,15.33,1.33,21.26,2.26,4.54,8.88,9.21,14.03,9.33,6.07.14,10.64-3.98,14.06-9.49,1.78,2.89,4.75,4.91,8.86,4.91,6.96,0,12.97-7.29,16.23-12.73,3.5-5.85,5.19-12.67,5.07-19.47-.12-7.07-7.28-9.57-12.27-7.5Z"/>
        <path class="cls-1" d="M161.45,248.36c-2.06,9.34-2.76,18.96-2.07,28.5.05.64,1.05.64,1,0-.69-9.45-.01-18.97,2.03-28.23.14-.63-.83-.9-.96-.27Z"/>
        <path class="cls-1" d="M191.93,244.41c-.05-.64-1.05-.64-1,0,.7,9.32-2.11,18.43-2.11,27.73,0,.64,1,.64,1,0,0-9.29,2.8-18.41,2.11-27.73Z"/>
        <path class="cls-1" d="M219.97,243.23c-.03-.64-1.03-.64-1,0,.34,7.3-.86,14.61-3.53,21.42-.23.6.73.86.96.27,2.69-6.88,3.91-14.3,3.56-21.68Z"/>
        <path class="cls-1" d="M221.74,236.54c-7.26-4.05-15.39-6.47-23.68-7.07-8.19-.59-16.5.67-24.16,3.61-4.29,1.65-8.37,3.8-12.14,6.42-.52.37-.03,1.23.5.86,6.58-4.58,14.11-7.71,21.99-9.15,7.99-1.46,16.27-1.09,24.12.99,4.49,1.19,8.8,2.94,12.86,5.2.56.31,1.07-.55.5-.86Z"/>
        <path class="cls-1" d="M223.76,238.94c-.33-.55-1.19-.05-.86.5,3.84,6.43,6.27,13.66,7.07,21.11.07.63,1.07.64,1,0-.82-7.63-3.27-15.02-7.2-21.61Z"/>
        <path class="cls-1" d="M232.62,289.72c-2.32,2.41-4.48,4.96-6.47,7.65-.99,1.34-1.94,2.71-2.84,4.12-.82,1.28-1.72,2.68-1.54,4.27.07.63,1.07.64,1,0-.19-1.59.88-2.98,1.71-4.25.85-1.3,1.74-2.58,2.67-3.82,1.9-2.55,3.97-4.97,6.18-7.26.45-.46-.26-1.17-.71-.71Z"/>
      </g>
    </g>
  </g>
</svg>