<?xml version="1.0" encoding="UTF-8"?>
<svg id="Layer_2" data-name="Layer 2" xmlns="http://www.w3.org/2000/svg" viewBox="0 0 643.35 726.82">
  <defs>
    <style>
      .cls-1 {
        fill: #151d28;
      }

      .cls-2 {
        fill: #7da55b;
      }

      .cls-3, .cls-4, .cls-5 {
        fill: #22303a;
      }

      .cls-3, .cls-6, .cls-5 {
        stroke-miterlimit: 10;
      }

      .cls-3, .cls-5 {
        stroke: #22303a;
      }

      .cls-7 {
        fill: #ffe394;
      }

      .cls-8 {
        fill: #f0ab6e;
      }

      .cls-9 {
        fill: #597240;
      }

      .cls-10 {
        fill: #fff;
      }

      .cls-6 {
        fill: none;
        stroke: #f0ab6e;
        stroke-width: 4.03px;
      }

      .cls-11 {
        fill: #f5d05d;
      }

      .cls-12 {
        fill: #64baab;
      }

      .cls-13 {
        fill: #b3e6dc;
      }

      .cls-5 {
        stroke-width: 1.1px;
      }
    </style>
  </defs>
  <g id="Layer_28" data-name="Layer 28">
    <g>
      <g id="back_hair" data-name="back hair">
        <path class="cls-12" d="M332.39,21.85c-.11-1.78.08-3.55.74-5.29,1.29-3.39,4.86-5.8,8.53-6.83-.38,1.2-.54,2.47-.38,3.76.43,3.46,3.26,6.5,6.72,7.07,7.65,1.27,9.55-8.45,5.34-13.14-.45-.5-.94-.91-1.45-1.28,1.86-.62,3.88-.87,5.79-1.05,3.16-.31,6.8-.88,9.79.49,2.79,1.28,5.23-2.86,2.42-4.15-4.12-1.89-8.47-1.54-12.87-1.08-3.98.42-8.04,1.14-11.28,3.66-.11.09-.22.19-.33.28-4.59.07-9.55,2.29-12.66,4.84-3.61,2.96-4.98,6.72-5.08,10.72-16.46-6.59-34.4-10.22-53.14-10.22h-72.43c-73.84,0-134.26,60.42-134.26,134.26v42.59c0,8.76,7.17,15.93,15.93,15.93h285.99c26.83,0,48.78-21.95,48.78-48.78h0c0-58.66-35.55-109.41-86.17-131.8ZM349.97,15.66c-1.55.9-3.48-.92-3.87-2.33-.39-1.4.16-2.83,1.06-4,1.41.29,2.71,1,3.33,2.39.51,1.14.78,3.18-.52,3.93Z"/>
        <path class="cls-12" d="M88.6,117.72l-20.75,23.37s14.18,69.85-59.57,137.91c0,0,64.66,9.35,80.32-25.14,0,0-57.97,32.63-57.97,79.39s17.81,58.33,17.81,58.33c0,0-25.89,57.02,19.41,80.59,0,0,76.14-50.09,71.74,0l64.51-106.53-28.55-125.31-86.95-122.62Z"/>
        <path class="cls-1" d="M413.53,117.72s55.71,140.73,2.3,222.67c0,0,9.3-73.64-6.05-105.45-15.34-31.82,0,0,0,0,0,0,15.57,135.16-29.76,161.48,0,0-6.87,29.29,20.45,40.18,0,0-46.5,44.37-62.48-19.69-15.98-64.06-72.1-37.25-72.1-37.25l-20.4-64.77,168.03-197.18Z"/>
      </g>
      <g id="body">
        <rect class="cls-9" x="315.85" y="397.73" width="97.72" height="266.8" rx="12" ry="12" transform="translate(-216.7 253.51) rotate(-30)"/>
        <rect class="cls-9" x="409.95" y="568.22" width="97.72" height="175.8" rx="12" ry="12" transform="translate(-197.32 1114.93) rotate(-90)"/>
        <path class="cls-2" d="M187.32,371.93l-58.48,15.36c-48.54,12.75-79.76,59.91-72.55,109.57l29.78,205.02,239.89,5.83,47.28-213.81c11.44-51.72-20.03-103.24-71.27-116.69l-26.52-6.96-88.14,1.68Z"/>
        <g id="neck">
          <path class="cls-10" d="M281.12,403.83c-.21,13.43-11.36,24.12-24.79,24.12h-4.8c-7.25,0-64.21-18.25-64.21-25.5v-114.35c0-7.25,5.93-13.18,13.18-13.18h67.45c7.25,0,13.18,5.93,13.18,13.18v114.35c0,.45,0,.91,0,1.38Z"/>
          <path class="cls-11" d="M189.63,352.52c2.22,2.39,4.56,4.66,6.97,6.84,2.23,2.02,4.55,3.92,6.87,5.83.19.14.39.28.63.46,1.03.76,2.07,1.5,3.12,2.24,5.36,3.76,10.89,7.28,16.73,10.24,1.71.87,3.45,1.66,5.19,2.48.13.05.28.1.45.15,3.87,1.36,7.7,2.77,11.65,3.92,7.96,2.33,16.09,4.06,24.29,5.34.59.09,1.18.18,1.76.27,2.91.42,2.35.35-1.67-.21.68.7,4.15.49,5.3.61,3.4.36,6.8.64,10.2.88v-103.48c0-7.25-5.93-13.18-13.18-13.18h-67.45c-7.25,0-13.18,5.93-13.18,13.18v61.54c.8.97,1.54,2.05,2.31,2.87Z"/>
          <path class="cls-4" d="M189.26,318.03c.18.65.21.94.19,1.04.1.13.25.34.46.66,0-.01,1.71,2.46,1.54,2.31,1.67,2.07,3.66,3.95,5.59,5.76,4.31,4.05,8.92,7.76,13.2,11.84,9.76,9.3,20.49,18.63,30.97,26.78,12.22,9.5,25.58,15.52,39.92,18.14v-96.47c0-7.25-5.93-13.18-13.18-13.18h-67.45c-7.25,0-13.18,5.93-13.18,13.18v25.6c.82,1.22,1.48,2.66,1.94,4.33Z"/>
        </g>
        <path class="cls-2" d="M97.91,704.45l-80.17-23.62c-6.95-2.05-10.97-9.41-8.92-16.37l49.82-207.37c7.51-25.49,53.39-66.03,78.88-58.52l12.76,3.76c25.49,7.51,40.2,34.51,32.69,60l-68.7,233.2c-2.05,6.95-9.41,10.97-16.37,8.92Z"/>
        <path class="cls-2" d="M337.94,707.72H13.18c-7.25,0-13.18-5.93-13.18-13.18l16.58-53.57c0-7.25,9.51-10.8,16.76-10.8h304.59c7.25,0,13.18,5.93,13.18,13.18v51.18c0,7.25-5.93,13.18-13.18,13.18Z"/>
        <path class="cls-10" d="M325.97,630.17l91.06-15.54c8.1-1.38,16.31,1.78,21.38,8.25l36.57,46.61c11.43,14.56,1.25,35.92-17.27,36.2l-131.74,2.04v-77.55Z"/>
        <path class="cls-9" d="M177.63,424.09c-6.97-7.97-16.27-12.84-26.61-14.79-22.15-4.19-47.31-1.73-65.32,12.86-8.7,7.04-15.37,16.76-17.8,27.77-.46,2.07,2.72,2.95,3.18.88,4.34-19.66,21.84-33.1,40.68-37.71,10.87-2.66,22.26-2.79,33.32-1.4,5.45.68,11,1.78,16.02,4.07,4.17,1.9,7.99,4.49,11.3,7.65,7.44,7.07,12.37,16.79,13.16,27.07.16,2.1,3.46,2.12,3.3,0-.75-9.77-4.8-19.01-11.23-26.38Z"/>
        <path class="cls-9" d="M183.7,464.27l-40.91,164.3c-.66,2.65,2.54,3.46,3.2.8l40.91-164.3c.66-2.65-2.54-3.46-3.2-.8Z"/>
        <path class="cls-9" d="M325.48,628.52h-169.32c-2.74,0-2.74,3.3,0,3.3h169.32c2.74,0,2.74-3.3,0-3.3Z"/>
        <path class="cls-10" d="M643.35,673.16c0,35.04-53.64,34.56-88.68,34.56s-45.19-21.32-45.19-56.37,28.41-51.71,63.45-51.71,70.42,38.48,70.42,73.52Z"/>
        <path class="cls-8" d="M557.8,532.76h14.11c1.57,0,2.84,1.27,2.84,2.84v173.25c0,3.49-2.84,6.33-6.33,6.33h-7.61c-3.49,0-6.33-2.84-6.33-6.33v-172.75c0-1.84,1.49-3.33,3.33-3.33Z" transform="translate(185.35 -127.22) rotate(15.35)"/>
        <polygon class="cls-7" points="539.5 696.56 534.48 695.37 532.13 703.92 532.62 726.69 550.55 711.38 551.9 708.8 553.89 701.07 539.5 696.56"/>
        <rect class="cls-10" x="522.79" y="630.65" width="46.63" height="23.66" rx="7.12" ry="7.12" transform="translate(652.94 -193.94) rotate(47.64)"/>
        <rect class="cls-10" x="544.57" y="667.05" width="46.63" height="23.66" rx="7.12" ry="7.12" transform="translate(1385.42 1018) rotate(152.44)"/>
        <path class="cls-8" d="M304.06,377.41c-1.55-.05-2.97-.31-4.24-.75-.09.25-.15.53-.14.85.48,14.65-2.39,29.38-8.25,42.82-5.89,13.5-14.6,25.73-25.65,35.49-1.39,1.23-2.81,2.42-4.27,3.56-1.23.96-2.84,2.56-4.53,2.31-1.8-.26-3.64-1.45-5.26-2.23-1.73-.83-3.45-1.68-5.17-2.56-6.84-3.49-13.51-7.33-19.98-11.49-12.84-8.25-24.84-17.77-35.83-28.37-10.98-10.6-20.94-22.25-29.61-34.81-.69-.99-1.35-2-2.02-3.01-1.31.64-2.78,1.08-4.44,1.26,8.61,13.01,18.49,25.18,29.49,36.24,11.23,11.29,23.61,21.46,36.85,30.3,6.64,4.43,13.5,8.52,20.56,12.24,3.46,1.83,6.97,3.57,10.53,5.22,1.65.76,3.31,1.53,5.11,1.59.31,4.32.62,8.64.94,12.96h-4.98c-1.15,0-2.25,1.01-2.2,2.2.05,1.19.97,2.2,2.2,2.2h5.3c.34,4.68.68,9.35,1.01,14.03.2,2.8,4.6,2.83,4.39,0-.34-4.68-.68-9.35-1.01-14.03h4.42c1.15,0,2.25-1.01,2.2-2.2-.05-1.19-.97-2.2-2.2-2.2h-4.74c-.34-4.76-.69-9.51-1.03-14.27.76-.48,1.49-1.03,2.2-1.58,12.19-9.41,22.13-21.66,29.05-35.41,6.94-13.78,10.94-29.05,11.33-44.49.05-1.93.04-3.85-.03-5.78,0-.04-.01-.07-.01-.11Z"/>
      </g>
      <g id="face">
        <path class="cls-10" d="M285.26,371.34l-9.79-1.08c-73.48-8.12-126.96-74.88-118.85-148.37l11.76-106.44c.8-7.21,7.34-12.45,14.55-11.65l210.84,23.29c7.21.8,12.45,7.34,11.65,14.55l-10.04,122.31c-6.27,56.73-52.35,106.31-100,107.98-3.38.12-6.76-.22-10.12-.59Z"/>
        <path class="cls-10" d="M180.75,255.13c-27.41,15.15-61.9,5.21-77.05-22.2-15.15-27.41-5.21-61.9,22.2-77.05,27.41-15.15,41.85,5.87,57,33.28s25.26,50.82-2.15,65.97Z"/>
        <path class="cls-5" d="M306.46,301.81c-1.83-.45-3.28-1.62-5.01-2.3-1.73-.68-3.59-.88-5.43-.67-1.04.11-.73,1.71.31,1.59,1.67-.18,3.36.08,4.9.75,1.6.69,2.95,1.74,4.67,2.16.42.1.88-.04,1.04-.49.14-.38-.06-.93-.49-1.04Z"/>
        <path class="cls-5" d="M321.46,295.53c-.33-.23-.92-.18-1.13.2-1.03,1.93-2.52,3.58-4.35,4.78-1.91,1.25-4.41,2.24-6.71,1.76-.43-.09-.84.35-.87.74-.04.48.32.78.74.87,2.57.54,5.42-.55,7.56-1.93,2.07-1.33,3.8-3.14,4.96-5.3.21-.39.18-.85-.2-1.13Z"/>
        <path class="cls-11" d="M315.06,251.24l.44,31.45c.02,1.41,2.22,1.38,2.2-.03l-.44-31.45c-.02-1.41-2.22-1.38-2.2.03Z"/>
        <path class="cls-11" d="M308.58,252.89l.44,31.19c.02,1.41,2.22,1.38,2.2-.03l-.44-31.19c-.02-1.41-2.22-1.38-2.2.03Z"/>
        <path class="cls-11" d="M301.81,252.13l.4,28.09c.02,1.66,2.22,1.63,2.2-.03l-.4-28.09c-.02-1.66-2.22-1.63-2.2.03Z"/>
        <path class="cls-11" d="M247.39,263.07l-1.45,25.83c-.08,1.41,2.11,1.54,2.19.12l1.45-25.83c.08-1.41-2.11-1.54-2.19-.12Z"/>
        <path class="cls-11" d="M259.26,264.42l5.06,25.38c.28,1.39,2.43.96,2.15-.43l-5.06-25.38c-.28-1.39-2.43-.96-2.15.43Z"/>
        <path class="cls-11" d="M234.96,262.42l-6.73,24.98c-.37,1.36,1.75,1.94,2.12.57l6.73-24.98c.37-1.36-1.75-1.94-2.12-.57Z"/>
        <path class="cls-11" d="M358.79,266.45l1.99,25.8c.11,1.41,2.3,1.24,2.19-.17l-1.99-25.8c-.11-1.41-2.3-1.24-2.19.17Z"/>
        <path class="cls-11" d="M370.74,266.22l8.38,24.48c.46,1.34,2.54.63,2.08-.71l-8.38-24.48c-.46-1.34-2.54-.63-2.08.71Z"/>
        <path class="cls-11" d="M346.39,267.46l-3.36,25.66c-.18,1.4,1.99,1.69,2.18.29l3.36-25.66c.18-1.4-1.99-1.69-2.18-.29Z"/>
        <path class="cls-11" d="M104.26,219.36c7.17-6.79,13.18-14.62,18.86-22.69,6.32-8.97,11.61-18.62,18.49-27.19,4.13-5.15,7.97-10.9,12.27-16.11-7.79-3.83-16.81-3.68-27.98,2.5-24.41,13.49-34.94,42.33-26.26,67.83,1.54-1.45,3.09-2.9,4.62-4.34Z"/>
        <path class="cls-4" d="M138.86,177.61c-2.61-3.53-5.72-6.67-9.27-9.26-1.15-.83-2.45.93-1.31,1.76,13.17,9.58,18.44,25.9,20.06,41.46.53,5.03.73,10.09.83,15.15.03,1.39,2.21,1.65,2.18.24-.32-17.09-2.01-35.16-12.49-49.36Z"/>
        <path class="cls-8" d="M153.81,291.69c.85-13.73-.09-27.57-2.81-41.05-.7-3.45-6.13-2.61-5.42.87,2.19,10.87,3.26,21.96,3.04,33.04-.11,5.58-.52,11.15-1.24,16.68-.51,3.95-1.26,7.87-2.89,11.52-1.43,3.19-3.72,6.12-7.13,7.27-3.43,1.15-7.21-.02-10.06-2.05-7.58-5.4-7.95-15.58-6.88-23.99,1.51-11.85,5.45-23.47,11.41-33.83.39-.68.56-1.44.46-2.15-.37-.17-.69-.35-.99-.54-.18-.08-.29-.14-.34-.17-.22-.1-.44-.19-.67-.28-.66-.25-1.33-.48-2.01-.69-.08-.02-.14-.07-.21-.1-.26.17-.48.38-.64.66-6,10.42-10.12,21.77-12.05,33.65-1.63,10.09-1.7,22.09,6.17,29.75,3.29,3.2,7.75,5.58,12.42,5.67,4.87.09,9.21-2.05,12.34-5.73,2.99-3.52,4.51-8.05,5.53-12.48,1.2-5.23,1.65-10.69,1.98-16.04Z"/>
        <path class="cls-8" d="M122.61,243.73c-1-1.96-2.93-3.51-5.16-3.75-4.15-.44-7.6,2.96-7.51,7.07,0,.2.03.4.05.6,0,.01,0,.03,0,.04-.16,2.43,1.3,4.65,3.62,5.29,1.4.76,2.95.94,4.58.87,1.11-.05,2.58-1.04,3.19-1.93.41-.6.66-1.2.79-1.84,1.23-1.87,1.48-4.32.45-6.34Z"/>
      </g>
      <path class="cls-3" d="M378.99,203.7c-17.34,1.5-34.83.53-51.89-2.91-1.26-.25-1.79,1.67-.53,1.93,17.23,3.48,34.91,4.49,52.42,2.98,1.27-.11,1.28-2.11,0-2Z"/>
      <g id="front_hair_and_glasses" data-name="front hair and glasses">
        <path class="cls-12" d="M324.91,124.76s14.32,71.26-126.99,61.45l-27.18,24.13s1.22-43.76-8.31-50.84l9.4-82.71,231.12,26.16,9.57,9.52c9.19,23.82,8.71,68.16-2.97,90.86l-10.08,19.6,1.14-32.21s-74.63-3.37-75.69-65.97Z"/>
        <circle class="cls-6" cx="253" cy="245.91" r="48.71"/>
        <circle class="cls-6" cx="369.13" cy="245.91" r="48.71"/>
        <path class="cls-8" d="M319.65,248.53c-5.71-2.88-12.34-3.01-18.19-.48-.82.35-1,1.55-.59,2.25.49.84,1.43.95,2.25.59,4.69-2.03,10.31-1.82,14.86.48,1.89.95,3.56-1.89,1.66-2.85Z"/>
        <path class="cls-12" d="M323.92,140.97s-6.03,62.52-78.43,62.52c0,0,72.75-34.4,54.75-57.51-13.54-17.39,23.68-5,23.68-5Z"/>
        <path class="cls-13" d="M310.15,109.55c-5.47,6.29-11.17,12.39-17.2,18.14-6.04,5.77-12.4,11.2-19.17,16.09-6.82,4.94-14.05,9.34-21.66,12.95-7.7,3.66-15.8,6.52-24.13,8.36-8.28,1.83-16.79,2.64-25.27,2.17-1.05-.06-2.1-.14-3.15-.23-.7-.06-.7,1.04,0,1.1,8.51.77,17.1.25,25.5-1.32,8.39-1.58,16.57-4.22,24.38-7.66,7.81-3.44,15.24-7.71,22.26-12.57,6.87-4.76,13.36-10.07,19.49-15.75,6.21-5.74,12.07-11.85,17.67-18.18.69-.78,1.37-1.55,2.05-2.34.46-.53-.31-1.31-.78-.78Z"/>
        <path class="cls-13" d="M407.17,160.48c-2.9-5.03-6.48-9.61-10.25-14.01-3.77-4.39-7.64-8.72-11.58-12.95-7.72-8.29-16.24-16.17-26.68-20.85-5.61-2.52-11.65-4.06-17.81-4.1-.71,0-.71,1.09,0,1.1,11.06.06,21.46,5.06,30.04,11.76,8.91,6.95,16.38,15.66,23.79,24.13,4.24,4.85,8.32,9.88,11.55,15.48.35.61,1.3.06.95-.55Z"/>
        <path class="cls-13" d="M87.22,328.15c-.24-.66-1.3-.37-1.06.29,2.64,7.22.08,14.68-3.49,21.09-3.67,6.6-8.46,12.49-12.43,18.91-7.75,12.53-13.84,26.6-15.25,41.4-.78,8.12.01,16.37,2.67,24.1.23.66,1.29.38,1.06-.29-4.84-14.06-3.13-29.21,1.83-42.98,2.57-7.15,5.98-13.98,9.91-20.48,3.9-6.45,8.64-12.35,12.45-18.86,4.06-6.94,7.23-15.2,4.31-23.18Z"/>
      </g>
      <path class="cls-4" d="M332.29,238.67c2.62-3.71,5.69-6.67,9.03-8.95-.76-1.16-1.52-2.33-2.27-3.49-.51-.78-.51-2.14.13-2.86.62-.7,1.57-.74,2.12.09.97,1.49,1.95,2.99,2.92,4.48,3.73-2.03,7.71-3.3,11.75-3.87.15-2.6.24-5.2.21-7.79,0-1.06.82-2.03,1.59-1.95.86.09,1.4.95,1.41,2.09.02,2.46-.06,4.91-.19,7.37,5.57-.31,11.15.64,16.2,2.71.33.14.66.29.99.44,1.69-1.65,3.44-3.18,5.26-4.55.69-.52,1.69-.15,2.02.82.34,1,.08,2.18-.66,2.74-1.14.86-2.25,1.8-3.34,2.78,2.64,1.7,5.07,3.94,7.07,6.87,1.29,1.89-.95,4.65-2.25,2.76-4.95-7.24-12.71-9.66-19.84-10.32-1.14-.11-2.29-.14-3.44-.15-.14,3.51-.62,7.03-1.48,10.37-.88,3.45-2.13,7.01-3.85,9.88-1.78,2.97-4.67,5.39-7.52,3.94-2.52-1.28-3.71-4.58-4.46-7.85-.8-3.47-1.16-7.15-1.12-10.82-3.07,2.12-5.87,4.83-8.27,8.23-1.35,1.91-3.34-1.05-1.99-2.95Z"/>
      <g>
        <path class="cls-4" d="M237.64,222.95s0,0,0-.01c.25.25.07.09,0,.01Z"/>
        <path class="cls-4" d="M217.21,239.29c5.15-6.67,11.65-10.72,18.4-13.33-1.09-1.26-2.09-2.66-2.95-4.21-.24-.44-.4-.88-.38-1.45.02-.5.21-1.08.5-1.41.58-.66,1.62-.8,2.12.09.72,1.3,1.52,2.5,2.41,3.58.1.12.21.25.31.37-.01-.01-.01-.01-.03-.03.05.05.1.11.15.16.23.26.47.5.71.74.3.3.62.56.94.84.31-.1.61-.19.92-.28,5.12-1.51,10.57-2.87,15.96-3.15l.3-6.79c.05-1.06.78-2.04,1.59-1.95.81.08,1.46.95,1.41,2.09l-.29,6.62c3.32.1,6.59.66,9.72,1.95,1.34.55,2.64,1.25,3.89,2.06,3.51-1.26,7.13-1.87,10.74-1.78.81.02,1.46,1.01,1.41,2.09s-.77,1.97-1.59,1.95c-2.29-.05-4.57.23-6.82.76,1.57,1.55,3,3.36,4.2,5.47,1.15,2.03-1.09,4.81-2.25,2.76-3.27-5.76-7.97-8.85-13.07-10.23l-.24,5.72c-.09,2.18-.08,4.43-.34,6.59-.51,4.23-2.71,7.68-5.46,9.78-2.49,1.9-6.09,2.76-8.44.26-2.19-2.33-3.44-6.67-4.03-10.26-.63-3.8-.54-7.8.21-11.6-1.64.36-3.27.76-4.89,1.2-.82.22-1.64.47-2.46.73-.26.19-.54.28-.83.26-2.89.94-5.74,2.09-8.49,3.62-4.18,2.33-8.05,5.47-11.33,9.72-1.41,1.83-3.4-1.12-1.99-2.95Z"/>
      </g>
      <path class="cls-3" d="M283.98,210.25c-14.65-5.53-30.3-8.36-45.96-8.31-4.47.02-8.94.27-13.38.76-1.27.14-1.28,2.14,0,2,15.48-1.68,31.21-.52,46.27,3.46,4.25,1.12,8.43,2.47,12.54,4.02,1.21.46,1.73-1.48.53-1.93Z"/>
      <path class="cls-4" d="M326.51,317.27c-1.03-1.12-3.87-.12-2.83,1.01.81.88-.14,1.88-1.35,2.43-1.55.71-3.76.71-5.61.71-3.7,0-7.3.07-10.93.57-6.95.95-13.37,3.08-18.54,6.06-1.54.89.79,2.3,2.32,1.41,6.09-3.51,14.13-5.71,22.51-6.02,3.9-.14,8.45.4,11.9-1.01,2.76-1.13,4.22-3.33,2.53-5.17Z"/>
      <path class="cls-1" d="M532.37,715.62l.24,11.2,10-8.54c-3.47-.93-6.95-1.93-10.24-2.66Z"/>
    </g>
  </g>
</svg>