<?xml version="1.0" encoding="UTF-8"?>
<svg id="Layer_2" data-name="Layer 2" xmlns="http://www.w3.org/2000/svg" viewBox="0 0 122.07 156.77">
  <defs>
    <style>
      .cls-1 {
        fill: #71a850;
      }

      .cls-2 {
        fill: #3bbfad;
      }
    </style>
  </defs>
  <g id="Layer_6" data-name="Layer 6">
    <g>
      <path class="cls-1" d="M64.73,12.68c.15-.91.24-1.81.3-2.71.05-.9.16-1.71.31-2.44.16-.55.41-1.14.74-1.78.33-.64.58-1.33.73-2.05-.56-.52-1.21-.94-1.94-1.28-.19-.17-.51-.34-.97-.5-.46-.16-.87-.24-1.22-.22-2.88.11-5.81-.05-8.79-.48-2.99-.43-6.02-.76-9.08-1.01-.54.02-1.08,0-1.62-.07-.55-.07-1-.1-1.35-.08-.9.22-1.84.3-2.83.24-.99-.05-1.94-.15-2.84-.3l-2.97.11c-.15.73-.31,1.32-.47,1.77-.16.46-.32,1.05-.47,1.77-.17.37-.33.78-.49,1.23-.16.46-.33.87-.49,1.24.39.89.6,1.51.61,1.87s.21.98.61,1.87c-.16.55-.05,1.22.35,2.01.39.8.42,1.65.1,2.56-.16.73-.4,1.37-.74,1.92-.34.55-.68,1.11-1.02,1.66.6,1.42,1.1,2.89,1.52,4.4.42,1.52.92,2.89,1.51,4.13-.83,2.01-1.31,3.56-1.44,4.65-2.58,3.16-5.67,4.72-9.27,4.67l-1.48.06c-.63.02-1.12.22-1.46.6-1.21,1.31-2.57,2.12-4.09,2.45-1.52.33-3,.43-4.44.3l-4.45.17c-1.35.05-2.55.28-3.62.68-1.41.96-2.31,1.98-2.72,3.07-.41,1.09-.59,2.36-.53,3.8l.19,5.12c-.15.73-.31,1.5-.45,2.31-.15.81-.3,1.68-.44,2.58.41,1.24.72,2.54.96,3.88.23,1.34.37,2.73.43,4.17l.17,4.58c.06,1.62.21,3.14.45,4.57l.06,1.62c.02.54.13,1.08.33,1.61,0,.18.25.49.71.92.47.43.79.65.97.64,1.08-.04,1.88-.25,2.41-.63,1.42-.41,2.71-.82,3.87-1.23,1.15-.4,2.26-.8,3.33-1.21,1.09.14,2.08.28,2.99.43.9.15,1.8.2,2.71.17.06.13.1.27.15.4.99-2.28,2.13-4.5,3.34-6.68-.31-.65-.25-1.43.48-2.07.53-.47.8-1.15,1.34-1.62.15-.13.33-.16.49-.26-.11-.48-.22-.97-.37-1.43-.39-1.23.54-2.79,1.93-2.74,1.44.05,1.44-.74,2.25-1.8.75-.98.61-2.01,1.1-3.12.77-1.74,2.42-2.18,4.15-2.41.39-.41.8-.81,1.19-1.21.17-.54.42-1.11.78-1.75.15-.26.33-.46.54-.62.08-.08.35-.28.47-.42.27-.31.55-.62.82-.93.26-.3.53-.64.74-.92.11-.44.36-.86.86-1.18,2.19-1.37,4.4-2.72,6.57-4.14,1.78-1.17,3.46-2.42,5.44-3.26.26-.11.53-.15.79-.25,1.02-.61,2.1-1.11,3.15-1.67.09-.31.23-.6.44-.77,1.11-.94,2.36-1.67,3.81-1.95.55-.11,1.09-.12,1.64-.15,1.71-.75,3.42-1.51,5.19-2.13-1.16-.63-2.3-1.3-3.36-2.06.12-1.44.3-2.71.53-3.8.23-1.09.41-2.26.54-3.53-.2-.53-.32-1.16-.34-1.88s-.13-1.16-.32-1.34c.3-1.63.51-3.08.64-4.35.13-1.26.26-2.53.4-3.79Z"/>
      <g>
        <path class="cls-1" d="M106.4,125.33l-.07-1.86c-.02-.59.02-1.08.14-1.48-.42-.64-.77-1.21-1.05-1.72-.28-.51-.7-1.02-1.24-1.52-.4-.25-.83-.23-1.27.05-.45.28-.8.42-1.06.43-1.3.18-2.63.36-4,.55-1.36.18-2.76.43-4.19.75-1.29.44-2.59.72-3.89.83-1.3.12-2.67.4-4.09.84-.26.14-.84.23-1.76.26-1.43.05-2.87.08-4.31.07-1.44,0-2.75,0-3.92.05-1.19-.35-2.22-.73-3.08-1.16-.86-.42-1.82-.68-2.87-.77-1.32-.21-2.67-.59-4.06-1.12-.69-.26-1.34-.56-2.01-.84.51.96,1.08,1.9,1.65,2.84,1.31.11,2.03,1.29,1.88,2.54-.02.13.01.27.02.41,1.6,2.34,3.34,4.59,5.19,6.72,1.86,1.7,3.79,3.32,5.56,5.12,2.68,2.72,5.42,5.2,8.36,7.65,1.1.91,1.94,2.07,2.89,3.13.85.69,1.7,1.38,2.56,2.05.26.08.53.12.81.07,1.14-.2,2.25.19,2.65,1.37.08.23.62,2.04.17,1.18.03.05.02.1.04.14.57.43,1.13.87,1.71,1.29.53-.55,1.14-.95,1.92-1.03,1.11-.11,2.11-.37,3.01-.8,2.02-1.77,3.95-3.45,5.79-5.02,1.83-1.57,3.7-3.11,5.6-4.62-1.67-6.21-4.04-11.67-7.09-16.4Z"/>
        <path class="cls-2" d="M121.89,51.21c-.95-1.01-1.97-1.95-3.05-2.83-1.08-.87-2.22-1.61-3.42-2.22-1.33-.6-2.63-1.27-3.9-2.01-1.27-.74-2.32-1.74-3.15-3.02-1.7-.06-3.22-.43-4.55-1.1-1.33-.67-2.6-1.44-3.81-2.31-.93-.22-1.82-.42-2.67-.58-.86-.16-1.74-.23-2.65-.19-.66-.1-1.22-.34-1.69-.72-.48-.37-1.04-.61-1.69-.72-2.88-.15-5.04-.23-6.48-.24-1.44,0-2.62.07-3.52.23-.91.17-2.27.48-4.08.94-.52.15-.9.46-1.14.92-.25.47-.69.85-1.33,1.13l-4.11.16c-.54-.24-1.04-.51-1.5-.82-.47-.31-1.03-.32-1.67-.04-.78.16-1.58.45-2.42.88-.84.42-1.71.79-2.61,1.08-1.04.17-2.04.47-3,.9-.97.43-1.9.86-2.8,1.28-1.03.43-2,.8-2.9,1.09-.38.28-.73.59-1.04.92-.32.34-.66.65-1.04.92-.64.29-1.35.64-2.12,1.06-.77.42-1.54.78-2.31,1.07-1.92.99-3.5,2.55-4.73,4.69-.12.27-.27.53-.46.8-.18.27-.4.54-.65.81-.64.42-1.28.77-1.92,1.05-.64.29-1.41.71-2.3,1.26-.23.92-.53,1.66-.9,2.19.02.65.08,1.24.17,1.76.08.52.14.97.15,1.37-.12.4-.24.66-.36.8-.62.81-1.48,1.4-2.58,1.76-1.1.37-2.16.9-3.17,1.59.15.65.08,1.37-.21,2.17s-.63,1.53-1,2.2c-.73,1.34-1.61,2.48-2.61,3.43-.51.54-.94,1.08-1.31,1.62-.37.54-.81,1.08-1.31,1.62.06,1.57.44,2.99,1.14,4.27-1.45,3.06-1.35,5.8.31,8.22-.38.28-.73.55-1.05.82-.31.28-.66.55-1.05.82-.06,1.96-.14,3.96-.26,5.99-.12,2.03-.27,3.97-.46,5.8-.3,2.63.13,5.36,1.29,8.19l.04.98c-.23.79-.41,1.45-.51,1.98.69,1.02,1.19,2.15,1.5,3.37.31,1.23.55,2.37.72,3.4.54.5.99,1.04,1.34,1.61.34.58.66.99.93,1.24.33,1.95.7,3.83,1.1,5.64.39,1.82.83,3.63,1.29,5.44.68.63,1.26,1.29,1.74,1.99.48.7,1.06,1.37,1.74,1.99,1.35,1.12,2.51,2.39,3.48,3.79.55.63,1.15,1.16,1.83,1.6.67.43,1.28,1.03,1.83,1.79.68.76,1.46,1.48,2.34,2.17.87.69,1.78,1.21,2.71,1.56,1.06.48,2.1,1.13,3.11,1.94s1.99,1.59,2.93,2.34c.92.23,1.75.49,2.48.79.73.3,1.55.5,2.48.59,1.18.08,2.3.3,3.36.66,1.06.35,2.12.7,3.18,1.05l2.35-.09c.65-.02,1.19-.47,1.61-1.34.42-.86,1.16-1.25,2.21-1.16,1.73.98,2.87,1.59,3.4,1.83.53.24,1.66.59,3.37,1.05.52.11.99.19,1.38.24.4.05.72.07.98.06,1.04-.17,2.15-.31,3.32-.42,1.17-.11,2.21-.18,3.13-.22.97-.04,1.89-.19,2.78-.41.13-1.06-.09-2.01-.94-3.02-1.06-1.26-2.46-2.22-3.59-3.41-.43-.45-.87-.97-1.32-1.5-1.22-1.08-2.42-2.19-3.6-3.32-.77-.42-1.61-.68-2.56-.62-.88.06-1.87-.6-2.09-1.47-.54-2.12-1.52-3.91-2.72-5.54-.83-.96-1.66-1.93-2.46-2.92-1.63-1.75-3.39-3.42-4.96-5.25-1.72-2-2.84-4.22-3.73-6.68-.33-.91-.55-2.19-.87-3.41-.34-.77-.68-1.55-.99-2.34-.26-.39-.52-.78-.89-1.01-1.27-.79-1.21-2.25-.54-3.19-.45-1.56-.84-3.13-1.12-4.73-.18-.14-.33-.29-.52-.42-.17-1.04-.38-2.11-.61-3.21-.24-1.1-.51-2.1-.8-3.01,0-.13.06-.2.19-.2s.19-.07.19-.2c.24-.66.57-1.26,1-1.79.07-.54.2-1.03.44-1.45,0-.05.01-.1,0-.15l-1.45-2.1c.23-.79.57-1.36,1.01-1.7.44-.34.85-.78,1.22-1.32.76-.68,1.12-1.42,1.09-2.2-.15-.39-.26-.77-.34-1.16-.08-.39-.2-.84-.35-1.36.33-1.58.79-3.36,1.37-5.34.5-.67,1.03-1.41,1.58-2.22s1.08-1.48,1.59-2.02c.25-.14.51-.31.76-.52.25-.21.45-.31.58-.32,1.42-.32,2.68-.85,3.76-1.61,1.08-.76,2.19-1.62,3.33-2.58.89-.69,1.78-1.37,2.67-2.06.88-.69,1.78-1.31,2.67-1.87,1.04-.17,2.02-.27,2.93-.31s1.83-.13,2.73-.3c1.32.47,2.55.95,3.68,1.43,1.13.48,2.34.57,3.64.25l2.24,2.27c.53.37,1.07.74,1.61,1.12.53.37,1.13.61,1.79.72.53.11,1.09.29,1.69.52.6.24,1.16.35,1.68.33.27.25.47.44.61.57.13.13.4.31.8.56,1.06.48,2.03,1.07,2.91,1.75.87.69,1.72,1.4,2.53,2.16.81.75,1.61.99,2.38.69,1.38-1.49,2.6-3.04,3.65-4.65,1.05-1.61,2.27-3.09,3.66-4.45.23-.66.47-1.23.72-1.69.24-.47.42-.96.53-1.49.63-.42,1.21-.83,1.71-1.24.51-.41,1.01-.82,1.52-1.23.22-1.05.33-1.84.31-2.36.49-.67.9-1.24,1.21-1.71.31-.47.65-.91,1.03-1.32-.04-1.04,0-1.83.11-2.36.23-.79.46-1.59.69-2.38.23-.79.4-1.58.5-2.37.12-.27.14-.56.07-.89-.08-.32-.12-.61-.13-.88Z"/>
      </g>
    </g>
  </g>
</svg>