<?xml version="1.0" encoding="UTF-8"?>
<svg id="Layer_2" data-name="Layer 2" xmlns="http://www.w3.org/2000/svg" viewBox="0 0 220.45 177.18">
  <defs>
    <style>
      .cls-1 {
        fill: #3abfad;
      }

      .cls-2 {
        fill: #fff;
        font-family: AveriaSansLibre-Bold, 'Averia Sans Libre';
        font-size: 36px;
        font-weight: 700;
      }

      .cls-3 {
        letter-spacing: 0em;
      }
    </style>
  </defs>
  <g id="about_hover" data-name="about hover">
    <g>
      <path class="cls-1" d="M220.33,174.7c-9.09-10.85-30.24-15.01-34.04-47.87-.03-.47-.08-.94-.16-1.41l-15.31-88.42c-1.19-6.49-18.4-37-48.62-35.72L36.95,0c-5.07-.08-16.55,1.54-29.91,17.95C1.25,25.08-.42,46.3.08,49.65c.6,4.03,2.75,14.75,2.79,14.74l3.83,17.46c8.62,47.15,54.25,78.67,101.4,70.04l45.46-8.31c4.36-.8,8.76,1.07,11.25,4.74,10.87,16.04,29.57,34.55,55.25,27.21.36-.1.5-.55.26-.83Z"/>
      <text class="cls-2" transform="translate(46.26 95.08) rotate(-12.26)"><tspan class="cls-3" x="0" y="0">A</tspan><tspan x="23.22" y="0">b</tspan><tspan class="cls-3" x="43.26" y="0">ou</tspan><tspan x="82.92" y="0">t</tspan></text>
    </g>
  </g>
</svg>