<?xml version="1.0" encoding="UTF-8"?>
<svg id="Layer_2" data-name="Layer 2" xmlns="http://www.w3.org/2000/svg" viewBox="0 0 353.18 160.84">
  <defs>
    <style>
      .cls-1 {
        fill: #64bcad;
      }

      .cls-2 {
        fill: #f7d25d;
      }
    </style>
  </defs>
  <g id="Layer_1-2" data-name="Layer 1">
    <g>
      <g>
        <path class="cls-2" d="M98.34,121.74l-1.55.57c.74-.24,1.21-.42,1.55-.57Z"/>
        <path class="cls-2" d="M109.94,119.23l.2-.44c-.49.33-.68.53-.2.44Z"/>
        <path class="cls-2" d="M200.19,98.32c-.44-.27-.93-.27-1.5-.35.19.06.41.11.65.15.25.04.53.06.85.2Z"/>
        <path class="cls-2" d="M35.26,136.65l-1.68,1.28c2.92-.65,1.54-.8,1.68-1.28Z"/>
        <path class="cls-2" d="M107.82,31.11c.16.06.36.12.51.19.07-.11-.16-.15-.51-.19Z"/>
        <path class="cls-2" d="M330.97,78.27s-.07.04-.12.07c.48-.09.4-.08.12-.07Z"/>
        <path class="cls-2" d="M8,52.8c.03-.1.05-.22.1-.33-.29-1.57-.26-.88-.1.33Z"/>
        <path class="cls-2" d="M232.25,141.95c.06-.04.08-.08.13-.12-.07.03-.15.06-.21.09l.08.04Z"/>
        <path class="cls-2" d="M227.85,145.34c1.46-2.13,2.68-2.71,4.32-3.43l-2.85-1.21-1.47,4.63Z"/>
        <path class="cls-2" d="M353.04,65.42c.02-.66-.02-1.58-.35-2.53-.31-.95-.9-1.92-1.71-2.58-.81-.66-1.75-.99-2.59-1.33-.08.3.27.64.85,1.03.59.38,1.36,1.03,1.9,1.97.54.93.81,2.11.7,3.18-.08,1.08-.52,1.98-.96,2.55-.44-.11-.63-.44-.67-.99-.02-.14,0-.28-.02-.46,0-.09,0-.18-.02-.27,1.07-1.95.37-4.63-1.94-5.62l-13.66-5.85c-4.23-2.38-15.78-6.77-22.02-10.29-1.03-.17-2.54-.53-3.02-.42l-25.37-10.86c.13-.1.2-.23.16-.42l-3.44-.98-.39-.17c.21-.16,1.37,0,.51-.58-.19.22-.79.25-1.59.12l-5.41-2.31c-.08-.05-.15-.11-.23-.16-.09-.02-.17-.03-.26-.04l-4.41-1.89c-.14-.09-.33-.21-.59-.35-.39-.06-.76-.27-1.14-.39L207.9.33c-2.52-1.08-5.36.64-5.58,3.37l-3.35,42.52c-.18,2.33-2.32,4.01-4.63,3.65l-8.41-1.34c-1.4-1.04-2.88-2.13-2.51-2.94-4.29,1.04-10.21-4.17-17.19-2.82-1.4-.62,1.34-.41.63-.97-1.8.54-3.85.39-7.53-.56l.46-.13c-10.55-1.47-14.93-2.99-26.66-5.4l.73,1.07c-2.52-.53-3.01-.91-4.16-1.33-3.14.96,7.12,1.21,4.21,2.36-3.07-2.44-17.9-2.87-19.83-5.4-3.9-.63.97,1.27-2.93.63l-.94-.75-1.11.6c-2.54-.53-3.72-1.47-3.73-1.98.61.16,1.79.14,2.46.2-2.99-1.13-8.55-1.24-10.2-1.58l3.39.88c-10.75-1.15-23.64-3.98-34.12-4.43l.71.56c-7.99-.43-6.22-1.49-14.92-2.48l.33-.05c-1.8.16-4.14.02-6.5-.4,2.26-.17-3.94-1.66-.99-1.77-8.67-.48-4.33.02-10.22.77l-1.18-.94c-2.02.36-2.24.68-6.58.19,3.64-.07-2.57-1.55,1.52-1.75-2.02-.7-3.84-1.1-5.48-1.35-.82-.12-1.6-.21-2.34-.27-1.08-.11-2.12-.21-3.07-.28-2.27-.12-3.9.09-5.48.81-1.55.71-2.79,1.71-4.03,2.74-.12.82-.02,1.29.1,1.48.13.19.28.11.47-.14.37-.5,1.02-1.71,2.15-2.62,1.1-.94,2.56-1.45,3.49-1.52.92-.08,1.33,0,.63.1.67.16.75.36.47.51-.27.16-.9.28-1.67.64-.76.34-1.63.92-2.27,1.71-.66.77-1.07,1.71-1.25,2.47-.29,1.56-.96,2.76-1.71,5.11-.73,1.77-1.47,4.09-1.62,7.77.04-.73-.11-.79-.07-1.52-.65,2.73.46,5.43-.54,8.76,1.15,1.95-.27,4.38,1.29,5l-.06-6.76c.24,3.84,1.93,7.51.74,13.77-.3-.51-.63-2.4-.8-3.7-.55,1.82.15,3.56-.42,5.45-1.56-.62.03-8.21-.99-12.37-.76,1.95.79,7.8-.83,5.67,2.04,3.06-.61,7.23.83,12.29l-.93-.37c.11.79.49,2.45.4,3.9l-1.11-2.68c.86,4.08-1.27,7.73-.88,11.63.34-8.1,1.23-1.77,2.07-5.16.8,9.9-2.64,5.77-2.79,16.36.09-1.75.85-4.97,1.15-2.79-.29,2.12-.79,4.91-1.34,6.2-.14,7.42,1.03-1.09,1.47,2.09-1.27,2.47.3,3.66.52,6.92l-.97-.02c-1,8.41,1.91,2.33.81,9.9l-1.19-3.27.16,3.98-1.06-.87c.62,4.35.35,5.68-.16,9.89.72-.95,1.72.63,1.58,4.37-.34,1.26-.56.89-.7.87-.07,0-.12.07-.16.48-.02.21-.04.49-.05.9-.02.51-.04,1.16-.06,1.99-.13-.44-.25-.89-.39-1.36-.13-.33-.23-.69-.29-1.07-.12-.77-.05-1.68.45-2.81-.3-.25-.55-1.21-.85-1.47-.33,1.16-.47,2.58-.52,3.98-.03,2.02-.06,3.99-.09,5.52.03.63.01,1.19.08,1.63-.06-.5,0-1.11.02-1.65.07-.73.15-1.4.25-1.84l.11,1.75c.08.87.21,1.7.43,2.44.22.75.44,1.41.81,2.07.71,1.31,1.84,2.46,3.21,3.16.58.61.6.75.25.75-.34-.02-1.01-.27-1.62-.64.89.72,1.82,1.11,2.88,1.34.53.13,1.1.17,1.72.21.61.01,1.29-.04,2.1-.1-.52.44-.79.83-1.56,1.18-.38.15-.87.29-1.59.27-.71-.01-1.67-.17-2.84-.74.88.43,1.81.72,2.74.86.46.08.92.09,1.38.11.48-.02.95-.03,1.43-.08.99-.12,2.02-.35,3.04-.67l3-.89c.3.02.52.08.92.1.38.02.82.05,1.21.08.79.06,1.41.15.97.39,4.07-.43,9.4-3.64,14.79-4.21.24-.21.76-.47,1.85-.83,4.98-.92,9.57-.95,15.19-3.3l3.63.64c4.52-1.33-4.88-.73,2.64-2.94,5.31-1.64,2.28.72,4.26.69,2.54-1.29,6.9-3.73,12.12-3.71-1.59.62-2.92.7-4.44,1.15l3.96-.08c-4.29,2.26-7.7,2.56-3.9,2.85-.05-2.77,14.66-3.53,14.6-6.3h2.62c-.72.14-.8.32-1.51.45,5.14.19,3.18-2.72,9.52-3.72,2.22-.28,3.83-.23,2.41.41l4.71-1.73c1.18-.22,1.2.12.37.38l6.76-1.7-.04.09c.97-.65,3.22-1.82,4.33-2.36,1.97-.04-.88.49-.33.71l3.96-1.55c1.82.32-1.43,1.74-4.28,2.27,4.42,1.8,3.26-1.42,11.87-1.7l-3.8,1.19c2.83.95,5.73-.26,10.32-.29-1.15-.26-9.29-.42-4.98-2.07,1.3-.08,2.97-.35,5.26-1.41.23.94,2.52.19,5.45-.52l.08,1.29c3.09-1.06,2.7-1.64,4.44-2.62,3.56-.66,4.51.15,5.52.78,5.71-1.06-4.25-.69,2.4-2.41,4.82-.56,8.01-1.81,13.48-3.8,3.39-.3-.41.89.85.99l2.7-1.64c.72-.13.56.22.47.4,2.38-.93-.07-1.29,3.72-2.49.74-1.61,8.39.25,12.84-2.37,1.26.09-.4.89.07,1.3,6.35-2.48,5.47-1.99,10.56-4.57l1.07-.04.54-.02c.18,0,.38-.02.47,0,.47.03.9.06,1.3.1l.26.03c-.11-.04-.22-.08-.25-.13-.64-.27-.62-.72.1-1.31.43-.37,1.12-.81,2.02-1.28.89-.47,2.07-.68,3.11-.41-.12-.18-.24-.33-.37-.47.46.19.88.46,1.24.79-.26-.14-.54-.26-.87-.33.13.19.24.43.34.65.33.03.64.09.93.18.03.01.05.02.08.04.49.66.79,1.48.79,2.38v.49c-.06.03-.13.05-.2.05-.34-.02-.66-.46-1.22-.82.06-.8-.08-1.6-.38-2.31-.86-.09-1.76.14-2.38.51-.63.37-1,.85-1.08,1.26.32-.17.92-.22,1.47.01-.39.08-.66.24-.65.41.02.2.57.04,1.3.25-.23.68-.56,1.33-.94,1.91.2-.09.4-.17.61-.25.02.42-.1.84-.16,1.22l-.22,1.11-.11.51-.06.25-.06.5-.22,2.02c1.43,5.78,3.55,10.81,4.14,19.99-1.05-2.28-1.71-.49-2.95-.61,1.31-2.5-.56-7.11-.29-11.87-.14,2.48-.73,1.94-.93,1.31l1.19,8.49c-1.01-.19-.76,1.8-1.18,4.02,2-1.68,1.33,6.32,1.95,9.78-.67.21-1.36-.61-1.2-4.83-.75,2.32-.17,3.83.45,5.32.31.75.62,1.49.78,2.33l.05.32c.01.14.02.28.03.42.02.29.02.59.01.9-.02.63-.1,1.31-.26,2.12-.02-1.37.09-2.1-.26-2.62.15.81.23,1.87.26,3.01.02,1.14.07,2.33.18,3.29.08,1.93.6,3.26.03,2.75-.18-.37-.29-.75-.4-1.13.18.97.72,2.09,1.63,3.05.92.94,2.23,1.7,3.67,1.92.71.12,1.45.13,2.13,0,.68-.14,1.31-.35,2.01-.64,1.37-.51,2.82-1.42,4.14-2.3.66-.43,1.3-.86,1.93-1.27l.45-.3.32-.23c.21-.15.41-.3.61-.44.8-.59,1.52-1.14,2.12-1.65,1.21-1.02,1.95-1.85,1.95-2.35.17.15.29,2.22.11,2.73l5.18-7.7,3.29-1.97c1.22,1.09,2.84,2.28-.23,4.79,1.5-.66,3.35-1.48,6.03-3.69-1.06.39-3.46-.39-2.23-1.29,4.4-.74,2.92-.74,8.04-2.18-1.59.59-1.18-2.33,1.11-3.62-.18.5,1.35,1.83.65,2.52l4.25-5.05c-.71,1.02,1.05,1.53,2.52,1.34-.81-.03,4.87-2.87,6.25-3.96l-2.65.98c6.51-3.5,4.63-6.46,10.98-10.12-.52.85-.41,3.58,2.93,1.91.47-1,1.48-3.4,3.09-6.04l7.08-4.24c-2.25,3.1-4.91,6.5-6.83,8.6,2.64-.97,1.06.27,4.58-1.91,1.57-.22-1.45,1.96-2.48,2.62l8.47-4.61c-1.06-.93,5.63-4.94,4.74-5.71l-8.26,6.57c-1.05-.93,3.23-6.38,9.21-9.69,1.77-.43.12,2.72.47,3.03.52-.85,5.1-4.09,5.81-4.13l-2.11,2.1c3.52-1.52,4.4-4.72,8.98-5.96,1.4-.74,4.93-.93,4.75-1.76-1.79,0-3.53-1.36-4.46-2.86l4.62-2.77.08.57.88-.55-.3-.42,4.71-2.82c1.06.69-2.3,4.33-.17,4.11-.11-.36.89-1.49,1.33-1.92,1.58-.58,0,1.33,3-.66-.18-1.48,6.33-3.66.87-1.86,2.82-2.14,3.35-1.68,6.87-3.85-1.05-.05.02-2,1.67-3.93l3.88-2.32c.1,0,.19,0,.26,0,3.01-1.73,5.41-2.97,7.75-4.17,1.16-.61,2.31-1.21,3.52-1.84.64-.35,1.29-.71,1.97-1.09.7-.4,1.43-.82,2.2-1.27.18-.11.41-.25.64-.39.45-.08,1.54-.58,2.38-.96.85-.37,1.48-.64,1.22-.06.27-.39.47-.75.71-1.3.22-.56.55-1.29.7-2.45.41-1.12.44-1.4.58-1.18.11.22.18.94.05,1.67-.12.73-.4,1.45-.48,1.76-.07.32.2.37.96-.39-.17-.1-.15-.52-.14-1.18ZM203.75,102.51c-.32-.6-.16-1.44.2-2.73.08.76.04,1.74-.2,2.73ZM123.08,116.14c1.01-1.36,2.09-1.05,4.03-1.16-1.05.44-3.1,1.53-4.03,1.16Z"/>
        <path class="cls-2" d="M97.62,29.53l-.31-.08c.08.03.18.05.31.08Z"/>
        <path class="cls-2" d="M103.42,120.39l-.6.15c.24-.04.43-.1.6-.15Z"/>
        <path class="cls-2" d="M3.34,87.98c0-.17,0-.32,0-.48,0,.17-.01.34,0,.48Z"/>
        <path class="cls-2" d="M200.54,97.87c-.08-.21-.05-.4,0-.61-.36.19-.42.36,0,.61Z"/>
        <path class="cls-2" d="M35.57,136.41l-.17.03c-.08.08-.12.15-.14.21l.31-.24Z"/>
        <path class="cls-2" d="M315.13,92.2c-.99.43-1.59.59-2.03.63.07.23.59.15,2.03-.63Z"/>
        <polygon class="cls-2" points="298.61 39.12 295.29 37.39 296.22 38.02 298.61 39.12"/>
        <path class="cls-2" d="M335.04,53.58l.6-1.09-1.95-.31c.93.62.91.86,1.35,1.41Z"/>
        <path class="cls-2" d="M345.35,56.85c.33-.04,2.35.51,3.38.89.52.18.85.27.67.1-.18-.15-.79-.61-2.46-1.31-.4.01-1.92-.47-2.73-.65-.82-.19-.95-.09,1.14.96Z"/>
        <path class="cls-2" d="M265.97,121.53c-2.24,1.93-3.69,2.47-1.86,2.93,4.39-2.06.34-1.67,4.39-3.38.72-1-3.31,1.4-2.53.45Z"/>
        <path class="cls-2" d="M265.97,121.53c.36-.31.73-.65,1.12-1.03-.66.54-.95.83-1.12,1.03Z"/>
        <path class="cls-2" d="M133.56,115.49l2.52.19.16-.36c-.54-.23-1.26-.09-2.69.17Z"/>
        <polygon class="cls-2" points="94.8 123.82 95.51 123.69 93.94 122.84 94.8 123.82"/>
        <path class="cls-2" d="M64.1,132c.32-.06.65-.13,1-.23-.32.06-.66.14-1,.23Z"/>
        <path class="cls-2" d="M60.65,132.92c1.09-.2,2.3-.62,3.44-.92-2.47.44-4.06-.27-3.44.92Z"/>
      </g>
      <g>
        <path class="cls-1" d="M96.67,129.32l-1.55.57c.74-.24,1.21-.42,1.55-.57Z"/>
        <path class="cls-1" d="M108.27,126.81l.2-.44c-.49.33-.68.53-.2.44Z"/>
        <path class="cls-1" d="M198.52,105.9c-.44-.27-.93-.27-1.5-.35.19.06.41.11.65.15.25.04.53.06.85.2Z"/>
        <path class="cls-1" d="M33.58,144.23l-1.68,1.28c2.92-.65,1.54-.8,1.68-1.28Z"/>
        <path class="cls-1" d="M106.14,38.69c.16.06.36.12.51.19.07-.11-.16-.15-.51-.19Z"/>
        <path class="cls-1" d="M329.3,85.85s-.07.04-.12.07c.48-.09.4-.08.12-.07Z"/>
        <path class="cls-1" d="M6.33,60.38c.03-.1.05-.22.1-.33-.29-1.57-.26-.88-.1.33Z"/>
        <path class="cls-1" d="M230.58,149.53c.06-.04.08-.08.13-.12-.07.03-.15.06-.21.09l.08.04Z"/>
        <path class="cls-1" d="M226.17,152.92c1.46-2.13,2.68-2.71,4.32-3.43l-2.85-1.21-1.47,4.63Z"/>
        <path class="cls-1" d="M351.37,73c.02-.66-.02-1.58-.35-2.53-.31-.95-.9-1.92-1.71-2.58-.81-.66-1.75-.99-2.59-1.33-.08.3.27.64.85,1.03.59.38,1.36,1.03,1.9,1.97.54.93.81,2.11.7,3.18-.08,1.08-.52,1.98-.96,2.55-.44-.11-.63-.44-.67-.99-.02-.14,0-.28-.02-.46,0-.09,0-.18-.02-.27,1.07-1.95.37-4.63-1.94-5.62l-13.66-5.85c-4.23-2.38-15.78-6.77-22.02-10.29-1.03-.17-2.54-.53-3.02-.42l-25.37-10.86c.13-.1.2-.23.16-.42l-3.44-.98-.39-.17c.21-.16,1.37,0,.51-.58-.19.22-.79.25-1.59.12l-5.41-2.31c-.08-.05-.15-.11-.23-.16-.09-.02-.17-.03-.26-.04l-4.41-1.89c-.14-.09-.33-.21-.59-.35-.39-.06-.76-.27-1.14-.39l-59.47-25.44c-2.52-1.08-5.36.64-5.58,3.37l-3.35,42.52c-.18,2.33-2.32,4.01-4.63,3.65l-8.41-1.34c-1.4-1.04-2.88-2.13-2.51-2.94-4.29,1.04-10.21-4.17-17.19-2.82-1.4-.62,1.34-.41.63-.97-1.8.54-3.85.39-7.53-.56l.46-.13c-10.55-1.47-14.93-2.99-26.66-5.4l.73,1.07c-2.52-.53-3.01-.91-4.16-1.33-3.14.96,7.12,1.21,4.21,2.36-3.07-2.44-17.9-2.87-19.83-5.4-3.9-.63.97,1.27-2.93.63l-.94-.75-1.11.6c-2.54-.53-3.72-1.47-3.73-1.98.61.16,1.79.14,2.46.2-2.99-1.13-8.55-1.24-10.2-1.58l3.39.88c-10.75-1.15-23.64-3.98-34.12-4.43l.71.56c-7.99-.43-6.22-1.49-14.92-2.48l.33-.05c-1.8.16-4.14.02-6.5-.4,2.26-.17-3.94-1.66-.99-1.77-8.67-.48-4.33.02-10.22.77l-1.18-.94c-2.02.36-2.24.68-6.58.19,3.64-.07-2.57-1.55,1.52-1.75-2.02-.7-3.84-1.1-5.48-1.35-.82-.12-1.6-.21-2.34-.27-1.08-.11-2.12-.21-3.07-.28-2.27-.12-3.9.09-5.48.81-1.55.71-2.79,1.71-4.03,2.74-.12.82-.02,1.29.1,1.48.13.19.28.11.47-.14.37-.5,1.02-1.71,2.15-2.62,1.1-.94,2.56-1.45,3.49-1.52.92-.08,1.33,0,.63.1.67.16.75.36.47.51-.27.16-.9.28-1.67.64-.76.34-1.63.92-2.27,1.71-.66.77-1.07,1.71-1.25,2.47-.29,1.56-.96,2.76-1.71,5.11-.73,1.77-1.47,4.09-1.62,7.77.04-.73-.11-.79-.07-1.52-.65,2.73.46,5.43-.54,8.76,1.15,1.95-.27,4.38,1.29,5l-.06-6.76c.24,3.84,1.93,7.51.74,13.77-.3-.51-.63-2.4-.8-3.7-.55,1.82.15,3.56-.42,5.45-1.56-.62.03-8.21-.99-12.37-.76,1.95.79,7.8-.83,5.67,2.04,3.06-.61,7.23.83,12.29l-.93-.37c.11.79.49,2.45.4,3.9l-1.11-2.68c.86,4.08-1.27,7.73-.88,11.63.34-8.1,1.23-1.77,2.07-5.16.8,9.9-2.64,5.77-2.79,16.36.09-1.75.85-4.97,1.15-2.79-.29,2.12-.79,4.91-1.34,6.2-.14,7.42,1.03-1.09,1.47,2.09-1.27,2.47.3,3.66.52,6.92l-.97-.02c-1,8.41,1.91,2.33.81,9.9l-1.19-3.27.16,3.98-1.06-.87c.62,4.35.35,5.68-.16,9.89.72-.95,1.72.63,1.58,4.37-.34,1.26-.56.89-.7.87-.07,0-.12.07-.16.48-.02.21-.04.49-.05.9-.02.51-.04,1.16-.06,1.99-.13-.44-.25-.89-.39-1.36-.13-.33-.23-.69-.29-1.07-.12-.77-.05-1.68.45-2.81-.3-.25-.55-1.21-.85-1.47-.33,1.16-.47,2.58-.52,3.98-.03,2.02-.06,3.99-.09,5.52.03.63.01,1.19.08,1.63-.06-.5,0-1.11.02-1.65.07-.73.15-1.4.25-1.84l.11,1.75c.08.87.21,1.7.43,2.44.22.75.44,1.41.81,2.07.71,1.31,1.84,2.46,3.21,3.16.58.61.6.75.25.75-.34-.02-1.01-.27-1.62-.64.89.72,1.82,1.11,2.88,1.34.53.13,1.1.17,1.72.21.61.01,1.29-.04,2.1-.1-.52.44-.79.83-1.56,1.18-.38.15-.87.29-1.59.27-.71-.01-1.67-.17-2.84-.74.88.43,1.81.72,2.74.86.46.08.92.09,1.38.11.48-.02.95-.03,1.43-.08.99-.12,2.02-.35,3.04-.67l3-.89c.3.02.52.08.92.1.38.02.82.05,1.21.08.79.06,1.41.15.97.39,4.07-.43,9.4-3.64,14.79-4.21.24-.21.76-.47,1.85-.83,4.98-.92,9.57-.95,15.19-3.3l3.63.64c4.52-1.33-4.88-.73,2.64-2.94,5.31-1.64,2.28.72,4.26.69,2.54-1.29,6.9-3.73,12.12-3.71-1.59.62-2.92.7-4.44,1.15l3.96-.08c-4.29,2.26-7.7,2.56-3.9,2.85-.05-2.77,14.66-3.53,14.6-6.3h2.62c-.72.14-.8.32-1.51.45,5.14.19,3.18-2.72,9.52-3.72,2.22-.28,3.83-.23,2.41.41l4.71-1.73c1.18-.22,1.2.12.37.38l6.76-1.7-.04.09c.97-.65,3.22-1.82,4.33-2.36,1.97-.04-.88.49-.33.71l3.96-1.55c1.82.32-1.43,1.74-4.28,2.27,4.42,1.8,3.26-1.42,11.87-1.7l-3.8,1.19c2.83.95,5.73-.26,10.32-.29-1.15-.26-9.29-.42-4.98-2.07,1.3-.08,2.97-.35,5.26-1.41.23.94,2.52.19,5.45-.52l.08,1.29c3.09-1.06,2.7-1.64,4.44-2.62,3.56-.66,4.51.15,5.52.78,5.71-1.06-4.25-.69,2.4-2.41,4.82-.56,8.01-1.81,13.48-3.8,3.39-.3-.41.89.85.99l2.7-1.64c.72-.13.56.22.47.4,2.38-.93-.07-1.29,3.72-2.49.74-1.61,8.39.25,12.84-2.37,1.26.09-.4.89.07,1.3,6.35-2.48,5.47-1.99,10.56-4.57l1.07-.04.54-.02c.18,0,.38-.02.47,0,.47.03.9.06,1.3.1l.26.03c-.11-.04-.22-.08-.25-.13-.64-.27-.62-.72.1-1.31.43-.37,1.12-.81,2.02-1.28.89-.47,2.07-.68,3.11-.41-.12-.18-.24-.33-.37-.47.46.19.88.46,1.24.79-.26-.14-.54-.26-.87-.33.13.19.24.43.34.65.33.03.64.09.93.18.03.01.05.02.08.04.49.66.79,1.48.79,2.38v.49c-.06.03-.13.05-.2.05-.34-.02-.66-.46-1.22-.82.06-.8-.08-1.6-.38-2.31-.86-.09-1.76.14-2.38.51-.63.37-1,.85-1.08,1.26.32-.17.92-.22,1.47.01-.39.08-.66.24-.65.41.02.2.57.04,1.3.25-.23.68-.56,1.33-.94,1.91.2-.09.4-.17.61-.25.02.42-.1.84-.16,1.22l-.22,1.11-.11.51-.06.25-.06.5-.22,2.02c1.43,5.78,3.55,10.81,4.14,19.99-1.05-2.28-1.71-.49-2.95-.61,1.31-2.5-.56-7.11-.29-11.87-.14,2.48-.73,1.94-.93,1.31l1.19,8.49c-1.01-.19-.76,1.8-1.18,4.02,2-1.68,1.33,6.32,1.95,9.78-.67.21-1.36-.61-1.2-4.83-.75,2.32-.17,3.83.45,5.32.31.75.62,1.49.78,2.33l.05.32c.01.14.02.28.03.42.02.29.02.59.01.9-.02.63-.1,1.31-.26,2.12-.02-1.37.09-2.1-.26-2.62.15.81.23,1.87.26,3.01.02,1.14.07,2.33.18,3.29.08,1.93.6,3.26.03,2.75-.18-.37-.29-.75-.4-1.13.18.97.72,2.09,1.63,3.05.92.94,2.23,1.7,3.67,1.92.71.12,1.45.13,2.13,0,.68-.14,1.31-.35,2.01-.64,1.37-.51,2.82-1.42,4.14-2.3.66-.43,1.3-.86,1.93-1.27l.45-.3.32-.23c.21-.15.41-.3.61-.44.8-.59,1.52-1.14,2.12-1.65,1.21-1.02,1.95-1.85,1.95-2.35.17.15.29,2.22.11,2.73l5.18-7.7,3.29-1.97c1.22,1.09,2.84,2.28-.23,4.79,1.5-.66,3.35-1.48,6.03-3.69-1.06.39-3.46-.39-2.23-1.29,4.4-.74,2.92-.74,8.04-2.18-1.59.59-1.18-2.33,1.11-3.62-.18.5,1.35,1.83.65,2.52l4.25-5.05c-.71,1.02,1.05,1.53,2.52,1.34-.81-.03,4.87-2.87,6.25-3.96l-2.65.98c6.51-3.5,4.63-6.46,10.98-10.12-.52.85-.41,3.58,2.93,1.91.47-1,1.48-3.4,3.09-6.04l7.08-4.24c-2.25,3.1-4.91,6.5-6.83,8.6,2.64-.97,1.06.27,4.58-1.91,1.57-.22-1.45,1.96-2.48,2.62l8.47-4.61c-1.06-.93,5.63-4.94,4.74-5.71l-8.26,6.57c-1.05-.93,3.23-6.38,9.21-9.69,1.77-.43.12,2.72.47,3.03.52-.85,5.1-4.09,5.81-4.13l-2.11,2.1c3.52-1.52,4.4-4.72,8.98-5.96,1.4-.74,4.93-.93,4.75-1.76-1.79,0-3.53-1.36-4.46-2.86l4.62-2.77.08.57.88-.55-.3-.42,4.71-2.82c1.06.69-2.3,4.33-.17,4.11-.11-.36.89-1.49,1.33-1.92,1.58-.58,0,1.33,3-.66-.18-1.48,6.33-3.66.87-1.86,2.82-2.14,3.35-1.68,6.87-3.85-1.05-.05.02-2,1.67-3.93l3.88-2.32c.1,0,.19,0,.26,0,3.01-1.73,5.41-2.97,7.75-4.17,1.16-.61,2.31-1.21,3.52-1.84.64-.35,1.29-.71,1.97-1.09.7-.4,1.43-.82,2.2-1.27.18-.11.41-.25.64-.39.45-.08,1.54-.58,2.38-.96.85-.37,1.48-.64,1.22-.06.27-.39.47-.75.71-1.3.22-.56.55-1.29.7-2.45.41-1.12.44-1.4.58-1.18.11.22.18.94.05,1.67-.12.73-.4,1.45-.48,1.76-.07.32.2.37.96-.39-.17-.1-.15-.52-.14-1.18ZM202.07,110.09c-.32-.6-.16-1.44.2-2.73.08.76.04,1.74-.2,2.73ZM121.4,123.73c1.01-1.36,2.09-1.05,4.03-1.16-1.05.44-3.1,1.53-4.03,1.16Z"/>
        <path class="cls-1" d="M95.95,37.11l-.31-.08c.08.03.18.05.31.08Z"/>
        <path class="cls-1" d="M101.75,127.97l-.6.15c.24-.04.43-.1.6-.15Z"/>
        <path class="cls-1" d="M1.67,95.56c0-.17,0-.32,0-.48,0,.17-.01.34,0,.48Z"/>
        <path class="cls-1" d="M198.87,105.46c-.08-.21-.05-.4,0-.61-.36.19-.42.36,0,.61Z"/>
        <path class="cls-1" d="M33.89,143.99l-.17.03c-.08.08-.12.15-.14.21l.31-.24Z"/>
        <path class="cls-1" d="M313.46,99.78c-.99.43-1.59.59-2.03.63.07.23.59.15,2.03-.63Z"/>
        <polygon class="cls-1" points="296.94 46.71 293.61 44.98 294.55 45.6 296.94 46.71"/>
        <path class="cls-1" d="M333.36,61.16l.6-1.09-1.95-.31c.93.62.91.86,1.35,1.41Z"/>
        <path class="cls-1" d="M343.67,64.43c.33-.04,2.35.51,3.38.89.52.18.85.27.67.1-.18-.15-.79-.61-2.46-1.31-.4.01-1.92-.47-2.73-.65-.82-.19-.95-.09,1.14.96Z"/>
        <path class="cls-1" d="M264.3,129.11c-2.24,1.93-3.69,2.47-1.86,2.93,4.39-2.06.34-1.67,4.39-3.38.72-1-3.31,1.4-2.53.45Z"/>
        <path class="cls-1" d="M264.3,129.11c.36-.31.73-.65,1.12-1.03-.66.54-.95.83-1.12,1.03Z"/>
        <path class="cls-1" d="M131.88,123.07l2.52.19.16-.36c-.54-.23-1.26-.09-2.69.17Z"/>
        <polygon class="cls-1" points="93.13 131.41 93.84 131.28 92.26 130.42 93.13 131.41"/>
        <path class="cls-1" d="M62.42,139.58c.32-.06.65-.13,1-.23-.32.06-.66.14-1,.23Z"/>
        <path class="cls-1" d="M58.98,140.5c1.09-.2,2.3-.62,3.44-.92-2.47.44-4.06-.27-3.44.92Z"/>
      </g>
    </g>
  </g>
</svg>