<?xml version="1.0" encoding="UTF-8"?>
<svg id="Layer_2" data-name="Layer 2" xmlns="http://www.w3.org/2000/svg" viewBox="0 0 1596.88 899.93">
  <defs>
    <style>
      .cls-1 {
        fill: #64bcad;
      }
    </style>
  </defs>
  <g id="doodles">
    <g>
      <path class="cls-1" d="M464.74,509.77c-7-1.17-14.07-2.82-20.63-5.61-5.03-2.14-11.22-5.57-13.07-11.1-1.74-5.19,1.68-9.59,4.81-13.37,3.37-4.08,6.94-7.98,8.9-12.98,1.1-2.8-.82-6.36-4.15-5.95-12.53,1.57-25.05,3.14-37.58,4.7-5.32.67-4.61,9,.74,8.33,9.73-1.22,19.45-2.43,29.18-3.65-2.24,2.83-4.75,5.47-6.76,8.47-3.69,5.51-5.26,12.08-2.55,18.4,4.83,11.25,18.2,16.38,30.31,19.17-3.55,2.64-7.07,5.3-10.44,8.13-4.63,3.89-7.91,8.76-6.72,15.07,1.48,7.87,7.14,14.88,13.84,20.11-10.59,2.19-20.54,7.16-28.62,14.5-3.93,3.57.85,10.44,4.84,6.82,10.26-9.32,23.12-14.3,36.98-14.27,4.24.01,5.03-6.33,1.42-7.94-8.1-3.61-17.39-10.75-19.99-19.69-1.58-5.42,3.86-8.41,7.56-11.23,4.54-3.46,9.08-6.92,13.62-10.38,2.79-2.12,1.99-6.91-1.67-7.52Z"/>
      <path class="cls-1" d="M770.1,652.81c-.48-10.36-1.47-20.7-4.38-30.68-2.79-9.57-7.55-18.43-15.05-25.12-8.85-7.9-20.66-11.21-32.06-13.38-27-5.14-54.69-7.57-82.16-8.12-24.83-.49-50.46-.24-74.94,4.42-20.34,3.87-40.86,11.9-54.07,28.58-8.28,10.46-12.65,23.3-15.17,36.26-2.44,12.55-4.44,26.31-3.85,39.13.53,11.55,6.47,21.21,17.11,26.01,9.22,4.16,19.82,4.42,29.87,3.88-.27,12.8-6.34,24.22-17.02,31.44-3.83,2.59-1.49,8.19,2.47,8.9,18.38,3.33,37.15-6.94,44.72-23.9,2.63-5.89-6.63-9.69-9.25-3.82-4.09,9.16-12.38,15.45-21.78,17.53,6.81-8.31,10.78-18.83,10.8-29.74,0-1.77-.77-3.15-1.88-4.08.61-2.98-1.47-6.78-5.49-6.49-8.61.62-17.95.95-26.21-2-9.6-3.43-13.54-11.09-13.46-21.02.09-10.37,1.54-21.1,3.29-31.31,1.8-10.47,4.72-21.07,10.49-30.1,10.35-16.19,28.31-24.44,46.5-28.48,21.15-4.69,43.4-5.34,64.98-5.39,24.6-.06,49.22,1.61,73.59,4.99,19.95,2.77,44.62,4.69,55.07,24.7,4.24,8.12,6.01,17.23,7.01,26.25,1.16,10.43,2.14,21.62.3,32-3.79,21.41-25.82,31.39-43.54,39.63-43.93,20.43-99.12,32.52-141.81,2.36-5.26-3.71-11.33,4.23-6.06,7.95,41.89,29.59,95.84,22.58,140.58,3.85,19.63-8.22,44.05-18,55.31-37.29,6.59-11.28,6.65-24.28,6.06-36.96Z"/>
      <path class="cls-1" d="M723.94,812.57c-13.76-8.14-24.86-19.57-32.66-33.52-2.5-4.47-9.15-2.29-9.32,2.52-.43,12.18-12.53,22.94-24.83,21.12-6.3-.93-9.01,8.7-2.66,9.64,2.7.4,5.38.45,8,.17.11.03.23.07.35.09,11.56,2.48,20.75,9.8,25.85,20.45.2.43.44.79.7,1.1-1.15,1.45-2.21,2.96-3.16,4.54-6.03-11.81-16.96-20.85-30.45-23.71-6.28-1.33-8.96,8.3-2.66,9.64,14.35,3.05,26.18,15.05,27.89,29.86.74,6.38,9.35,6.47,10,0,1.74-17.22,19.33-26.24,32.94-33.29,3.4-1.76,3.1-6.8,0-8.63ZM691.8,797.67c-1.39-.48-2.81-.88-4.25-1.19.49-.83.97-1.68,1.39-2.56.92,1.28,1.89,2.52,2.87,3.75ZM696.64,826.71c-4.34-8.36-11.18-15.14-19.42-19.47,1.09-.71,2.13-1.5,3.13-2.34.53.37,1.21.64,2.04.76,9.63,1.37,17.37,6.78,21.78,15.41-2.63,1.76-5.17,3.63-7.53,5.64Z"/>
      <path class="cls-1" d="M758.11,778.5c-3.97-3.02-6.82-7.15-8.43-11.84-1.28-3.71-7.14-5.35-9.14-1.19-3.11,6.48-7.05,12.2-12.08,17.33-.34.34-.6.7-.81,1.06-.62.23-1.25.46-1.89.67-4.49,1.5-5.01,8.38,0,9.64,4.92,1.24,8.92,4.36,10.75,9.2,1.58,4.19,8.57,5.29,9.64,0,1.46-7.19,5.49-12.74,11.96-16.24,3.63-1.96,2.8-6.51,0-8.63Z"/>
      <path class="cls-1" d="M648.4,848.25c-5.41-9.73-20.71-10.29-24.29,1.26-1.91,6.16,7.74,8.8,9.64,2.66.77-2.48,4.11-1.43,5.34,0,1.97,2.3,1.89,6.3,1.05,9-2.73,8.76-10.15,7.86-16.87,3.97-15.93-9.21-10.65-27.1-5.6-41.35.34-.97.38-1.85.21-2.62,12.58-6.92,11.08-26.39,6.71-39.15-2.71-7.93-7.39-15.39-15.4-18.74-8.09-3.38-19.45-3.35-27.83-1.03-21.22,5.87-29.53,33.08-26.67,52.51.94,6.34,10.57,3.65,9.64-2.66-1.97-13.36,3.12-30.61,15.07-38.2,5.96-3.79,14.96-3.6,21.71-2.55,7.16,1.11,11.2,6.15,13.6,12.65,3.95,10.71,7.31,31.98-10.42,29.56-5.7-.78-12.63-3.67-15.81-8.73-1.71-2.73-1.86-5.92.11-8.58.76-1.03,1.88-2.02,3.04-2.57,1.85-.88,3.6-.11,5.21-1.31-5.11,3.79-.13,12.47,5.05,8.63,7.38-5.47,4.41-15.65-4.3-17.64-8.18-1.87-16.57,3.73-19.38,11.34-6.24,16.84,14.02,28.91,28.93,28.99-4.26,12.44-7.62,26.26-.94,38.5,5.46,10.01,20.92,19.75,32.32,14.88,10.47-4.47,15.45-18.83,9.89-28.83Z"/>
      <path class="cls-1" d="M482.36,748.58c-3.96-6.15-8.9-11.6-12.85-17.76-3.99-6.23-6.29-13.08-7.22-20.41-1.77-14.01.4-28.19-.19-42.25-.61-14.55-4.32-30.67-16.46-40.01-9.29-7.16-24.2-7.39-31.6,1.96-1.88.08-3.66,1.16-4.25,3.56-7.29,29.5-7.14,60.57.47,90,3.75,14.5,9.32,28.59,16.56,41.71,6.96,12.61,16.17,25.1,29.65,31.21,9.79,4.44,31.29,8.18,34.71-6.34,3.24-13.77-1.35-30.05-8.83-41.66ZM481.83,785.23c-.32,3.4-1.47,4.51-4.96,5.04-6.57,1-13.37-.97-19.04-4.21-11.1-6.35-18.19-17.72-23.99-28.75-5.92-11.26-10.47-23.17-13.71-35.47-6.91-26.22-7.56-53.82-1.89-80.3.78-.4,1.47-1.11,1.94-2.21,5.28-12.09,19.52-5.37,24.9,2.73,6.45,9.72,7.23,21.94,7.13,33.26-.1,11.69-1.26,23.43.08,35.09,1.38,11.97,5.75,22.04,12.95,31.65,7.7,10.28,14.81,20.03,16.4,33.19.4,3.28.5,6.7.18,9.99Z"/>
      <path class="cls-1" d="M424.27,654.86c-1.08,14.15-1.85,28.31-2.33,42.49-.22,6.44,9.78,6.43,10,0,.48-14.18,1.25-28.35,2.33-42.49.49-6.42-9.51-6.39-10,0Z"/>
      <path class="cls-1" d="M446.73,656.53c.15-6.44-9.85-6.44-10,0-.35,15.32-.25,30.64.31,45.95.24,6.42,10.24,6.45,10,0-.56-15.31-.67-30.63-.31-45.95Z"/>
      <path class="cls-1" d="M463.38,747.72c-5.82-8.28-9.34-16.51-12.26-26.2-1.85-6.15-11.51-3.53-9.64,2.66,2.57,8.53,5.3,17.11,10.36,24.54,2.52,3.71,5.74,7.19,7.04,11.58.45,1.53.68,3.1.79,4.7-13.61-10.18-22.55-25.41-24.93-42.5-.89-6.35-10.52-3.65-9.64,2.66,3.12,22.34,17.09,42.28,36.78,53.19,3.48,1.93,7.26-.55,7.52-4.32.69-9.84-.23-18.09-6-26.3Z"/>
      <path class="cls-1" d="M730.7,523.2c-3.22-2.77-6.43-5.54-9.65-8.32,1.05-2.48,2.12-4.95,3.16-7.44,1.45-3.42-1.07-9.2-5.65-7.35-.77.31-1.53.63-2.3.95-1.67-39.68-53.22-51.81-84.77-41.08-2.22.76-4.45,1.74-6.62,2.92-4.27-3.33-9.17-5.83-14.23-7.2-13.26-3.59-28.68-.32-40.09,7.79-12.69-5.46-28.35-4.48-39.97,2.8-15.97,10.02-23.16,30.48-17.95,48.41,1.79,6.17,11.44,3.54,9.64-2.66-6.81-23.47,13.45-46.37,37.7-41.4.7.14,1.45.34,2.22.57-.08.1-.17.2-.26.31-5.12,6.35-8.17,14.76-5.53,22.81,2.31,7.07,8.75,13.41,16.47,13.73,7.99.32,14.56-5.6,16.81-12.98,2.52-8.27-.9-16.71-6.55-22.83-.98-1.06-2.02-2.04-3.11-2.96,11.21-6.05,25.84-6.65,36.32-.45-8.57,7.61-14,18.53-10.07,30.17,2.6,7.69,9.9,12.6,18.03,10.86,8.31-1.77,13.61-8.96,14.57-17.14.96-8.18-1.75-15.94-6.55-22.31,2.75-1.14,5.59-1.99,8.35-2.56,24.78-5.09,65.21,2.77,65.62,34.66-1.47-.67-3.01-.95-4.57-.51-3.87,1.1-4.65,5.44-5.07,9.14-.23.14-.46.28-.69.43-3.74,2.4-7.34,5.01-10.83,7.76-2.29,1.81-5.31,3.59-5.97,6.65-1.89,8.68,10.51,7.52,16.6,7.12.01.24.02.48.04.72.1,1.45.7,2.57,1.55,3.37-.49,3.45-.79,6.89-.78,10.4.01,4.6,7.25,7.28,9.32,2.52,2.56-5.88,5.1-11.77,7.63-17.66,4.54-.21,9.09-.45,13.63-.74,3.96-.25,7.05-5.5,3.54-8.54ZM579.25,494.28c-2.92,5.09-8.63,4.53-11.84-.06-3.5-4.99-1.77-10.99,1.59-15.54.79-1.07,1.66-2.08,2.59-3.04,6.74,4.44,11.94,11.21,7.67,18.64ZM624.75,499.11c-6.31,3.84-9.99-2.77-9.59-8.47.45-6.48,3.88-11.54,8.62-15.28,1.76,2.29,3.21,4.95,4.22,8.01,1.68,5.07,1.98,12.56-3.25,15.74ZM706.44,522.77c-.28,0-.56.01-.84.02.02-.6.04-1.21.07-1.81.07-1.25.18-2.5.3-3.74.5-.29,1-.6,1.51-.88.53.45,1.05.91,1.58,1.36-.72,1.68-1.43,3.36-2.14,5.04-.16,0-.31.01-.47.02Z"/>
      <path class="cls-1" d="M904.54,714.17c-2.32-7.54-6.29-15.45-12.34-20.68-6.25-5.4-14.13-6.95-22.21-6.1-15.58,1.65-30.96,9.2-41.08,21.32-11.81,14.14-9.72,30.78-2,46.44,3.65,7.39,8.3,14.67,15.28,19.31,8.03,5.33,17.79,4.94,26.97,4.04,6.35-.62,6.41-10.63,0-10-7.57.74-16.03,1.74-22.54-3.09-5.9-4.37-9.71-11.92-12.57-18.5-3.34-7.7-5.61-16.82-2.05-24.86,3.15-7.11,9.85-12.91,16.32-16.92,6.52-4.04,13.9-6.79,21.53-7.7,8.92-1.07,15.52,1.45,20.32,9.17,8.39,13.47,9.57,31.94-3.67,42.71-4.99,4.06,2.12,11.1,7.07,7.07,12.43-10.12,15.53-27.36,10.95-42.2Z"/>
      <path class="cls-1" d="M858.49,611.11v51.09c0,6.43,10,6.45,10,0v-51.09c0-6.43-10-6.45-10,0Z"/>
      <path class="cls-1" d="M854.32,784.04v68.62c0,6.43,10,6.45,10,0v-68.62c0-6.43-10-6.45-10,0Z"/>
      <path class="cls-1" d="M1013.7,723.54h-94.55c-6.43,0-6.45,10,0,10h94.55c6.43,0,6.45-10,0-10Z"/>
      <path class="cls-1" d="M807.82,727.35h-51.85c-6.43,0-6.45,10,0,10h51.85c6.43,0,6.45-10,0-10Z"/>
      <path class="cls-1" d="M832.29,679.31c-8.65-14.7-18.84-28.4-30.38-40.96-4.37-4.75-11.42,2.34-7.07,7.07,10.99,11.95,20.59,24.94,28.82,38.93,3.26,5.54,11.91.52,8.63-5.05Z"/>
      <path class="cls-1" d="M806.14,690.84c-6.07-2.16-12.49-2.96-18.9-2.33-6.35.62-6.41,10.63,0,10,5.64-.55,10.9.08,16.24,1.98,6.07,2.16,8.69-7.5,2.66-9.64Z"/>
      <path class="cls-1" d="M911.97,649.69c-6.11,6.32-11.58,13.2-16.39,20.54-3.54,5.4,5.12,10.41,8.63,5.05,4.36-6.65,9.3-12.8,14.83-18.52,4.47-4.63-2.59-11.71-7.07-7.07Z"/>
      <path class="cls-1" d="M955.74,685.54c-15.09-.42-29.67,2.62-43.47,8.67-5.88,2.58-.8,11.2,5.05,8.63,12.15-5.32,25.19-7.67,38.42-7.31,6.44.18,6.43-9.82,0-10Z"/>
      <path class="cls-1" d="M806.3,769.29h-31.26c-6.43,0-6.45,10,0,10h31.26c6.43,0,6.45-10,0-10Z"/>
      <path class="cls-1" d="M812.89,772.14c-3.42,11.14-5.71,22.48-7.09,34.04-.76,6.38,9.25,6.32,10,0,1.27-10.66,3.59-21.13,6.74-31.38,1.89-6.17-7.76-8.8-9.64-2.66Z"/>
      <path class="cls-1" d="M907.99,805.07c-6.54-10.45-11.09-21.68-13.69-33.72-1.36-6.29-11-3.63-9.64,2.66,2.77,12.82,7.74,25,14.7,36.11,3.41,5.44,12.06.43,8.63-5.05Z"/>
      <path class="cls-1" d="M959.64,770.19c-12.96-9.02-27.08-16.04-42.02-21.13-6.11-2.08-8.73,7.58-2.66,9.64,14.14,4.81,27.37,11.59,39.63,20.12,5.3,3.68,10.3-4.98,5.05-8.63Z"/>
      <path class="cls-1" d="M253.1,27.32c-.59-2.04-2.62-3.77-4.82-3.67-20.6.89-41.2,1.77-61.79,2.66-5.31.23-10.63.59-15.95.69-1.95.03-2.55.28-4.01-1.13-1.22-1.18-1.78-3.12-3.08-4.36-3.49-3.31-8.46-3.99-12.75-2.5-2.49-2.49-5.98-3.91-9.76-3.93-3.58-.02-6.75,1.28-9.62,3.16C127.34,6.88,115.61-1.64,103.18.27c-12.92,1.98-21.93,14.17-21.87,26.72-14.1-2.72-28.27-.53-40.81,6.54-3.89,2.19-2.78,7.85,1.19,9.14,18.5,5.99,38.54,4.76,57.72,4.87,20.08.12,40.16.23,60.25.35,20.08.12,40.16.23,60.25.35,8.1.05,17.64,1.19,25.04-2.94,6.4-3.57,10.24-10.77,8.14-17.98ZM225.84,38.27c-8.56-.04-17.12-.1-25.68-.15-17.45-.1-34.9-.2-52.35-.3-17.45-.1-34.9-.2-52.35-.3-11.38-.07-22.97.32-34.31-.99,5.88-1.05,11.94-1.02,17.95.18,1.9.38,3.46-.24,4.55-1.31,3.17,2.38,9.16-.31,7.97-5.35-2.03-8.55,4.03-18.43,12.89-19.92,10.13-1.7,18.74,8.13,18.18,17.72-.26,4.42,5.59,6.47,8.54,3.54,1.89-1.89,11.13-10.69,13.05-4.31,1.07,3.55,5.67,4.95,8.36,2.21,2.93-2.99,4.51.7,6.01,2.83,1.94,2.74,4.49,4.17,7.74,4.68,3.92.62,8.16.01,12.11-.16,4.65-.2,9.3-.4,13.95-.6,16.95-.73,33.89-1.46,50.84-2.19-2.35,4.83-13.42,4.43-17.46,4.41Z"/>
      <path class="cls-1" d="M910.12,534.99c-1.97-6.26-5.79-12.88-11.68-16.17-1.34-.75-2.78-1.27-4.24-1.59.23-.64.44-1.3.57-1.98.78-4.08-.38-8.43-2.6-11.88-4.19-6.5-12.05-10.28-19.74-9.39-7.42.86-14.02,5.82-16.85,12.74-2.53,6.18-1.85,12.62.05,18.77-17.55-.99-34.96,6.23-46.87,19.41-14.02,15.53-19.42,37.22-16.96,57.73.76,6.31,10.76,6.39,10,0-.45-3.77-.62-7.59-.51-11.41,21.2,7.61,45.12-1.88,53.88-23.47,1.85-4.55,3.59-10.25.81-14.78-3.17-5.17-9.85-5.14-15.24-5.14-8.57,0-17.02,1.52-25.05,4.31,10.77-12.03,27.38-19.05,43.53-16.31.21.04.42.06.62.07,1.71,13.23,4.4,29.87,16.92,37.3,5.02,2.98,12.44,3.82,16.55-1.13,3.49-4.19,2.69-10.08,1.33-15.58,4.2.24,8.37-.45,11.72-3.29,5.35-4.54,5.79-11.87,3.79-18.21ZM833.72,558.19c1.71-.17,13.02-1.56,13.81.12.88,1.86-2.29,7.42-3.17,9.02-7.33,13.4-22.96,19.62-37.25,15.45,2.23-1.33,5.54-2.32,6.71-2.67,3.29-1,6.57-1.25,9.99-1.13,6.44.22,6.43-9.78,0-10-5.42-.19-13.43.91-19.65,4.01.61-2.02,1.31-4.02,2.13-5.96.57-.09,1.15-.28,1.74-.6,7.93-4.36,16.65-7.31,25.68-8.23ZM899.14,546.06c-2.74,1.53-7.23.11-9.96-.56-3.82-.94-6.98,2.4-6.15,6.15.38,1.74,4.06,12.7,2.6,13.93-2.43,2.05-7.85-4.74-8.75-6.06-4.87-7.14-6.13-16.33-7.2-24.71-.2-1.54-.95-2.71-1.96-3.51.14-.92.03-1.91-.42-2.92-2.23-5.01-4.52-11.12-2.92-16.64,1.36-4.71,5.91-8.2,10.89-7.92,4.19.24,9.83,3.84,9.76,8.57-.04,2.68-2.46,4.2-3.81,6.27-1.28,1.95-1.78,3.84-2.06,6.14-.54,4.37,5.79,6.51,8.54,3.54,5.42-5.87,11.47,5.17,12.8,9.31.88,2.75,1.73,6.7-1.34,8.41Z"/>
      <path class="cls-1" d="M794.22,437.21c-8.82-9.02-25.92-.15-27.99,10.94-1.39,7.45-.36,15.75-.34,23.3.02,8.51.04,17.01.07,25.52,0,1.24.38,2.23.97,2.99.5,2.59,2.82,4.97,6.15,4.28,5.71-1.19,8.63-5.96,10.63-11.03,2.51-6.37,5.42-12.21,8.7-18.23,5.85-10.74,11.94-27.41,1.8-37.77ZM782.14,472.88c-2.26,4.05-4.47,8.12-6.16,12.45-.02.05-.04.1-.06.16-.02-7.3-.04-14.59-.06-21.89-.01-4.22-1.3-11,.56-14.88.88-1.84,2.93-2.84,4.68-3.79,2.81-1.52,5.01-2.42,6.97.73,5.14,8.28-1.94,20.05-5.94,27.22Z"/>
      <path class="cls-1" d="M811.86,477.99c-8.79,2.62-16.77,8.6-22.67,15.5-1.81,2.12-1.5,4.66-.23,6.45-5.4,0-7.36,8.5-1.47,9.77,8.21,1.77,16.49.89,24.05-2.82,6.72-3.3,14.42-9.84,14.79-17.91.37-8.14-6.95-13.22-14.47-10.98ZM814.79,491.88c-4.2,5.67-11.51,8.55-18.57,8.72.01-.02.03-.03.04-.05,3.29-3.85,6.96-7.16,11.35-9.72,1.73-1.01,4.93-3.23,6.91-3.21,2.82.04,1.66,2.37.27,4.25Z"/>
      <path class="cls-1" d="M128.03,411.96c2.4-.54,4.37,4.45,5.12,6.07,2.72,5.83,11.75,1.53,9.02-4.32-2.58-5.54-6.85-11.71-13.61-11.85-7.52-.16-9.07,6.14-12.97,10.86-5.19,6.28-13.67-7.23-17.12-10.12-5.1-4.27-12.74-6.4-18.69-2.52-2.87,1.87-4.04,4.67-5.64,7.54-1.15,2.06-.77,1.56-2.73,1.16-1.99-.4-4.01-1.98-5.75-2.98-6.69-3.86-13.93-7.75-21.91-5.64-1.86.49-3.54,1.32-5.1,2.43-.69.49-2.39,2.36-3.19,2.55-1.42.34-3.97-1.56-5.28-2.02-1.85-.65-3.82-1.12-5.76-1.43-7.54-1.21-15.4.42-21.91,4.37-5.45,3.3-1.2,12.37,4.32,9.02,6.56-3.98,14.15-4.99,21.35-2.01,2.63,1.09,4.93,2.46,7.88,2.22,3.46-.29,5.29-2.49,8.01-4.27,11.75-7.7,25.46,17.63,36.63,4.8,1.65-1.89,2.22-5.28,4.05-6.9,3.05-2.68,7.22,1.11,9.29,3.25,4.55,4.71,8.26,9.94,14.95,11.68,5.84,1.52,11.31-.56,14.81-5.42.81-1.13,2.74-6.14,4.22-6.47Z"/>
      <path class="cls-1" d="M1251.08,176.54c-1.66-5.94-6.93-10.19-13.2-9.28-3.62.53-6.27,2.57-8.67,5.01-.89-1.61-2.13-3.01-3.86-4-5.57-3.18-12.19.11-14.83,5.46-2.89,5.86-.85,13.14.63,19.13,1.61,6.54,4.23,12.74,9.27,17.38.27.25.54.45.82.63-.43,1-.85,2.02-1.25,3.05-2.29,6.02,7.37,8.62,9.64,2.66,3.43-9,9.42-14.76,15.65-21.76,4.54-5.11,7.73-11.3,5.79-18.27ZM1239.26,186.53c-3.19,4.2-7.48,7.48-10.72,11.7-.87,1.14-1.68,2.3-2.45,3.48-3.53-4.07-4.86-9.26-5.99-14.54-.48-2.26-2.11-6.88-.68-9.03,1.99-2.98,1.89,3.28,1.89,4.48,0,4.51,5.39,6.37,8.54,3.54,2.36-2.12,5.93-8.46,9.15-8.95,4.98-.76,1.48,7.72.26,9.32Z"/>
      <path class="cls-1" d="M1233.48,123.11c-3.1,2.16-5.61,4.7-7.56,7.66-3.73-2.57-8.19-3.42-12.45.12-3.29,2.74-3.74,6.86-2.25,10.12-1.02,2.54-.25,5.7,3.18,6.37,1.44.28,2.18,2.14,3.03,3.22,1.2,1.52,2.53,2.76,4.24,3.65,3.16,1.64,7.03,1.17,9.57-1.41,2.53-2.57,3.82-6.69,5.16-9.95,1.88-4.59,3.32-9.31,4.43-14.15.89-3.92-3.55-8.29-7.34-5.65Z"/>
      <path class="cls-1" d="M1238.6,100.08c-.68-5.38-5.64-8.57-10.45-8.31-.53-1.06-1.23-2.05-2.19-2.89-2.81-2.44-7-3.05-10.19-1.04-6.78,4.26-4.18,17.07-2.21,23.23.17.54.41,1.02.69,1.42-1.59,3.97,4.24,8.67,8.5,5.21,3.32-2.7,7.77-3.53,11.03-6.4,3.15-2.76,5.36-6.96,4.82-11.23ZM1225.1,105.13c-.83.45-1.66.87-2.48,1.29-.35-1.31-.6-2.64-.76-3.98,1.69,1.55,4.13,2.18,6,.47-.69.92-1.5,1.55-2.76,2.23Z"/>
      <path class="cls-1" d="M1040.39,608.93c.05-6.02-1.66-12.04-2.93-17.89-2-9.15-1.47-18.37-1.28-27.66.15-6.91.77-14.82-7.26-17.25-9.16-2.78-19.53-3.47-29-4.69-10.71-1.37-21.47-2.32-32.26-2.91-3.37-.18-5.53,3.33-4.82,6.33,3.4,14.5,4.63,29.27,5.03,44.13.21,7.66.25,15.33.21,22.99-.01,2.44.03,5.19-.35,7.82-7.29.01-14.58.03-21.86.04-6.13.01-13.49-1.08-19.23,1.62-4.73,2.23-7.32,7.3-4.88,12.27,2.44,4.97,8.29,8.12,13.52,9.14,5.74,1.13,11.61.48,17.3-.64,6.25-1.23,13.2-2.71,18.12-7.03,10.22-8.97,7.46-26.51,7.31-38.56-.19-16-1.08-32.02-4.1-47.74,15.22,1.04,30.37,2.84,45.39,5.52,1.65.29,4.22.25,5.62,1.04.46.26.77.4.99.48.04.18.13.43.29.78.69,1.52,0,4.94-.03,6.64-.05,2.21-.13,4.43-.18,6.64-.19,8,.1,15.84,1.81,23.68.8,3.64,2.05,7.74,2.51,11.78-7.49,1.93-14.88,4.18-22.14,6.87-5.57,2.06-15.42,4.82-13.23,12.9,1.7,6.28,9.7,7.53,15.15,7.89,6.15.4,12.55-.72,18.02-3.61,5.55-2.93,9.76-7.99,11.41-14.06.42-1.56.67-3.12.78-4.68.13-.6.15-1.23.07-1.85ZM946.3,633.21c-5.33.66-10.53.45-14.81-3.03-.05-.04-.1-.07-.14-.1.18.03.45.05.82.01,1.41-.15,2.76-.22,4.18-.23,3.81-.04,7.62-.02,11.43-.02l12.98-.03c-4.34,2.06-10.1,2.86-14.46,3.4ZM1014.65,623.14c-1.65.13-3.44-.22-5.18-.49.78-.36,1.55-.73,2.25-.99,5.47-2,11.02-3.74,16.62-5.3-2.9,4.48-8.61,6.39-13.69,6.79Z"/>
      <g>
        <path class="cls-1" d="M1015.37,458.12c-11.37-.53-19.26,11.9-12.65,21.66,3.59,5.3,12.26.3,8.63-5.05-1.13-1.66-1.59-4.07.09-5.65,2.41-2.26,7.11-.51,9.46.97,4.73,2.95,7.56,12.53,3.53,17.14-7.15,8.18-27.99-1.33-31.4-9.64-.29-.72-.7-1.31-1.17-1.78,4.31-10.91-.95-23.48-10.77-29.69-11.29-7.14-26.78-5.1-35.76,4.78-11.41,12.55-8.32,32.48-5.62,47.76,1.12,6.33,10.76,3.65,9.64-2.66-1.04-5.91-1.68-11.85-1.83-17.85-.13-5.11-.33-10.62,1.77-15.38,3.85-8.74,13.9-13.06,22.91-9.88,8.23,2.9,14.61,13.02,9.36,21.21-2.08,3.24-5.61,5.47-9.54,4.91-1.83-.26-3.67-1.09-5.03-2.36-.78-.73-1.12-1.74-1.78-2.49-.48-.55-.5-.81-.39-.92-.31-.02-.82-.09-1.67-.27,6.28,1.28,8.97-8.35,2.66-9.64-5.58-1.14-9.77,2.52-10.68,7.97-.93,5.53,2.43,10.86,6.77,14.02,7.53,5.49,17.17,4.49,23.8-.98,11.78,16.6,49.38,25.06,50.22-2.2.38-12.47-7.35-23.37-20.54-23.99Z"/>
        <path class="cls-1" d="M964.82,473.2c.76.06.19-.2,0,0h0Z"/>
      </g>
      <path class="cls-1" d="M1122.63,708.14c-9.5-5.75-18.99-11.5-28.49-17.25-1.08-.66-4.54-2.22-4.41-3.39.17-1.55,4.43-4.62,5.64-5.88,4.06-4.23,8.12-8.46,12.18-12.69,3.64-3.79-.09-9.24-4.86-8.36-4.89.9-9.21,3.12-13.57,5.42-4.07,2.15-9.05,4.96-13.84,3.78-4.9-1.21-5.93-7.48-7.22-11.61-1.82-5.83-3.64-11.66-5.45-17.5-1.7-5.46-9.52-4.32-9.82,1.33-.64,12.06-2.86,23.83-6.51,35.3-.64-.32-1.39-.51-2.27-.52-15.88-.05-31.67,1.88-47.08,5.71-3.37.84-5.2,5.98-2.21,8.36,6.69,5.3,14.3,7.12,22.62,8.21.36.05.72.09,1.09.13-2.3,2.08-2.54,6.15.67,8.04,7.1,4.19,19.46,4.74,24.09,12.13,2.53,4.05,2.03,9.36,1.76,13.9-.32,5.38-.57,10.53.27,15.88,1.01,6.39,10.51,3.6,9.64-2.66-.84-6.08-.13-12.32,1.94-18.09.88-2.44,2.09-5.77,3.91-7.71,2.3-2.44,5.65-.54,8.3.66,8.19,3.7,14.89,9.72,19.72,17.15.81,1.61,1.71,3.18,2.72,4.7,3.56,5.36,11.56.71,8.63-5.05-.83-1.64-1.75-3.22-2.73-4.77-.97-2.01-1.75-4.1-2.29-6.33-.32-1.33-1.97-9.52-.93-10.54.74-.73,4.04-.22,5.2-.23,2.53-.03,5.05,0,7.58.1,4.42.17,8.82.55,13.21,1.08,5.19.62,6.43-6.95,2.52-9.32ZM1085.88,711.01c-1.36,2.21-1.8,5.01-1.81,7.84-5.61-4.34-12.79-8.68-19.82-9.38-5.43-.54-9.16,2.07-11.91,5.83-.39-.74-.84-1.48-1.35-2.2-1.83-2.58-4.08-4.43-6.57-5.9,3.96-.25,6.79-5.59,3.39-8.52-6.42-5.53-14.06-7.49-22.3-8.6-3.12-.42-6.49-.69-9.81-1.19,9.35-1.44,18.79-2.15,28.32-2.12,1.13,0,2.06-.31,2.8-.82,2.51,1.65,6.68,1.22,7.97-2.52,2.07-6,3.72-12.11,5-18.28,1.91,5.6,4.61,10.87,10.3,13.37,5.01,2.2,9.62,1.78,14.08.33-4,4.23-6.82,8.98-2.95,14.45,3.6,5.09,10.84,8,16.03,11.14,1.01.61,2.02,1.22,3.03,1.83-.31,0-.63-.01-.94,0-4.97.05-10.52,0-13.45,4.73Z"/>
      <path class="cls-1" d="M1590.34,81.92c-4.04-9.81-10.04-19.49-18.76-25.78-8.6-6.21-19.88-8.17-30.26-7-13,1.47-24.85,7.54-35.41,15-8.19,5.78-18.84,13.55-19.62,24.33-1.09.19-2.03.96-2.28,2.45-1.97,11.65-1.58,23.84,3.87,34.56,4.57,8.98,12.65,16.22,22.5,18.75,5.69,1.46,11.63,1.51,17.47,1.5,5.91,0,11.82-.06,17.71-.52,11.17-.87,22.54-3.15,32.15-9.21,8.68-5.48,14.89-13.87,16.66-24.07,1.75-10.13-.15-20.59-4.03-30.02ZM1578.44,126.94c-14.61,12.78-37.32,12.28-55.52,11.85-11.07-.26-20.72-3.67-27-13.25-5.88-8.97-6.97-19.95-5.59-30.38,1.69-.03,3.23-1.12,2.97-3.29-1.17-9.73,8.66-16.46,15.62-21.42,8.18-5.82,17.05-10.93,26.86-13.36,8.89-2.2,18.82-1.99,27.21,1.98,8.46,4.01,14.13,11.75,18.38,19.84,7.81,14.85,11.13,35.73-2.93,48.03Z"/>
      <path class="cls-1" d="M1512.33,67.84v21.59c0,4.45,6.91,4.46,6.91,0v-21.59c0-4.45-6.91-4.46-6.91,0Z"/>
      <path class="cls-1" d="M1541.7,63.59v27.96c0,4.45,6.91,4.46,6.91,0v-27.96c0-4.45-6.91-4.46-6.91,0Z"/>
      <path class="cls-1" d="M1575.57,102.79c-.53-1.94-2.41-2.74-4.25-2.41-.35.06-1.09.17-1.82.13-.02,0-.09,0-.17,0,.02-.44.06-1.34.08-1.63.1-1.16.04-2.2-.17-3.35-.34-1.84-2.57-2.88-4.25-2.41-1.93.53-2.75,2.41-2.41,4.25.17.93-.24,2.37-.17,3.49.04.74.18,1.48.43,2.17-.42.29-.8.71-1.08,1.3-4.24,8.79-14.44,10.14-23.21,10.13-8.75-.01-19.63-.43-25.25-8.27-.47-.66-1.06-1.08-1.69-1.31.83-2.14.96-4.61.12-7.16-1.39-4.21-8.07-2.4-6.67,1.84.73,2.23-.15,5.07-2.83,5.4-1.85.23-3.46,1.42-3.46,3.46,0,1.69,1.59,3.69,3.46,3.46,1.96-.24,3.76-.93,5.28-1.95,7.29,9.9,19.51,11.43,31.04,11.45,11.12.02,23.86-2.53,29.18-13.55.1-.2.17-.4.23-.59,1.69.31,3.5.13,5.22-.18,1.84-.33,2.88-2.57,2.41-4.25Z"/>
      <path class="cls-1" d="M1186.37,799.11c-7.38-4.54-16.57-2.81-24.8.11-1.56-4.58-5.82-8.53-11-9.28-7.25-1.05-14.38,1.92-20.22,6.44-3.75-7.99-13.23-13.08-22.68-11.18-13.91,2.8-27.31,19.1-20.56,33.31,2.77,5.83,11.76,1.46,9-4.35-3.68-7.76,5.2-16.68,12.1-18.8,6.24-1.91,15.8,2.38,13.64,10.21-1.51,5.47,5.45,8.93,8.89,4.37,3.01-3.98,6.95-7.18,11.63-9,1.88-.73,4.11-1.4,6.16-1.19,1.69.17,5.27,2.02,2.91,3.85-4.62,3.58.4,10.5,5.44,8.29,5.87-2.57,12.1-5.43,18.65-5.37,10,.1,8.02,8.25,2.74,13.57-4.51,4.55,1.99,12.15,6.52,7.58,7.45-7.51,13.03-21.52,1.56-28.57Z"/>
      <path class="cls-1" d="M880.99,22.43c-10.76,1.04-21.89,2.59-30.67,9.45-1.4,1.1-2.8,2.45-4.07,3.96-1.31-.2-2.61-.3-3.87-.33-5.34-.12-11.32.71-15.69,3.99-4.12,3.09-6.33,8.5-4.56,13.48,1.52,4.3,8.42,2.45,6.88-1.9-2.43-6.85,7.12-8.45,13.08-8.42-1.88,4.76-1.77,9.9,2.5,13.9,6.68,6.26,20.44,1.92,18.11-8.34-1.1-4.83-4.56-8.1-8.79-10.11.99-.84,2.04-1.59,3.12-2.26,7.17-4.43,15.73-5.48,23.95-6.28,4.53-.44,4.58-7.58,0-7.14ZM852.58,52.19c-4.94-.06-5.14-4.8-3.33-8.39,1.51.54,2.93,1.3,4.12,2.36,1.07.95,2.36,2.44,2.45,3.95.12,1.97-1.62,2.1-3.24,2.08Z"/>
      <path class="cls-1" d="M901.09,18.11c-7.04-4.43-14.59-7.89-22.52-10.39-4.39-1.39-6.27,5.5-1.9,6.88,5.96,1.88,11.62,4.37,17.02,7.42-5.3,5.84-10.4,11.86-15.26,18.08-2.8,3.58,2.22,8.66,5.05,5.05,5.8-7.41,11.91-14.56,18.33-21.44,1.6-1.71,1.27-4.35-.72-5.6Z"/>
      <path class="cls-1" d="M1208.31,721.57c-.41-10.98-13.9-10.34-21.88-9.67-2.23.19-4.45.49-6.63.91,1.85-7.4-2.25-15.02-9.65-17.18-7.32-2.13-14.55,1.6-17.6,8.44-3.74,8.37.09,16.9-1.31,25.45-3.61,1.12-5.52,6.7-1.27,9.14,9.28,5.33,18.45,11.36,28.2,15.8,7.01,3.19,18.36,6.98,23.64-1.09,4.76-7.29-1.44-12.23-7.48-15.19,7.51-2.42,14.31-7.92,13.99-16.6ZM1166.22,705.04c2.4.11,4.02,1.79,4.04,4.17.03,2.94-2.37,4.05-4.69,5.17-1.76.86-3.36,1.82-4.82,2.92-.03-.51-.07-1.02-.09-1.54-.19-3.87.15-10.96,5.56-10.72ZM1191.2,748.15c-6.14-.32-12.16-4.35-17.34-7.31-.55-.31-1.1-.63-1.65-.95,1.62.64,3.24,1.26,4.85,1.91,2.99,1.19,5.97,2.39,8.96,3.6,1.74.7,3.81,1.33,5.45,2.23,1.46.8,1.32.6-.27.52ZM1192.52,728.38c-3.16,1.22-6.64,1.41-10,1.4-4.95,0-9.83-.79-14.52-2.24-.14-.06-.28-.11-.43-.17,3.59-1.82,7.34-3.24,11.33-4.21,3.01-.74,6.06-1.22,9.16-1.38,1.59-.09,9.15-.95,10.07.35,1.68,2.4-4.17,5.68-5.61,6.24Z"/>
      <path class="cls-1" d="M1198.58,619.75c-3.41-4.12-5.95-8.75-7.68-13.8-2.07-6.05-11.74-3.45-9.64,2.66,1.28,3.72,2.88,7.19,4.82,10.47-10.03.1-21.58-2.71-22.12-14.12-.3-6.41-10.3-6.44-10,0,.41,8.67,5.51,16.17,13.12,20.31,9.03,4.92,19.48,4.34,29.3,2.83,4.09-.63,4.31-5.81,2.21-8.36Z"/>
      <path class="cls-1" d="M1222.86,518.17c-.63-6.76-1.4-13.5-2.2-20.24-.65-5.46-.56-11.88-4.95-15.85-4.31-3.9-11.65-3.79-17.11-4.63-7.54-1.16-15.1-2.23-22.67-3.23-29.11-3.84-58.48-6.61-87.83-7.65-10.5-.37-21.18,1.85-24.84,13.05-1.71,5.24-1.42,10.92-1.12,16.33.4,7.16.89,14.32,1.44,21.47,2.55,32.95,6.68,65.77,12.26,98.34.46,2.66,3.75,4.15,6.15,3.49,19.07-5.26,38.54-8.13,58.32-8.55,6.43-.14,6.45-10.14,0-10-18.78.4-37.44,2.91-55.64,7.51-3.99-23.98-7.18-48.08-9.48-72.28-1.21-12.66-2.18-25.34-2.93-38.03-.29-4.96-1.2-10.85.65-15.62,2.04-5.27,7.3-5.82,12.3-5.79,25.02.17,50.34,2.92,75.17,5.8,13.18,1.53,26.34,3.33,39.44,5.41,2.42.38,6.09.31,8.23,1.47,2.35,1.27,2.09,4.42,2.39,6.94.77,6.43,1.52,12.86,2.15,19.3,2.58,26,3.36,52.46-3.63,77.81l-15.95.03c-6.43.01-6.45,10.01,0,10l19.72-.04c2.25,0,4.17-1.56,4.82-3.67,8.1-26.37,7.85-54.15,5.3-81.36Z"/>
      <path class="cls-1" d="M1335.69,691.51c-2-16.45-8.86-33.44-22.7-43.4-13.2-9.5-30.65-10.42-45.26-3.85-.21.09-.4.19-.57.3-17.09-12.48-40.75-3.26-53.17,14.03-1.53.71-2.73,2.14-2.85,4.27-1.43,24.1.7,48.77,8.44,71.75,3.88,11.51,9.13,22.65,15.97,32.7,6.4,9.41,13.51,19.17,26.29,16.77,11.05-2.08,20.02-11.41,24.76-21.18.13-.27.24-.54.37-.8,36.9,7.82,52.26-41.77,48.74-70.59ZM1261.67,773.79c-5.62,1.82-9.05-.56-12.52-4.8-3.28-4.01-6.19-8.35-8.84-12.8-5.11-8.59-9.1-17.76-12.09-27.29-6.43-20.54-8.26-42.12-7.21-63.54.48-.34.94-.77,1.33-1.33,10.46-14.88,32.31-22.68,44.63-5.59,12.55,17.39,15.17,41.91,15.83,62.68.57,17.84-.17,45.89-21.13,52.68ZM1290.34,752.54c2.19-8.42,2.66-17.27,2.57-25.98-.25-24.58-2.94-54.06-18.25-74.43,11.21-4.23,24.6-2.34,33.99,5.2,10.58,8.49,15.81,22.7,17.23,35.84,2.31,21.29-7.27,63.85-35.54,59.38Z"/>
      <path class="cls-1" d="M1279.9,734.63c-1.92-27.4-9.02-53.93-21.03-78.63-2.81-5.79-11.44-.72-8.63,5.05,11.2,23.03,17.88,48.04,19.67,73.58.45,6.38,10.45,6.43,10,0Z"/>
      <path class="cls-1" d="M1308,662.93c.02-6.44-9.98-6.44-10,0-.06,20.48,13.03,38.81,11.06,59.34-.61,6.4,9.39,6.36,10,0,1.99-20.75-11.12-38.87-11.06-59.34Z"/>
      <path class="cls-1" d="M1252.35,620.19c-16.94-8.64-37.69-2.42-45.97,15.02-2.75,5.78,5.87,10.86,8.63,5.05,5.85-12.33,19.86-17.78,32.29-11.44,5.72,2.92,10.79-5.71,5.05-8.63Z"/>
      <path class="cls-1" d="M1297.07,621c-5.06-5.87-11.35-11.88-19.59-12.14-7.08-.22-13.21,3.57-15.67,10.21-2.24,6.04,7.42,8.65,9.64,2.66,1.2-3.24,5.84-3.28,8.49-2.25,4.16,1.61,7.22,5.3,10.05,8.59,4.21,4.88,11.26-2.22,7.07-7.07Z"/>
      <path class="cls-1" d="M1360.58,796.87c-8.25-2.92-21.58.64-27.11,7.42-2.18,2.67-1.13,5.97.94,7.66-2.82.3-5.36,2.63-4.19,6.07,3.17,9.32,9.56,18.38,19.94,20.04,10.45,1.66,19.79-4.75,21.16-15.38,1.16-8.95-1.08-22.38-10.73-25.8ZM1361.53,819.71c-.18,6.14-4.61,9.9-10.76,8.29-5.8-1.52-9.12-7.35-10.92-12.64-.36-1.06-.96-1.85-1.68-2.41.83-.2,1.64-.7,2.37-1.59,3-3.68,9.33-5.49,14.01-5.43,6.47.08,7.14,8.67,6.99,13.78Z"/>
      <path class="cls-1" d="M1583.66,250.98c-.09-11.2-10.81-9.84-18.79-6.2-2.25-6.15-6.59-11.33-14.28-9.51-6.75,1.59-8.07,8.2-7.94,14.88-7.58-1.98-15.85-1.39-18.67,7.65-2.77,8.87,4.31,12.14,11.54,13.92-1.39,3.6-1.24,7.75,1.09,11.45,2.46,3.9,6.76,5.64,11.08,5.52,1.85.13,3.79-.14,5.57-.75,3.01-1.03,5.58-2.79,7.67-5.01,1.19,1.28,2.65,2.46,4.09,3.28,3.82,2.18,8.75,2.11,11.74-1.39,4.45-5.21,1.23-11.83-3.22-16.97,5.93-3.43,10.19-9.6,10.13-16.86ZM1554.09,272.79c-.11-.25-.25-.48-.4-.7.87-.19,1.62-.56,2.25-1.05.18.06.37.11.56.16,0,.01,0,.02-.01.03-1,.34-1.77.9-2.41,1.57Z"/>
      <path class="cls-1" d="M1408.52,476.89c6.43,0,6.45-10,0-10h-21.16c2.6-8.56,4.41-17.26,3.53-26.09-.64-6.42-2.21-14.63-9.92-15.49-7.51-.84-16.5,2.86-23.02,6.24-3.94,2.04-7.69,6.11-12.36,4.75-4.9-1.43-9.75-4.26-14.41-6.34-2.37-1.06-4.74-2.12-7.12-3.18-1.93-.86-5.57-1.84-6.67-3.71-1.05-1.79-.71-4.86-.85-6.84-.21-2.9-.41-5.8-.62-8.7-.18-2.48-2.16-5.29-5-5-13.71,1.42-22.95,11.03-31.19,21.26-1.99,2.47-3.98,4.96-5.92,7.48-6.42-3.8-13.79-6.02-21.53-6.33-6.44-.26-6.42,9.74,0,10,5.59.23,10.9,1.79,15.61,4.42-3.38,4.93-6.41,10.06-8.83,15.53-3.12-.94-6.28-1.78-9.47-2.5-6.27-1.42-8.94,8.22-2.66,9.64,2.94.67,5.85,1.43,8.73,2.28-1.23,4.33-2.07,8.71-2.62,13.11h-13.72c-6.43,0-6.45,10,0,10h12.93c-.83,21.14,3.09,42.77.48,63.77-.79,6.37,9.22,6.31,10,0,2.62-21.09-1.61-42.63-.55-63.77h7.09c6.43,0,6.45-10,0-10h-6.14c.33-2.28.74-4.56,1.25-6.83.24-1.05.51-2.08.8-3.1,1.73.65,3.44,1.32,5.15,2.04,5.93,2.48,8.52-7.19,2.66-9.64-1.44-.6-2.89-1.18-4.35-1.73,2.02-4.44,4.46-8.66,7.18-12.73,1.97,2.01,3.72,4.27,5.2,6.75,3.28,5.53,11.93.5,8.63-5.05-2.2-3.71-4.89-7.01-7.93-9.87.57-.74,1.15-1.48,1.73-2.22,5.97-7.56,13.01-17.85,22.62-21.37.08,6.18.4,13.18,4.44,17.08,2.76,2.66,6.84,3.93,10.27,5.46,4.45,1.99,8.9,3.97,13.34,5.96,7.47,3.34,14.06,6.68,21.85,2.25,3.49-1.98,6.68-4.29,10.42-5.84,2.07-.86,4.24-1.55,6.41-2.12,1.38-.36,5.46-1.85,6.73-1.24,1.44.69,1.57,8.07,1.56,9.92-.03,4.59-.86,9.07-1.99,13.5-.71,2.78-1.54,5.52-2.42,8.25h-8.66c-6.43,0-6.45,10,0,10h5.32c-.57,1.69-1.12,3.38-1.65,5.08-1.29-.29-2.57-.58-3.87-.83-6.29-1.22-8.98,8.42-2.66,9.64,1.25.24,2.49.52,3.73.8-.89,3.29-1.71,6.6-2.48,9.93-2.23-1.81-4.58-3.49-7.08-5-5.52-3.34-10.55,5.3-5.05,8.63,3.56,2.16,6.83,4.69,9.77,7.58-1.54,8.11-2.74,16.29-3.59,24.51-2.14,20.76-1.9,41.68.58,62.4.76,6.31,10.76,6.39,10,0-3.1-25.85-2.6-51.98,1.53-77.6,4.02,1.69,9.45-2.49,6.41-6.89-1.3-1.88-2.67-3.68-4.13-5.39,1.09-5.22,2.32-10.41,3.72-15.57,8.59,2.66,16.86,6.23,24.75,10.76,5.59,3.21,10.63-5.43,5.05-8.63-8.55-4.91-17.57-8.83-26.94-11.72.84-2.55,1.73-5.11,2.62-7.68h24.45Z"/>
      <path class="cls-1" d="M1302.48,447.47c-6.43,0-6.45,10,0,10s6.45-10,0-10Z"/>
      <path class="cls-1" d="M1343.76,462.04c-6.43,0-6.45,10,0,10s6.45-10,0-10Z"/>
      <path class="cls-1" d="M1324.14,474.48c-.2-.42-.42-.84-.58-1.12-.95-1.71-2.47-3.08-4.35-3.68-1.55-.49-3.24-.3-4.79.04-.26.06-1.04.41-1.65.59.46-.55.38-2.19.48-2.64,1.33-6.28-8.31-8.96-9.64-2.66-1.02,4.84-1.21,9.99,2.95,13.43,1.66,1.37,3.72,2.05,5.87,1.94.59-.03,2.09-.17,2.91-.48.93,3.48,5.47,6.44,8.75,6.47,4.46.04,8.11-3.53,8.08-7.95-.03-4.59-5.12-5.91-8.03-3.95Z"/>
      <path class="cls-1" d="M1443.42,651.8c-6.28-9.62-16.06-10.72-25.11-7.28-.83-8.22-5.54-15.9-13.68-19.06-11.24-4.37-23.74,1.27-27.59,12.73-1.99,5.92-1.66,12.38-1.13,18.5.71,8.15,1.17,16.25.89,24.44-.24,6.87-.65,26.34-8.48,31.75-2.4.34-4.77.69-7.09,1.08-.45-.11-.9-.25-1.37-.42-6.06-2.19-8.68,7.47-2.66,9.64,4.58,1.66,9.09,1.21,13.07-.59,26.82-4.03,59.26-7.09,73.16-33.56,5.97-11.36,7.24-26.1-.02-37.22ZM1427.23,693.76c-12.24,11.43-28.92,14.92-45.45,17.29.22-.45.43-.9.63-1.36,5.09-12.11,4.84-27.43,4.4-40.33-.21-6.2-1.11-12.36-1.27-18.56-.14-5.38.23-12.14,5.33-15.3,4.02-2.48,9.78-1.96,13.32,1.15,4.4,3.86,5.15,10.07,3.5,15.39-1.63,5.26,4.76,7.66,8.36,4.86,4.01-3.11,10.33-6.22,15.28-3.47,4.34,2.41,6.43,8.54,6.97,13.17,1.2,10.26-3.7,20.28-11.06,27.16Z"/>
      <path class="cls-1" d="M1030.97,777.96c-5.88-9.89-19.83-11.04-28.17-3.93-4.91,4.18,2.2,11.23,7.07,7.07,3.86-3.29,11.05-1.85,13.01,2.97,2.51,6.17-3.2,12.48-8.18,15.13-5.68,3.02-.64,11.66,5.05,8.63,10.22-5.44,17.77-18.86,11.22-29.88Z"/>
      <path class="cls-1" d="M1422.97,587.49c-2.13-10.76-11.12-25.28-23.66-23.99-6.34.65-6.41,10.66,0,10,5.93-.61,8.86,4.83,11.22,9.42,1.36,2.64,2.88,5.49,2.79,8.53-.04,1.46-1.24,5.11-3.47,3.82-5.59-3.21-10.63,5.42-5.05,8.63,4.46,2.57,9.58,1.91,13.53-1.37,4.53-3.75,5.76-9.43,4.64-15.05Z"/>
      <path class="cls-1" d="M1581.1,789.62h-6.08c.76-4.18,1.23-8.42,1.35-12.69.2-7.12,1.46-22.81-8.86-22.77-8.07.04-16.63,2.27-24.45,5.15v-11.58c0-6.43-10-6.45-10,0v15.73c-8.36,3.94-16.13,8.98-23.14,15.05-.09-.6-.27-1.21-.58-1.79-1.73-3.23-4.23-5.81-7.19-7.92-2.14-1.53-5.66-.45-6.84,1.79-1.36,2.58-.49,5.21,1.79,6.84.06.04.09.06.12.09.18.16.37.31.55.48.49.44.95.91,1.38,1.4.02.02.08.09.14.16.11.15.36.47.4.54.37.54.7,1.11,1.01,1.68.66,1.23,1.94,2.05,3.31,2.34-9.85,10.13-17.26,22.3-22.06,35.49h-13.83c-.32,0-.62.03-.91.08,3.56-5.46,5.3-12.07,6.17-18.45.64-4.69.82-9.4.75-14.13-.05-3.76.56-8.77-1.08-12.25-3.01-6.4-15.71-4.42-21.34-3.98-8.2.64-16.34,2.29-24.1,5.07-6.44,2.31-15.83,6.12-23.02,11.55-.09-4.83-1.61-9.64-4.74-13.78.99-1.06,1.44-2.59.81-4.44-3.16-9.26,4.36-16.37,11.77-20.56,9.2-5.21,19.21-7.61,29.6-5.08,9.01,2.18,17.37,4.81,26.74,3.4,8.39-1.26,16.35-5.31,21.78-11.93,4.8-5.86,8.07-13.83,6.91-21.5-1.32-8.79-9.1-11.49-16.77-13.35-8.12-1.96-19.57-4.42-27.57-1.06-7.46,3.13-9.77,12.08-9.1,19.51.73,8.15,6.39,16.22,15.28,16.28,7.91.05,14.55-8.17,11.46-15.83-2.38-5.89-12.05-3.32-9.64,2.66,1.77,4.38-4.02,3.14-5.74.72-1.96-2.77-1.85-7.39-.92-10.48,1.45-4.83,5.82-4.26,10.04-4.08,5.2.22,10.33,1.04,15.35,2.39,3.62.98,7.62,1.53,7.86,5.95.19,3.57-1.35,7.29-3.24,10.25-4.59,7.18-12.91,10.82-21.23,10.98-9.01.18-17.28-4.06-26.18-4.9-8.06-.76-16.09,1.16-23.45,4.36-11.85,5.16-24.63,15.47-23.78,29.05-8.35-3.25-18.01-1.23-24.33,4.9-1.96-4.57-4.57-8.79-8.53-12.02-6.46-5.27-15.32-6.71-22.62-2.23-13,7.99-19.48,29.54-8.88,41.66,4.25,4.85,11.29-2.24,7.07-7.07-6.21-7.1-.25-21.54,6.85-25.96,11.51-7.17,17.82,11.08,20.06,18.81,1.34,4.64,8.41,4.87,9.64,0,2.57-10.18,15.2-13.11,22.1-5.25,7.47,8.51,2.29,20.04-7.11,24.2-3.64,1.61-2.86,6.81,0,8.63,7.06,4.5,18.38,11.46,16.68,21.5-1.14,6.75-9.87,9.7-15.34,6.39-3.46-2.09-9.01,1.46-7.34,5.65,2.39,6.01,5.55,13.02,3.72,19.6-2.13,7.66-9.11,7.82-15.62,5.82-9.48-2.91-23.97-9.56-23.82-21.24.07-5.03-6.8-6.71-9.32-2.52-4.66,7.75-14.34,18.84-24.53,12.89-4.52-2.64-4.94-8.19-4.52-12.89.16-1.81,1.53-12.29,4.67-11.49,5.3,1.35,9.11-6.57,3.85-9.14-4.24-2.07-8.5-4.09-12.71-6.21-2.93-1.47-6.26-2.91-5.28-6.78,2.04-8.06,13.08-7.47,19.46-7.36,6.44.11,6.44-9.89,0-10-11.49-.19-25.54,1.64-29.1,14.7-2.87,10.52,5.14,16.01,13.56,20.11-4.18,6.15-5.22,16.36-3.68,24.36-13.51.49-27.82,3.97-36.89,14.71-5.81,6.88-14.7,26.64-.2,28.54,14.38,1.89,29.56,3.22,43.05-3.27,10.49-5.04,18.34-14.45,22.08-25.36,4.92-1.81,9.02-5.04,12.48-8.93,6.2,11.32,21.1,18.65,32.97,20.65,8.89,1.5,17.66-1.55,21.71-10.05,3.2-6.7,2.59-13.69.68-20.46,8.1-.09,16.16-4.85,19.09-12.8.4-1.08.69-2.15.9-3.2.49.22,1.03.38,1.64.45,9.41,1.1,18.87.72,28.16-1.16,7.96-1.61,16.81-4.1,22.86-9.85-.08,2.56,1.52,5.18,4.82,5.18h10.73c-1.05,4.11-1.87,8.29-2.43,12.51-.2,1.47.2,2.6.92,3.39-.03.34-.03.71.02,1.1,1.62,13.89,18.46,13.23,32.65,9.84v18.13c0,6.43,10,6.45,10,0v-19.22c0-.64-.1-1.21-.28-1.73,2.73-.93,5.09-1.85,6.85-2.61,8.6-3.72,16.43-8.86,23.21-15.12,1.29,2.01,2.9,3.82,4.74,5.3,2.04,1.63,5.11,2.14,7.07,0,1.67-1.81,2.18-5.33,0-7.07-.52-.42-1.02-.85-1.5-1.31-.26-.26-.52-.52-.77-.8-.04-.05-.29-.33-.44-.51-.1-.14-.26-.35-.29-.39-.21-.3-.41-.61-.6-.93-.37-.61-.69-1.24-.99-1.89,5.18-6.18,9.48-13.13,12.67-20.68,1.1-2.62,2.07-5.29,2.91-8h8.53c6.43,0,6.45-10,0-10ZM1293.92,887.22c-5.59,2.19-11.64,2.8-17.6,2.76-3.27-.02-6.54-.25-9.79-.56-1.6-.15-4.55-.02-6.72-.4-.28-6.79,6.01-14.08,11.01-17.44,3.83-2.57,8.12-4.16,12.57-5.13-1.85,1.73-3.22,4.02-3.78,6.79-.54,2.64.77,5.4,3.49,6.15,2.47.68,5.6-.83,6.15-3.49.46-2.23,3.1-4.26,4.98-3.44,2.48,1.07,5.36.74,6.84-1.79.57-.97.76-2.28.55-3.5,2.85,2.14,6.25,3.43,9.8,3.9-3.67,7.26-9.78,13.14-17.51,16.17ZM1453.05,819.62c-11.69,6.77-27.74,7.32-40.78,5.8-.8-.09-1.49-.02-2.09.19,0-.02-.01-.03-.02-.05,1.44-1.07,2.35-2.85,1.82-5.1-2.72-11.49,14.77-12.66,21.88-12.89,6.42-.2,6.45-10.2,0-10-8.48.27-17.68.81-24.54,6.41-3.22,2.62-5.55,5.98-6.69,9.71-.82-.85-1.67-1.67-2.55-2.47,2.56-.53,4.87-2.83,4.17-6.13-1.26-5.87,8.83-11,12.88-13.35,5.41-3.14,11.13-5.64,17.11-7.47,6.23-1.9,12.64-3.13,19.14-3.51,2.77-.16,5.56-.19,8.33-.09.72.03,1.45.08,2.17.13.07,1.29.16,2.6.16,2.74.39,11.81.79,29.27-10.99,36.08ZM1566.31,778.52c-.29,5.93-1.35,11.77-3.03,17.46-3.28,11.1-9.17,21.42-17.25,29.73-7.89,8.12-17.7,14.39-28.39,18.13-5.44,1.91-11.11,3.27-16.85,3.85-1.4.14-13.13,1.5-13.44-1.11-.14-1.24-.65-2.23-1.35-2.99.2-.45.34-.95.42-1.49,2.66-19.96,12.21-38.84,26.62-52.87-.42,1.5-.21,3.2,1.05,4.69,8.45,10.04,16.9,20.07,25.35,30.11,4.15,4.93,11.19-2.18,7.07-7.07-8.45-10.04-16.9-20.07-25.35-30.11-1.12-1.33-2.44-1.78-3.71-1.64,6.48-5.49,13.75-10.04,21.49-13.53,4.51-2.03,9.22-3.65,14.01-4.92,2.6-.69,5.24-1.27,7.89-1.73,1.38-.24,3.33-.81,5.06-.92.34,1.88.25,4.2.35,5.67.19,2.91.21,5.83.07,8.75Z"/>
      <path class="cls-1" d="M174.24,259.43c-10.46-2.6-12.17-14.87-13.24-23.92-.75-6.35-9.39-6.5-10,0-.85,9.03-5.46,16.84-12.4,22.54-2.88,2.37-1.71,5.72.75,7.34-.9-.27-1.82-.53-2.74-.73-6.27-1.38-8.95,8.26-2.66,9.64,9.04,1.99,15.92,7.71,19.72,16.13,2,4.43,7.69,2.26,9.14-1.19,3.3-7.88,7.96-15.09,13.64-21.45,2.42-2.7,1.62-7.4-2.21-8.36ZM157.49,277.59c-4.05-5.03-9.39-8.92-15.45-11.27,1.21.08,2.47-.25,3.62-1.2,3.91-3.21,7.09-7,9.53-11.2,2.06,5,5.09,9.38,9.65,12.29-2.75,3.61-5.19,7.41-7.36,11.38Z"/>
      <path class="cls-1" d="M1588.28,702.59c-2.95,2.82-8.18,1.34-11.85,1.18-3.86-.17-8,.28-11.35,2.35-3.43,2.11-5.08,5.49-5.98,9.31-.44,1.85-.45,4.06-2.27,5.07-1.32.74-3.28.49-4.95.12.2-7.8.66-15.67.32-23.45-.27-6.28-1.69-12.43-6.43-16.85-.03-3.66-2.17-7.43-4.03-11.06-7.4-14.44-15.05-28.75-22.94-42.92-6.04-10.85-11.6-25.47-24.22-29.92.11-1.23-.21-2.53-1.17-3.72-7.41-9.2-20.45-16.11-31.27-8-4.44,3.33-7.35,8.64-6.5,14.27.9,5.97,5.33,9.86,9.93,13.25,16.9,28.56,33.8,57.12,50.69,85.68.47.79,1.17,1.41,1.97,1.84.11.32.25.64.44.97,6.24,10.83,14.98,19.75,25.64,26.28,0,0,0,0,.01,0,.46,1.3,1.51,2.4,3.27,2.87,4.6,1.21,9.92,1.66,14.26-.68,4.84-2.61,5.7-6.95,7.06-11.81,1.49-5.35,8.13-3.41,12.41-3.21,5.28.25,10.13-.76,14.03-4.48,4.66-4.45-2.42-11.52-7.07-7.07ZM1465.48,597.62c-.41-3.08,2.7-5.57,5.34-6.31,4.21-1.18,8.15,1.05,11.36,3.97-5.13.77-9.96,3.04-13.87,6.54-1.39-1.2-2.62-2.61-2.83-4.2ZM1522.26,688.4c-15.69-26.53-31.39-53.05-47.08-79.58,5.05-4.39,13.29-5.19,18.96-1.66,4.5,2.8,6.93,8.12,9.46,12.57,2.99,5.25,5.95,10.52,8.87,15.81,5.69,10.3,11.25,20.68,16.68,31.12,1.47,2.82,2.93,5.65,4.38,8.48.41.8,2.28,3.54,2.17,4.25-.13.87-.71.63-1.18,1.31-1.38,1.98-6.11,3.84-8.23,5.18l-4.02,2.53ZM1542.22,701.31c-.03,2.46-.08,4.92-.13,7.38-.8-1.06-2.06-1.8-3.81-1.8-.88,0-1.64.19-2.28.52-3-3.23-5.68-6.78-8-10.63,4.15-2.36,8.51-4.75,12.18-7.61,2.24,3.47,2.09,8.01,2.04,12.14Z"/>
      <path class="cls-1" d="M1578.98,651.2c-3.83-2.69-8.6-3.9-11.78-7.48-3.38-3.79-5.04-9.15-4.44-14.19.61-5.19,4.5-8.72,5.77-13.65,1.17-4.54-.39-9.14-3.73-12.33-3.19-3.05-7.72-4.62-11.98-5.31-4.49-.73-10.9.21-14.8-2.6-4.51-3.25-.73-11.11-.29-15.65.48-5.01-.54-10.03-2.71-14.56-4.73-9.88-14.15-15.58-24.92-16.25-8.93-.56-26.12,3.72-27.81-9.27-1.09-8.33.54-19.09-9.78-22.15-9.97-2.96-20.67,3.53-26.29,11.39-6.15,8.6-7.42,19.59-2.9,29.16,2.75,5.82,11.37.75,8.63-5.05-3.12-6.6-.97-14.61,3.65-19.96,2.32-2.69,5.38-4.86,8.86-5.73,4.61-1.15,7.01,0,7.47,4.73.78,7.91,0,15.43,6.55,21.21,6.95,6.13,16.5,5.99,25.18,5.69,10.13-.35,19.55,2.1,23.23,12.64,3.13,8.99-4.02,18.41.89,27.12,4.16,7.37,12.94,8.26,20.52,8.82,3.01.22,7.69.61,9.78,3.19,2.42,2.99-2.69,8.38-3.83,11.45-3.05,8.28-1.58,18.1,3.44,25.31,2.76,3.97,6.38,6.77,10.65,8.96,1.23.63,10.41,5.34,6.62,7.13-5.82,2.75-.75,11.37,5.05,8.63,9.23-4.36,5.73-16.53-1.02-21.26Z"/>
      <path class="cls-1" d="M1434.75,513.83c-6.43,0-6.45,10,0,10s6.45-10,0-10Z"/>
      <path class="cls-1" d="M1469.24,499.2c-6.43,0-6.45,10,0,10s6.45-10,0-10Z"/>
      <path class="cls-1" d="M1504.78,527.42c-6.43,0-6.45,10,0,10s6.45-10,0-10Z"/>
      <path class="cls-1" d="M1548.68,569.23c-6.43,0-6.45,10,0,10s6.45-10,0-10Z"/>
      <path class="cls-1" d="M1581.08,625.67c-6.43,0-6.45,10,0,10s6.45-10,0-10Z"/>
      <path class="cls-1" d="M1573.36,499.25c-4.69.9-10.61.84-14.32-2.67-3.11-2.94-3.54-7.95-.24-10.81,3.43-2.97.53-8.42-3.54-8.54-6.52-.19-13.39-.26-19.47-2.94-5.18-2.28-10.44-7.54-9.44-13.69.52-3.22-1.3-6.25-4.82-6.33-9.2-.21-20.51-.34-27.76-6.9-8.36-7.57-6.47-20.66-5.23-30.65.46-3.72-4.61-6.3-7.52-4.32-6.66,4.54-13.32,9.08-19.98,13.62-5.29,3.6-.29,12.27,5.05,8.63,3.86-2.63,7.71-5.26,11.57-7.89-.38,10.15,1.2,20.43,9.04,27.67,8.06,7.45,19.19,9.15,29.86,9.66.74,6.58,4.42,12.35,10.12,16.46,5.91,4.25,13.08,5.69,20.26,6.27-1.13,5.05.12,10.67,3.37,14.88,4.14,5.37,10.38,7.56,16.82,7.86-1.21,4.83-1.22,9.84-.03,14.96,1.46,6.26,11.11,3.61,9.64-2.66-1.26-5.38-.46-10.5,2.26-15.28,2.27-4.01-1.46-8.15-5.65-7.35Z"/>
    </g>
  </g>
</svg>