<?xml version="1.0" encoding="UTF-8"?>
<svg id="Layer_2" data-name="Layer 2" xmlns="http://www.w3.org/2000/svg" viewBox="0 0 518.68 610.87">
  <defs>
    <style>
      .cls-1 {
        fill: #151d28;
      }

      .cls-2 {
        fill: #64bcad;
      }

      .cls-3 {
        fill: #22303a;
      }

      .cls-4 {
        fill: #7da75b;
      }

      .cls-5 {
        fill: #597240;
      }

      .cls-6 {
        fill: #fff;
      }

      .cls-7 {
        fill: none;
        stroke: #f2ad6e;
        stroke-miterlimit: 10;
        stroke-width: 3.98px;
      }

      .cls-8 {
        fill: #f2ad6e;
      }

      .cls-9 {
        fill: #f7d25d;
      }

      .cls-10 {
        fill: #b5e8de;
      }
    </style>
  </defs>
  <g id="Layer_2-2" data-name="Layer 2">
    <g>
      <path class="cls-2" d="M410.21,79.96s59.65,93.64,51.06,181.61c0,0-4.06-44.01-25.11-66.32,0,0,33.03,41.69,0,94.74,0,0,32.12,94.41-11.31,106.11l-95.77-16.87-34.36-71.69,115.48-227.59Z"/>
      <path class="cls-1" d="M139.54,164.98s4.33,92.84-26.94,98.46c-54.31,9.78,73.04,76.9,73.04,76.9l69.73-20.68-115.83-154.68Z"/>
      <path class="cls-5" d="M201.36,465.61s-91.01-160.88-165.12-200.58l23.75-38.04s170.69,60.36,188.09,119.95-46.71,118.67-46.71,118.67Z"/>
      <path class="cls-4" d="M321.03,296.76l66.62,36.04c40.13,21.71,62.21,69.54,54.2,117.38l-26.93,160.69h-193.33l-24.4-94.67c-8.39-32.56-10.47-66.4-5.41-99.59,4-26.23,11.7-51.06,23.97-63.38l30.56-30.68,74.73-25.78Z"/>
      <path class="cls-4" d="M422.93,330h3.86c22.43,0,40.63,18.21,40.63,40.63v227.32c0,6.62-5.38,12-12,12h-61.13c-6.62,0-12-5.38-12-12v-227.32c0-22.43,18.21-40.63,40.63-40.63Z" transform="translate(-158.92 223.83) rotate(-25.02)"/>
      <path class="cls-5" d="M389.44,347.23c-.63-.64-1.48-.49-2.12,0-11.42,8.84-20.65,20.48-26.7,33.59-6.57,14.24-9.31,30.08-7.91,45.71.82,9.11,2.97,18.07,6.47,26.53.73,1.76,3.63.99,2.89-.8-6.04-14.61-8.13-30.83-5.81-46.48,2.12-14.3,7.86-27.89,16.49-39.48,4.75-6.38,10.41-12.08,16.7-16.95.65-.5.52-1.59,0-2.12Z"/>
      <path class="cls-5" d="M416.7,558.27c-13.44-23.65-26.89-47.29-40.35-70.94-3.77-6.63-7.55-13.26-11.32-19.9-.95-1.68-3.55-.17-2.59,1.51,13.45,23.64,26.91,47.29,40.35,70.94,3.77,6.63,7.54,13.27,11.31,19.9.95,1.68,3.55.17,2.59-1.51Z"/>
      <path class="cls-6" d="M45.81,201.51c-.75-.15-1.5-.27-2.25-.37-2.04-2.59-4.12-5.13-6.55-7.32-5.27-4.78-13.01-11.05-20.17-12.33-3.82-.68-8.05,1.3-8.98,5.31-.78,3.41.81,7.12,2.47,10,.4.69.84,1.37,1.3,2.03,2.87,2.48,5.7,5.12,7.9,8.24,5.6,7.94,5.93,18.25,1.88,26.96-3.51,7.54-9.7,12.52-16.96,15.47-2.07,2.34-3.59,5.03-4.18,7.78-2.11,9.82,8.32,14.72,16.09,16.7,14.46,3.68,30.82-1.13,41.07-11.92,7.16-4.7,12.52-12.14,14.37-21.2,3.69-18.04-7.95-35.65-25.99-39.34Z"/>
      <path class="cls-6" d="M301.18,383.45h0c-8.62,2.87-18.35-.96-21.63-8.51l-23.1-53.22c-3.27-7.55,1.1-16.06,9.72-18.93l35.63-11.85c8.62-2.87,18.35.96,21.63,8.51l9.56,22.03c10.72,24.7-3.6,52.58-31.82,61.97Z"/>
      <path class="cls-9" d="M271.6,356.64c4.53,1.64,9.09,1.22,14.39.04,9.53-2.13,16.88-4.93,25.19-8.71,7.68-3.49,14.2-7.42,19.92-12.06,3.66-2.97,4.86-7.61,3.09-11.69l-11.84-27.27c-2.68-6.17-10.64-9.3-17.69-6.96l-41.35,13.75c-7.05,2.34-10.63,9.31-7.95,15.48l16.24,37.41Z"/>
      <path class="cls-3" d="M267.21,346.94c4.31-.18,8.07-.72,13.09-1.83,1.96-.44,3.9-.93,5.82-1.49.44-.13,4.17-1.36,3.97-1.25,3.52-1.34,6.93-2.97,10.16-4.78,11.87-6.64,20.46-17.28,24.43-30.01.28-.88.63-1.69,1.05-2.43l-3.37-7.76c-2.68-6.17-10.64-9.3-17.69-6.96l-41.35,13.75c-7.05,2.34-10.63,9.31-7.95,15.48l11.84,27.28Z"/>
      <path class="cls-2" d="M410.67,214.21l-227.65,41.07c-5.2,0-29.89,0-50.87-30.83-7.12-10.46-10.03-25.96-10.73-33.36v-63.5c0-54.83,56.37-105.98,111.2-105.98h81.34c59.78,0,122.09,70.67,108.69,108.69v71.91c0,6.6-5.4,12-12,12Z"/>
      <path class="cls-6" d="M108.87,148.89l-26.01-9.42c-1.81-.66-2.84,2.16-1.02,2.82l26.01,9.42c1.81.66,2.84-2.16,1.02-2.82Z"/>
      <path class="cls-6" d="M105.28,157.45l-27.63-1.36c-1.93-.09-2.08,2.9-.15,3l27.63,1.36c1.93.09,2.08-2.9.15-3Z"/>
      <path class="cls-6" d="M112.98,137.58l-23.51-14.57c-1.64-1.02-3.22,1.53-1.58,2.55l23.51,14.57c1.64,1.02,3.22-1.53,1.58-2.55Z"/>
      <g id="face">
        <path class="cls-6" d="M256.99,340.13h0c-50.45.21-103.71-49.02-104.6-107.78-.07-4.45-.19-8.9-.51-13.34l-8-110.12c0-6.6,68.09-32.8,74.69-32.8l149.76,10.34c6.6,0,12,5.4,12,12v118.37c0,67.83-72.17,127.58-123.33,123.33Z"/>
        <path class="cls-6" d="M409.87,169.45c23.61,13.63,31.7,43.82,18.07,67.43-13.63,23.61-43.82,31.7-67.43,18.07-23.61-13.63-11.58-32.21,2.05-55.82,13.63-23.61,23.7-43.31,47.31-29.68Z"/>
        <path class="cls-9" d="M409.87,169.45c-.58-.34-1.15-.63-1.71-.93v87.35c7.99-4.19,14.93-10.6,19.78-18.99,13.63-23.61,5.54-53.8-18.07-67.43Z"/>
        <path class="cls-3" d="M415,184.51c-6.92,2.86-11.52,9.04-15.26,15.26-4.36,7.26-8.49,14.89-11.1,22.98-1.48,4.59-2.39,9.36-2.46,14.19,0,.64.99.64,1,0,.12-8.49,2.95-16.62,6.62-24.19,1.8-3.71,3.79-7.33,5.86-10.89,1.82-3.14,3.76-6.25,6.11-9.04,2.6-3.09,5.72-5.79,9.49-7.35.59-.24.33-1.21-.27-.96Z"/>
        <path class="cls-3" d="M221.2,206.79c-2.46-3.83-5.39-6.92-8.62-9.34.81-1.13,1.62-2.26,2.42-3.39.55-.76.6-2.11,0-2.86-.59-.73-1.54-.81-2.12,0-1.04,1.45-2.08,2.9-3.12,4.35-3.63-2.19-7.56-3.64-11.57-4.39-.03-2.6,0-5.2.13-7.8.06-1.06-.73-2.07-1.5-2.02-.86.05-1.44.89-1.5,2.02-.13,2.45-.16,4.91-.13,7.37-5.55-.56-11.17.15-16.3,2-.34.12-.67.26-1.01.4-1.62-1.72-3.3-3.33-5.05-4.78-.67-.55-1.68-.23-2.05.73-.39.99-.18,2.18.54,2.77,1.1.91,2.17,1.9,3.22,2.93-2.72,1.58-5.24,3.71-7.37,6.55-1.38,1.83.75,4.69,2.12,2.86,5.27-7.01,13.13-9.09,20.28-9.44,1.14-.06,2.29-.04,3.44,0-.02,3.51.31,7.05,1.02,10.43.73,3.48,1.82,7.1,3.41,10.04,1.64,3.04,4.43,5.59,7.34,4.27,2.58-1.17,3.91-4.41,4.8-7.65.95-3.43,1.47-7.09,1.6-10.76,2.98,2.25,5.65,5.08,7.9,8.58,1.27,1.97,3.38-.9,2.12-2.86Z"/>
        <g>
          <path class="cls-3" d="M316.45,195.26s0,0,0-.01c-.26.24-.08.08,0,.01Z"/>
          <path class="cls-3" d="M336.13,212.48c-4.85-6.89-11.16-11.22-17.8-14.13,1.15-1.21,2.21-2.57,3.13-4.07.26-.42.44-.86.44-1.43,0-.5-.16-1.09-.44-1.43-.55-.68-1.59-.87-2.12,0-.77,1.26-1.63,2.43-2.56,3.47-.11.12-.22.24-.33.36.01-.01.01-.01.03-.03-.05.05-.1.1-.15.16-.24.25-.49.48-.74.71-.31.29-.65.54-.97.8-.3-.11-.6-.22-.9-.32-5.05-1.73-10.43-3.33-15.8-3.85v-6.79c0-1.06-.69-2.07-1.5-2.02-.81.05-1.5.89-1.5,2.02v6.63c-3.32-.05-6.61.37-9.8,1.52-1.36.49-2.69,1.13-3.98,1.89-3.45-1.41-7.05-2.18-10.65-2.26-.81-.02-1.5.94-1.5,2.02s.69,2,1.5,2.02c2.29.05,4.55.43,6.78,1.06-1.64,1.48-3.15,3.23-4.43,5.28-1.24,1.98.87,4.85,2.12,2.86,3.52-5.61,8.36-8.49,13.51-9.64v5.73c-.01,2.18-.12,4.43.04,6.6.32,4.25,2.37,7.79,5.02,10.01,2.4,2.01,5.96,3.02,8.42.63,2.29-2.23,3.73-6.51,4.48-10.07.79-3.77.88-7.77.3-11.59,1.62.43,3.23.9,4.83,1.41.81.26,1.62.54,2.42.83.25.2.53.31.82.3,2.84,1.06,5.64,2.34,8.32,3.99,4.07,2.51,7.8,5.81,10.89,10.21,1.33,1.89,3.45-.97,2.12-2.86Z"/>
        </g>
        <path class="cls-3" d="M242.29,261.6c-3.58-1.56-6.17-4.83-6.84-8.68-.09-.53-.74-.83-1.23-.7-.56.15-.79.7-.7,1.23.75,4.29,3.77,8.14,7.76,9.88.49.22,1.07.15,1.37-.36.25-.42.14-1.15-.36-1.37Z"/>
        <path class="cls-3" d="M256.83,261.23c-3.79-1.74-7.94-2.31-12.06-1.65-.53.08-.83.75-.7,1.23.16.57.69.78,1.23.7,3.54-.56,7.26-.05,10.52,1.45.49.23,1.08.14,1.37-.36.25-.43.13-1.14-.36-1.37Z"/>
        <path class="cls-3" d="M263.45,293.78c-.33-1.62-.76-3.21-1.29-4.77-.56-1.63-1.15-3.44-2.13-4.87-.5-.72-1.09-1.23-1.74-1.6-.12-.1-.25-.17-.41-.21-1.75-.78-3.9-.66-5.91-.66-4.48,0-8.96,0-13.44,0-1.16,0-2.32,0-3.48,0-.33,0-.67.02-1,0-.74-.04-.66-.11-.57-.83.26-2.17.74-4.34,1.11-6.5.21-1.26-1.71-1.8-1.93-.53-.29,1.7-.58,3.4-.87,5.1-.2,1.18-.82,2.83,0,3.9.66.85,1.76.85,2.75.85,1.82,0,3.65,0,5.47,0,.18,0,.36,0,.55,0,.62,7.01,2.39,13.86,5.3,20.27,1.19,2.62,2.65,5.42,5.46,6.57,2.51,1.03,6.01.91,8.61.22,3.14-.83,4.02-3.46,4.23-6.41.24-3.53-.02-7.09-.72-10.55ZM262.04,305.68c-.26,1.62-1.01,2.69-2.63,3.13-1.33.36-2.83.37-4.21.36-1.44-.01-2.89-.19-4.1-1.03-1.18-.82-1.97-2.12-2.62-3.37-1.55-2.96-2.77-6.11-3.71-9.36.04-.26.11-.51.18-.76.12-.11.23-.23.3-.42.45-1.18,1.05-2.29,1.76-3.32.57-.76,1.18-1.5,1.82-2.22,1.39-1.4,3.04-2.55,4.84-3.39,1.19-.43,2.45-.71,3.75-.95.7.48,1.2,1.2,1.63,2.14,1.4,3.01,2.29,6.31,2.79,9.58.48,3.1.7,6.49.2,9.6Z"/>
        <path class="cls-3" d="M229.92,150.17c-16.09-2.42-33.02.36-46.9,7.62-3.95,2.06-7.63,4.49-10.96,7.21-1.65,1.35.87,3.47,2.52,2.12,14.18-11.57,34.94-16.98,54.4-14.06,2.24.34,3.2-2.55.95-2.89Z"/>
        <path class="cls-3" d="M328.68,166.69c-12.42-13.21-30.72-18.23-48.33-18.98-5.58-.24-11.17-.08-16.75.25-1.92.12-1.93,3.12,0,3,17.74-1.08,36.47-.14,52.13,9.19,4,2.38,7.64,5.27,10.83,8.66,1.33,1.41,3.44-.71,2.12-2.12Z"/>
        <path class="cls-9" d="M246.09,212.71l-3.86,26.11c-.19,1.27,1.79,1.57,1.98.29l3.86-26.11c.19-1.27-1.79-1.57-1.98-.29Z"/>
        <path class="cls-9" d="M253.52,218.66l-4.31,29.16c-.19,1.27,1.79,1.57,1.98.29l4.31-29.16c.19-1.27-1.79-1.57-1.98-.29Z"/>
        <path class="cls-9" d="M300.71,228.64l-2.15,14.97c-.09.65,1.89.94,1.98.28l2.15-14.97c.09-.65-1.89-.94-1.98-.28Z"/>
        <path class="cls-9" d="M313.47,230.95l4.6,15.33c.2.67,2.15.6,1.95-.07l-4.6-15.33c-.2-.67-2.15-.6-1.95.07Z"/>
        <path class="cls-9" d="M290.28,227.24l-8.21,13.58c-.36.59,1.51,1.19,1.87.59l8.21-13.58c.36-.59-1.51-1.19-1.87-.59Z"/>
        <path class="cls-9" d="M199.23,226.1l-2.15,14.97c-.09.65,1.89.94,1.98.28l2.15-14.97c.09-.65-1.89-.94-1.98-.28Z"/>
        <path class="cls-9" d="M211.99,228.41l4.6,15.33c.2.67,2.15.6,1.95-.07l-4.6-15.33c-.2-.67-2.15-.6-1.95.07Z"/>
        <path class="cls-9" d="M188.81,224.69l-8.21,13.58c-.36.59,1.51,1.19,1.87.59l8.21-13.58c.36-.59-1.51-1.19-1.87-.59Z"/>
        <path class="cls-9" d="M235.2,222.89l-2.63,17.82c-.19,1.27,1.79,1.57,1.98.29l2.63-17.82c.19-1.27-1.79-1.57-1.98-.29Z"/>
      </g>
      <circle class="cls-7" cx="185.64" cy="211.22" r="44.06"/>
      <circle class="cls-7" cx="299.88" cy="211.22" r="44.06"/>
      <path class="cls-8" d="M256.43,216.55c-4.3-3.83-9.62-6.3-15.34-7.02-4.61-.58-10.35.15-12.79,4.67-.91,1.7,1.67,3.22,2.59,1.51,1.96-3.65,7.03-3.7,10.61-3.12,4.75.77,9.22,2.88,12.81,6.08,1.44,1.28,3.57-.83,2.12-2.12Z"/>
      <path class="cls-8" d="M366.58,362.54c-10.96,3.58-21.57,8.17-31.72,13.67-13.41,7.27-25.9,16.16-37.21,26.38-5.9,5.33-11.44,11.06-16.61,17.1-12.74-19.46-25.81-40.04-30.12-63.22-1.03-5.52-1.53-11.15-1.38-16.77-.02,0-.03,0-.05,0-1.04,0-2-.1-2.91-.29-.6,23.68,9.7,45.78,21.7,65.72,3.54,5.87,7.26,11.63,11.02,17.37-.04,2.76-.07,5.52-.11,8.27h-4.73c-1.93,0-1.93,3,0,3h4.69c-.07,5.08-.14,10.16-.2,15.24-.03,1.93,2.97,1.93,3,0,.07-5.08.14-10.16.2-15.24h5.36c1.93,0,1.93-3,0-3h-5.32c.04-2.65.07-5.3.11-7.95,9.61-11.41,20.57-21.64,32.61-30.44,12.15-8.88,25.35-16.33,39.26-22.08,3.53-1.46,7.1-2.79,10.71-4.03.37-1.33.93-2.6,1.7-3.74Z"/>
      <path class="cls-2" d="M244.01,83.48s-42.67,76.49-86.73,81.5l-7.44,26.11-10.31-96.52,124.7-30.48,121.94,17.76-5.87,90.52s-6.87,7.27-13.03,18.59l-3.95-22.43s-88.78-33.16-119.32-85.05Z"/>
      <path class="cls-2" d="M395.46,309.17l-35.96-6.79c.9-4.08-2.13-8.95-7.13-7.17-2.96,1.06-5.32,2.59-7.21,4.46l-1.23-.23s.09.46.25,1.28c-5.15,5.99-6.11,14.89-5.89,23.29.26,10.11,2.41,19.94,8.89,27.28-1.47,7.1-4.64,11.6-10.63,10.26,0,0,21.06,11.55,31.63-3.7-7.14,15-22.78,55.97,6.92,78.09,0,0-8.61-22.47,19.58-35.51,0,0,11.75,11.23,0,28.46,0,0,39.21-19.91,45.96-44.49,6.76-24.58-45.18-75.23-45.18-75.23Z"/>
      <path class="cls-10" d="M230.11,75.55c-8.16,1.82-15.86,5.19-23.33,8.87-3.71,1.83-7.41,3.69-11.07,5.61-3.57,1.87-7.1,3.83-10.44,6.09-3.3,2.23-6.38,4.75-9.12,7.63-2.7,2.83-5.09,5.95-7.3,9.18-2.26,3.31-4.33,6.74-6.36,10.2-2.07,3.53-4.06,7.09-5.9,10.74-3.61,7.18-6.64,14.73-8.19,22.65-.19.99-.36,1.98-.51,2.97-.09.63.87.9.96.27,1.17-7.93,3.88-15.54,7.31-22.76,3.43-7.21,7.46-14.2,11.78-20.91,4.29-6.66,9.25-12.85,15.66-17.58,6.41-4.73,13.67-8.21,20.77-11.78,7.4-3.72,14.95-7.3,22.97-9.47,1-.27,2.02-.52,3.03-.75.63-.14.36-1.1-.27-.96Z"/>
      <path class="cls-10" d="M378.95,144.48c-8.99-2.44-17.95-5-26.8-7.93-8.9-2.94-17.68-6.25-26.19-10.17-7.79-3.58-15.35-7.67-22.51-12.4-6.81-4.5-13.26-9.58-19.13-15.26-5.81-5.63-11.04-11.87-15.41-18.69-.55-.85-1.08-1.71-1.6-2.58-.33-.55-1.2-.05-.86.5,4.19,6.99,9.25,13.44,14.95,19.26,5.72,5.85,12.05,11.09,18.77,15.75,6.98,4.84,14.38,9.06,22.03,12.75,8.45,4.08,17.18,7.53,26.05,10.58,8.92,3.07,17.98,5.73,27.07,8.24,1.12.31,2.24.62,3.37.92.62.17.89-.8.27-.96Z"/>
      <path class="cls-10" d="M379.12,329.04c-.05-3.17-.27-6.34-.49-9.51-.05-.64-1.05-.64-1,0,.38,5.41.75,10.85.3,16.27-.22,2.7-.66,5.38-1.41,7.99-.77,2.69-1.93,5.2-3.27,7.65-1.58,2.9-3.25,5.75-4.88,8.62-.32.56.55,1.06.86.5,1.48-2.6,2.97-5.19,4.43-7.8,1.37-2.45,2.62-4.96,3.49-7.64,1.68-5.18,2.05-10.68,1.96-16.09Z"/>
      <path class="cls-10" d="M437.33,247.4c-1.2-3.84-2.77-7.57-4.66-11.13-.3-.57-1.17-.06-.86.5,6.61,12.4,8.98,26.97,6.81,40.84-.61,3.9-1.58,7.74-2.9,11.47-.21.61.75.87.96.27,2.38-6.73,3.61-13.84,3.71-20.97.09-7.09-.93-14.21-3.05-20.98Z"/>
      <path class="cls-2" d="M242.78,85.62s-12.98,69.1-53.47,74.51c0,0,22.66-10.81,36.11-57.76,6.93-24.2,17.36-16.75,17.36-16.75Z"/>
      <path class="cls-2" d="M249.25,9.53c-2.02-1.64-4.88-2.92-7.77-3.31-.57-1.16-1.35-2.22-2.28-3.05-2.46-2.2-5.73-3.04-8.97-3.16-3.48-.12-7.31.33-10.58,1.54-1.79.67-1.02,3.57.8,2.89,3.95-1.47,9.11-2.09,13.2-.93,1.55.44,3.17,1.42,4.33,2.73-1.52.25-2.96.83-4.16,1.86-1.89,1.63-2.69,4.58-1.23,6.75,1.46,2.17,4.58,2.59,6.74,1.29,2.56-1.54,3.39-4.14,3.09-6.73,1.83.45,3.57,1.32,4.85,2.35,3.56,2.88,4.95,7.71,3.76,12.08-.51,1.87,2.38,2.66,2.89.8,1.48-5.44-.25-11.53-4.67-15.12ZM239.36,11.47c-.44,1.45-1.91,2.96-3.55,2.29-1.84-.76-.76-2.99.48-3.74.95-.58,2.04-.85,3.18-.91.15.75.14,1.54-.11,2.36Z"/>
    </g>
  </g>
</svg>