<?xml version="1.0" encoding="UTF-8"?>
<svg id="Layer_2" data-name="Layer 2" xmlns="http://www.w3.org/2000/svg" viewBox="0 0 724.65 704.97">
  <defs>
    <style>
      .cls-1 {
        fill: none;
        stroke: #7da75b;
        stroke-miterlimit: 10;
        stroke-width: 3px;
      }

      .cls-2 {
        fill: #ffd040;
      }

      .cls-3 {
        fill: #7da75b;
      }

      .cls-4 {
        fill: #fff;
      }

      .cls-5 {
        fill: #f2ad6e;
      }

      .cls-6 {
        fill: #e0d3ad;
      }
    </style>
  </defs>
  <g id="bottom_right" data-name="bottom right">
    <g>
      <path class="cls-6" d="M724.37,552.55c-2.12-15.79-16.17-29.75-32.9-29.05-35.89,1.5-71.81,2.04-107.71,1.64,20.98-6.75,42.24-12.66,63.49-18.5,16.89-4.65,28.97-23.99,23.4-41.21-5.71-17.63-22.98-27.92-41.21-23.4-5.66,1.4-11.3,2.87-16.93,4.37,14.65-13.99,29.01-28.29,42.94-43.02,14.68-15.53,28.85-31.52,42.42-48.04,4.84-5.89,8.17-11.5,9.21-19.24.96-7.14.05-15.12-3.98-21.36-3.12-4.84-7.17-8.9-12.02-12.02-3.02-1.95-7.23-3.41-11.61-4.15.34-4.36-.19-8.96-1.55-13.33.65-1.37,1.29-2.74,1.94-4.1,7.08-14.97,13.89-29.24,15.56-45.89,1.68-16.77-4.86-33.54-16.42-45.6-3.11-3.24-6.7-6.16-10.59-8.7,3.88-1.03,7.77-2.01,11.69-2.89,17.12-3.85,28.79-24.56,23.4-41.21-5.81-17.95-22.87-27.52-41.21-23.4-61.04,13.73-117.66,45.31-163.28,87.88-46.81,43.67-80.73,99.65-98.67,161.01-11.02,37.71-17.29,76.88-31.92,113.47-3.16,7.06-6.65,13.96-10.52,20.64-2.63,2.33-5.32,4.6-8.05,6.81-7.73,5.6-15.85,10.5-24.5,14.55-12.94,4.92-26.41,8.03-40.09,10.14-18.73,2.24-37.58,3.07-56.38,4.48-22.99,1.72-46.1,4.38-68.63,9.34-41.3,9.1-81.82,27.83-111.42,58.68-16.95,17.66-29.66,38.48-37.21,61.77-7.6,23.49,17.38,49.42,41.21,41.21,27.53-9.48,55.46-17.64,83.65-24.77,27.48,2.87,55.45,2.73,82.72,2.55,26.56-.18,53.42-1.07,79.4-7.16,24.95-5.85,48.29-17.57,67.49-34.55.46-.41.91-.82,1.37-1.24,84.42-10.51,169.08-19.31,252.99-33.46,26.76-4.51,53.43-9.61,79.93-15.48,16.27-3.6,26.1-21.12,24-36.76Z"/>
      <circle class="cls-3" cx="410.15" cy="271.85" r="57.11"/>
      <circle class="cls-1" cx="410.15" cy="271.85" r="68.46"/>
      <path class="cls-4" d="M504.89,471.95c-15.87-24.66-37.9-50.93-70.28-47.99-30.47,2.77-56.1,25.56-87.31,23.94-17.22-.89-33.42-8.06-49.66-13.16-14.54-4.56-29.38-7.24-44.64-5.76-27.71,2.7-54.45,16.41-72.16,38.03-4.34,5.29-8.12,10.95-11.31,17-.44.84-.6,1.67-.54,2.44-5.25,8.84-9.93,18.02-13.97,27.51-5.76,13.55-11.69,28.28-11.81,43.22-.11,13.1,5.57,25.72,18.97,29.59,7.56,2.19,15.96,1.7,23.73,1.35,8.31-.38,16.59-1.28,24.83-2.48,65.21-9.48,131.09-43.4,197.45-22.46,16.24,5.12,32.03,10.85,49.35,9.51,15.61-1.2,30.9-6.94,42.46-17.7,10.6-9.87,17.61-23.53,18.97-37.97,1.53-16.26-5.47-31.73-14.07-45.09ZM504.94,533.68c-6.89,13.43-19.06,23.04-33.45,27.38-15.31,4.61-30.72,2.99-45.8-1.64-15.16-4.66-29.71-9.61-45.59-11.25-15.09-1.57-30.29-.77-45.31,1.25-30.37,4.08-59.75,13.1-89.48,20.21-15.13,3.62-30.42,6.82-45.91,8.47-7.57.81-15.19,1.26-22.81,1.24-7.08-.02-15.25-.37-20.07-6.35-7.8-9.67-3.95-25.2-.58-35.81,4.84-15.25,11.35-29.92,19.35-43.77,3.95-6.84,8.27-13.45,12.89-19.85.53-.74.79-1.47.83-2.17,12.58-14.62,29.57-25.27,48.34-30.43,12.51-3.44,25.84-4.48,38.67-2.36,15.47,2.56,29.98,8.79,44.92,13.27,14.25,4.28,28.79,6.52,43.56,3.81,14.05-2.58,27.09-8.77,40.25-14.09,12.41-5.02,25.71-9.92,39.33-8.69,14.51,1.31,26.35,10.2,35.83,20.68,18.97,20.94,39.66,51.55,25.01,80.12Z"/>
      <circle class="cls-5" cx="256.49" cy="322.61" r="13.91"/>
      <circle class="cls-4" cx="555.32" cy="164.09" r="13.91"/>
      <polygon class="cls-2" points="280.14 73.88 268.54 31.32 299.6 0 342.26 11.24 353.85 53.8 322.79 85.12 280.14 73.88"/>
      <path class="cls-6" d="M126.18,499.79c2.26-5.61,1.96-12.12-.58-17.59-5.87-12.62-21.1-20.62-34.72-20.5-10.67.1-18.67,6.45-25.01,14.23-6.83,1.85-14.1,2.87-21,5.4-7.98,2.92-15.71,6.93-22.65,11.82-13.15,9.26-26.09,23.63-21.13,40.97,4.51,15.74,22.45,24.42,37.42,17.62,9.08-4.13,14.17-11.61,16.59-21.08.74-2.9,1.27-5.58,2.36-8.18.48-.18.97-.36,1.47-.51,1.76-.56,2.82-.77,5.06-1.02,1.81-.2,3.63-.31,5.44-.36,4.13-.12,8.26.03,12.39-.09,5.3-.15,10.52-.95,15.46-2.6,5.43-.79,10.72-2.5,15.63-5.07,5.47-2.87,10.9-7.16,13.27-13.05Z"/>
    </g>
  </g>
</svg>