<?xml version="1.0" encoding="UTF-8"?>
<svg id="Layer_2" data-name="Layer 2" xmlns="http://www.w3.org/2000/svg" viewBox="0 0 585.55 599.19">
  <defs>
    <style>
      .cls-1 {
        fill: none;
        stroke: #7da75b;
        stroke-miterlimit: 10;
        stroke-width: 3px;
      }

      .cls-2 {
        fill: #ffd040;
      }

      .cls-3 {
        fill: #7da75b;
      }

      .cls-4 {
        fill: #fff;
      }

      .cls-5 {
        fill: #f2ad6e;
      }

      .cls-6 {
        fill: #e0d3ad;
      }
    </style>
  </defs>
  <g id="bottom_right" data-name="bottom right">
    <g>
      <path class="cls-6" d="M585.55,599.19v-74.04c-.6,0-1.2,0-1.8-.01.6-.19,1.2-.38,1.8-.57V141c-31.56,15.79-60.8,36.31-86.54,60.32-46.81,43.67-80.73,99.65-98.67,161.01-11.02,37.71-17.29,76.88-31.92,113.47-3.16,7.06-6.65,13.96-10.52,20.64-2.63,2.33-5.32,4.6-8.05,6.81-7.73,5.6-15.85,10.5-24.5,14.55-12.94,4.92-26.41,8.03-40.09,10.14-18.73,2.24-37.58,3.07-56.38,4.48-22.99,1.72-46.1,4.38-68.63,9.34-40.74,8.97-80.71,27.33-110.19,57.43h535.5Z"/>
      <circle class="cls-3" cx="410.15" cy="271.85" r="57.11"/>
      <circle class="cls-1" cx="410.15" cy="271.85" r="68.46"/>
      <path class="cls-4" d="M504.89,471.95c-15.87-24.66-37.9-50.93-70.28-47.99-30.47,2.77-56.1,25.56-87.31,23.94-17.22-.89-33.42-8.06-49.66-13.16-14.54-4.56-29.38-7.24-44.64-5.76-27.71,2.7-54.45,16.41-72.16,38.03-4.34,5.29-8.12,10.95-11.31,17-.44.84-.6,1.67-.54,2.44-5.25,8.84-9.93,18.02-13.97,27.51-5.76,13.55-11.69,28.28-11.81,43.22-.11,13.1,5.57,25.72,18.97,29.59,7.56,2.19,15.96,1.7,23.73,1.35,8.31-.38,16.59-1.28,24.83-2.48,65.21-9.48,131.09-43.4,197.45-22.46,16.24,5.12,32.03,10.85,49.35,9.51,15.61-1.2,30.9-6.94,42.46-17.7,10.6-9.87,17.61-23.53,18.97-37.97,1.53-16.26-5.47-31.73-14.07-45.09ZM504.94,533.68c-6.89,13.43-19.06,23.04-33.45,27.38-15.31,4.61-30.72,2.99-45.8-1.64-15.16-4.66-29.71-9.61-45.59-11.25-15.09-1.57-30.29-.77-45.31,1.25-30.37,4.08-59.75,13.1-89.48,20.21-15.13,3.62-30.42,6.82-45.91,8.47-7.57.81-15.19,1.26-22.81,1.24-7.08-.02-15.25-.37-20.07-6.35-7.8-9.67-3.95-25.2-.58-35.81,4.84-15.25,11.35-29.92,19.35-43.77,3.95-6.84,8.27-13.45,12.89-19.85.53-.74.79-1.47.83-2.17,12.58-14.62,29.57-25.27,48.34-30.43,12.51-3.44,25.84-4.48,38.67-2.36,15.47,2.56,29.98,8.79,44.92,13.27,14.25,4.28,28.79,6.52,43.56,3.81,14.05-2.58,27.09-8.77,40.25-14.09,12.41-5.02,25.71-9.92,39.33-8.69,14.51,1.31,26.35,10.2,35.83,20.68,18.97,20.94,39.66,51.55,25.01,80.12Z"/>
      <circle class="cls-5" cx="256.49" cy="322.61" r="13.91"/>
      <circle class="cls-4" cx="555.32" cy="164.09" r="13.91"/>
      <polygon class="cls-2" points="280.14 73.88 268.54 31.32 299.6 0 342.26 11.24 353.85 53.8 322.79 85.12 280.14 73.88"/>
      <path class="cls-6" d="M126.18,499.79c2.26-5.61,1.96-12.12-.58-17.59-5.87-12.62-21.1-20.62-34.72-20.5-10.67.1-18.67,6.45-25.01,14.23-6.83,1.85-14.1,2.87-21,5.4-7.98,2.92-15.71,6.93-22.65,11.82-13.15,9.26-26.09,23.63-21.13,40.97,4.51,15.74,22.45,24.42,37.42,17.62,9.08-4.13,14.17-11.61,16.59-21.08.74-2.9,1.27-5.58,2.36-8.18.48-.18.97-.36,1.47-.51,1.76-.56,2.82-.77,5.06-1.02,1.81-.2,3.63-.31,5.44-.36,4.13-.12,8.26.03,12.39-.09,5.3-.15,10.52-.95,15.46-2.6,5.43-.79,10.72-2.5,15.63-5.07,5.47-2.87,10.9-7.16,13.27-13.05Z"/>
    </g>
  </g>
</svg>