<?xml version="1.0" encoding="UTF-8"?>
<svg id="Layer_2" data-name="Layer 2" xmlns="http://www.w3.org/2000/svg" viewBox="0 0 994.09 411.82">
  <defs>
    <style>
      .cls-1 {
        fill: #64bcad;
      }

      .cls-2 {
        stroke-width: 3px;
      }

      .cls-2, .cls-3 {
        fill: none;
        stroke: #fff;
        stroke-miterlimit: 10;
      }

      .cls-4 {
        fill: #ffd040;
      }

      .cls-3 {
        stroke-width: 1.23px;
      }

      .cls-5 {
        fill: #fff;
      }

      .cls-6 {
        fill: #f2ad6e;
      }
    </style>
  </defs>
  <g id="bottom_left_blobs" data-name="bottom left blobs">
    <g>
      <ellipse class="cls-4" cx="567.57" cy="217.24" rx="288.31" ry="194.59"/>
      <path class="cls-6" d="M74.94,24.71s413.07,3.01,488.38,87.36,177.76-42.17,301.26-12.05,129.52,153.63,129.52,153.63H0L74.94,24.71Z"/>
      <path class="cls-5" d="M908.34,183.91c-4.55-23.92-31.15-33.79-52.76-34.63-16.47-.64-33.13,2.24-49.52-.33-14.79-2.32-27.94-9.56-40.3-17.68-11.78-7.74-23.09-16.14-35.29-23.24-11.92-6.95-24.36-12.96-37.16-18.13-25.35-10.24-52.09-16.79-79.25-19.77-27.43-3.02-55.23-2.19-82.44,2.42-13.83,2.35-27.5,5.71-40.83,10.1-14.52,4.79-28.44,11.15-42.82,16.33-14.46,5.21-29.25,8.53-44.66,8.92-14.9.37-29.74-1.63-44.26-4.86-29.38-6.52-57.46-17.63-86.2-26.34-30.28-9.17-60.73-13.74-92.38-13.94-32.74-.21-65.43,2.78-98.17,2.14-8.33-.16-16.64-.59-24.94-1.3-4.49-.39-4.46,6.61,0,7,64.22,5.56,129.11-8.56,192.53,7.02,55.3,13.58,110.03,43.87,168.56,36.09,29.3-3.9,55.37-19,83.49-27.18,26.42-7.68,53.9-11.36,81.4-11.18,55.01.35,109.94,16.18,156,46.41,23.73,15.57,45.65,33.44,75.21,35.04,26.18,1.41,58.77-7.25,79.43,14.17,4.03,4.17,6.52,9.13,7.6,14.81.84,4.42,7.59,2.55,6.75-1.86Z"/>
      <circle class="cls-2" cx="496.85" cy="22.65" r="15.63"/>
      <circle class="cls-3" cx="525.38" cy="7.01" r="6.4"/>
      <g>
        <path class="cls-1" d="M303.65,25.79c-5.79,0-5.8,9,0,9s5.8-9,0-9Z"/>
        <path class="cls-1" d="M322.96,25.79c-5.79,0-5.8,9,0,9s5.8-9,0-9Z"/>
        <path class="cls-1" d="M345.63,25.79c-5.79,0-5.8,9,0,9s5.8-9,0-9Z"/>
        <path class="cls-1" d="M369.97,25.79c-5.79,0-5.8,9,0,9s5.8-9,0-9Z"/>
        <path class="cls-1" d="M394.32,25.79c-5.79,0-5.8,9,0,9s5.8-9,0-9Z"/>
        <path class="cls-1" d="M413.63,25.79c-5.79,0-5.8,9,0,9s5.8-9,0-9Z"/>
        <path class="cls-1" d="M303.06,43.7c-5.79,0-5.8,9,0,9s5.8-9,0-9Z"/>
        <path class="cls-1" d="M322.37,43.7c-5.79,0-5.8,9,0,9s5.8-9,0-9Z"/>
        <path class="cls-1" d="M345.03,43.7c-5.79,0-5.8,9,0,9s5.8-9,0-9Z"/>
        <path class="cls-1" d="M369.38,43.7c-5.79,0-5.8,9,0,9s5.8-9,0-9Z"/>
        <path class="cls-1" d="M393.73,43.7c-5.79,0-5.8,9,0,9s5.8-9,0-9Z"/>
        <path class="cls-1" d="M413.04,43.7c-5.79,0-5.8,9,0,9s5.8-9,0-9Z"/>
        <path class="cls-1" d="M303.65,59.99c-5.79,0-5.8,9,0,9s5.8-9,0-9Z"/>
        <path class="cls-1" d="M322.96,59.99c-5.79,0-5.8,9,0,9s5.8-9,0-9Z"/>
        <path class="cls-1" d="M345.63,59.99c-5.79,0-5.8,9,0,9s5.8-9,0-9Z"/>
        <path class="cls-1" d="M369.97,59.99c-5.79,0-5.8,9,0,9s5.8-9,0-9Z"/>
        <path class="cls-1" d="M394.32,59.99c-5.79,0-5.8,9,0,9s5.8-9,0-9Z"/>
        <path class="cls-1" d="M413.63,59.99c-5.79,0-5.8,9,0,9s5.8-9,0-9Z"/>
      </g>
    </g>
  </g>
</svg>