<?xml version="1.0" encoding="UTF-8"?>
<svg id="Layer_2" data-name="Layer 2" xmlns="http://www.w3.org/2000/svg" viewBox="0 0 441.25 358.34">
  <defs>
    <style>
      .cls-1 {
        stroke: #fff;
      }

      .cls-1, .cls-2 {
        fill: none;
        stroke-miterlimit: 10;
        stroke-width: 10px;
      }

      .cls-2 {
        stroke: #64bcad;
      }

      .cls-3 {
        fill: #ffd040;
      }

      .cls-4 {
        fill: #e2d6bc;
      }
    </style>
  </defs>
  <g id="middle_left_blobs" data-name="middle left blobs">
    <g>
      <ellipse class="cls-4" cx="123.36" cy="158.05" rx="123.36" ry="158.05"/>
      <polygon class="cls-2" points="277.5 197.43 187.48 197.43 142.48 275.38 187.48 353.34 277.5 353.34 322.51 275.38 277.5 197.43"/>
      <circle class="cls-1" cx="237.09" cy="98.03" r="25.22"/>
      <path class="cls-3" d="M441.21,251.85c-.59-12.52-5.79-22.74-18.56-25.85-3.9-.95-6.87-2.27-8.64-5.23.13-4.82.77-9.88.32-14.41,9.63-7.73,15.82-22.64,7.94-33.23-2.4-3.22-5.46-5.03-8.76-5.72-.56-.44-1.15-.85-1.79-1.25-12.56-7.64-27.49,1.54-37.41,9.53-5.38,4.33-9.52,10.46-10.77,16.87-2.22,8.77-.66,18.73,4.57,26.16.67.95,1.39,1.84,2.15,2.68,1.53,2.49,3.34,4.84,5.35,7.09,1.72,1.92,4.5,4.34,4.59,7.15.12,3.62-3.03,7.65-3.72,11.23-2.72,14.03,4.85,28.21,18.33,33.16,9.82,3.61,21.62,1.44,29.22-5.56,4.45-.78,8.72-2.33,11.97-5.67,4.33-4.45,5.48-10.97,5.2-16.95ZM418.97,261.38c-.19.09-.39.17-.59.24-.02-.25-.04-.49-.06-.72.3-.82.52-1.68.64-2.59.14-1.09.12-2.16-.04-3.19.08-.25.18-.48.28-.71.76,2.04.83,4.32-.23,6.97ZM411.05,245.42c-.16-.07-.33-.15-.49-.21-.56-.21-1.13-.38-1.7-.51-.07-.71-.15-1.43-.24-2.16.84.88,1.76,1.74,2.71,2.6-.09.09-.18.19-.27.28ZM425.2,239.9c.57.52,1.09,1.19,1.56,1.94-.88-.39-1.78-.67-2.7-.85-1.24-1.11-2.52-2.17-3.74-3.28,1.79.41,3.53.96,4.88,2.19Z"/>
    </g>
  </g>
</svg>