<?xml version="1.0" encoding="UTF-8"?>
<svg id="Layer_2" data-name="Layer 2" xmlns="http://www.w3.org/2000/svg" viewBox="0 0 634.17 535.94">
  <defs>
    <style>
      .cls-1 {
        fill: #64bcad;
      }

      .cls-2 {
        fill: #fff;
      }
    </style>
  </defs>
  <g id="top_left_blob" data-name="top left blob">
    <g>
      <path class="cls-1" d="M42.54,41.19S-36.67,209.11,207.29,253.47s79.21,120.4,117.23,196.44,240.79,0,240.79,0L609.67,0,42.54,41.19Z"/>
      <path class="cls-2" d="M629.86,483.77c-9.9,9.28-20.95,17.25-32.8,23.85-11.83,6.58-24.4,11.76-37.39,15.55-13.04,3.8-26.46,6.22-40,7.22-13.65,1.01-27.44.64-41.01-1.18-13.42-1.8-26.67-5.03-39.4-9.65-12.71-4.61-24.88-10.68-36.17-18.12-12.2-8.04-23.51-17.71-32.78-29.02-9.64-11.75-17.07-25.93-18.53-41.25-1.63-17.17,3.55-33.91,7.68-50.36,2.13-8.48,4.03-17.05,4.84-25.77.7-7.54.38-15.1-.87-22.57-2.38-14.26-8.36-27.83-16.45-39.76-8.4-12.39-19-23.13-30.91-32.16-12.79-9.7-27.14-16.97-42.12-22.65-16.34-6.2-33.37-10.41-50.51-13.72-17.27-3.34-34.7-5.78-52.09-8.46-16.51-2.54-32.99-5.38-49.21-9.41-15.97-3.96-31.74-9.07-46.55-16.3-14.04-6.85-27.27-15.48-38.31-26.59-10.3-10.37-18.75-22.6-24.56-36.03-5.58-12.9-8.5-27.08-7.59-41.14.44-6.81,1.88-13.52,4.17-19.95.45-1.27-.51-2.74-1.75-3.08-1.38-.38-2.62.47-3.08,1.75C-.44,78.74-1.13,93.63,1.54,107.95c2.7,14.47,8.82,28.28,17.01,40.47,8.43,12.54,19.08,23.46,31.38,32.24,13.6,9.7,28.77,17,44.47,22.6,15.83,5.65,32.22,9.58,48.72,12.72,16.95,3.23,34.04,5.6,51.08,8.25,17.5,2.72,34.99,5.74,52.14,10.2,16.76,4.37,33.27,10.13,48.53,18.39,13.05,7.07,25.02,16.12,35.25,26.89,9.94,10.47,18.32,22.69,23.55,36.2,5.41,13.96,7.22,28.85,5.11,43.68-2.46,17.27-8.68,33.76-11.19,51.02-1.24,8.55-1.55,17.16-.13,25.71,1.28,7.72,3.98,15.16,7.57,22.1,7.3,14.07,18.32,26.08,30.45,36.14,10.62,8.82,22.31,16.32,34.73,22.34,12.51,6.06,25.71,10.7,39.25,13.84,13.48,3.13,27.32,4.84,41.15,5.14,13.92.29,27.87-.87,41.55-3.42,13.64-2.54,26.98-6.55,39.77-11.95,12.65-5.35,24.71-12.08,35.79-20.22,5.47-4.02,10.72-8.35,15.68-13,2.35-2.2-1.19-5.73-3.54-3.54Z"/>
    </g>
  </g>
</svg>