<?xml version="1.0" encoding="UTF-8"?>
<svg id="Layer_2" data-name="Layer 2" xmlns="http://www.w3.org/2000/svg" viewBox="0 0 576.05 427.29">
  <defs>
    <style>
      .cls-1 {
        fill: #7da75b;
      }

      .cls-2 {
        fill: #fff;
      }

      .cls-3 {
        fill: #f2ad6e;
      }

      .cls-4 {
        fill: #e0d3ad;
      }
    </style>
  </defs>
  <g id="top_middle_blobs" data-name="top middle blobs">
    <g>
      <ellipse class="cls-4" cx="349.12" cy="203.4" rx="201.83" ry="228.24" transform="translate(70 495.54) rotate(-76.53)"/>
      <circle class="cls-3" cx="85.75" cy="226.02" r="85.75"/>
      <circle class="cls-1" cx="281.64" cy="396.76" r="30.54"/>
      <circle class="cls-4" cx="127.51" cy="396.04" r="21.56"/>
      <path class="cls-2" d="M168.24,308.06c-5.79,0-5.8,9,0,9s5.8-9,0-9Z"/>
      <path class="cls-2" d="M187.55,308.06c-5.79,0-5.8,9,0,9s5.8-9,0-9Z"/>
      <path class="cls-2" d="M210.22,308.06c-5.79,0-5.8,9,0,9s5.8-9,0-9Z"/>
      <path class="cls-2" d="M234.57,308.06c-5.79,0-5.8,9,0,9s5.8-9,0-9Z"/>
      <path class="cls-2" d="M168.24,322.81c-5.79,0-5.8,9,0,9s5.8-9,0-9Z"/>
      <path class="cls-2" d="M187.55,322.81c-5.79,0-5.8,9,0,9s5.8-9,0-9Z"/>
      <path class="cls-2" d="M210.22,322.81c-5.79,0-5.8,9,0,9s5.8-9,0-9Z"/>
      <path class="cls-2" d="M234.57,322.81c-5.79,0-5.8,9,0,9s5.8-9,0-9Z"/>
      <path class="cls-2" d="M258.91,308.06c-5.79,0-5.8,9,0,9s5.8-9,0-9Z"/>
      <path class="cls-2" d="M278.22,308.06c-5.79,0-5.8,9,0,9s5.8-9,0-9Z"/>
      <path class="cls-2" d="M300.89,308.06c-5.79,0-5.8,9,0,9s5.8-9,0-9Z"/>
      <path class="cls-2" d="M325.24,308.06c-5.79,0-5.8,9,0,9s5.8-9,0-9Z"/>
      <path class="cls-2" d="M258.91,322.81c-5.79,0-5.8,9,0,9s5.8-9,0-9Z"/>
      <path class="cls-2" d="M278.22,322.81c-5.79,0-5.8,9,0,9s5.8-9,0-9Z"/>
      <path class="cls-2" d="M300.89,322.81c-5.79,0-5.8,9,0,9s5.8-9,0-9Z"/>
      <path class="cls-2" d="M325.24,322.81c-5.79,0-5.8,9,0,9s5.8-9,0-9Z"/>
      <path class="cls-2" d="M168.24,336.37c-5.79,0-5.8,9,0,9s5.8-9,0-9Z"/>
      <path class="cls-2" d="M187.55,336.37c-5.79,0-5.8,9,0,9s5.8-9,0-9Z"/>
      <path class="cls-2" d="M210.22,336.37c-5.79,0-5.8,9,0,9s5.8-9,0-9Z"/>
      <path class="cls-2" d="M234.57,336.37c-5.79,0-5.8,9,0,9s5.8-9,0-9Z"/>
      <path class="cls-2" d="M168.24,351.13c-5.79,0-5.8,9,0,9s5.8-9,0-9Z"/>
      <path class="cls-2" d="M187.55,351.13c-5.79,0-5.8,9,0,9s5.8-9,0-9Z"/>
      <path class="cls-2" d="M210.22,351.13c-5.79,0-5.8,9,0,9s5.8-9,0-9Z"/>
      <path class="cls-2" d="M234.57,351.13c-5.79,0-5.8,9,0,9s5.8-9,0-9Z"/>
      <path class="cls-2" d="M258.91,336.37c-5.79,0-5.8,9,0,9s5.8-9,0-9Z"/>
      <path class="cls-2" d="M278.22,336.37c-5.79,0-5.8,9,0,9s5.8-9,0-9Z"/>
      <path class="cls-2" d="M300.89,336.37c-5.79,0-5.8,9,0,9s5.8-9,0-9Z"/>
      <path class="cls-2" d="M325.24,336.37c-5.79,0-5.8,9,0,9s5.8-9,0-9Z"/>
      <path class="cls-2" d="M258.91,351.13c-5.79,0-5.8,9,0,9s5.8-9,0-9Z"/>
      <path class="cls-2" d="M278.22,351.13c-5.79,0-5.8,9,0,9s5.8-9,0-9Z"/>
      <path class="cls-2" d="M300.89,351.13c-5.79,0-5.8,9,0,9s5.8-9,0-9Z"/>
      <path class="cls-2" d="M325.24,351.13c-5.79,0-5.8,9,0,9s5.8-9,0-9Z"/>
    </g>
  </g>
</svg>