<?xml version="1.0" encoding="UTF-8"?>
<svg id="Layer_2" data-name="Layer 2" xmlns="http://www.w3.org/2000/svg" viewBox="0 0 630.34 636.86">
  <defs>
    <style>
      .cls-1 {
        fill: #64bcad;
      }

      .cls-2 {
        fill: none;
        stroke: #7da75b;
        stroke-miterlimit: 10;
        stroke-width: 5px;
      }

      .cls-3 {
        fill: #ffd040;
      }

      .cls-4 {
        fill: #fff;
      }

      .cls-5 {
        fill: #e2d6b7;
      }
    </style>
  </defs>
  <g id="top_left_blobs" data-name="top left blobs">
    <g>
      <path class="cls-5" d="M537.43,95.85c.27-9.28-7.92-19.03-16.97-20.78-8.8-1.7-20.81,1.69-24.55,10.83-4.72,11.55-9.97,22.86-15.75,33.9-4.06-.54-7.83-.1-11.18,1.17-24.37-55.33-74.74-99.57-139.83-115.16C221.06-20.07,113.34,42.85,88.55,146.35c-10.4,43.43-4.54,87.09,13.74,125.07-13.72,17.35-25.7,36.18-35.45,55.91-13.47,27.26-24.25,57.21-28.47,87.43-1.43,10.26-2.01,20.79-1.29,31.11-1.09-.12-2.25-.24-2.72-.31-2.37-.33-4.72-.72-7.08-1.13-16.4-2.88-31.19,11.1-26.35,27.94,10.07,35.05,42.57,54.86,75,66.2,34.63,12.11,73.42,16.94,109.83,11.82,37.07-5.21,70.74-19.43,99.5-43.5,13.14-11,24.37-24.34,33.41-38.89,3.17-5.11,5.91-10.42,8.34-15.87,9.02-11.99,16.17-25.33,21.21-40.16,3.72-10.94,5.96-22.28,8.24-33.59.14-.22.27-.44.41-.66.86-1.35,1.75-2.68,2.64-4,3.17-1.17,6.29-2.44,9.39-3.77,35.12-5.16,66.51-35.32,88.65-62.13,31.3-37.91,54.39-81.94,67.64-129.3,7.52-26.88,11.44-54.79,12.24-82.67Z"/>
      <path class="cls-3" d="M496.85,138.96c-2.23-3.11-7.44-.12-5.18,3.03,5.74,7.99,2.37,17.41-3.46,24.36-6.27,7.47-14.52,11.17-23.55,14.26-14.27,4.88-29.42,9.38-38.31,21.93,1.06-5.48,2.31-10.89,4.9-16,4.05-7.98,11.17-16.55,21.09-13.64,3.71,1.09,5.3-4.7,1.6-5.79-15.34-4.5-26.02,10.17-30.65,22.84-5.02,13.75-2.97,34.24-16.16,43.8-8.4,6.09-18.81,1.39-28.16,1.61-8.37.19-15.89,3.91-22.12,9.32-14.3,12.43-18.93,31.25-29.19,46.51-2.88,4.29-6.38,8.66-10.76,11.51-5.79,3.76-10.41,2.52-16.34-.16-7.51-3.39-14.83-4.33-22.58-1-18.16,7.79-23.7,27.2-26.67,44.99-2.83,16.9-6.54,41.51-26.25,47.03-9.99,2.8-19.47-3.55-29.45-3.39-5.36.09-10.48,1.82-14.83,4.95-10.38,7.48-15.84,20.15-21.75,31.07-5.66,10.46-12.84,23.87-26.21,24.73-3.83.25-3.86,6.25,0,6,24.23-1.56,31.31-31.2,42.88-47.8,2.99-4.28,6.63-8.44,11.35-10.84,7.74-3.94,15.65-1.05,23.57.8,17.15,4.01,30.94-5.29,38.52-20.51,8.96-18,5.56-40.1,15.91-57.45,4.69-7.86,12.85-15.34,22.45-15.79,9.4-.43,16.48,7.98,26.2,5.41,17.14-4.53,24.87-26.79,32.05-40.75,4.41-8.58,9.74-17.13,17.65-22.92,3.52-2.58,7.52-4.55,11.83-5.34,5.59-1.02,11.17.31,16.72.91,8.83.95,17.16-1.12,23.02-8.11.79-.94,1.51-1.93,2.18-2.95-.62,6-.85,12.05-1.17,17.94-.73,13.37-1.12,29.71-11.5,39.65-14.55,13.94-38.11,5.64-55.82,11.13-16.71,5.18-30.29,18.11-36.33,34.5-6.96,18.9-3.97,42.01-17.54,58.28-7.78,9.33-18.07,9.82-29.41,10.48-9.06.53-17.42,2.68-24.89,7.99-18.16,12.89-25.18,34.38-34.93,53.34-5.3,10.31-11.76,20.35-21.68,26.75-9.07,5.84-20.49,8.77-30.68,4.05-3.48-1.61-6.53,3.56-3.03,5.18,16.69,7.73,35.65-.11,47.39-13.04,14.51-15.98,19.49-37.75,31.36-55.41,5.66-8.42,13.15-16.42,22.77-20.24,10.61-4.21,22.35-1.35,33.07-4.98,18.77-6.35,24.81-27.31,27.7-44.82,1.82-11.04,3.18-22.53,8.64-32.49,4.92-8.97,12.67-16.23,21.78-20.83,9.56-4.82,19.71-5.33,30.22-5.46,10.15-.12,20.84-.35,29.8-5.74,27.18-16.35,15.09-56.6,23.51-81.98,3.21-9.66,9.6-16.86,18.66-21.51,9.9-5.08,20.98-7.3,31.15-11.76,15.25-6.67,32.66-26.93,20.64-43.64Z"/>
      <path class="cls-3" d="M377.46,192.42c-5.21,4.27-13.18,1.48-19.14.68-5.9-.79-11.9-.67-16.94,2.89-4.74,3.35-7.52,8.69-9.77,13.87-3.08,7.08-6.05,14.1-9.94,20.79-4.08,7.02-8.79,13.68-14.1,19.83-2.53,2.93-5.42,6.65-9.05,8.24-4.45,1.95-8.28-.41-12.1-2.57-11.62-6.59-23.6-4.9-33.63,4.01-11.08,9.85-14.15,25.21-18.37,38.73-4.92,15.75-12.77,30.8-23.34,43.52-4.4,5.29-11.46,12.54-19.08,9.54-4.84-1.9-7.78-7.02-10.47-11.16-5.28-8.14-11.47-16.75-22.44-14.97-13.29,2.16-24.53,14.53-29.82,26.25-5.57,12.34-6.55,26.49-1.57,39.18,1.39,3.55,7.2,2.01,5.79-1.6-4.63-11.81-3.83-25.02,1.82-36.37,2.75-5.53,6.54-10.52,11.27-14.5,4.99-4.19,13.11-9.45,19.74-6.29,8.64,4.11,11.29,15.99,18.47,21.97,9.37,7.81,20.5,2.97,28-4.94,10.1-10.64,17.75-24.14,23.31-37.63,5.81-14.12,7.38-31.38,17.17-43.54,4.41-5.47,11.04-10.06,18.23-10.54,7.19-.48,12.07,4.55,18.43,6.8,13.26,4.7,23.3-10.89,29.84-20,5.22-7.28,9.72-15.07,13.4-23.23,2.91-6.44,4.93-14.49,10.33-19.39,5.94-5.39,14.2-2.81,21.26-1.83,6.25.87,11.87.65,16.91-3.48,2.99-2.45-1.28-6.67-4.24-4.24Z"/>
      <path class="cls-3" d="M342.44,131.75c-1.94,23-27.18,33.21-45.41,41.01-9.82,4.21-19.64,8.74-27.77,15.82-8.59,7.48-13.71,17.65-19.86,27.03-6.06,9.25-14.5,18.17-26.3,18.83-13.1.74-15.16-11.83-22-19.92-12.8-15.15-35.9-9.93-48.78,1.98-8.86,8.19-14.83,19.16-19.92,29.95-5.98,12.67-10.61,25.9-13.92,39.51-.91,3.75,4.87,5.35,5.79,1.6,3.11-12.81,7.36-25.31,12.93-37.26,4.85-10.4,10.41-21,18.8-29.01,7.96-7.6,19.06-12.15,30.07-9.25,5.07,1.34,9.2,4.22,12.1,8.58,2.94,4.43,4.81,9.52,8.49,13.46,6.17,6.59,15.59,7.63,23.89,5.02,9.54-2.99,16.54-9.67,22.17-17.7,6.78-9.67,11.71-20.69,20.78-28.56,8.51-7.39,19.22-11.76,29.48-16.12,19.94-8.49,43.41-20.61,45.45-44.95.32-3.85-5.68-3.83-6,0Z"/>
      <path class="cls-3" d="M583.54,159.76c-21.97-9.3-40.94,11.43-49.75,29.5-8.72,17.87-13.58,45.77-35.18,52.92-11.54,3.82-23.78-.37-32.35,10.51-8.06,10.24-9.93,24.66-12.02,37.09-2.14,12.71-4.29,25.63-11.42,36.65-2.97,4.59-6.74,8.77-11.43,11.64-6.56,4.01-13.76,4.17-21.24,4.06-11.23-.17-21.18,1.58-29.92,9.03-7.73,6.58-12.77,15.94-16.06,25.4-8.41,24.17-2.57,50.52-10.29,74.8-1.79,5.62-4.69,14.76-11.07,16.6-3.33.96-7.01.23-10.38-.05-3.59-.3-7.12-.32-10.7.12-11.33,1.39-22.18,6.71-30.13,14.91-14.42,14.87-15.28,36.96-27,53.37-3.22,4.51-7.52,8.16-12.82,9.97-7.84,2.67-16.36.96-24.35.03-12.83-1.49-25.28.05-37.17,5.18-22.75,9.81-40.58,30.85-44.48,55.55-.6,3.78,5.18,5.4,5.79,1.6,3.61-22.79,19.51-42.05,40.44-51.4,10.63-4.75,22.07-6.35,33.61-5.14,11.82,1.24,24.17,3.59,34.77-3.39,16.13-10.62,18.85-32.63,26.81-48.75,5.3-10.74,13.67-19.26,25.04-23.49,5.46-2.03,11.25-3.02,17.08-2.79,5.75.22,11.79,1.79,17.28-.74,10.01-4.61,13.63-19.83,15.44-29.6,2.32-12.47,2.29-25.18,3.06-37.8,1.22-20.16,7.06-47.86,28.78-55.63,11.98-4.29,25.1.58,36.96-4.77,9.42-4.25,16.27-12.79,20.67-21.93,5.36-11.12,7.06-23.29,9.13-35.33,2-11.62,4.37-32.28,17.59-36.74,6.65-2.24,14.01-.91,20.78-2.81,4.92-1.38,9.37-3.94,13.24-7.23,8.63-7.33,13.93-18.02,18.3-28.24,4.89-11.43,8.54-23.19,16.19-33.2,7.75-10.14,20.38-20.41,33.8-14.73,3.51,1.49,6.58-3.68,3.03-5.18Z"/>
      <circle class="cls-5" cx="486.11" cy="398.89" r="14.75"/>
      <circle class="cls-1" cx="263.11" cy="607.17" r="29.69"/>
      <polygon class="cls-2" points="582.44 214.51 492.43 214.51 447.42 292.47 492.43 370.42 582.44 370.42 627.45 292.47 582.44 214.51"/>
      <polygon class="cls-2" points="571.86 232.84 503.01 232.84 468.59 292.47 503.01 352.09 571.86 352.09 606.29 292.47 571.86 232.84"/>
      <polygon class="cls-2" points="559.65 253.99 515.23 253.99 493.02 292.47 515.23 330.94 559.65 330.94 581.86 292.47 559.65 253.99"/>
      <path class="cls-4" d="M599.19,467.76c-13.23-14.84-35.33-21.21-54.44-15.63-19.82,5.79-30.19,23.68-41.67,39.28-7.37,10.01-15.95,18.29-27.93,22.39-12.12,4.14-25.01,5-37.54,7.24-16.12,2.88-34.92,10.54-43.27,25.26-.39.36-.73.82-1,1.41-5.12,11.13-8.38,22.79-9.5,35-.97,10.59-1.53,24.49,5.1,33.53,13,17.73,39.51,8.75,55.02.11,9.84-5.49,18.93-12.21,28.69-17.83,10.39-5.98,21.41-9.65,33.16-11.89,23.16-4.4,47.64-4.5,68.92-15.82,17.86-9.5,32.53-26.23,37.61-46.03,5.05-19.66.45-41.75-13.16-57ZM581.63,555.52c-16.42,13.28-37.3,16.54-57.61,19.28-20.83,2.81-40.37,6.54-58.61,17.52-16.94,10.19-37.57,28.83-59,24.52-13.31-2.68-14.15-15.6-13.95-26.98.16-9.03,1.66-17.99,4.38-26.57,1.09-.43,1.95-1.37,2.18-2.97,2.63-17.84,21.17-26.52,37.06-29.86,19.7-4.14,41.19-3.87,57.98-16.5,14.06-10.58,21.45-26.93,33.07-39.73,12.65-13.93,30.92-18.8,48.71-11.92,18.13,7.01,28.81,25.41,29.48,44.37.68,19.21-8.95,36.93-23.69,48.85Z"/>
    </g>
  </g>
</svg>