<svg width="175" height="138" viewBox="0 0 175 138" fill="none" xmlns="http://www.w3.org/2000/svg">
<g clip-path="url(#clip0_2121_401)">
<path d="M30.1132 1.95651L116.857 13.9543C136.24 16.6352 149.6 35.8095 146.699 56.7811L140.455 101.927C127.573 129.588 158.614 135.491 158.614 135.491C120.004 139.55 117.927 111.209 118.794 98.9305L48.5394 89.2134C24.2022 85.8473 7.42444 61.768 11.0665 35.4359L13.8512 15.3027C15.0198 6.85349 22.2982 0.875576 30.1132 1.95651Z" fill="#7DA75B"/>
<path d="M62.9255 26.3275C62.8002 27.233 62.0875 27.5958 60.7874 27.416L60.1058 27.298L59.3944 27.2233L58.28 27.0692C57.1347 26.9107 56.4326 26.9122 56.1736 27.0736C55.7759 27.3261 55.4711 28.2186 55.2591 29.7509C55.196 30.2075 55.3444 30.5316 55.7043 30.7234C56.0653 30.9074 56.9578 31.0979 58.3817 31.2948C59.8134 31.4928 60.5976 31.6683 60.7341 31.8213C60.8785 31.9753 60.9121 32.3309 60.835 32.8881C60.7579 33.4453 60.5295 33.7568 60.1497 33.8226C59.9554 33.8588 59.1386 33.7774 57.6992 33.5783C56.2675 33.3803 55.3632 33.3893 54.9863 33.6053C54.6182 33.8147 54.3517 34.5152 54.1869 35.707C54.0221 36.8988 54.1176 37.6336 54.4735 37.9116C54.8371 38.1906 55.878 38.4489 57.596 38.6865C59.314 38.9242 60.3475 39.1499 60.6965 39.3638C61.0532 39.5788 61.1925 39.9687 61.1144 40.5337C61.048 41.0135 60.6862 41.2631 60.0289 41.2826C59.1418 41.3098 57.6651 41.1805 55.5988 40.8947L54.3683 40.7245C52.7045 40.4944 51.6908 40.2398 51.3271 39.9608C50.8848 39.6235 50.7712 38.6772 50.9863 37.1217L51.2721 35.0554C51.4573 33.7166 51.6976 32.3499 51.993 30.9554C52.2884 29.5608 52.5319 28.1709 52.7235 26.7857C52.9162 25.3927 53.1778 24.5849 53.5082 24.3625C53.9433 24.0678 54.9193 24.0253 56.4361 24.2351L58.781 24.5594L59.1624 24.624L60.6847 24.8227C61.5902 24.948 62.2063 25.1121 62.5331 25.315C62.86 25.518 62.9908 25.8555 62.9255 26.3275ZM73.8334 40.0096C73.785 40.3026 73.7175 40.7626 73.6308 41.3894C73.5451 42.0085 73.4254 42.4179 73.2716 42.6174C73.1178 42.817 72.6811 42.867 71.9614 42.7674C71.2494 42.669 70.857 42.5122 70.7843 42.297C70.7192 42.083 70.752 41.5039 70.8826 40.5598L71.0324 39.22C71.0993 38.622 71.1746 38.0211 71.2581 37.4175C71.4839 35.7846 71.5066 34.6796 71.3261 34.1026C71.1457 33.5256 70.7885 33.2001 70.2545 33.1263C69.233 32.985 68.4968 33.2893 68.0461 34.0393C67.7609 34.5046 67.4738 35.782 67.1848 37.8715C66.8958 39.961 66.6365 41.1515 66.4068 41.4431C66.0827 41.8479 65.5337 41.9967 64.7598 41.8897C64.4812 41.8511 64.279 41.7167 64.1531 41.4863C64.036 41.2493 64.0337 40.7245 64.1461 39.9119L64.2203 39.4608L64.5398 37.1508C65.0568 33.4129 65.4019 31.3746 65.5749 31.0357C65.7568 30.6902 66.1766 30.5629 66.8344 30.6539C67.0202 30.6796 67.2759 30.7978 67.6017 31.0084C67.9274 31.2191 68.1677 31.3352 68.3225 31.3566C68.485 31.3791 68.9007 31.3104 69.5695 31.1505C70.2461 30.9917 70.8668 30.9514 71.4318 31.0295C72.0045 31.1087 72.6709 31.3941 73.431 31.8857C74.1988 32.3784 74.6099 32.6284 74.664 32.6359C74.7182 32.6434 74.9289 32.574 75.2962 32.4276L76.0985 32.1009C76.7196 31.8871 77.3745 31.8278 78.0633 31.9231C78.7521 32.0183 79.3244 32.271 79.7803 32.6811C80.244 33.0922 80.5743 33.5835 80.7713 34.155C81.0736 35.0486 81.0498 36.7607 80.6997 39.2913L80.4741 41.0938L80.3259 42.4219C80.2477 42.9868 80.1164 43.3946 79.9319 43.6451C79.7485 43.8879 79.4633 43.9825 79.0764 43.929C78.6972 43.8765 78.3695 43.7366 78.0934 43.5091C77.825 43.2827 77.6526 42.9039 77.5762 42.3728C77.4998 41.8417 77.581 40.7133 77.8197 38.9876C78.0594 37.2541 78.1119 36.1335 77.977 35.6259C77.7748 34.8644 77.2944 34.4312 76.536 34.3263C75.7776 34.2214 75.2421 34.4155 74.9294 34.9086C74.6255 35.395 74.3724 36.3695 74.1701 37.8321L73.9061 39.5701L73.8334 40.0096ZM85.8124 41.5009C85.7578 41.8955 85.9097 42.2517 86.268 42.5695C86.6262 42.8872 87.0337 43.0776 87.4903 43.1407L87.8269 43.1873C88.6085 43.2954 89.259 43.0975 89.7782 42.5936C90.0059 42.3727 90.1723 41.8831 90.2772 41.1247L90.308 40.987L90.3482 40.6968C90.4156 40.2092 90.1901 39.9296 89.6716 39.8579L88.7313 39.7278C87.88 39.6101 87.2063 39.6628 86.7101 39.886C86.2139 40.1092 85.9374 40.4258 85.8807 40.836L85.8213 41.2655C85.8218 41.376 85.8188 41.4544 85.8124 41.5009ZM90.6716 37.4172C90.829 36.2796 90.1918 35.6118 88.7601 35.4137C88.2339 35.3409 87.5622 35.3506 86.745 35.4426C85.9355 35.5357 85.4263 35.5678 85.2174 35.5389C85.0084 35.51 84.8294 35.3788 84.6803 35.1452C84.539 34.9127 84.4902 34.6378 84.5341 34.3205C84.6058 33.802 84.9716 33.4385 85.6314 33.2301C86.5548 32.9398 87.628 32.8792 88.8507 33.0484L89.1409 33.0885C91.1298 33.3636 92.4678 34.1244 93.1551 35.3709C93.4202 35.8493 93.5613 36.3972 93.5784 37.0148C93.5966 37.6246 93.5029 38.6724 93.2974 40.1582C93.093 41.6364 92.9998 42.6803 93.018 43.2901C93.0362 43.8999 93.0175 44.406 92.9618 44.8085C92.9072 45.2031 92.7897 45.4826 92.6092 45.647C92.4298 45.8036 92.0848 45.8465 91.574 45.7759C91.0632 45.7052 90.7181 45.6062 90.5385 45.4789C90.359 45.3515 90.1948 45.1987 90.0459 45.0203C89.9048 44.8431 89.784 44.7475 89.6833 44.7336C89.5827 44.7197 89.1158 44.8168 88.2826 45.0249C87.4504 45.2252 86.748 45.2858 86.1753 45.2066L85.8967 45.1681C84.7823 45.014 83.9544 44.5564 83.4129 43.7953C82.8725 43.0265 82.6687 42.1623 82.8014 41.2027L82.8801 40.6339C82.9433 40.1773 83.1308 39.734 83.4426 39.3039C84.3013 38.1135 86.0809 37.6498 88.7812 37.9128C89.7152 38.0026 90.2528 38.0217 90.394 37.9703C90.5363 37.9111 90.6288 37.7267 90.6716 37.4172ZM98.0332 31.0651C98.0693 30.9754 98.0996 30.8416 98.1242 30.6636C98.1489 30.4856 98.2669 30.3166 98.4783 30.1566C98.6985 29.9899 98.9944 29.9322 99.3658 29.9836L99.6841 29.9921L99.9511 30.029L100.008 30.0487L100.363 30.1333C100.392 30.1453 100.427 30.154 100.465 30.1593C101.023 30.2364 101.258 30.5845 101.173 31.2036L101.163 31.5334L101.126 31.8004L101.072 32.0178L101.002 32.2683C100.916 32.8874 100.363 33.1263 99.3411 32.985L99.2366 32.9706L99.1802 32.951L98.7787 32.8599C98.7411 32.8469 98.7068 32.8382 98.6759 32.8339C98.1264 32.7579 97.8902 32.4413 97.9673 31.8841C97.9625 31.8046 97.9623 31.7493 97.9665 31.7184L97.9722 31.5062L98.0332 31.0651ZM97.453 46.6363L97.1511 46.5946C96.5862 46.5165 96.2525 46.3914 96.1501 46.2195C95.9842 45.9363 95.9457 45.4736 96.0345 44.8312C96.1234 44.1889 96.2336 43.6205 96.365 43.1261C96.5043 42.6327 96.5798 42.3434 96.5915 42.2583L96.6449 41.9581C96.6588 41.8575 96.6727 41.7569 96.6866 41.6563L96.74 41.3561L96.9535 39.8122L97.0294 39.3494L97.1145 38.7342L97.1671 38.2683C97.181 38.1677 97.1949 38.067 97.2088 37.9664L97.239 37.663L97.194 35.764L97.2326 35.4854C97.2839 35.1139 97.3934 34.8924 97.5611 34.821C97.7364 34.7506 98.0717 34.7497 98.567 34.8182L99.0197 34.8808C99.7472 34.9814 100.149 35.242 100.225 35.6626C100.266 35.8812 100.16 36.9037 99.907 38.73C99.6544 40.5564 99.5199 41.6144 99.5035 41.9039C99.4882 42.1857 99.4913 42.6475 99.513 43.2894C99.5434 43.9245 99.5426 44.3582 99.5105 44.5904L99.4936 44.8838L99.4342 45.3133C99.3357 46.0252 99.1663 46.4514 98.9261 46.5917C98.6869 46.7242 98.1959 46.7391 97.453 46.6363ZM106.644 46.133L106.571 46.6554C106.493 47.2203 106.329 47.5525 106.079 47.6519C105.837 47.7447 105.426 47.751 104.846 47.6707L104.231 47.5856C103.116 47.4315 102.68 46.4799 102.922 44.7309L102.948 44.5452L103.123 43.7887C103.177 43.5675 103.206 43.4453 103.209 43.422L103.307 43.057C103.405 42.6367 103.492 42.148 103.569 41.5908L103.8 39.9192L103.87 39.5029L104.046 38.226L104.148 37.5775L104.324 36.3006L104.395 35.8727L104.572 34.5958L104.643 34.1679C104.73 33.5411 104.776 32.9757 104.783 32.4719C104.79 31.9681 104.818 31.5343 104.868 31.1705C104.92 30.7991 105.03 30.5461 105.198 30.4117C105.375 30.2706 105.688 30.2311 106.137 30.2931L106.753 30.3782C107.448 30.4823 107.801 30.7796 107.812 31.2701C107.813 31.4911 107.695 32.4567 107.459 34.167L107.417 34.3859C107.397 34.5252 107.378 34.6645 107.359 34.8038L107.318 35.0112C107.299 35.1505 107.28 35.2898 107.261 35.4291L107.161 36.0659L107.043 36.9133L107.001 37.1323L106.855 38.1886L106.813 38.4076L106.667 39.4639L106.567 40.1008L106.389 41.3893L106.298 42.2167C106.22 42.7816 106.261 43.5366 106.423 44.4817C106.591 45.4278 106.665 45.9782 106.644 46.133Z" fill="#E9D8A0"/>
<path d="M88.4982 49.5848L68.9686 46.8836C64.2752 46.2344 59.8951 49.5316 59.2494 54.1997L57.4022 67.5551C56.7573 72.2179 60.0773 76.5856 64.7707 77.2348L84.3002 79.936C88.9936 80.5851 93.3738 77.2879 94.0194 72.6198L95.8667 59.2644C96.5116 54.6016 93.1916 50.2339 88.4982 49.5848ZM87.8271 54.4368C87.8271 54.4368 87.8489 54.4399 87.8597 54.4414L76.8341 61.9462L68.2595 51.7304C68.2595 51.7304 68.2812 51.7334 68.2921 51.7349L87.8217 54.4361L87.8271 54.4368ZM65.4425 72.3773C65.2359 72.3487 65.0369 72.3046 64.8402 72.2443L71.9691 66.5049L69.6375 63.6465L62.3269 69.5373C62.2401 69.1229 62.2231 68.685 62.286 68.2306L64.1332 54.8752C64.1496 54.7562 64.1708 54.6434 64.1974 54.5313L74.4892 66.7983C75.3024 67.7708 76.7273 67.9678 77.774 67.2526L91.0091 58.2397C91.0042 58.3548 90.994 58.4692 90.9775 58.5882L89.1303 71.9435C89.0719 72.3655 88.9451 72.7614 88.7738 73.1181L83.2888 65.5292L80.2877 67.672L85.6703 75.1199C85.442 75.1269 85.2052 75.1162 84.9713 75.0839L65.4418 72.3827L65.4425 72.3773Z" fill="#E9D8A0"/>
</g>
<defs>
<clipPath id="clip0_2121_401">
<rect width="159.86" height="116.543" fill="white" transform="translate(15.9678) rotate(7.8748)"/>
</clipPath>
</defs>
</svg>
