<svg width="182" height="117" viewBox="0 0 182 117" fill="none" xmlns="http://www.w3.org/2000/svg">
<path d="M145.585 -1.24841e-06L58.0156 -8.90398e-06C38.4484 -1.06146e-05 22.587 17.163 22.587 38.3343L22.587 83.9095C31.5581 113.075 0.000157822 114.67 0.000157822 114.67C37.6907 123.98 43.6312 96.1907 44.4547 83.9095L115.378 83.9095C139.947 83.9095 159.865 62.356 159.865 35.7732L159.865 15.4484C159.865 6.91874 153.475 -5.58688e-07 145.585 -1.24841e-06Z" fill="#7DA75B"/>
<path d="M69.4676 23.1405C69.5402 24.0516 68.9224 24.5594 67.6141 24.6637L66.923 24.6953L66.2123 24.7755L65.0908 24.8649C63.9382 24.9568 63.2529 25.1094 63.0348 25.3227C62.7007 25.655 62.5952 26.5921 62.7182 28.1341C62.7548 28.5936 62.9695 28.8782 63.3623 28.988C63.7544 29.0899 64.667 29.0838 66.0999 28.9695C67.5407 28.8547 68.3442 28.8572 68.5105 28.9772C68.6846 29.0965 68.794 29.4366 68.8387 29.9973C68.8834 30.558 68.7274 30.9114 68.3707 31.0574C68.1888 31.1346 67.3736 31.2309 65.925 31.3464C64.4843 31.4613 63.6031 31.6648 63.2816 31.9569C62.9672 32.2406 62.8578 32.9821 62.9535 34.1814C63.0491 35.3807 63.3006 36.0778 63.708 36.2726C64.1232 36.4668 65.1952 36.4949 66.9241 36.3571C68.653 36.2192 69.7109 36.2172 70.0977 36.3509C70.4924 36.484 70.7123 36.8348 70.7577 37.4034C70.7962 37.8862 70.4966 38.2079 69.8589 38.3685C68.9984 38.586 67.5286 38.7776 65.4492 38.9434L64.211 39.0422C62.5366 39.1757 61.4918 39.1453 61.0766 38.9512C60.572 38.7171 60.2574 37.8174 60.1325 36.252L59.9667 34.1727C59.8593 32.8254 59.7997 31.439 59.788 30.0136C59.7762 28.5881 59.7147 27.1784 59.6036 25.7844C59.4918 24.3826 59.5733 23.5375 59.8481 23.2491C60.2096 22.8676 61.1535 22.616 62.6799 22.4943L65.0396 22.3062L65.426 22.2871L66.9554 22.1534C67.8666 22.0808 68.5036 22.1083 68.8665 22.2362C69.2293 22.364 69.4297 22.6654 69.4676 23.1405ZM83.0656 34.1531C83.0814 34.4496 83.1145 34.9133 83.1648 35.5441C83.2144 36.1672 83.1857 36.5927 83.0785 36.8207C82.9712 37.0487 82.5555 37.1915 81.8312 37.2493C81.1148 37.3064 80.6978 37.2378 80.5804 37.0434C80.4708 36.8483 80.3782 36.2758 80.3024 35.3256L80.1603 33.985C80.0969 33.3866 80.041 32.7837 79.9925 32.1763C79.8615 30.533 79.6458 29.4491 79.3453 28.9244C79.0448 28.3998 78.6259 28.1589 78.0886 28.2017C77.0606 28.2837 76.4072 28.7394 76.1285 29.5689C75.9502 30.0847 75.9449 31.3939 76.1125 33.4966C76.2802 35.5993 76.2833 36.8178 76.1218 37.152C75.8925 37.617 75.3884 37.8806 74.6096 37.9427C74.3292 37.965 74.1028 37.8773 73.9303 37.6794C73.7649 37.4731 73.6496 36.9612 73.5844 36.1434L73.5598 35.6869L73.3744 33.3623C73.0745 29.6008 72.9726 27.5359 73.0686 27.1678C73.1718 26.7912 73.5544 26.5765 74.2164 26.5237C74.4033 26.5088 74.6785 26.5692 75.042 26.7048C75.4055 26.8404 75.6651 26.902 75.8208 26.8895C75.9844 26.8765 76.3755 26.7199 76.9942 26.4198C77.6208 26.119 78.2183 25.946 78.7868 25.9007C79.3631 25.8547 80.0753 25.9899 80.9234 26.3063C81.7794 26.6221 82.2346 26.7778 82.2891 26.7735C82.3436 26.7691 82.5345 26.656 82.8616 26.434L83.5748 25.9421C84.1352 25.5996 84.762 25.4007 85.4552 25.3455C86.1483 25.2902 86.7616 25.4137 87.2951 25.716C87.8364 26.0177 88.2648 26.4263 88.5802 26.942C89.0678 27.7495 89.4131 29.4266 89.6162 31.9732L89.7839 33.782L89.9252 35.1109C89.9705 35.6794 89.93 36.1059 89.8038 36.3902C89.677 36.6668 89.4188 36.8206 89.0294 36.8517C88.6478 36.8821 88.2977 36.816 87.9791 36.6533C87.6683 36.49 87.4184 36.1572 87.2294 35.655C87.0405 35.1528 86.8767 34.0334 86.7383 32.2967C86.5992 30.5523 86.4091 29.4467 86.1682 28.98C85.8067 28.2799 85.2444 27.9603 84.4812 28.0212C83.7179 28.082 83.2367 28.3869 83.0376 28.9357C82.8455 29.4761 82.8082 30.4823 82.9255 31.9541L83.0419 33.7083L83.0656 34.1531ZM95.0847 33.0302C95.1164 33.4274 95.3413 33.7425 95.7596 33.9756C96.1779 34.2087 96.6168 34.307 97.0763 34.2703L97.4151 34.2433C98.2016 34.1806 98.7942 33.8473 99.1928 33.2434C99.3676 32.9787 99.4246 32.4647 99.3637 31.7015L99.3642 31.5604L99.3409 31.2683C99.3018 30.7777 99.0214 30.5532 98.4996 30.5948L97.5534 30.6702C96.6967 30.7385 96.0501 30.9351 95.6136 31.2599C95.1771 31.5847 94.9753 31.9534 95.0082 32.3662L95.0427 32.7984C95.067 32.9062 95.081 32.9834 95.0847 33.0302ZM98.9507 27.996C98.8594 26.8512 98.0934 26.3363 96.6527 26.4511C96.1231 26.4934 95.4692 26.6474 94.691 26.9132C93.9206 27.1784 93.4302 27.3194 93.22 27.3362C93.0097 27.3529 92.8066 27.2633 92.6107 27.0673C92.4226 26.8707 92.3159 26.6128 92.2904 26.2935C92.2488 25.7717 92.5277 25.338 93.1271 24.9924C93.9665 24.5101 95.0014 24.2199 96.2318 24.1218L96.5239 24.0985C98.5253 23.9389 99.9958 24.3938 100.935 25.4631C101.297 25.8731 101.553 26.3778 101.703 26.9772C101.852 27.5688 101.986 28.6122 102.105 30.1075C102.224 31.5949 102.358 32.6345 102.507 33.226C102.656 33.8176 102.746 34.3159 102.779 34.7209C102.81 35.1181 102.756 35.4163 102.615 35.6156C102.473 35.8072 102.146 35.9234 101.632 35.9644C101.118 36.0054 100.759 35.983 100.556 35.8973C100.354 35.8116 100.16 35.6977 99.9767 35.5556C99.8007 35.4129 99.6621 35.3456 99.5609 35.3536C99.4596 35.3617 99.0246 35.5571 98.2557 35.9397C97.4862 36.3145 96.8133 36.5249 96.237 36.5709L95.9566 36.5932C94.8352 36.6827 93.9281 36.4141 93.2355 35.7874C92.5423 35.153 92.1571 34.353 92.0801 33.3873L92.0345 32.8149C91.9979 32.3554 92.0855 31.8821 92.2975 31.395C92.8797 30.0476 94.5177 29.2116 97.2113 28.8871C98.1428 28.7736 98.6719 28.6766 98.7987 28.596C98.9249 28.5075 98.9755 28.3075 98.9507 27.996ZM104.772 20.2079C104.788 20.1126 104.789 19.9754 104.774 19.7963C104.76 19.6172 104.839 19.4267 105.011 19.2249C105.19 19.0147 105.467 18.8946 105.84 18.8648L106.153 18.8046L106.422 18.7832L106.481 18.7903L106.846 18.7964C106.878 18.8017 106.913 18.8028 106.952 18.7997C107.513 18.755 107.818 19.0442 107.868 19.6672L107.929 19.9915L107.95 20.2602L107.945 20.484L107.93 20.7438C107.98 21.3668 107.491 21.7193 106.463 21.8013L106.357 21.8096L106.298 21.8026L105.886 21.8002C105.847 21.7955 105.812 21.7944 105.78 21.7969C105.227 21.841 104.929 21.5826 104.884 21.0219C104.862 20.9453 104.85 20.8914 104.848 20.8602L104.807 20.6518L104.772 20.2079ZM107.558 35.5389L107.254 35.5631C106.686 35.6084 106.333 35.5582 106.196 35.4124C105.973 35.1715 105.836 34.7279 105.784 34.0815C105.733 33.4351 105.718 32.8564 105.74 32.3452C105.769 31.8334 105.781 31.5347 105.774 31.449L105.762 31.1443C105.753 31.0431 105.745 30.9419 105.737 30.8406L105.725 30.536L105.601 28.9823L105.575 28.5141L105.526 27.895L105.477 27.4286C105.469 27.3274 105.461 27.2262 105.453 27.1249L105.417 26.8221L104.964 24.9773L104.942 24.6969C104.912 24.3231 104.971 24.0833 105.12 23.9774C105.276 23.8709 105.603 23.7978 106.101 23.758L106.557 23.7217C107.289 23.6633 107.737 23.8314 107.902 24.2258C107.989 24.4304 108.106 25.4517 108.252 27.2897C108.399 29.1276 108.495 30.1897 108.541 30.476C108.587 30.7545 108.69 31.2048 108.849 31.8269C109.016 32.4406 109.108 32.8643 109.127 33.0979L109.173 33.3881L109.208 33.8203C109.265 34.5368 109.191 34.9894 108.987 35.1781C108.782 35.359 108.306 35.4793 107.558 35.5389ZM116.425 33.0685L116.467 33.5942C116.512 34.1627 116.423 34.5225 116.2 34.6735C115.984 34.8161 115.584 34.9107 115 34.9573L114.381 35.0066C113.26 35.096 112.629 34.2607 112.488 32.5007L112.473 32.3138L112.482 31.5372C112.487 31.3095 112.489 31.184 112.487 31.1606L112.504 30.7831C112.509 30.3516 112.489 29.8556 112.444 29.2948L112.31 27.6127L112.288 27.1912L112.186 25.9062L112.145 25.2511L112.043 23.9661L112.02 23.533L111.918 22.248L111.895 21.8148C111.845 21.184 111.768 20.6219 111.666 20.1284C111.564 19.635 111.499 19.2053 111.47 18.8392C111.44 18.4654 111.493 18.1947 111.628 18.0272C111.771 17.8512 112.068 17.7452 112.52 17.7092L113.139 17.6598C113.84 17.6117 114.249 17.826 114.366 18.3026C114.414 18.5182 114.507 19.4866 114.644 21.2077L114.65 21.4305C114.662 21.5707 114.673 21.7109 114.684 21.8511L114.689 22.0623C114.7 22.2025 114.711 22.3426 114.723 22.4828L114.762 23.1262L114.83 23.979L114.836 24.2019L114.921 25.2649L114.927 25.4878L115.012 26.5508L115.051 27.1943L115.155 28.4909L115.244 29.3185C115.289 29.887 115.492 30.6153 115.853 31.5035C116.222 32.3911 116.412 32.9128 116.425 33.0685Z" fill="#E9D8A0"/>
<path d="M99.4473 40.3461L79.7942 41.9131C75.0711 42.2897 71.5036 46.4526 71.8782 51.1503L72.9498 64.5902C73.3239 69.2824 77.5064 72.8329 82.2295 72.4563L101.883 70.8893C106.606 70.5127 110.173 66.3497 109.799 61.652L108.727 48.2122C108.353 43.5199 104.17 39.9695 99.4473 40.3461ZM99.8366 45.2288C99.8366 45.2288 99.8585 45.2271 99.8695 45.2262L90.7183 54.9289L80.1452 46.7989C80.1452 46.7989 80.1671 46.7972 80.178 46.7963L99.8311 45.2293L99.8366 45.2288ZM81.8398 67.5681C81.6318 67.5846 81.428 67.5845 81.2229 67.5679L86.9489 60.4282L84.0566 58.1389L78.1858 65.4655C78.0118 65.0795 77.9009 64.6556 77.8644 64.1983L76.7928 50.7584C76.7832 50.6387 76.7796 50.5239 76.7814 50.4087L89.473 60.1721C90.4766 60.9467 91.9105 60.8323 92.7786 59.9085L103.763 48.2574C103.783 48.3708 103.797 48.4847 103.807 48.6045L104.879 62.0443C104.912 62.4689 104.874 62.8829 104.783 63.2681L97.7931 57.0381L95.3237 59.7768L102.184 65.8912C101.962 65.9472 101.729 65.9877 101.493 66.0065L81.8402 67.5735L81.8398 67.5681Z" fill="#E9D8A0"/>
</svg>
