<svg width="177" height="121" viewBox="0 0 177 121" fill="none" xmlns="http://www.w3.org/2000/svg">
<path d="M14.3449 9.91132L138.013 1.90599C145.881 1.39446 152.842 9.4467 153.576 19.9134L157.182 71.3088C133.643 94.3724 163.315 109.73 163.315 109.73C129.942 109.551 124.359 90.1782 123.421 83.3224L108.483 88.6378C87.2084 96.2077 63.9724 96.4905 42.6227 89.1528C34.8844 86.4923 27.9865 83.2928 22.1524 79.6082C11.379 72.8064 4.46411 61.293 3.1929 48.6089L1.39747 30.6764C0.316965 19.8871 6.20601 10.4361 14.3449 9.91132Z" fill="#64BCAD"/>
<path d="M35.3926 31.3056C35.3026 30.7815 35.2404 30.3839 35.206 30.1126C35.1707 29.8336 35.1999 29.6291 35.2937 29.499C35.3875 29.369 35.8142 29.256 36.5737 29.1598C37.3333 29.0636 37.805 29.244 37.9889 29.7011C38.2282 30.285 38.5839 32.441 39.0561 36.169C39.5282 39.8971 39.9352 41.9914 40.277 42.4521C40.4664 42.7038 40.813 42.8292 41.3169 42.8284C41.8208 42.8276 42.8285 42.7315 44.3398 42.54C45.8512 42.3486 46.7019 42.2882 46.8919 42.3586C47.2303 42.4811 47.4388 42.8524 47.5173 43.4724L47.5497 43.7282C47.5929 44.0692 47.5642 44.3091 47.4636 44.4478C47.3631 44.5866 47.057 44.6883 46.5455 44.7531L44.9411 44.9563L44.6723 44.9785L43.8701 45.0801L42.5185 45.2277C40.2476 45.5153 38.9028 45.6541 38.4842 45.6441C38.0665 45.6419 37.7407 45.4941 37.5067 45.2009C37.2804 44.9067 36.8493 42.2484 36.2132 37.226L35.9796 35.6609C35.9472 35.4052 35.9148 35.1494 35.8824 34.8936L35.806 34.3835L35.644 33.1047L35.5909 32.5917C35.5693 32.4212 35.5477 32.2507 35.5261 32.0801L35.3926 31.3056ZM47.9108 28.858C47.9223 28.762 47.9167 28.6249 47.8942 28.4466C47.8716 28.2684 47.9415 28.0745 48.104 27.8649C48.2732 27.6466 48.5438 27.5139 48.9159 27.4668L49.2253 27.3921L49.4927 27.3583L49.5523 27.3625L49.9172 27.3518C49.9491 27.3556 49.9845 27.3551 50.0233 27.3501C50.5813 27.2795 50.8996 27.5542 50.9781 28.1742L51.0542 28.4953L51.0881 28.7627L51.0928 28.9865L51.0903 29.2467C51.1688 29.8668 50.6966 30.2416 49.6735 30.3712L49.5689 30.3844L49.5093 30.3801L49.0979 30.3968C49.0582 30.394 49.0228 30.3945 48.9918 30.3984C48.4415 30.4681 48.131 30.2239 48.0604 29.6659C48.0351 29.5903 48.0204 29.5371 48.0165 29.5061L47.9668 29.2998L47.9108 28.858ZM51.405 44.0432L51.1027 44.0815C50.5369 44.1531 50.1822 44.1193 50.0385 43.98C49.8046 43.7498 49.647 43.313 49.5655 42.6697C49.484 42.0264 49.4424 41.4489 49.4406 40.9373C49.4465 40.4246 49.4441 40.1257 49.4333 40.0404L49.4067 39.7367C49.3939 39.6359 49.3811 39.5352 49.3684 39.4344L49.3417 39.1307L49.1459 37.5844L49.0986 37.1179L49.0206 36.5018L48.9501 36.0382C48.9373 35.9374 48.9246 35.8367 48.9118 35.7359L48.8619 35.4351L48.324 33.6133L48.2887 33.3342C48.2416 32.9622 48.2896 32.7199 48.4329 32.6072C48.5839 32.4936 48.9074 32.4054 49.4034 32.3426L49.8568 32.2852C50.5854 32.1929 51.0411 32.3399 51.2239 32.7263C51.3201 32.9267 51.4841 33.9415 51.7157 35.7706C51.9474 37.5998 52.093 38.6563 52.1525 38.9401C52.2111 39.2162 52.3344 39.6612 52.5225 40.2753C52.7172 40.8806 52.8294 41.2995 52.8588 41.532L52.9189 41.8197L52.9733 42.2499C53.0636 42.963 53.0111 43.4185 52.8157 43.6165C52.6193 43.8067 52.149 43.949 51.405 44.0432ZM55.1205 33.4613C55.043 32.849 55.0486 32.427 55.1374 32.1952C55.2339 31.9625 55.534 31.8142 56.0378 31.7504C56.5494 31.6856 56.9322 31.7238 57.1863 31.8649C57.2367 31.89 57.36 31.9925 57.556 32.1724C57.7588 32.3436 57.9067 32.4233 57.9997 32.4115C58.1005 32.3988 58.3096 32.2778 58.6271 32.0486C59.4556 31.4397 60.1721 31.0969 60.7766 31.0204L61.3812 30.9438C61.947 30.8721 62.4931 30.925 63.0196 31.1025C64.0647 31.4584 64.783 32.1864 65.1743 33.2866C65.368 33.8212 65.5336 34.631 65.671 35.7161L66.135 38.634L66.5327 40.9343C66.5759 41.2753 66.5322 41.5211 66.4016 41.6715C66.2788 41.8209 65.9577 41.9285 65.4384 41.9943C64.6479 42.0944 64.1358 41.8442 63.9023 41.2438C63.7515 40.8613 63.5151 39.71 63.1932 37.7899C62.879 35.8688 62.6034 34.6871 62.3662 34.2446C61.6829 33.5752 60.9904 33.2061 60.2888 33.1375C59.3509 33.2563 58.7343 33.673 58.439 34.3876C58.215 34.92 58.1963 35.9225 58.3828 37.3951L58.4657 38.3296L58.6015 39.5881C58.7919 41.0917 58.8534 41.9817 58.786 42.2579C58.6667 42.7456 58.2039 43.0404 57.3979 43.1425C56.9018 43.2053 56.5781 43.1675 56.4267 43.0292C56.2744 42.8831 56.1751 42.628 56.129 42.2637L56.1023 41.9599C56.0631 41.6499 56.0243 41.3438 55.986 41.0415L55.7984 39.1871L55.5231 37.0131L55.4964 36.7093C55.4709 36.5078 55.4454 36.3063 55.4199 36.1048L55.2532 34.6021L55.228 34.31L55.1205 33.4613ZM72.8828 36.232C72.224 36.3155 71.9997 37.1865 72.2097 38.8451C72.3275 39.7752 72.2834 40.3911 72.0775 40.6928C71.8716 40.9945 71.4741 41.1826 70.8851 41.2572C70.3038 41.3308 69.9325 41.2597 69.7713 41.0439C69.6091 40.8203 69.4441 40.0459 69.2763 38.7205L69.1662 38.0375L69.0191 36.9694L68.6981 34.435L68.6641 34.0731L68.3873 31.8874C67.8553 27.6866 67.5921 25.515 67.5976 25.3725C67.6162 24.8347 68.0672 24.5098 68.9508 24.3979C69.3538 24.3469 69.6484 24.3726 69.8346 24.475C70.0276 24.5686 70.202 24.8261 70.3577 25.2474C70.5124 25.6609 70.7454 27.0962 71.0566 29.5531C71.3667 32.0023 71.673 33.2077 71.9752 33.1694C72.1845 33.1429 72.6899 32.5946 73.4915 31.5245C74.3008 30.4534 74.7408 29.8858 74.8115 29.8217C75.1849 29.4752 75.7321 29.2563 76.4529 29.165C77.1737 29.0737 77.5483 29.1404 77.5768 29.3652C77.6102 29.6287 77.2031 30.4875 76.3556 31.9414C75.5082 33.3953 75.0972 34.2231 75.1227 34.4246C75.1482 34.6261 75.4289 35.0079 75.9647 35.57C76.5073 36.1234 77.2436 36.9634 78.1738 38.0898C79.1039 39.2162 79.5754 39.8298 79.5882 39.9306C79.6196 40.1786 79.3601 40.3375 78.8098 40.4072L78.4843 40.4484C77.7635 40.5397 77.145 40.3818 76.6288 39.9746C76.3222 39.73 75.6951 39.0376 74.7475 37.8977C73.7989 36.7499 73.1773 36.1947 72.8828 36.232ZM87.8396 31.6801L87.8146 31.4824C87.737 30.8701 87.4703 30.4117 87.0143 30.1072C86.5584 29.8027 86.0437 29.6868 85.4701 29.7594L85.1795 29.7962C84.5052 29.8816 83.9683 30.1819 83.569 30.6971C83.1696 31.2123 83.0116 31.7993 83.0951 32.4581L83.1186 32.6441C83.1451 32.8534 83.4103 32.9261 83.9141 32.8623L84.507 32.7872L84.5753 32.7668L87.0252 32.3384L87.278 32.2827C87.6966 32.2297 87.8838 32.0288 87.8396 31.6801ZM87.2072 34.3352C84.7038 34.6523 83.4855 35.0743 83.5522 35.6014C83.6366 36.2679 83.9475 36.764 84.4849 37.0897C85.0222 37.4154 85.6629 37.5312 86.407 37.4369C87.1511 37.3427 87.8557 37.155 88.521 36.8739C89.1853 36.585 89.6375 36.4254 89.8778 36.3949C90.1258 36.3635 90.344 36.4383 90.5323 36.6192C90.7273 36.7913 90.8499 37.0751 90.8999 37.4704C90.949 37.8579 90.5728 38.3071 89.7713 38.8181C88.9775 39.3282 88.1311 39.6401 87.232 39.754L86.3833 39.8615C85.7168 39.9459 84.9943 39.8996 84.2159 39.7225C82.692 39.38 81.6286 38.5382 81.0256 37.1971C80.6872 36.4524 80.4679 35.6849 80.3678 34.8943L80.2971 34.3362C79.9379 31.4995 80.7041 29.5283 82.5958 28.4225C83.2996 28.0105 84.1243 27.7446 85.0699 27.6248C86.6742 27.4216 87.946 27.6701 88.8851 28.3701C89.2858 28.6738 89.6509 29.1315 89.9804 29.7434C90.3177 30.3543 90.5206 30.931 90.5893 31.4736L90.688 32.2525C90.7724 32.9191 90.5876 33.3874 90.1336 33.6575C89.6863 33.9189 88.7109 34.1448 87.2072 34.3352ZM95.6474 32.2387L95.6945 32.6107C95.8428 33.781 96.1256 34.6154 96.5431 35.1138C97.1004 35.7834 97.724 36.0746 98.4138 35.9872L98.8555 35.9313C99.6926 35.8253 100.279 35.3887 100.615 34.6217C100.811 34.1795 100.834 33.3616 100.682 32.168L100.523 30.9124C100.381 29.7886 100.139 29.0554 99.7959 28.7129C99.2999 28.2166 98.6373 28.021 97.808 28.126L97.6932 28.1524C96.0113 28.3654 95.3294 29.7275 95.6474 32.2387ZM104.114 35.7614C104.114 35.7614 104.115 35.7692 104.117 35.7847C104.23 36.676 103.818 37.181 102.88 37.2998C102.446 37.3548 102.162 37.3513 102.028 37.2895C101.901 37.219 101.766 37.118 101.623 36.9864C101.481 36.8549 101.374 36.7935 101.305 36.8023C101.243 36.8102 101.09 36.9083 100.846 37.0967C100.078 37.69 99.2955 38.0372 98.4972 38.1383L98.2298 38.1722C96.8424 38.3479 95.6868 38.0217 94.763 37.1937C93.8391 36.3658 93.2697 35.1031 93.0548 33.4057L92.9826 32.836C92.8658 31.9137 92.8876 30.9975 93.0479 30.0873C93.3197 28.5645 94.0083 27.4417 95.1138 26.719C95.652 26.3674 96.2156 26.1542 96.8046 26.0796C97.3937 26.005 97.9 25.9921 98.3235 26.0408C98.7471 26.0896 99.0092 26.1075 99.11 26.0948C99.3657 26.0624 99.5147 25.8703 99.5567 25.5185C99.6447 24.7828 99.6258 23.919 99.5002 22.9269C99.3746 21.9348 99.3939 21.2788 99.5581 20.9587C99.7223 20.6387 100.006 20.4531 100.409 20.4021L100.897 20.3403C101.44 20.2716 101.796 20.3485 101.966 20.5711C102.061 20.7008 102.141 21.0175 102.204 21.5213L102.25 21.7872C102.28 21.9645 102.312 22.1849 102.345 22.4484L102.463 23.3785L102.578 24.1909L102.715 25.2721L102.762 25.5496L103.14 28.5375L103.221 29.0824L103.465 31.0123L103.77 33.1354L103.868 33.9144L104.014 34.9709L104.114 35.7614ZM109.956 36.6517L109.316 36.7327C108.658 36.8161 108.191 36.7689 107.916 36.591C107.641 36.4054 107.455 35.929 107.357 35.1617C107.331 34.9524 107.364 34.4955 107.456 33.7908C107.554 33.0775 107.57 32.4534 107.502 31.9186L107.375 30.6353L107.072 28.2404C106.838 26.3958 106.684 25.2773 106.611 24.8849C106.537 24.4848 106.374 24.0054 106.122 23.4467C105.877 22.8793 105.737 22.4599 105.703 22.1886L105.678 21.991C105.599 21.371 105.675 20.9401 105.904 20.6984C106.14 20.4481 106.676 20.2699 107.513 20.1639L108.153 20.0829C108.649 20.0201 109.005 20.097 109.222 20.3137C109.437 20.5227 109.572 20.8442 109.627 21.2782C109.682 21.7122 109.672 22.253 109.596 22.9004C109.528 23.5391 109.533 24.1685 109.611 24.7885L110.004 27.8926L110.097 28.5306C110.421 31.0883 110.702 32.6867 110.94 33.3259C111.178 33.9573 111.319 34.4513 111.364 34.8078L111.389 35.0054C111.472 35.6565 111.395 36.0757 111.159 36.2631C110.93 36.4495 110.529 36.5791 109.956 36.6517ZM113.645 26.0495C113.568 25.4372 113.573 25.0151 113.662 24.7834C113.759 24.5507 114.059 24.4024 114.563 24.3386C115.074 24.2738 115.457 24.312 115.711 24.453C115.761 24.4782 115.885 24.5807 116.081 24.7606C116.284 24.9318 116.431 25.0115 116.524 24.9997C116.625 24.9869 116.834 24.866 117.152 24.6368C117.98 24.0278 118.697 23.6851 119.301 23.6085L119.906 23.532C120.472 23.4603 121.018 23.5132 121.544 23.6907C122.589 24.0465 123.308 24.7746 123.699 25.8748C123.893 26.4093 124.058 27.2192 124.196 28.3043L124.66 31.2222L125.057 33.5225C125.101 33.8635 125.057 34.1092 124.926 34.2597C124.803 34.4091 124.482 34.5167 123.963 34.5824C123.173 34.6826 122.661 34.4324 122.427 33.832C122.276 33.4495 122.04 32.2982 121.718 30.3781C121.404 28.457 121.128 27.2753 120.891 26.8328C120.208 26.1634 119.515 25.7943 118.813 25.7257C117.876 25.8444 117.259 26.2612 116.964 26.9758C116.74 27.5082 116.721 28.5106 116.908 29.9833L116.99 30.9177L117.126 32.1763C117.317 33.6799 117.378 34.5698 117.311 34.8461C117.191 35.3337 116.729 35.6286 115.923 35.7307C115.427 35.7935 115.103 35.7557 114.951 35.6174C114.799 35.4713 114.7 35.2162 114.654 34.8519L114.627 34.5481C114.588 34.2381 114.549 33.932 114.511 33.6297L114.323 31.7753L114.048 29.6012L114.021 29.2975C113.996 29.096 113.97 28.8945 113.945 28.693L113.778 27.1903L113.753 26.8981L113.645 26.0495Z" fill="#F0E5C3"/>
<path d="M96.5248 45.0394L69.7531 48.4299C68.1177 48.637 66.965 50.1319 67.1716 51.7629L70.5647 78.5557C70.772 80.1923 72.266 81.3462 73.8956 81.1398L100.667 77.7493C102.303 77.5422 103.455 76.0473 103.249 74.4164L99.8557 47.6236C99.6485 45.987 98.1545 44.8331 96.5248 45.0394ZM80.4893 75.7696C80.5494 76.2446 80.2149 76.6765 79.7403 76.7366L76.075 77.2008C75.6004 77.2609 75.1688 76.926 75.1086 76.4511L73.1627 61.0861C73.1026 60.6111 73.4371 60.1792 73.9117 60.1191L77.577 59.6549C78.0516 59.5948 78.4832 59.9297 78.5434 60.4047L80.4893 75.7696ZM75.5574 58.4339C73.6362 58.6772 71.878 57.3183 71.6338 55.3899C71.3896 53.4614 72.7477 51.7079 74.6747 51.4638C76.6017 51.2198 78.3541 52.5793 78.5983 54.5078C78.8426 56.4363 77.4844 58.1898 75.5574 58.4339ZM99.6419 73.4138C99.697 73.8487 99.3874 74.2484 98.9528 74.3035L95.0245 74.801C94.59 74.856 94.1905 74.5461 94.1354 74.1112L93.223 66.9065C93.0868 65.8307 92.9411 62.1571 89.819 62.5525C87.3946 62.8595 87.2181 65.4111 87.2622 66.5393L88.3152 74.8541C88.3703 75.289 88.0607 75.6887 87.6262 75.7437L83.8237 76.2253C83.3891 76.2803 82.9897 75.9704 82.9346 75.5355L80.9713 60.0332C80.9162 59.5983 81.2258 59.1986 81.6604 59.1436L85.4629 58.662C85.8974 58.607 86.2969 58.9169 86.3519 59.3518L86.5215 60.6909C87.2482 59.2267 88.4543 58.0157 91.2962 57.6558C97.5917 56.8585 98.2967 62.7463 98.7062 65.9796L99.6483 73.4188L99.6419 73.4138Z" fill="#F0E5C3"/>
</svg>
