<svg width="169" height="129" viewBox="0 0 169 129" fill="none" xmlns="http://www.w3.org/2000/svg">
<g clip-path="url(#clip0_2121_391)">
<path d="M140.497 1.80663L17.6384 18.0405C9.82123 19.0712 4.5618 28.3249 5.88007 38.7342L12.3533 89.8477C39.9332 107.885 13.8205 128.728 13.8205 128.728C46.5203 122.052 48.2231 101.963 47.8073 95.0559L63.4949 97.3601C85.8364 100.642 108.683 96.3935 128.194 85.0382C135.266 80.9214 141.409 76.4398 146.414 71.6894C155.656 62.9197 160.196 50.28 158.973 37.5912L157.241 19.6524C156.2 8.85927 148.583 0.736176 140.497 1.80663Z" fill="#64BCAD"/>
<path d="M38.0254 35.3456C37.9354 34.8215 37.8732 34.4238 37.8389 34.1525C37.8035 33.8735 37.8327 33.669 37.9265 33.539C38.0203 33.409 38.447 33.2959 39.2065 33.1997C39.9661 33.1035 40.4378 33.2839 40.6217 33.741C40.861 34.325 41.2168 36.4809 41.6889 40.209C42.161 43.937 42.568 46.0314 42.9099 46.4921C43.0992 46.7437 43.4459 46.8691 43.9497 46.8683C44.4536 46.8675 45.4613 46.7714 46.9726 46.58C48.484 46.3886 49.3347 46.3281 49.5247 46.3985C49.8631 46.521 50.0716 46.8923 50.1501 47.5124L50.1825 47.7681C50.2257 48.1092 50.197 48.349 50.0965 48.4878C49.9959 48.6265 49.6899 48.7283 49.1783 48.793L47.5739 48.9962L47.3051 49.0185L46.5029 49.1201L45.1513 49.2676C42.8804 49.5552 41.5356 49.694 41.117 49.684C40.6994 49.6818 40.3735 49.5341 40.1395 49.2408C39.9133 48.9466 39.4821 46.2883 38.846 41.2659L38.6124 39.7009C38.58 39.4451 38.5476 39.1893 38.5152 38.9335L38.4388 38.4235L38.2769 37.1446L38.2237 36.6316C38.2021 36.4611 38.1805 36.2906 38.1589 36.1201L38.0254 35.3456ZM50.5436 32.8979C50.5551 32.8019 50.5495 32.6648 50.527 32.4866C50.5044 32.3083 50.5743 32.1144 50.7368 31.9048C50.906 31.6865 51.1766 31.5538 51.5487 31.5067L51.8581 31.4321L52.1255 31.3982L52.1851 31.4025L52.55 31.3917C52.582 31.3955 52.6173 31.395 52.6561 31.3901C53.2141 31.3194 53.5324 31.5941 53.6109 32.2141L53.687 32.5352L53.7209 32.8026L53.7256 33.0265L53.7231 33.2867C53.8017 33.9067 53.3294 34.2815 52.3063 34.4111L52.2017 34.4243L52.1421 34.4201L51.7307 34.4367C51.691 34.4339 51.6556 34.4344 51.6246 34.4383C51.0743 34.508 50.7639 34.2639 50.6932 33.7058C50.6679 33.6303 50.6532 33.577 50.6493 33.546L50.5996 33.3397L50.5436 32.8979ZM54.0378 48.0831L53.7355 48.1214C53.1697 48.1931 52.815 48.1592 52.6714 48.0199C52.4375 47.7897 52.2798 47.3529 52.1983 46.7096C52.1168 46.0663 52.0752 45.4888 52.0734 44.9772C52.0793 44.4646 52.0769 44.1656 52.0661 44.0804L52.0395 43.7766C52.0267 43.6759 52.014 43.5751 52.0012 43.4744L51.9745 43.1706L51.7787 41.6244L51.7314 41.1579L51.6534 40.5417L51.5829 40.0781C51.5701 39.9774 51.5574 39.8766 51.5446 39.7759L51.4947 39.4751L50.9569 37.6532L50.9215 37.3742C50.8744 37.0021 50.9225 36.7598 51.0657 36.6472C51.2167 36.5336 51.5402 36.4453 52.0362 36.3825L52.4896 36.3251C53.2182 36.2328 53.6739 36.3799 53.8567 36.7662C53.9529 36.9666 54.1169 37.9814 54.3485 39.8106C54.5802 41.6397 54.7258 42.6962 54.7854 42.98C54.8439 43.2561 54.9673 43.7012 55.1553 44.3152C55.3501 44.9205 55.4622 45.3395 55.4916 45.572L55.5517 45.8597L55.6062 46.2898C55.6965 47.0029 55.6439 47.4584 55.4485 47.6564C55.2521 47.8467 54.7818 47.9889 54.0378 48.0831ZM57.7533 37.5012C57.6758 36.8889 57.6814 36.4669 57.7702 36.2351C57.8667 36.0024 58.1669 35.8542 58.6706 35.7904C59.1822 35.7256 59.565 35.7637 59.8191 35.9048C59.8696 35.9299 59.9928 36.0324 60.1888 36.2123C60.3916 36.3835 60.5395 36.4632 60.6325 36.4514C60.7333 36.4387 60.9424 36.3177 61.2599 36.0885C62.0884 35.4796 62.8049 35.1368 63.4094 35.0603L64.014 34.9837C64.5798 34.9121 65.1259 34.965 65.6524 35.1424C66.6976 35.4983 67.4158 36.2263 67.8071 37.3265C68.0008 37.8611 68.1664 38.6709 68.3038 39.756L68.7679 42.6739L69.1655 44.9742C69.2087 45.3153 69.165 45.561 69.0344 45.7114C68.9116 45.8608 68.5905 45.9684 68.0712 46.0342C67.2807 46.1343 66.7686 45.8842 66.5351 45.2837C66.3843 44.9012 66.1479 43.7499 65.826 41.8298C65.5118 39.9088 65.2362 38.727 64.999 38.2846C64.3157 37.6151 63.6233 37.2461 62.9216 37.1774C61.9838 37.2962 61.3672 37.7129 61.0718 38.4275C60.8478 38.9599 60.8291 39.9624 61.0156 41.435L61.0985 42.3695L61.2343 43.628C61.4247 45.1316 61.4862 46.0216 61.4188 46.2979C61.2995 46.7855 60.8368 47.0803 60.0307 47.1824C59.5347 47.2452 59.2109 47.2075 59.0596 47.0692C58.9072 46.9231 58.8079 46.6679 58.7618 46.3036L58.7351 45.9999C58.6959 45.6899 58.6571 45.3837 58.6188 45.0814L58.4312 43.227L58.1559 41.053L58.1292 40.7492C58.1037 40.5477 58.0782 40.3462 58.0527 40.1447L57.886 38.642L57.8608 38.3499L57.7533 37.5012ZM75.5156 40.272C74.8568 40.3554 74.6325 41.2264 74.8425 42.885C74.9603 43.8151 74.9162 44.431 74.7103 44.7327C74.5044 45.0344 74.1069 45.2226 73.5179 45.2972C72.9366 45.3708 72.5654 45.2997 72.4041 45.0838C72.242 44.8602 72.0769 44.0858 71.9091 42.7604L71.799 42.0774L71.6519 41.0093L71.3309 38.4749L71.2969 38.113L71.0201 35.9274C70.4881 31.7265 70.2249 29.5549 70.2305 29.4124C70.249 28.8746 70.7 28.5497 71.5836 28.4378C71.9866 28.3868 72.2812 28.4125 72.4674 28.5149C72.6604 28.6086 72.8348 28.8661 72.9905 29.2873C73.1453 29.7009 73.3782 31.1361 73.6894 33.593C73.9995 36.0422 74.3058 37.2477 74.608 37.2094C74.8173 37.1829 75.3227 36.6346 76.1243 35.5644C76.9337 34.4933 77.3736 33.9257 77.4443 33.8617C77.8178 33.5151 78.3649 33.2962 79.0857 33.2049C79.8065 33.1136 80.1811 33.1804 80.2096 33.4051C80.243 33.6687 79.8359 34.5274 78.9885 35.9813C78.141 37.4353 77.73 38.263 77.7555 38.4645C77.781 38.666 78.0617 39.0478 78.5975 39.61C79.1401 40.1634 79.8765 41.0033 80.8066 42.1297C81.7367 43.2562 82.2082 43.8698 82.221 43.9705C82.2524 44.2185 81.9929 44.3774 81.4426 44.4471L81.1171 44.4883C80.3963 44.5796 79.7778 44.4217 79.2616 44.0146C78.955 43.7699 78.3279 43.0776 77.3803 41.9376C76.4317 40.7899 75.8102 40.2347 75.5156 40.272ZM90.4724 35.72L90.4474 35.5224C90.3698 34.9101 90.1031 34.4517 89.6472 34.1472C89.1912 33.8426 88.6765 33.7267 88.1029 33.7993L87.8123 33.8362C87.138 33.9216 86.6012 34.2219 86.2018 34.737C85.8024 35.2522 85.6444 35.8392 85.7279 36.498L85.7514 36.6841C85.7779 36.8933 86.0431 36.9661 86.5469 36.9023L87.1398 36.8272L87.2081 36.8067L89.658 36.3783L89.9109 36.3227C90.3294 36.2697 90.5166 36.0688 90.4724 35.72ZM89.8401 38.3752C87.3366 38.6922 86.1183 39.1143 86.185 39.6413C86.2694 40.3078 86.5803 40.804 87.1177 41.1297C87.655 41.4554 88.2958 41.5711 89.0398 41.4769C89.7839 41.3826 90.4885 41.1949 91.1538 40.9138C91.8181 40.6249 92.2704 40.4653 92.5106 40.4349C92.7586 40.4035 92.9768 40.4782 93.1651 40.6591C93.3601 40.8313 93.4827 41.115 93.5327 41.5103C93.5818 41.8978 93.2056 42.3471 92.4041 42.8581C91.6103 43.3681 90.7639 43.68 89.8648 43.7939L89.0161 43.9014C88.3496 43.9858 87.6271 43.9395 86.8487 43.7624C85.3248 43.4199 84.2614 42.5781 83.6584 41.237C83.32 40.4924 83.1007 39.7248 83.0006 38.9342L82.93 38.3762C82.5707 35.5395 83.3369 33.5682 85.2286 32.4624C85.9324 32.0504 86.7571 31.7845 87.7027 31.6648C89.307 31.4616 90.5788 31.71 91.518 32.4101C91.9186 32.7137 92.2837 33.1714 92.6132 33.7833C92.9505 34.3942 93.1534 34.971 93.2222 35.5135L93.3208 36.2924C93.4052 36.959 93.2204 37.4273 92.7664 37.6974C92.3191 37.9588 91.3437 38.1847 89.8401 38.3752ZM98.2802 36.2786L98.3274 36.6506C98.4756 37.821 98.7584 38.6553 99.1759 39.1537C99.7332 39.8234 100.357 40.1145 101.047 40.0271L101.488 39.9712C102.325 39.8652 102.912 39.4287 103.248 38.6616C103.444 38.2194 103.466 37.4015 103.315 36.2079L103.156 34.9523C103.014 33.8285 102.771 33.0954 102.429 32.7529C101.933 32.2566 101.27 32.0609 100.441 32.166L100.326 32.1923C98.6441 32.4053 97.9622 33.7674 98.2802 36.2786ZM106.747 39.8013C106.747 39.8013 106.748 39.8091 106.75 39.8246C106.863 40.7159 106.45 41.221 105.512 41.3397C105.078 41.3947 104.795 41.3913 104.661 41.3295C104.534 41.2589 104.399 41.1579 104.256 41.0263C104.113 40.8948 104.007 40.8334 103.938 40.8423C103.876 40.8501 103.723 40.9482 103.479 41.1366C102.711 41.7299 101.928 42.0771 101.13 42.1782L100.863 42.2121C99.4752 42.3878 98.3196 42.0617 97.3958 41.2337C96.4719 40.4057 95.9025 39.143 95.6876 37.4456L95.6154 36.8759C95.4986 35.9536 95.5204 35.0374 95.6807 34.1272C95.9525 32.6044 96.6411 31.4817 97.7466 30.7589C98.2848 30.4073 98.8484 30.1942 99.4375 30.1196C100.027 30.045 100.533 30.032 100.956 30.0808C101.38 30.1295 101.642 30.1475 101.743 30.1347C101.999 30.1023 102.147 29.9102 102.19 29.5584C102.278 28.8228 102.259 27.9589 102.133 26.9668C102.007 25.9748 102.027 25.3187 102.191 24.9987C102.355 24.6786 102.639 24.4931 103.042 24.442L103.53 24.3802C104.073 24.3115 104.429 24.3884 104.599 24.611C104.694 24.7407 104.773 25.0575 104.837 25.5613L104.883 25.8272C104.913 26.0045 104.945 26.2249 104.978 26.4884L105.096 27.4184L105.211 28.2308L105.348 29.312L105.395 29.5895L105.773 32.5774L105.854 33.1223L106.098 35.0522L106.403 37.1754L106.501 37.9543L106.647 39.0108L106.747 39.8013ZM112.589 40.6916L111.949 40.7726C111.29 40.856 110.824 40.8088 110.549 40.631C110.274 40.4454 110.087 39.9689 109.99 39.2016C109.964 38.9923 109.996 38.5354 110.088 37.8308C110.187 37.1174 110.202 36.4933 110.135 35.9585L110.008 34.6753L109.704 32.2803C109.471 30.4357 109.317 29.3172 109.244 28.9249C109.17 28.5248 109.007 28.0454 108.755 27.4867C108.51 26.9192 108.37 26.4998 108.336 26.2286L108.31 26.0309C108.232 25.4109 108.307 24.98 108.537 24.7384C108.773 24.488 109.309 24.3098 110.146 24.2038L110.786 24.1228C111.282 24.06 111.638 24.1369 111.854 24.3536C112.07 24.5626 112.205 24.8841 112.26 25.3181C112.315 25.7522 112.305 26.2929 112.229 26.9403C112.16 27.579 112.165 28.2084 112.244 28.8284L112.637 31.9325L112.73 32.5705C113.054 35.1282 113.335 36.7266 113.573 37.3658C113.811 37.9972 113.952 38.4912 113.997 38.8477L114.022 39.0454C114.105 39.6964 114.028 40.1156 113.792 40.303C113.563 40.4895 113.162 40.619 112.589 40.6916ZM116.278 30.0894C116.201 29.4771 116.206 29.0551 116.295 28.8233C116.391 28.5906 116.692 28.4424 117.195 28.3785C117.707 28.3138 118.09 28.3519 118.344 28.493C118.394 28.5181 118.518 28.6206 118.714 28.8005C118.916 28.9717 119.064 29.0514 119.157 29.0396C119.258 29.0269 119.467 28.9059 119.785 28.6767C120.613 28.0678 121.33 27.725 121.934 27.6485L122.539 27.5719C123.105 27.5003 123.651 27.5532 124.177 27.7306C125.222 28.0865 125.941 28.8145 126.332 29.9147C126.526 30.4493 126.691 31.2591 126.829 32.3442L127.293 35.2621L127.69 37.5624C127.733 37.9035 127.69 38.1492 127.559 38.2996C127.436 38.449 127.115 38.5566 126.596 38.6224C125.805 38.7225 125.293 38.4723 125.06 37.8719C124.909 37.4894 124.673 36.3381 124.351 34.418C124.037 32.497 123.761 31.3152 123.524 30.8727C122.84 30.2033 122.148 29.8342 121.446 29.7656C120.508 29.8844 119.892 30.3011 119.597 31.0157C119.373 31.5481 119.354 32.5506 119.54 34.0232L119.623 34.9577L119.759 36.2162C119.949 37.7198 120.011 38.6098 119.944 38.8861C119.824 39.3737 119.361 39.6685 118.555 39.7706C118.059 39.8334 117.736 39.7957 117.584 39.6573C117.432 39.5113 117.333 39.2561 117.287 38.8918L117.26 38.5881C117.221 38.278 117.182 37.9719 117.144 37.6696L116.956 35.8152L116.681 33.6412L116.654 33.3374C116.628 33.1359 116.603 32.9344 116.577 32.7329L116.411 31.2302L116.386 30.9381L116.278 30.0894Z" fill="#F0E5C3"/>
<path d="M99.1586 49.0795L72.3869 52.47C70.7515 52.6771 69.5988 54.172 69.8053 55.8029L73.1985 82.5957C73.4058 84.2324 74.8998 85.3863 76.5294 85.1799L103.301 81.7894C104.936 81.5823 106.089 80.0874 105.883 78.4565L102.49 51.6637C102.282 50.027 100.788 48.8731 99.1586 49.0795ZM83.1231 79.8097C83.1832 80.2846 82.8487 80.7166 82.3741 80.7767L78.7088 81.2409C78.2342 81.301 77.8026 80.9661 77.7424 80.4911L75.7965 65.1261C75.7364 64.6512 76.0709 64.2193 76.5455 64.1591L80.2108 63.695C80.6854 63.6349 81.117 63.9698 81.1772 64.4447L83.1231 79.8097ZM78.1912 62.4739C76.27 62.7172 74.5118 61.3584 74.2676 59.4299C74.0234 57.5014 75.3815 55.7479 77.3085 55.5039C79.2355 55.2598 80.9879 56.6194 81.2321 58.5479C81.4764 60.4764 80.1182 62.2299 78.1912 62.4739ZM102.276 77.4539C102.331 77.8888 102.021 78.2885 101.587 78.3435L97.6583 78.841C97.2238 78.896 96.8243 78.5861 96.7692 78.1512L95.8568 70.9466C95.7206 69.8708 95.5748 66.1971 92.4528 66.5925C90.0284 66.8996 89.8519 69.4511 89.896 70.5793L90.949 78.8941C91.0041 79.3291 90.6945 79.7287 90.2599 79.7838L86.4575 80.2653C86.0229 80.3204 85.6234 80.0105 85.5684 79.5756L83.6051 64.0733C83.55 63.6384 83.8596 63.2387 84.2942 63.1836L88.0966 62.7021C88.5312 62.647 88.9307 62.9569 88.9857 63.3919L89.1553 64.7309C89.882 63.2667 91.0881 62.0558 93.93 61.6959C100.226 60.8986 100.931 66.7864 101.34 70.0196L102.282 77.4589L102.276 77.4539Z" fill="#F0E5C3"/>
</g>
<defs>
<clipPath id="clip0_2121_391">
<rect width="156" height="110" fill="white" transform="translate(0 19.5999) rotate(-7.21775)"/>
</clipPath>
</defs>
</svg>
