<?xml version="1.0" encoding="UTF-8"?>
<svg id="Layer_2" data-name="Layer 2" xmlns="http://www.w3.org/2000/svg" viewBox="0 0 762.17 1102.49">
  <defs>
    <style>
      .cls-1 {
        fill: #141d23;
      }

      .cls-2 {
        fill: #64bcad;
      }

      .cls-3, .cls-4, .cls-5 {
        fill: #22303a;
      }

      .cls-4 {
        stroke: #000;
      }

      .cls-4, .cls-6, .cls-7, .cls-5 {
        stroke-miterlimit: 10;
      }

      .cls-4, .cls-5 {
        stroke-width: 1.63px;
      }

      .cls-8 {
        fill: #7da75b;
      }

      .cls-9 {
        fill: #597240;
      }

      .cls-6 {
        stroke-width: 4px;
      }

      .cls-6, .cls-7 {
        fill: none;
      }

      .cls-6, .cls-5 {
        stroke: #22303a;
      }

      .cls-10 {
        fill: #fff;
      }

      .cls-7 {
        stroke: #f2ad6e;
        stroke-width: 4.9px;
      }

      .cls-11 {
        fill: #f2ad6e;
      }

      .cls-12 {
        fill: #f7d25d;
      }

      .cls-13 {
        fill: #b5e8de;
      }

      .cls-14 {
        fill: #32424c;
      }
    </style>
  </defs>
  <g id="Layer_23" data-name="Layer 23">
    <g>
      <g>
        <path class="cls-2" d="M425.07,365.23h-33.61c-2.19-3.52-2.36-7.83-2.05-12.07.09-.18.19-.36.29-.54,1.65-2.85,5.19-4.47,8.96-4.83-.02.11-.04.22-.06.34-.69,4.81.56,10.45,5.13,12.99,3.84,2.13,9.24,1.35,11.42-2.75,2.37-4.44-.09-9.65-3.96-12.24-1.75-1.17-3.78-2.01-5.91-2.53,3.96-6.52,11.97-6.28,18.73-5.93,3.15.17,3.14-4.73,0-4.9-5.77-.3-12.1-.48-17.26,2.59-2.98,1.77-5.23,4.48-6.64,7.6-2-.03-3.98.2-5.82.66-10.71,2.73-11.21,12.37-11.16,21.61h-35.29c-75.75,0-137.73,61.98-137.73,137.73v115.79c0,5.39,4.41,9.79,9.79,9.79h333.1c5.39,0,9.79-4.41,9.79-9.79v-115.79c0-75.75-61.98-137.73-137.73-137.73ZM403.53,348.01c2.59.51,4.92,1.65,6.41,3.44,1.83,2.19,1.6,6.11-2,5.93-1.73-.09-3-1.28-3.8-2.69-1.09-1.92-1.13-4.38-.61-6.68Z"/>
        <path class="cls-2" d="M201.48,863.48c6.73,5.46,17.97,2.73,25.78.78,8.38-2.09,21.07-5.42,25.15-14.06,1.17-.26,2.34-.53,3.52-.78,3.31-.72,6.62-1.15,9.92-1.43-.48-1.42-.93-2.85-1.4-4.27,1.05-1.07,1.62-2.62,1.22-4.54-.49-2.34-2.09-3.59-3.89-3.95-1.6-5.27-3.13-10.55-4.6-15.82-.76-2.73-1.49-5.46-2.21-8.19-12.9-11.81-24.1-25.32-35.51-38.6-2.74-3.19-5.49-6.36-8.38-9.42-1.32-1.39-2.66-2.73-4.1-4-1.19-1.05-2.4-2.09-3.61-3.13-3.37-2.65-2.38-1.97-1.4-1.19-.01-.01-.03-.02-.04-.04-3.02-2.53-6.08-5-9.18-7.42-2.15-.2-4.3-.31-6.47-.29-1.72.23-3.43.53-5.13.91-5.99,1.35-11.76.04-16.45-3-4.29,10.3-2.44,26.51,13.28,52.03,0,0-4.16,34.09-22.95-1.65,0,0-8.1,53.55,32.72,48.46-4.34.81-16.8,5.01-9.94,26.5,0,0,4.07-10.32,23.67-6.9Z"/>
        <path class="cls-2" d="M210.11,618.75s-1.51,109.41-60.97,108.02c0,0,25.54,30.02,69.05-5.53,0,0-29.11,71.9,0,99.55,0,0-18.31,68.04,63.21,38.71,0,0,32.51,11.06-6.32,22.12,0,0,51.93,19.36,54.25-23.5,0,0-3.12,19.36,23.8,16.59,0,0-15.62-10.26,9.79-44.54,25.42-34.27,10.03-103.4,10.03-103.4l-162.83-108.02Z"/>
        <path class="cls-2" d="M552.07,580.09s57.61,91.34,40.59,154.77c0,0-10.59-45.89-25.3-56.39,0,0,49.87,96.98,5.2,144.94,0,0-11.33,35.9-48.46,52.91,0,0,.93-14.64-17.83-23.75,0,0-4.34-12.15,7.09,18.8,0,0-42.12,5.36-32.51-16.3,0,0-10.91,42.12-53.13,22.49,0,0,28.58,10.85-18.67-39.36-47.25-50.21-41.07-107-41.07-107l176.3-143"/>
        <path class="cls-9" d="M406.77,890.18L113.76,423.74s-62.43,53-77.99,42.53c-15.56-10.47,261.78,508.61,261.78,508.61,0,0,97.1-50.51,109.22-84.7Z"/>
        <path class="cls-8" d="M252.81,1099.9c0,.89.11,1.75.3,2.59h277.74l17.91-172.18c4.46-42.91-14.48-85.27-50.2-109.46-18.62-12.61-41.04-19.99-65.09-19.99h-76.8c-19.91,0-38.81,4.52-55.72,12.59-51.63,24.63-80.34,80.88-71.48,137.4l23.36,149.05Z"/>
        <path class="cls-11" d="M435.36,802.28c-1.51,14.32-6.28,28.07-14.05,40.22-3.93,6.16-8.65,11.82-13.95,16.85-5.96,5.66-13.1,11.53-21.59,12.29-.03,0-.05.01-.07.01-11.7-6.44-22.12-15.02-30.66-25.31-8.72-10.5-17.64-28.98-17.54-43.39-1.3.23-2.61.44-3.93.53-.1.04-.21.08-.31.12-.22.08-.43.16-.65.21.11,15.16,9.22,34.19,18.33,45.2,9.19,11.09,20.3,20.35,32.96,27.23l.51,10.6c-1.88.05-3.76.13-5.64.29-3.13.27-2.91,5.16.24,4.89,1.88-.16,3.76-.25,5.64-.29l.63,13.05c.15,3.15,5.04,2.92,4.89-.24l-.62-12.82c1.77.04,3.54.12,5.32.26,3.13.25,2.87-4.64-.24-4.89-1.77-.14-3.55-.22-5.32-.26l-.52-10.73c14.53-2.8,26.84-16.75,34.78-28.23,9.2-13.3,14.96-28.78,16.6-44.86-1.61-.26-3.18-.78-4.81-.75Z"/>
        <path class="cls-10" d="M364,744h44.92c6,0,10.87,4.87,10.87,10.87v41.97c0,18.4-14.94,33.33-33.33,33.33h0c-18.4,0-33.33-14.94-33.33-33.33v-41.97c0-6,4.87-10.87,10.87-10.87Z"/>
        <path class="cls-12" d="M354.22,778.09c2.23.72,4.51,1.28,6.8,1.72.7.13,1.41.25,2.11.36.1.01.19.02.31.04,1.19.11,2.37.23,3.56.32,10.48.75,21.68,1,32.14.04.38-.03.75-.08,1.13-.12.2-.03.48-.08.87-.14,1.14-.23,2.28-.43,3.41-.7,2.53-.59,4.95-1.41,7.4-2.25.22-.08.4-.14.55-.19.1-.05.2-.09.32-.15,1.12-.53,2.24-1.06,3.34-1.62,1.23-.63,2.44-1.31,3.63-2v-19.59c0-5.39-4.41-9.79-9.79-9.79h-47.08c-5.39,0-9.79,4.41-9.79,9.79v23.9c.36.13.73.26,1.09.38Z"/>
        <path class="cls-3" d="M356.45,773.48c1.08-.05,2.15-.11,3.22-.2.12-.01.91-.09,1.41-.13.58-.1,2.16-.35,2.36-.39.91-.18,1.81-.38,2.71-.6,2.17-.54,4.29-1.22,6.39-1.97,4.09-1.48,8.17-3.03,12.19-4.68.38-.16,2.51-1.08,4.12-1.83,2.16-1,4.3-2.07,6.39-3.2,1.9-1.03,3.77-2.12,5.6-3.27.79-.5,1.58-1.01,2.34-1.56.07-.05.11-.08.16-.11.18-.16.41-.37.74-.66,3.56-3.15,7.03-6.52,10.73-9.58-1.43-.82-3.07-1.29-4.83-1.29h-47.08c-5.39,0-9.79,4.41-9.79,9.79v19.78c1.11-.02,2.22-.04,3.32-.09Z"/>
        <g id="face">
          <g>
            <path class="cls-10" d="M311.11,633.4c-13.23,27.12-45.94,38.38-73.05,25.15-27.12-13.23-38.38-45.94-25.15-73.05,13.23-27.12,37.75-21.6,64.87-8.37s46.56,29.16,33.33,56.28Z"/>
            <path class="cls-12" d="M211.93,585.47c6.57-13.46,15.92-18.88,27-19.3v93.2c-.62-.27-1.24-.55-1.85-.85-27.12-13.23-38.38-45.94-25.15-73.05Z"/>
            <path class="cls-3" d="M262.85,633.26c-1.87-8.43-4.63-16.64-8.22-24.49-3.46-7.57-7.63-15.01-12.81-21.54-2.8-3.53-6.04-6.7-9.86-9.11-.89-.56-1.71.85-.82,1.41,6.76,4.26,11.47,10.96,15.54,17.68,4.37,7.21,7.97,14.87,10.74,22.83,1.56,4.47,2.84,9.03,3.87,13.66.23,1.03,1.8.59,1.57-.43Z"/>
          </g>
          <path class="cls-10" d="M248.82,442.98h275.29v177.15c0,76.4-62.03,138.43-138.43,138.43h-9.82c-70.12,0-127.04-56.93-127.04-127.04v-188.53h0Z"/>
          <path class="cls-10" d="M474.36,625.66c13.23,27.12,45.94,38.38,73.05,25.15s38.38-45.94,25.15-73.05c-13.23-27.12-37.75-21.6-64.87-8.37-27.12,13.23-46.56,29.16-33.33,56.28Z"/>
          <path class="cls-12" d="M573.53,577.72c-6.57-13.46-15.92-18.88-27-19.3v93.2c.62-.27,1.24-.55,1.85-.85,27.12-13.23,38.38-45.94,25.15-73.05Z"/>
          <path class="cls-3" d="M524.13,625.52c1.87-8.43,4.63-16.64,8.22-24.49,3.46-7.57,7.63-15.01,12.81-21.54,2.8-3.53,6.04-6.7,9.86-9.11.89-.56,1.71.85.82,1.41-6.76,4.26-11.47,10.96-15.54,17.68-4.37,7.21-7.97,14.87-10.74,22.83-1.56,4.47-2.84,9.03-3.87,13.66-.23,1.03-1.8.59-1.57-.43Z"/>
        </g>
        <g id="eyebrows">
          <path class="cls-4" d="M337.07,545.77c-16.91-1.89-34.4-3.77-51.02,1.07-4.37,1.27-8.62,3.02-12.59,5.26-1.37.77-.14,2.89,1.24,2.11,14.41-8.14,31.43-8.74,47.53-7.49,4.95.39,9.89.94,14.83,1.49,1.56.17,1.55-2.28,0-2.45Z"/>
          <path class="cls-5" d="M408.8,545.47c16.91-1.89,34.4-3.77,51.02,1.07,4.37,1.27,8.62,3.02,12.59,5.26,1.37.77.14,2.89-1.24,2.11-14.41-8.14-31.43-8.74-47.53-7.49-4.95.39-9.89.94-14.83,1.49-1.56.17-1.55-2.28,0-2.45Z"/>
        </g>
        <g id="blush">
          <path class="cls-12" d="M300.68,644.45v27.59c0,1.58,2.45,1.58,2.45,0v-27.59c0-1.58-2.45-1.58-2.45,0Z"/>
          <path class="cls-12" d="M285.11,643.9l-12.89,24.4c-.74,1.39,1.43,2.54,2.17,1.14l12.89-24.4c.74-1.39-1.43-2.54-2.17-1.14Z"/>
          <path class="cls-12" d="M316.44,645.76l8.14,26.37c.46,1.51,2.81.79,2.34-.72l-8.14-26.37c-.46-1.51-2.81-.79-2.34.72Z"/>
          <path class="cls-12" d="M451.74,644.45v27.59c0,1.58,2.45,1.58,2.45,0v-27.59c0-1.58-2.45-1.58-2.45,0Z"/>
          <path class="cls-12" d="M436.17,643.9l-12.89,24.4c-.74,1.39,1.43,2.54,2.17,1.14l12.89-24.4c.74-1.39-1.43-2.54-2.17-1.14Z"/>
          <path class="cls-12" d="M467.5,645.76l8.14,26.37c.46,1.51,2.81.79,2.34-.72l-8.14-26.37c-.46-1.51-2.81-.79-2.34.72Z"/>
          <path class="cls-12" d="M378.13,616.21v30.56c0,1.58,2.45,1.58,2.45,0v-30.56c0-1.58-2.45-1.58-2.45,0Z"/>
          <path class="cls-12" d="M385.5,621.39v29.2c0,1.58,2.45,1.58,2.45,0v-29.2c0-1.58-2.45-1.58-2.45,0Z"/>
          <path class="cls-12" d="M370.49,622.48v29.74c0,1.58,2.45,1.58,2.45,0v-29.74c0-1.58-2.45-1.58-2.45,0Z"/>
        </g>
        <g id="glasses">
          <circle class="cls-7" cx="310.16" cy="615.02" r="55.14"/>
          <circle class="cls-7" cx="446.12" cy="612.17" r="55.14"/>
          <path class="cls-11" d="M392.61,611.05c-8.92-4.4-19.31-3.91-27.63,1.64-2.61,1.74-.16,5.98,2.47,4.23,6.81-4.54,15.3-5.28,22.69-1.64,2.82,1.39,5.3-2.83,2.47-4.23Z"/>
        </g>
        <path class="cls-11" d="M540.15,643.4c-1.54-2.75-5.77-.29-4.23,2.47,8.2,14.68,14.33,33.54,5.79,49.47-3.51,6.54-9.02,11.9-15.68,15.21-8.12,4.03-19.95,5.35-25.45-3.46-.44-.7-1.05-1.03-1.69-1.11-.08.1-.17.2-.26.29-.1.11-.17.21-.26.37-.2.34-.44.65-.69.96-.24.3-.43.52-.65.82-.21.29-.42.58-.66.84-.02.06-.04.12-.09.17.02.04.04.08.07.13,11.49,18.38,37.49,5.81,47.12-7.77,12.7-17.9,6.53-40.78-3.32-58.4Z"/>
        <path class="cls-11" d="M555.16,638.75c-.74.05-1.29.36-1.69.8-1.58.51-2.96,1.65-3.65,3.48-1.98,5.24,3.86,12.52,9.4,9.49,6.25-3.41,2.98-14.23-4.06-13.77Z"/>
        <path class="cls-11" d="M236.84,642.91c1.54-2.75,5.77-.29,4.23,2.47-8.2,14.68-14.33,33.54-5.79,49.47,3.51,6.54,9.02,11.9,15.68,15.21,8.12,4.03,19.95,5.35,25.45-3.46.44-.7,1.05-1.03,1.69-1.11.08.1.17.2.26.29.1.11.17.21.26.37.2.34.44.65.69.96.24.3.43.52.65.82.21.29.42.58.66.84.02.06.04.12.09.17-.02.04-.04.08-.07.13-11.49,18.38-37.49,5.81-47.12-7.77-12.7-17.9-6.53-40.78,3.32-58.4Z"/>
        <path class="cls-11" d="M221.78,638.75c.74.05,1.29.36,1.69.8,1.58.51,2.96,1.65,3.65,3.48,1.98,5.24-3.86,12.52-9.4,9.49-6.25-3.41-2.98-14.23,4.06-13.77Z"/>
        <path class="cls-2" d="M386.46,480.54s49.72,77.88,113.05,77.88v24.16s4.62-11.49,25.25-20.42l5.63-135.12H233.65v139.13s21.37-2.1,23.8,20.91l11.5-28.65s82.53-13.65,117.51-77.88Z"/>
        <path class="cls-2" d="M386.46,480.54s-4.43,77.88-99.06,89.71c0,0,82.52-52.98,58.77-73.36-27.9-23.95,40.29-16.35,40.29-16.35Z"/>
        <path class="cls-13" d="M505.81,538.82c-11.52-4.57-22.33-10.94-31.94-18.77-9.58-7.81-18-17.05-24.8-27.37-4.12-6.26-8.05-13.16-8.26-20.84-.03-1.05-1.66-1.05-1.63,0,.19,6.96,3.27,13.35,6.88,19.16,3.35,5.4,7.16,10.52,11.32,15.33,8.29,9.57,18.06,17.86,28.84,24.49,6.09,3.75,12.51,6.94,19.16,9.58.98.39,1.4-1.19.43-1.57Z"/>
        <path class="cls-13" d="M356.4,473.9c-.93,6.95-6.96,11.83-12.05,15.99-6.48,5.29-13.18,10.3-19.95,15.2-12.4,8.97-24.9,18.36-38.77,24.97-7.56,3.6-15.62,6.23-23.97,7.06-1.04.1-1.05,1.74,0,1.63,15.39-1.53,29.3-8.83,42.04-17.2,6.77-4.45,13.36-9.18,19.94-13.91,6.9-4.96,13.73-10.04,20.35-15.37,5.99-4.83,12.96-10.22,14.05-18.38.14-1.04-1.5-1.03-1.63,0Z"/>
        <path class="cls-13" d="M569.23,782.54c-3.41-13.22-9.54-25.72-17.97-36.47-4.73-6.03-10.2-11.45-16.27-16.13-.83-.64-1.64.78-.82,1.41,10.59,8.17,19.21,18.75,25.4,30.59,6.16,11.79,9.94,24.86,10.88,38.14.53,7.5.16,15.05-1.17,22.45-.18,1.03,1.39,1.47,1.57.43,2.41-13.4,1.76-27.25-1.64-40.42Z"/>
        <path class="cls-2" d="M536.88,807.7c-.59-1.42-2.38-5.41,0,0h0Z"/>
        <path class="cls-2" d="M599.86,738.22c-3.08,1.52-6.17,3.01-9.23,4.53-3.82,1.9-8.12,3.12-11.76,5.23,1.07-.46,2.14-.93,3.21-1.39-.7.32-1.39.64-2.09.98-1.04.5-2.07,1.03-3.08,1.58-2.39,1.28-4.71,2.67-6.97,4.16-.98.64-1.94,1.3-2.89,1.98-.23.16-.88.65-1.49,1.11-.57.46-1.15.94-1.35,1.11-.9.77-1.78,1.56-2.66,2.36-2.05,1.88-4.03,3.84-5.94,5.86-1.78,1.9-3.51,3.85-5.17,5.85-.39.47-.76.96-1.14,1.44,1.01-1.17,1.89-1.97-1.04,1.33-5.66,7.96-10.39,16.53-14.23,25.5-2.37,6.41-4.28,12.96-5.64,19.67-1.33,6.52-5.65,11.36-11.13,14.15-1.58-2.54-3.06-5.14-4.44-7.81-3.12-6.09-12.22-.63-9.12,5.43,5.51,10.76,12.79,20.64,21.53,29.02,6.29,6.03,13.38,11.81,21.5,14.91,2.34,2.16,5.53,3.37,8.7,3.54,8.63.47,16.36-6.69,22.87-11.43,3.05-2.22,6.06-4.49,9.04-6.78,22.52-8.31,12.18,6.45,12.18,6.45,24.22-29.74,2.61-49.18-5.76-55.11,16.21,8.16,20.81-29.43,20.81-29.43-11.07,1.17-16.94,1.81-19.86,2.14,13.42-15.81,27.3-11.34,27.3-11.34-2.77-15.07-9-27.28-15.71-36.64-2.14.58-4.29,1.11-6.46,1.6Z"/>
        <path class="cls-8" d="M541.25,916.18l204.99-511.28s-79.58-19.33-80.26-38.08-257.47,510.81-257.47,510.81c0,0,97.95,48.84,132.74,38.54Z"/>
        <ellipse class="cls-6" cx="311.77" cy="600.76" rx="17.27" ry="23"/>
        <ellipse class="cls-6" cx="441.93" cy="600.76" rx="17.27" ry="23"/>
      </g>
      <g id="mouth_and_nose" data-name="mouth and nose">
        <path class="cls-3" d="M364.22,669.58l11.69,4.66c.21.08,1.11-2.19.91-2.27l-11.69-4.66c-.21-.08-1.11,2.19-.91,2.27Z"/>
        <path class="cls-3" d="M391.98,669.58l-11.69,4.66c-.21.08-1.11-2.19-.91-2.27l11.69-4.66c.21-.08,1.11,2.19.91,2.27Z"/>
      </g>
      <path class="cls-3" d="M420.55,692.74c-6.17-4.58-15.21-3.34-22.22-1.9-7.51,1.54-14.88,3.74-22.07,6.39-7.19-.36-14.12-2.37-21.07-4.14-6.2-1.57-13.54-3.62-18.45,1.88-3.84,4.3-3.21,10.98,2.13,13.66,2.85,1.43,6.01,1.45,9.11,1.16,3.83-.35,7.6-.67,11.45-.72,3.6-.04,7.2-.08,10.77-.54,3.58-.46,7.1-1.24,10.69-1.62,3.85-.41,7.74-.29,11.6-.24,3.76.05,7.51.12,11.26.38,3.82.26,7.58.78,11.33,1.52,3.04.6,5.85.34,7.99-2.11,3.83-4.37,1.74-10.56-2.54-13.73ZM422.56,703.68c-.51,1.09-1.35,2.07-2.4,2.65-1.55.86-3.24.57-4.9.25-3.13-.61-6.26-1.09-9.44-1.37-6.74-.59-13.6-.71-20.36-.56-6.56.15-12.9,1.91-19.44,2.27-3.28.18-6.56.12-9.83.21-3.36.1-6.68.66-10.03.8-2.8.12-5.88-.24-8.04-2.2-2.09-1.89-2.32-4.83-1.24-7.32,1.35-3.08,4.58-4.99,7.88-5.13,3.61-.15,7.3,1.06,10.76,1.95,5.95,1.53,11.91,3.17,18.02,3.8.03,0,.07-.01.1-.02.68.19,1.38.35,2.09.38.83.03,1.67-.15,2.45-.43.88-.31,1.71-.75,2.54-1.18,4.56-1.56,9.19-2.93,13.88-4.06,6.19-1.48,12.92-2.98,19.28-1.67,2.89.6,5.66,1.89,7.51,4.24,1.63,2.08,2.34,4.92,1.17,7.38Z"/>
      <path class="cls-3" d="M386.57,713.67c-1.22-.14-2.52.13-3.73.25l-3.69.37c-2.54.26-5.08.51-7.63.77-.63.06-.64,1.06,0,1,2.54-.26,5.08-.51,7.63-.77l3.69-.37c1.22-.12,2.51-.39,3.73-.25.64.07.63-.93,0-1Z"/>
      <path class="cls-3" d="M418.6,682.51c-.79-1.05-1.61-2.08-2.46-3.08-.4-.47-.81-.96-1.24-1.4-.42-.43-.91-.77-1.52-.81-.27-.02-.5.24-.5.5,0,.29.23.48.5.5.42.03.75.43,1.01.72.4.44.79.89,1.17,1.35.75.89,1.48,1.8,2.18,2.73.16.22.43.33.68.18.21-.12.34-.47.18-.68Z"/>
      <path class="cls-3" d="M324.96,625.2c-2.17,3.1-5.22,5.57-8.72,7.02-.59.24-.33,1.21.27.96,3.75-1.56,6.98-4.15,9.31-7.48.37-.53-.5-1.03-.86-.5Z"/>
      <path class="cls-3" d="M432.34,632.68c-3.8-1.18-6.92-4.23-8.19-8-.2-.61-1.17-.35-.96.27,1.38,4.12,4.74,7.41,8.89,8.7.62.19.88-.77.27-.96Z"/>
      <g>
        <path class="cls-1" d="M626.6,415.53H146.32c-2.93,0-5.83-.65-8.48-1.91l-66.03-31.31c-19.49-9.24-13.01-38.97,8.48-38.97h609.83c21.33,0,27.95,29.38,8.76,38.84l-63.52,31.31c-2.73,1.35-5.72,2.04-8.76,2.04Z"/>
        <rect class="cls-14" x="53.6" width="666.89" height="379.44" rx="52.09" ry="52.09"/>
      </g>
      <path class="cls-10" d="M165.66,396.11c-6.37-8.49-18.37-10.47-28.24-8.73-8.98-28.5-35.62-49.18-67.09-49.18-38.84,0-70.33,31.49-70.33,70.33s31.49,70.33,70.33,70.33c28.92,0,53.75-17.46,64.56-42.41,1.52-.69,2.94-1.64,4.14-2.9.47-.52.97-1.01,1.49-1.48.15-.1.32-.22.54-.37,1.53-.86,3.02-1.77,4.59-2.56,3.15-1.6,6.41-2.97,9.45-4.79,9.87-5.9,19.1-16.88,10.57-28.25Z"/>
      <path class="cls-10" d="M701.96,354.14c-24.68-3.59-48.21,6.11-63.39,23.68-2.75-1.12-5.63-1.97-8.61-2.5-11.91-2.09-25.63,3.16-29.97,15.22-4.46,12.4,2.46,22.6,11.55,30.41,1.62,1.39,3.24,2.78,4.8,4.26.11.1.78.79,1.17,1.17.42.51,1.47,1.71,1.6,1.88,1.04,1.3,2.08,2.66,2.93,4.11,0,0,0,.01,0,.02-.22-.28-.1.28.13,1.01,4.18,30.22,27.83,55.32,59.53,59.94,38.44,5.59,74.13-21.03,79.73-59.47,5.59-38.44-21.03-74.13-59.47-79.73Z"/>
    </g>
  </g>
</svg>