<?xml version="1.0" encoding="UTF-8"?>
<svg id="Layer_2" data-name="Layer 2" xmlns="http://www.w3.org/2000/svg" viewBox="0 0 220.45 177.18">
  <defs>
    <style>
      .cls-1 {
        font-family: AveriaSansLibre-Bold, 'Averia Sans Libre';
        font-size: 41.51px;
        font-weight: 700;
      }

      .cls-1, .cls-2, .cls-3 {
        stroke: #f0e5c3;
        stroke-miterlimit: 10;
      }

      .cls-1, .cls-4 {
        fill: #fff;
      }

      .cls-2 {
        stroke-width: 1.54px;
      }

      .cls-2, .cls-3 {
        fill: #fed040;
      }

      .cls-5 {
        fill: #3abfad;
      }

      .cls-3 {
        stroke-width: 2px;
      }

      .cls-6 {
        letter-spacing: 0em;
      }

      .cls-7 {
        letter-spacing: 0em;
      }
    </style>
  </defs>
  <g id="about_hover" data-name="about hover">
    <g>
      <path class="cls-4" d="M220.33,174.7c-9.09-10.85-30.24-15.01-34.04-47.87-.03-.47-.08-.94-.16-1.41l-15.31-88.42C169.63,30.51,152.42,0,122.2,1.28L36.95,0c-5.07-.08-16.55,1.54-29.91,17.95C1.25,25.08-.42,46.3.08,49.65c.6,4.03,2.75,14.75,2.79,14.74l3.83,17.46c8.62,47.15,54.25,78.67,101.4,70.04l45.46-8.31c4.36-.8,8.76,1.07,11.25,4.74,10.87,16.04,29.57,34.55,55.25,27.21.36-.1.5-.55.26-.83Z"/>
      <path class="cls-5" d="M220.33,174.7c-9.09-10.85-30.24-15.01-34.04-47.87-.03-.47-.08-.94-.16-1.41l-15.31-88.42C169.63,30.51,152.42,0,122.2,1.28L36.95,0c-5.07-.08-16.55,1.54-29.91,17.95C1.25,25.08-.42,46.3.08,49.65c.6,4.03,2.75,14.75,2.79,14.74l3.83,17.46c8.62,47.15,54.25,78.67,101.4,70.04l45.46-8.31c4.36-.8,8.76,1.07,11.25,4.74,10.87,16.04,29.57,34.55,55.25,27.21.36-.1.5-.55.26-.83Z"/>
      <text class="cls-1" transform="translate(29.47 66.08) rotate(-4)"><tspan class="cls-6" x="0" y="0">D</tspan><tspan x="27.34" y="0">igit</tspan><tspan class="cls-7" x="88.92" y="0">a</tspan><tspan x="111.05" y="0">l</tspan><tspan x="0" y="49.81">D</tspan><tspan class="cls-6" x="27.42" y="49.81">e</tspan><tspan x="49.11" y="49.81">sign</tspan></text>
      <g>
        <path class="cls-3" d="M22.75,153.18l9.41-22.84c1.22-2.97-.21-6.41-3.18-7.63h0c-2.97-1.22-6.41.21-7.63,3.18l-9.41,22.84c-1.22,2.97.21,6.41,3.18,7.63,2.97,1.22,6.41-.21,7.63-3.18Z"/>
        <path class="cls-3" d="M87.44,168.16l-17.17-7.07c-.42-.18-.91-.08-1.22.24-1.96,2.07-5.24,2.72-8.07,1.22-2.77-1.46-4.21-4.67-3.39-7.58,1.07-3.79,5.27-5.65,8.95-4.14,2.57,1.06,4.16,3.47,4.23,6,.01.43.29.81.69.97l16.82,6.93c1.04.43,1.96-.73,1.29-1.61l-23.15-30.63c-2.57-3.4-6.65-5.4-10.93-5.36l-15,.15c-2.94.03-5.54,1.75-6.62,4.38l-8.84,21.46c-1.08,2.63-.45,5.68,1.62,7.77l10.58,10.7c2.99,3.02,7.26,4.48,11.46,3.9l38.51-5.29c1.1-.15,1.27-1.63.22-2.06Z"/>
      </g>
      <path class="cls-2" d="M201.62,68.46c-1.2-4.41-5.8-7.04-10.21-5.83l-7.95,2.17.15-8.24c.08-4.57-3.59-8.38-8.16-8.46h0c-4.57-.08-8.38,3.59-8.46,8.16l-.34,19.04c-.05.87.03,1.76.27,2.64.46,1.67,1.4,3.09,2.64,4.13.1.08.2.15.3.23.1.08.19.16.3.23,1.32.94,2.92,1.51,4.65,1.54h0c.92.02,1.8-.12,2.63-.39l18.37-5.01c4.41-1.2,7.04-5.8,5.83-10.21Z"/>
    </g>
  </g>
</svg>