<?xml version="1.0" encoding="UTF-8"?>
<svg id="Layer_2" data-name="Layer 2" xmlns="http://www.w3.org/2000/svg" viewBox="0 0 196.58 168.17">
  <defs>
    <style>
      .cls-1 {
        fill: #71a850;
      }
    </style>
  </defs>
  <g id="gallery_hover" data-name="gallery hover">
    <path class="cls-1" d="M173.08,19.96L68.22.48c-15.55-2.89-30.64,7.47-33.52,23.02l-8.14,43.81c-.52,2.8-.87,5.59-1.07,8.37l-.06.92-.07,1.43c-.12,2.86-.1,5.7.09,8.51-.43,15.22-4.24,42.73-24,64.85-2.75,3.08-1.39,7.98,2.58,9.11,13.07,3.71,48.58,1.88,57.94-13.63,7.83,4.83,16.63,8.35,26.19,10.12l57.49,10.68c15.55,2.89,30.64-7.47,33.52-23.02l16.93-91.18c2.89-15.55-7.47-30.64-23.02-33.52Z"/>
  </g>
</svg>