<?xml version="1.0" encoding="UTF-8"?>
<svg id="Layer_2" data-name="Layer 2" xmlns="http://www.w3.org/2000/svg" viewBox="0 0 221.72 163.18">
  <defs>
    <style>
      .cls-1 {
        fill: #fea962;
      }

      .cls-2 {
        stroke-width: 2.08px;
      }

      .cls-2, .cls-3, .cls-4 {
        fill: #3bbfad;
      }

      .cls-2, .cls-3, .cls-5 {
        stroke: #f0e5c3;
        stroke-miterlimit: 10;
      }

      .cls-3 {
        stroke-width: 2.11px;
      }

      .cls-5 {
        fill: #fff;
        font-family: AveriaSansLibre-Bold, 'Averia Sans Libre';
        font-size: 25.4px;
        font-weight: 700;
        stroke-width: .61px;
      }

      .cls-6 {
        letter-spacing: 0em;
      }

      .cls-7 {
        letter-spacing: 0em;
      }
    </style>
  </defs>
  <g id="Layer_1-2" data-name="Layer 1">
    <g>
      <path class="cls-1" d="M194.39,21.2L140.85,3.42c-35.11-11.66-73.38,7.52-85.05,42.63l-12.35,37.17c-.55,1.65-.97,3.32-1.29,4.99-.08.04-.14.06-.14.06,0,0-10.63,53.15-40.04,57.85-2.32.37-2.73,3.5-.56,4.39,16.85,6.86,51.5,15.67,75.34-14.16l71.49,23.75c20.84,6.92,43.55-4.46,50.47-25.3l20.97-63.13c6.92-20.84-4.46-43.55-25.3-50.47Z"/>
      <text class="cls-5" transform="translate(66.78 71.1) rotate(17.81)"><tspan class="cls-7" x="0" y="0">Ill</tspan><tspan x="22.8" y="0">ust</tspan><tspan class="cls-7" x="58.54" y="0">ra</tspan><tspan x="82.14" y="0">ti</tspan><tspan class="cls-6" x="98.72" y="0">o</tspan><tspan x="112.56" y="0">ns</tspan></text>
      <g>
        <path class="cls-4" d="M120.83,153.69l-.62-10.5c-.09-.81,14.5-4.22,24.89-6.49,6.32-1.38,12.8-2.13,19.27-2.23l41.67-.66c1.07-.06,2.01.8,2.14,1.95l.42,3.74c.13,1.15-.59,2.19-1.64,2.37l-36.8,8.96c-6.21,1.51-12.6,2.41-19.01,2.68-11.96.49-30.24,1.03-30.33.18Z"/>
        <path class="cls-3" d="M127.15,150.57c.12-7.38-2.83-19.27-23.54-17.48-.55.05-1.1-.07-1.57-.35-1.19-.73-3.36-2.53-4.37-6.45-.5-1.95-2.88-2.7-4.34-1.31-3.45,3.28-7.16,10.14-1.28,23.01,2.89,6.32,8.25,11.25,14.9,13.25,4.35,1.3,9.54,1.47,14.82-1.53,3.29-1.87,5.32-5.35,5.39-9.13Z"/>
      </g>
      <path class="cls-2" d="M80.49,44.78h0c-4.88-8.72-13.32-14.87-23.12-16.85h0c-.32-.06-.39-.49-.1-.65h0c8.72-4.88,14.87-13.32,16.85-23.12h0c.06-.32.49-.39.65-.1h0c4.88,8.72,13.32,14.87,23.12,16.85h0c.32.06.39.49.1.65h0c-8.72,4.88-14.87,13.32-16.85,23.12h0c-.06.32-.49.39-.65.1Z"/>
    </g>
  </g>
</svg>