<?xml version="1.0" encoding="UTF-8"?>
<svg id="Layer_2" data-name="Layer 2" xmlns="http://www.w3.org/2000/svg" viewBox="0 0 265.97 196.58">
  <defs>
    <style>
      .cls-1 {
        stroke-width: 3px;
      }

      .cls-1, .cls-2, .cls-3 {
        stroke: #f0e5c3;
        stroke-miterlimit: 10;
      }

      .cls-1, .cls-3 {
        fill: #78aa65;
      }

      .cls-2 {
        fill: #fff;
        font-family: AveriaSansLibre-Bold, 'Averia Sans Libre';
        font-size: 41.51px;
        font-weight: 700;
      }

      .cls-3 {
        stroke-width: 2.21px;
      }

      .cls-4 {
        fill: #fed040;
      }

      .cls-5 {
        letter-spacing: 0em;
      }
    </style>
  </defs>
  <g id="work_hover" data-name="work hover">
    <g>
      <path class="cls-4" d="M264.16,154.14c-8.16-1.82-23.06-12.22-42.31-56.28-.47-1.46-1.08-2.9-1.85-4.3l-26.13-47.71C174.72,10.89,130.46-2.04,95.51,17.1L12.98,62.29C.91,68.9-3.55,84.18,3.06,96.25l25.97,47.42c19.23,35.12,63.7,48.11,98.82,28.88l70.91-38.84c15.82,17.32,42.46,39.35,66.1,24.67,1.78-1.1,1.34-3.79-.7-4.25Z"/>
      <text class="cls-2" transform="translate(45.7 110.16) rotate(-25.31)"><tspan x="0" y="0">UI/UX</tspan><tspan x="0" y="49.81">D</tspan><tspan class="cls-5" x="27.42" y="49.81">e</tspan><tspan x="49.11" y="49.81">sign</tspan></text>
      <g>
        <path class="cls-3" d="M236.04,18.27L170.86,1.32c-3.53-.92-7.17,1.22-8.09,4.75l-9.97,38.31c-.92,3.53,1.22,7.17,4.75,8.09l19.16,4.98c-.02.05-.04.1-.05.16l-1.24,4.77c-.01.05-.02.11-.03.16l-7.93-2.06c-1.64-.43-3.33.57-3.75,2.2s.57,3.33,2.2,3.75l44.44,11.56c1.64.43,3.33-.57,3.75-2.2s-.57-3.33-2.2-3.75l-9.66-2.51c.02-.05.03-.1.05-.15l1.24-4.77c.01-.05.02-.11.03-.16l19.16,4.98c3.53.92,7.17-1.22,8.09-4.75l9.97-38.31c.92-3.53-1.22-7.17-4.75-8.09Z"/>
        <rect class="cls-3" x="211.55" y="41.59" width="29.66" height="39.9" rx="12" ry="12" transform="translate(22.78 -55.01) rotate(14.58)"/>
      </g>
      <path class="cls-1" d="M118.48,159.16l1.76,9.66,9.73,1.31c3.34.45,4.15,4.91,1.18,6.51l-8.65,4.66,1.76,9.66c.6,3.32-3.39,5.47-5.83,3.14l-7.1-6.78-8.65,4.66c-2.97,1.6-6.25-1.53-4.79-4.57l4.26-8.85-7.1-6.78c-2.44-2.33-.47-6.42,2.87-5.96l9.73,1.31,4.26-8.85c1.46-3.04,5.96-2.43,6.56.89Z"/>
    </g>
  </g>
</svg>