<svg width="597" height="481" viewBox="0 0 597 481" fill="none" xmlns="http://www.w3.org/2000/svg">
<rect x="17" width="580" height="206" rx="20" fill="#64BCAD"/>
<path d="M94.5585 155.536C81.8438 155.536 72.3718 151.781 66.1425 144.272C59.9132 136.763 56.7985 126.096 56.7985 112.272C56.7985 105.701 57.5665 99.5573 59.1025 93.84C60.6385 88.1227 63.0278 83.1733 66.2705 78.992C69.5132 74.7253 73.6945 71.3973 78.8145 69.008C83.9345 66.6187 90.1212 65.424 97.3745 65.424C103.092 65.424 108.169 66.192 112.607 67.728C117.129 69.264 120.585 71.312 122.975 73.872C124.084 74.9813 124.937 76.176 125.535 77.456C126.132 78.736 126.431 80.144 126.431 81.68C126.431 84.496 125.535 86.5867 123.743 87.952C122.036 89.3173 120.031 90 117.727 90C115.935 90 114.313 89.6587 112.863 88.976C111.412 88.2933 109.919 87.4827 108.383 86.544C106.932 85.6053 105.268 84.7947 103.391 84.112C101.513 83.344 99.2945 82.96 96.7345 82.96C92.7238 82.96 89.3532 84.0693 86.6225 86.288C83.8918 88.5067 81.8438 91.792 80.4785 96.144C79.1985 100.411 78.5585 105.787 78.5585 112.272C78.5585 118.501 79.1558 123.621 80.3505 127.632C81.6305 131.557 83.4652 134.459 85.8545 136.336C88.3292 138.213 91.2732 139.152 94.6865 139.152C97.5025 139.152 99.9345 138.597 101.983 137.488C104.031 136.379 105.609 134.885 106.719 133.008C107.913 131.131 108.511 128.997 108.511 126.608C108.511 123.365 107.359 120.763 105.055 118.8C102.836 116.752 99.6785 115.728 95.5825 115.728C92.6812 115.728 89.6945 116.283 86.6225 117.392C83.5505 118.501 80.5212 120.251 77.5345 122.64L76.1265 108.176C79.7105 105.531 83.6785 103.44 88.0305 101.904C92.3825 100.368 97.0332 99.6 101.983 99.6C107.7 99.6 112.649 100.667 116.831 102.8C121.012 104.848 124.212 107.792 126.431 111.632C128.735 115.472 129.887 120.123 129.887 125.584C129.887 131.643 128.436 136.933 125.535 141.456C122.719 145.979 118.665 149.477 113.375 151.952C108.169 154.341 101.897 155.536 94.5585 155.536ZM168.406 155.536C162.688 155.536 157.44 155.067 152.662 154.128C147.968 153.189 143.872 151.995 140.374 150.544V133.008C144.982 134.629 149.504 135.952 153.942 136.976C158.464 137.915 163.03 138.384 167.638 138.384C173.27 138.384 177.536 137.531 180.438 135.824C183.339 134.117 184.79 131.813 184.79 128.912C184.79 126.352 183.766 124.389 181.718 123.024C179.755 121.573 177.024 120.592 173.526 120.08C170.027 119.483 165.974 119.184 161.366 119.184H154.966V102.672H161.366C165.376 102.672 169.003 102.373 172.246 101.776C175.488 101.093 178.091 99.984 180.054 98.448C182.016 96.912 182.998 94.8213 182.998 92.176C182.998 89.36 181.888 87.0987 179.67 85.392C177.536 83.6853 174.592 82.832 170.838 82.832C167.851 82.832 165.291 83.344 163.158 84.368C161.024 85.392 159.104 86.544 157.398 87.824C155.776 89.104 154.112 90.256 152.406 91.28C150.784 92.304 148.907 92.816 146.774 92.816C143.958 92.816 141.739 92.0053 140.118 90.384C138.496 88.7627 137.686 86.672 137.686 84.112C137.686 81.9787 138.24 80.0587 139.35 78.352C140.459 76.6453 141.867 75.152 143.574 73.872C146.219 71.6533 149.76 69.6907 154.198 67.984C158.72 66.2773 164.224 65.424 170.71 65.424C177.792 65.424 183.851 66.448 188.886 68.496C194.006 70.544 197.888 73.488 200.534 77.328C203.264 81.0827 204.63 85.6053 204.63 90.896C204.63 96.3573 202.923 100.795 199.51 104.208C196.182 107.536 190.848 109.925 183.51 111.376L182.87 107.024C188.502 107.792 193.11 109.157 196.694 111.12C200.278 113.083 202.923 115.6 204.63 118.672C206.336 121.744 207.19 125.371 207.19 129.552C207.19 135.355 205.568 140.219 202.326 144.144C199.083 147.984 194.56 150.843 188.758 152.72C182.955 154.597 176.171 155.536 168.406 155.536ZM282.186 66.96H300.618L253.77 154H235.466L282.186 66.96ZM215.114 89.616C215.114 85.008 216.052 80.8693 217.93 77.2C219.892 73.5307 222.666 70.672 226.25 68.624C229.919 66.4907 234.314 65.424 239.434 65.424C246.602 65.424 252.191 67.5147 256.202 71.696C260.298 75.8773 262.346 81.5093 262.346 88.592C262.346 93.2 261.407 97.3387 259.53 101.008C257.738 104.592 255.05 107.408 251.466 109.456C247.967 111.504 243.7 112.528 238.666 112.528C231.412 112.528 225.652 110.437 221.385 106.256C217.204 101.989 215.114 96.4427 215.114 89.616ZM230.602 89.232C230.602 92.7307 231.37 95.4613 232.906 97.424C234.442 99.3867 236.404 100.368 238.794 100.368C241.183 100.368 243.103 99.3867 244.554 97.424C246.004 95.376 246.729 92.5173 246.729 88.848C246.729 85.264 246.004 82.4907 244.554 80.528C243.103 78.5653 241.226 77.584 238.922 77.584C236.447 77.584 234.442 78.6507 232.906 80.784C231.37 82.832 230.602 85.648 230.602 89.232ZM273.482 132.624C273.482 128.016 274.42 123.877 276.298 120.208C278.26 116.539 281.034 113.68 284.618 111.632C288.287 109.499 292.682 108.432 297.802 108.432C304.97 108.432 310.559 110.523 314.57 114.704C318.666 118.885 320.714 124.517 320.714 131.6C320.714 136.208 319.775 140.347 317.898 144.016C316.106 147.6 313.46 150.416 309.962 152.464C306.463 154.512 302.154 155.536 297.034 155.536C289.78 155.536 284.02 153.445 279.754 149.264C275.572 144.997 273.482 139.451 273.482 132.624ZM289.098 132.24C289.098 135.739 289.823 138.469 291.274 140.432C292.81 142.395 294.772 143.376 297.162 143.376C299.551 143.376 301.471 142.395 302.922 140.432C304.372 138.384 305.098 135.525 305.098 131.856C305.098 128.272 304.372 125.499 302.922 123.536C301.471 121.573 299.594 120.592 297.29 120.592C294.9 120.592 292.938 121.659 291.402 123.792C289.866 125.84 289.098 128.656 289.098 132.24Z" fill="white"/>
<path d="M351.864 97.096C351.864 95.816 352.12 94.704 352.632 93.76C353.144 92.8 353.872 92.056 354.816 91.528C355.76 90.984 356.88 90.712 358.176 90.712C359.408 90.712 360.488 90.968 361.416 91.48C362.344 91.976 363.064 92.688 363.576 93.616C364.104 94.528 364.368 95.632 364.368 96.928C364.368 98.192 364.112 99.304 363.6 100.264C363.104 101.208 362.384 101.952 361.44 102.496C360.496 103.024 359.384 103.288 358.104 103.288C356.872 103.288 355.784 103.04 354.84 102.544C353.912 102.032 353.184 101.312 352.656 100.384C352.128 99.456 351.864 98.36 351.864 97.096ZM355.104 97.048C355.104 97.8 355.232 98.448 355.488 98.992C355.744 99.52 356.096 99.928 356.544 100.216C357.008 100.488 357.52 100.624 358.08 100.624C358.656 100.624 359.176 100.48 359.64 100.192C360.104 99.888 360.464 99.464 360.72 98.92C360.992 98.36 361.128 97.704 361.128 96.952C361.128 96.2 361 95.56 360.744 95.032C360.488 94.488 360.136 94.08 359.688 93.808C359.256 93.52 358.752 93.376 358.176 93.376C357.584 93.376 357.056 93.528 356.592 93.832C356.144 94.12 355.784 94.536 355.512 95.08C355.24 95.624 355.104 96.28 355.104 97.048ZM367.254 103V89.752C367.254 88.76 367.446 87.952 367.83 87.328C368.214 86.688 368.734 86.216 369.39 85.912C370.046 85.592 370.782 85.432 371.598 85.432C372.43 85.432 373.062 85.584 373.494 85.888C373.942 86.176 374.166 86.592 374.166 87.136C374.166 87.52 374.062 87.824 373.854 88.048C373.662 88.256 373.414 88.36 373.11 88.36C372.902 88.36 372.686 88.328 372.462 88.264C372.254 88.184 372.014 88.144 371.742 88.144C371.358 88.144 371.022 88.272 370.734 88.528C370.462 88.784 370.326 89.224 370.326 89.848V103H367.254ZM366.63 93.736C366.246 93.736 365.91 93.624 365.622 93.4C365.35 93.176 365.214 92.832 365.214 92.368C365.214 91.92 365.35 91.584 365.622 91.36C365.91 91.12 366.246 91 366.63 91H373.878V93.736H366.63ZM388.843 102.784C388.475 102.944 388.083 103.064 387.667 103.144C387.251 103.24 386.811 103.288 386.347 103.288C385.163 103.288 384.259 102.952 383.635 102.28C383.011 101.608 382.699 100.624 382.699 99.328V93.736H382.027C381.627 93.736 381.299 93.624 381.043 93.4C380.787 93.176 380.659 92.856 380.659 92.44C380.659 92.072 380.763 91.76 380.971 91.504C381.179 91.248 381.483 91.016 381.883 90.808L385.771 88.792V91H389.323V93.736H385.771V98.824C385.771 99.464 385.899 99.92 386.155 100.192C386.427 100.448 386.811 100.576 387.307 100.576C387.563 100.576 387.811 100.552 388.051 100.504C388.307 100.44 388.571 100.36 388.843 100.264V102.784ZM391.304 103V91H394.376V103H391.304ZM394.376 97.192L393.968 93.808C394.288 92.8 394.736 92.032 395.312 91.504C395.888 90.976 396.536 90.712 397.256 90.712C397.624 90.712 397.952 90.784 398.24 90.928C398.544 91.072 398.784 91.288 398.96 91.576C399.152 91.848 399.248 92.2 399.248 92.632C399.248 93.192 399.104 93.616 398.816 93.904C398.544 94.176 398.192 94.312 397.76 94.312C397.472 94.312 397.216 94.272 396.992 94.192C396.784 94.096 396.56 94.048 396.32 94.048C395.744 94.048 395.272 94.328 394.904 94.888C394.552 95.448 394.376 96.216 394.376 97.192ZM411.332 103H408.212C408.1 102.76 408.012 102.424 407.948 101.992C407.9 101.544 407.868 101.04 407.852 100.48L407.708 99.856V94.816C407.708 94.224 407.524 93.816 407.156 93.592C406.804 93.368 406.324 93.256 405.716 93.256C405.124 93.256 404.636 93.328 404.252 93.472C403.868 93.616 403.548 93.784 403.292 93.976C403.036 94.168 402.788 94.336 402.548 94.48C402.324 94.624 402.06 94.696 401.756 94.696C401.372 94.696 401.06 94.592 400.82 94.384C400.58 94.16 400.46 93.864 400.46 93.496C400.46 93.224 400.524 92.96 400.652 92.704C400.78 92.448 401.004 92.2 401.324 91.96C402.3 91.128 403.756 90.712 405.692 90.712C406.796 90.712 407.724 90.856 408.476 91.144C409.228 91.432 409.804 91.904 410.204 92.56C410.604 93.216 410.804 94.096 410.804 95.2V99.232C410.804 100.064 410.852 100.8 410.948 101.44C411.044 102.064 411.172 102.584 411.332 103ZM403.916 103.288C402.764 103.288 401.844 102.976 401.156 102.352C400.468 101.728 400.124 100.88 400.124 99.808C400.124 98.848 400.428 98.088 401.036 97.528C401.66 96.952 402.588 96.56 403.82 96.352L406.172 95.968C406.796 95.84 407.204 95.704 407.396 95.56C407.604 95.416 407.708 95.184 407.708 94.864V97.12C407.628 97.216 407.492 97.312 407.3 97.408C407.108 97.488 406.82 97.568 406.436 97.648L405.044 97.936C404.548 98.032 404.148 98.2 403.844 98.44C403.54 98.68 403.388 99.04 403.388 99.52C403.388 100 403.54 100.376 403.844 100.648C404.164 100.92 404.58 101.056 405.092 101.056C405.572 101.056 406.004 100.944 406.388 100.72C406.788 100.48 407.108 100.152 407.348 99.736C407.588 99.304 407.708 98.8 407.708 98.224L408.164 100.384C407.796 101.376 407.236 102.112 406.484 102.592C405.732 103.056 404.876 103.288 403.916 103.288ZM425.016 85.72V103H421.92V85.72H425.016ZM422.448 100.192C422.08 101.168 421.52 101.928 420.768 102.472C420.032 103.016 419.152 103.288 418.128 103.288C417.136 103.288 416.24 103.04 415.44 102.544C414.656 102.032 414.032 101.312 413.568 100.384C413.104 99.44 412.872 98.32 412.872 97.024C412.872 95.744 413.096 94.64 413.544 93.712C414.008 92.768 414.64 92.032 415.44 91.504C416.256 90.976 417.2 90.712 418.272 90.712C419.296 90.712 420.152 90.96 420.84 91.456C421.528 91.936 422 92.608 422.256 93.472L421.92 96.232C421.92 95.672 421.8 95.176 421.56 94.744C421.32 94.312 420.992 93.976 420.576 93.736C420.176 93.48 419.704 93.352 419.16 93.352C418.568 93.352 418.04 93.504 417.576 93.808C417.128 94.112 416.776 94.536 416.52 95.08C416.28 95.624 416.16 96.256 416.16 96.976C416.16 97.696 416.28 98.328 416.52 98.872C416.776 99.4 417.128 99.808 417.576 100.096C418.04 100.384 418.576 100.528 419.184 100.528C420 100.528 420.656 100.264 421.152 99.736C421.664 99.208 421.92 98.512 421.92 97.648L422.448 100.192ZM433.506 103.288C431.458 103.288 429.882 102.76 428.778 101.704C427.674 100.632 427.122 99.144 427.122 97.24C427.122 95.912 427.378 94.76 427.89 93.784C428.418 92.808 429.154 92.056 430.098 91.528C431.058 90.984 432.162 90.712 433.41 90.712C434.514 90.712 435.442 90.904 436.194 91.288C436.962 91.656 437.546 92.152 437.946 92.776C438.346 93.4 438.546 94.08 438.546 94.816C438.546 95.52 438.37 96.112 438.018 96.592C437.666 97.056 437.178 97.416 436.554 97.672C435.946 97.912 435.242 98.064 434.442 98.128C433.658 98.192 432.818 98.176 431.922 98.08C431.042 97.968 430.162 97.784 429.282 97.528V95.632C430.13 95.84 430.922 95.984 431.658 96.064C432.394 96.128 433.042 96.128 433.602 96.064C434.178 95.984 434.626 95.832 434.946 95.608C435.266 95.368 435.426 95.04 435.426 94.624C435.426 94.192 435.25 93.816 434.898 93.496C434.546 93.16 434.042 92.992 433.386 92.992C432.778 92.992 432.242 93.144 431.778 93.448C431.314 93.752 430.946 94.208 430.674 94.816C430.418 95.424 430.29 96.184 430.29 97.096C430.29 97.944 430.418 98.656 430.674 99.232C430.93 99.792 431.33 100.216 431.874 100.504C432.418 100.792 433.122 100.936 433.986 100.936C434.69 100.936 435.394 100.856 436.098 100.696C436.802 100.52 437.49 100.256 438.162 99.904V102.112C437.618 102.448 436.946 102.728 436.146 102.952C435.362 103.176 434.482 103.288 433.506 103.288ZM444.905 103.288C443.977 103.288 443.129 103.184 442.361 102.976C441.593 102.752 440.913 102.48 440.321 102.16V99.52C441.121 100.064 441.937 100.488 442.769 100.792C443.601 101.08 444.361 101.224 445.049 101.224C445.737 101.224 446.241 101.096 446.561 100.84C446.881 100.584 447.041 100.272 447.041 99.904C447.041 99.536 446.873 99.248 446.537 99.04C446.217 98.816 445.801 98.632 445.289 98.488C444.793 98.328 444.257 98.168 443.681 98.008C443.121 97.848 442.585 97.64 442.073 97.384C441.577 97.128 441.169 96.776 440.849 96.328C440.529 95.88 440.369 95.304 440.369 94.6C440.369 93.864 440.561 93.2 440.945 92.608C441.345 92.016 441.929 91.552 442.697 91.216C443.481 90.88 444.441 90.712 445.577 90.712C446.489 90.712 447.273 90.824 447.929 91.048C448.601 91.256 449.113 91.544 449.465 91.912C449.833 92.28 450.017 92.704 450.017 93.184C450.017 93.52 449.913 93.792 449.705 94C449.513 94.192 449.257 94.288 448.937 94.288C448.633 94.288 448.369 94.216 448.145 94.072C447.937 93.912 447.713 93.736 447.473 93.544C447.233 93.336 446.953 93.16 446.633 93.016C446.329 92.856 445.937 92.776 445.457 92.776C444.833 92.776 444.369 92.912 444.065 93.184C443.761 93.456 443.609 93.768 443.609 94.12C443.609 94.504 443.769 94.808 444.089 95.032C444.425 95.256 444.841 95.44 445.337 95.584C445.849 95.728 446.385 95.888 446.945 96.064C447.505 96.224 448.041 96.44 448.553 96.712C449.065 96.968 449.481 97.32 449.801 97.768C450.121 98.2 450.281 98.776 450.281 99.496C450.281 100.232 450.081 100.888 449.681 101.464C449.281 102.04 448.681 102.488 447.881 102.808C447.097 103.128 446.105 103.288 444.905 103.288ZM455.258 103L458.618 92.416C458.81 91.824 459.05 91.392 459.338 91.12C459.642 90.848 460.034 90.712 460.514 90.712C460.978 90.712 461.354 90.848 461.642 91.12C461.946 91.392 462.186 91.824 462.362 92.416L465.722 103H463.082L460.106 93.76H460.898L457.922 103H455.258ZM454.658 103L451.154 91H454.49L457.058 103H454.658ZM463.946 103L466.49 91H469.826L466.322 103H463.946ZM470.505 97.096C470.505 95.816 470.761 94.704 471.273 93.76C471.785 92.8 472.513 92.056 473.457 91.528C474.401 90.984 475.521 90.712 476.817 90.712C478.049 90.712 479.129 90.968 480.057 91.48C480.985 91.976 481.705 92.688 482.217 93.616C482.745 94.528 483.009 95.632 483.009 96.928C483.009 98.192 482.753 99.304 482.241 100.264C481.745 101.208 481.025 101.952 480.081 102.496C479.137 103.024 478.025 103.288 476.745 103.288C475.513 103.288 474.425 103.04 473.481 102.544C472.553 102.032 471.825 101.312 471.297 100.384C470.769 99.456 470.505 98.36 470.505 97.096ZM473.745 97.048C473.745 97.8 473.873 98.448 474.129 98.992C474.385 99.52 474.737 99.928 475.185 100.216C475.649 100.488 476.161 100.624 476.721 100.624C477.297 100.624 477.817 100.48 478.281 100.192C478.745 99.888 479.105 99.464 479.361 98.92C479.633 98.36 479.769 97.704 479.769 96.952C479.769 96.2 479.641 95.56 479.385 95.032C479.129 94.488 478.777 94.08 478.329 93.808C477.897 93.52 477.393 93.376 476.817 93.376C476.225 93.376 475.697 93.528 475.233 93.832C474.785 94.12 474.425 94.536 474.153 95.08C473.881 95.624 473.745 96.28 473.745 97.048ZM500.748 103V96.256C500.748 95.312 500.54 94.64 500.124 94.24C499.724 93.824 499.228 93.616 498.636 93.616C498.204 93.616 497.788 93.72 497.388 93.928C496.988 94.136 496.66 94.456 496.404 94.888C496.164 95.304 496.044 95.84 496.044 96.496L495.036 93.808C495.356 93.104 495.764 92.528 496.26 92.08C496.772 91.616 497.324 91.272 497.916 91.048C498.524 90.824 499.132 90.712 499.74 90.712C500.508 90.712 501.196 90.888 501.804 91.24C502.428 91.592 502.924 92.128 503.292 92.848C503.66 93.568 503.844 94.504 503.844 95.656V103H500.748ZM485.148 103V91H488.22V103H485.148ZM492.948 103V96.256C492.948 95.312 492.74 94.64 492.324 94.24C491.924 93.824 491.42 93.616 490.812 93.616C490.38 93.616 489.964 93.72 489.564 93.928C489.18 94.136 488.86 94.456 488.604 94.888C488.348 95.304 488.22 95.84 488.22 96.496L487.692 93.808C487.948 93.104 488.292 92.528 488.724 92.08C489.172 91.616 489.668 91.272 490.212 91.048C490.772 90.824 491.356 90.712 491.964 90.712C492.748 90.712 493.444 90.888 494.052 91.24C494.66 91.576 495.14 92.104 495.492 92.824C495.86 93.528 496.044 94.432 496.044 95.536V103H492.948ZM512.256 103.288C510.208 103.288 508.632 102.76 507.528 101.704C506.424 100.632 505.872 99.144 505.872 97.24C505.872 95.912 506.128 94.76 506.64 93.784C507.168 92.808 507.904 92.056 508.848 91.528C509.808 90.984 510.912 90.712 512.16 90.712C513.264 90.712 514.192 90.904 514.944 91.288C515.712 91.656 516.296 92.152 516.696 92.776C517.096 93.4 517.296 94.08 517.296 94.816C517.296 95.52 517.12 96.112 516.768 96.592C516.416 97.056 515.928 97.416 515.304 97.672C514.696 97.912 513.992 98.064 513.192 98.128C512.408 98.192 511.568 98.176 510.672 98.08C509.792 97.968 508.912 97.784 508.032 97.528V95.632C508.88 95.84 509.672 95.984 510.408 96.064C511.144 96.128 511.792 96.128 512.352 96.064C512.928 95.984 513.376 95.832 513.696 95.608C514.016 95.368 514.176 95.04 514.176 94.624C514.176 94.192 514 93.816 513.648 93.496C513.296 93.16 512.792 92.992 512.136 92.992C511.528 92.992 510.992 93.144 510.528 93.448C510.064 93.752 509.696 94.208 509.424 94.816C509.168 95.424 509.04 96.184 509.04 97.096C509.04 97.944 509.168 98.656 509.424 99.232C509.68 99.792 510.08 100.216 510.624 100.504C511.168 100.792 511.872 100.936 512.736 100.936C513.44 100.936 514.144 100.856 514.848 100.696C515.552 100.52 516.24 100.256 516.912 99.904V102.112C516.368 102.448 515.696 102.728 514.896 102.952C514.112 103.176 513.232 103.288 512.256 103.288ZM527.69 103V96.328C527.69 95.688 527.586 95.176 527.378 94.792C527.17 94.392 526.882 94.096 526.514 93.904C526.162 93.712 525.77 93.616 525.338 93.616C524.874 93.616 524.434 93.72 524.018 93.928C523.602 94.136 523.266 94.456 523.01 94.888C522.754 95.304 522.626 95.84 522.626 96.496L522.098 93.808C522.354 93.104 522.698 92.528 523.13 92.08C523.578 91.616 524.082 91.272 524.642 91.048C525.218 90.824 525.81 90.712 526.418 90.712C527.186 90.712 527.898 90.888 528.554 91.24C529.226 91.592 529.762 92.144 530.162 92.896C530.562 93.648 530.762 94.632 530.762 95.848V103H527.69ZM519.554 103V91H522.626V103H519.554ZM352.632 131V118.928C353.656 119.168 354.68 119.168 355.704 118.928V131H352.632ZM354.168 117.296C353.56 117.296 353.096 117.144 352.776 116.84C352.472 116.536 352.32 116.136 352.32 115.64C352.32 115.144 352.472 114.744 352.776 114.44C353.096 114.12 353.56 113.96 354.168 113.96C354.792 113.96 355.256 114.12 355.56 114.44C355.88 114.744 356.04 115.144 356.04 115.64C356.04 116.136 355.88 116.536 355.56 116.84C355.256 117.144 354.792 117.296 354.168 117.296ZM370.008 113.72V131H366.912V113.72H370.008ZM367.44 128.192C367.072 129.168 366.512 129.928 365.76 130.472C365.024 131.016 364.144 131.288 363.12 131.288C362.128 131.288 361.232 131.04 360.432 130.544C359.648 130.032 359.024 129.312 358.56 128.384C358.096 127.44 357.864 126.32 357.864 125.024C357.864 123.744 358.088 122.64 358.536 121.712C359 120.768 359.632 120.032 360.432 119.504C361.248 118.976 362.192 118.712 363.264 118.712C364.288 118.712 365.144 118.96 365.832 119.456C366.52 119.936 366.992 120.608 367.248 121.472L366.912 124.232C366.912 123.672 366.792 123.176 366.552 122.744C366.312 122.312 365.984 121.976 365.568 121.736C365.168 121.48 364.696 121.352 364.152 121.352C363.56 121.352 363.032 121.504 362.568 121.808C362.12 122.112 361.768 122.536 361.512 123.08C361.272 123.624 361.152 124.256 361.152 124.976C361.152 125.696 361.272 126.328 361.512 126.872C361.768 127.4 362.12 127.808 362.568 128.096C363.032 128.384 363.568 128.528 364.176 128.528C364.992 128.528 365.648 128.264 366.144 127.736C366.656 127.208 366.912 126.512 366.912 125.648L367.44 128.192ZM378.498 131.288C376.45 131.288 374.874 130.76 373.77 129.704C372.666 128.632 372.114 127.144 372.114 125.24C372.114 123.912 372.37 122.76 372.882 121.784C373.41 120.808 374.146 120.056 375.09 119.528C376.05 118.984 377.154 118.712 378.402 118.712C379.506 118.712 380.434 118.904 381.186 119.288C381.954 119.656 382.538 120.152 382.938 120.776C383.338 121.4 383.538 122.08 383.538 122.816C383.538 123.52 383.362 124.112 383.01 124.592C382.658 125.056 382.17 125.416 381.546 125.672C380.938 125.912 380.234 126.064 379.434 126.128C378.65 126.192 377.81 126.176 376.914 126.08C376.034 125.968 375.154 125.784 374.274 125.528V123.632C375.122 123.84 375.914 123.984 376.65 124.064C377.386 124.128 378.034 124.128 378.594 124.064C379.17 123.984 379.618 123.832 379.938 123.608C380.258 123.368 380.418 123.04 380.418 122.624C380.418 122.192 380.242 121.816 379.89 121.496C379.538 121.16 379.034 120.992 378.378 120.992C377.77 120.992 377.234 121.144 376.77 121.448C376.306 121.752 375.938 122.208 375.666 122.816C375.41 123.424 375.282 124.184 375.282 125.096C375.282 125.944 375.41 126.656 375.666 127.232C375.922 127.792 376.322 128.216 376.866 128.504C377.41 128.792 378.114 128.936 378.978 128.936C379.682 128.936 380.386 128.856 381.09 128.696C381.794 128.52 382.482 128.256 383.154 127.904V130.112C382.61 130.448 381.938 130.728 381.138 130.952C380.354 131.176 379.474 131.288 378.498 131.288ZM393.932 131V124.328C393.932 123.688 393.828 123.176 393.62 122.792C393.412 122.392 393.124 122.096 392.756 121.904C392.404 121.712 392.012 121.616 391.58 121.616C391.116 121.616 390.676 121.72 390.26 121.928C389.844 122.136 389.508 122.456 389.252 122.888C388.996 123.304 388.868 123.84 388.868 124.496L388.34 121.808C388.596 121.104 388.94 120.528 389.372 120.08C389.82 119.616 390.324 119.272 390.884 119.048C391.46 118.824 392.052 118.712 392.66 118.712C393.428 118.712 394.14 118.888 394.796 119.24C395.468 119.592 396.004 120.144 396.404 120.896C396.804 121.648 397.004 122.632 397.004 123.848V131H393.932ZM385.796 131V119H388.868V131H385.796ZM406.585 130.784C406.217 130.944 405.825 131.064 405.409 131.144C404.993 131.24 404.553 131.288 404.089 131.288C402.905 131.288 402.001 130.952 401.377 130.28C400.753 129.608 400.441 128.624 400.441 127.328V121.736H399.769C399.369 121.736 399.041 121.624 398.785 121.4C398.529 121.176 398.401 120.856 398.401 120.44C398.401 120.072 398.505 119.76 398.713 119.504C398.921 119.248 399.225 119.016 399.625 118.808L403.513 116.792V119H407.065V121.736H403.513V126.824C403.513 127.464 403.641 127.92 403.897 128.192C404.169 128.448 404.553 128.576 405.049 128.576C405.305 128.576 405.553 128.552 405.793 128.504C406.049 128.44 406.313 128.36 406.585 128.264V130.784ZM409.046 131V118.928C410.07 119.168 411.094 119.168 412.118 118.928V131H409.046ZM410.582 117.296C409.974 117.296 409.51 117.144 409.19 116.84C408.886 116.536 408.734 116.136 408.734 115.64C408.734 115.144 408.886 114.744 409.19 114.44C409.51 114.12 409.974 113.96 410.582 113.96C411.206 113.96 411.67 114.12 411.974 114.44C412.294 114.744 412.454 115.144 412.454 115.64C412.454 116.136 412.294 116.536 411.974 116.84C411.67 117.144 411.206 117.296 410.582 117.296ZM415.98 131V117.752C415.98 116.76 416.172 115.952 416.556 115.328C416.94 114.688 417.46 114.216 418.116 113.912C418.772 113.592 419.508 113.432 420.324 113.432C421.156 113.432 421.788 113.584 422.22 113.888C422.668 114.176 422.892 114.592 422.892 115.136C422.892 115.52 422.788 115.824 422.58 116.048C422.388 116.256 422.14 116.36 421.836 116.36C421.628 116.36 421.412 116.328 421.188 116.264C420.98 116.184 420.74 116.144 420.468 116.144C420.084 116.144 419.748 116.272 419.46 116.528C419.188 116.784 419.052 117.224 419.052 117.848V131H415.98ZM415.356 121.736C414.972 121.736 414.636 121.624 414.348 121.4C414.076 121.176 413.94 120.832 413.94 120.368C413.94 119.92 414.076 119.584 414.348 119.36C414.636 119.12 414.972 119 415.356 119H422.604V121.736H415.356ZM426.356 136.088C425.908 136.088 425.484 136.024 425.084 135.896C424.7 135.784 424.388 135.6 424.148 135.344C423.908 135.088 423.788 134.768 423.788 134.384C423.788 134 423.9 133.704 424.124 133.496C424.348 133.288 424.628 133.184 424.964 133.184C425.188 133.184 425.388 133.216 425.564 133.28C425.74 133.344 425.932 133.376 426.14 133.376C426.364 133.376 426.58 133.312 426.788 133.184C426.996 133.056 427.22 132.816 427.46 132.464C427.7 132.128 427.948 131.64 428.204 131L436.412 119L431.348 131.576C430.708 133.192 429.98 134.344 429.164 135.032C428.364 135.736 427.428 136.088 426.356 136.088ZM428.204 131L423.38 119H426.884L430.964 131H428.204ZM431.588 131H429.068L432.98 119H436.412L431.588 131ZM454.761 131H451.641C451.529 130.76 451.441 130.424 451.377 129.992C451.329 129.544 451.297 129.04 451.281 128.48L451.137 127.856V122.816C451.137 122.224 450.953 121.816 450.585 121.592C450.233 121.368 449.753 121.256 449.145 121.256C448.553 121.256 448.065 121.328 447.681 121.472C447.297 121.616 446.977 121.784 446.721 121.976C446.465 122.168 446.217 122.336 445.977 122.48C445.753 122.624 445.489 122.696 445.185 122.696C444.801 122.696 444.489 122.592 444.249 122.384C444.009 122.16 443.889 121.864 443.889 121.496C443.889 121.224 443.953 120.96 444.081 120.704C444.209 120.448 444.433 120.2 444.753 119.96C445.729 119.128 447.185 118.712 449.121 118.712C450.225 118.712 451.153 118.856 451.905 119.144C452.657 119.432 453.233 119.904 453.633 120.56C454.033 121.216 454.233 122.096 454.233 123.2V127.232C454.233 128.064 454.281 128.8 454.377 129.44C454.473 130.064 454.601 130.584 454.761 131ZM447.345 131.288C446.193 131.288 445.273 130.976 444.585 130.352C443.897 129.728 443.553 128.88 443.553 127.808C443.553 126.848 443.857 126.088 444.465 125.528C445.089 124.952 446.017 124.56 447.249 124.352L449.601 123.968C450.225 123.84 450.633 123.704 450.825 123.56C451.033 123.416 451.137 123.184 451.137 122.864V125.12C451.057 125.216 450.921 125.312 450.729 125.408C450.537 125.488 450.249 125.568 449.865 125.648L448.473 125.936C447.977 126.032 447.577 126.2 447.273 126.44C446.969 126.68 446.817 127.04 446.817 127.52C446.817 128 446.969 128.376 447.273 128.648C447.593 128.92 448.009 129.056 448.521 129.056C449.001 129.056 449.433 128.944 449.817 128.72C450.217 128.48 450.537 128.152 450.777 127.736C451.017 127.304 451.137 126.8 451.137 126.224L451.593 128.384C451.225 129.376 450.665 130.112 449.913 130.592C449.161 131.056 448.305 131.288 447.345 131.288ZM461.077 131.288C460.149 131.288 459.301 131.184 458.533 130.976C457.765 130.752 457.085 130.48 456.493 130.16V127.52C457.293 128.064 458.109 128.488 458.941 128.792C459.773 129.08 460.533 129.224 461.221 129.224C461.909 129.224 462.413 129.096 462.733 128.84C463.053 128.584 463.213 128.272 463.213 127.904C463.213 127.536 463.045 127.248 462.709 127.04C462.389 126.816 461.973 126.632 461.461 126.488C460.965 126.328 460.429 126.168 459.853 126.008C459.293 125.848 458.757 125.64 458.245 125.384C457.749 125.128 457.341 124.776 457.021 124.328C456.701 123.88 456.541 123.304 456.541 122.6C456.541 121.864 456.733 121.2 457.117 120.608C457.517 120.016 458.101 119.552 458.869 119.216C459.653 118.88 460.613 118.712 461.749 118.712C462.661 118.712 463.445 118.824 464.101 119.048C464.773 119.256 465.285 119.544 465.637 119.912C466.005 120.28 466.189 120.704 466.189 121.184C466.189 121.52 466.085 121.792 465.877 122C465.685 122.192 465.429 122.288 465.109 122.288C464.805 122.288 464.541 122.216 464.317 122.072C464.109 121.912 463.885 121.736 463.645 121.544C463.405 121.336 463.125 121.16 462.805 121.016C462.501 120.856 462.109 120.776 461.629 120.776C461.005 120.776 460.541 120.912 460.237 121.184C459.933 121.456 459.781 121.768 459.781 122.12C459.781 122.504 459.941 122.808 460.261 123.032C460.597 123.256 461.013 123.44 461.509 123.584C462.021 123.728 462.557 123.888 463.117 124.064C463.677 124.224 464.213 124.44 464.725 124.712C465.237 124.968 465.653 125.32 465.973 125.768C466.293 126.2 466.453 126.776 466.453 127.496C466.453 128.232 466.253 128.888 465.853 129.464C465.453 130.04 464.853 130.488 464.053 130.808C463.269 131.128 462.277 131.288 461.077 131.288ZM474.835 135.8V119H477.907V135.8H474.835ZM477.379 121.808C477.763 120.816 478.323 120.056 479.059 119.528C479.811 118.984 480.699 118.712 481.723 118.712C482.715 118.712 483.603 118.968 484.387 119.48C485.187 119.976 485.811 120.696 486.259 121.64C486.723 122.568 486.955 123.68 486.955 124.976C486.955 126.24 486.731 127.344 486.283 128.288C485.835 129.232 485.203 129.968 484.387 130.496C483.587 131.024 482.651 131.288 481.579 131.288C480.555 131.288 479.699 131.048 479.011 130.568C478.323 130.072 477.851 129.392 477.595 128.528L477.907 125.768C477.907 126.328 478.027 126.824 478.267 127.256C478.507 127.688 478.835 128.032 479.251 128.288C479.667 128.528 480.139 128.648 480.667 128.648C481.275 128.648 481.803 128.496 482.251 128.192C482.699 127.888 483.051 127.464 483.307 126.92C483.563 126.36 483.691 125.728 483.691 125.024C483.691 124.288 483.563 123.656 483.307 123.128C483.051 122.6 482.699 122.192 482.251 121.904C481.803 121.616 481.275 121.472 480.667 121.472C479.851 121.472 479.187 121.736 478.675 122.264C478.163 122.792 477.907 123.488 477.907 124.352L477.379 121.808ZM499.644 131H496.524C496.412 130.76 496.324 130.424 496.26 129.992C496.212 129.544 496.18 129.04 496.164 128.48L496.02 127.856V122.816C496.02 122.224 495.836 121.816 495.468 121.592C495.116 121.368 494.636 121.256 494.028 121.256C493.436 121.256 492.948 121.328 492.564 121.472C492.18 121.616 491.86 121.784 491.604 121.976C491.348 122.168 491.1 122.336 490.86 122.48C490.636 122.624 490.372 122.696 490.068 122.696C489.684 122.696 489.372 122.592 489.132 122.384C488.892 122.16 488.772 121.864 488.772 121.496C488.772 121.224 488.836 120.96 488.964 120.704C489.092 120.448 489.316 120.2 489.636 119.96C490.612 119.128 492.068 118.712 494.004 118.712C495.108 118.712 496.036 118.856 496.788 119.144C497.54 119.432 498.116 119.904 498.516 120.56C498.916 121.216 499.116 122.096 499.116 123.2V127.232C499.116 128.064 499.164 128.8 499.26 129.44C499.356 130.064 499.484 130.584 499.644 131ZM492.228 131.288C491.076 131.288 490.156 130.976 489.468 130.352C488.78 129.728 488.436 128.88 488.436 127.808C488.436 126.848 488.74 126.088 489.348 125.528C489.972 124.952 490.9 124.56 492.132 124.352L494.484 123.968C495.108 123.84 495.516 123.704 495.708 123.56C495.916 123.416 496.02 123.184 496.02 122.864V125.12C495.94 125.216 495.804 125.312 495.612 125.408C495.42 125.488 495.132 125.568 494.748 125.648L493.356 125.936C492.86 126.032 492.46 126.2 492.156 126.44C491.852 126.68 491.7 127.04 491.7 127.52C491.7 128 491.852 128.376 492.156 128.648C492.476 128.92 492.892 129.056 493.404 129.056C493.884 129.056 494.316 128.944 494.7 128.72C495.1 128.48 495.42 128.152 495.66 127.736C495.9 127.304 496.02 126.8 496.02 126.224L496.476 128.384C496.108 129.376 495.548 130.112 494.796 130.592C494.044 131.056 493.188 131.288 492.228 131.288ZM501.976 131V119H505.048V131H501.976ZM505.048 125.192L504.64 121.808C504.96 120.8 505.408 120.032 505.984 119.504C506.56 118.976 507.208 118.712 507.928 118.712C508.296 118.712 508.624 118.784 508.912 118.928C509.216 119.072 509.456 119.288 509.632 119.576C509.824 119.848 509.92 120.2 509.92 120.632C509.92 121.192 509.776 121.616 509.488 121.904C509.216 122.176 508.864 122.312 508.432 122.312C508.144 122.312 507.888 122.272 507.664 122.192C507.456 122.096 507.232 122.048 506.992 122.048C506.416 122.048 505.944 122.328 505.576 122.888C505.224 123.448 505.048 124.216 505.048 125.192ZM516.779 131.288C514.731 131.288 513.155 130.76 512.051 129.704C510.947 128.632 510.395 127.144 510.395 125.24C510.395 123.912 510.651 122.76 511.163 121.784C511.691 120.808 512.427 120.056 513.371 119.528C514.331 118.984 515.435 118.712 516.683 118.712C517.787 118.712 518.715 118.904 519.467 119.288C520.235 119.656 520.819 120.152 521.219 120.776C521.619 121.4 521.819 122.08 521.819 122.816C521.819 123.52 521.643 124.112 521.291 124.592C520.939 125.056 520.451 125.416 519.827 125.672C519.219 125.912 518.515 126.064 517.715 126.128C516.931 126.192 516.091 126.176 515.195 126.08C514.315 125.968 513.435 125.784 512.555 125.528V123.632C513.403 123.84 514.195 123.984 514.931 124.064C515.667 124.128 516.315 124.128 516.875 124.064C517.451 123.984 517.899 123.832 518.219 123.608C518.539 123.368 518.699 123.04 518.699 122.624C518.699 122.192 518.523 121.816 518.171 121.496C517.819 121.16 517.315 120.992 516.659 120.992C516.051 120.992 515.515 121.144 515.051 121.448C514.587 121.752 514.219 122.208 513.947 122.816C513.691 123.424 513.563 124.184 513.563 125.096C513.563 125.944 513.691 126.656 513.947 127.232C514.203 127.792 514.603 128.216 515.147 128.504C515.691 128.792 516.395 128.936 517.259 128.936C517.963 128.936 518.667 128.856 519.371 128.696C520.075 128.52 520.763 128.256 521.435 127.904V130.112C520.891 130.448 520.219 130.728 519.419 130.952C518.635 131.176 517.755 131.288 516.779 131.288ZM532.213 131V124.328C532.213 123.688 532.109 123.176 531.901 122.792C531.693 122.392 531.405 122.096 531.037 121.904C530.685 121.712 530.293 121.616 529.861 121.616C529.397 121.616 528.957 121.72 528.541 121.928C528.125 122.136 527.789 122.456 527.533 122.888C527.277 123.304 527.149 123.84 527.149 124.496L526.621 121.808C526.877 121.104 527.221 120.528 527.653 120.08C528.101 119.616 528.605 119.272 529.165 119.048C529.741 118.824 530.333 118.712 530.941 118.712C531.709 118.712 532.421 118.888 533.077 119.24C533.749 119.592 534.285 120.144 534.685 120.896C535.085 121.648 535.285 122.632 535.285 123.848V131H532.213ZM524.077 131V119H527.149V131H524.077ZM544.867 130.784C544.499 130.944 544.107 131.064 543.691 131.144C543.275 131.24 542.835 131.288 542.371 131.288C541.187 131.288 540.283 130.952 539.659 130.28C539.035 129.608 538.723 128.624 538.723 127.328V121.736H538.051C537.651 121.736 537.323 121.624 537.067 121.4C536.811 121.176 536.683 120.856 536.683 120.44C536.683 120.072 536.787 119.76 536.995 119.504C537.203 119.248 537.507 119.016 537.907 118.808L541.795 116.792V119H545.347V121.736H541.795V126.824C541.795 127.464 541.923 127.92 542.179 128.192C542.451 128.448 542.835 128.576 543.331 128.576C543.587 128.576 543.835 128.552 544.075 128.504C544.331 128.44 544.595 128.36 544.867 128.264V130.784ZM551.311 131.288C550.383 131.288 549.535 131.184 548.767 130.976C547.999 130.752 547.319 130.48 546.727 130.16V127.52C547.527 128.064 548.343 128.488 549.175 128.792C550.007 129.08 550.767 129.224 551.455 129.224C552.143 129.224 552.647 129.096 552.967 128.84C553.287 128.584 553.447 128.272 553.447 127.904C553.447 127.536 553.279 127.248 552.943 127.04C552.623 126.816 552.207 126.632 551.695 126.488C551.199 126.328 550.663 126.168 550.087 126.008C549.527 125.848 548.991 125.64 548.479 125.384C547.983 125.128 547.575 124.776 547.255 124.328C546.935 123.88 546.775 123.304 546.775 122.6C546.775 121.864 546.967 121.2 547.351 120.608C547.751 120.016 548.335 119.552 549.103 119.216C549.887 118.88 550.847 118.712 551.983 118.712C552.895 118.712 553.679 118.824 554.335 119.048C555.007 119.256 555.519 119.544 555.871 119.912C556.239 120.28 556.423 120.704 556.423 121.184C556.423 121.52 556.319 121.792 556.111 122C555.919 122.192 555.663 122.288 555.343 122.288C555.039 122.288 554.775 122.216 554.551 122.072C554.343 121.912 554.119 121.736 553.879 121.544C553.639 121.336 553.359 121.16 553.039 121.016C552.735 120.856 552.343 120.776 551.863 120.776C551.239 120.776 550.775 120.912 550.471 121.184C550.167 121.456 550.015 121.768 550.015 122.12C550.015 122.504 550.175 122.808 550.495 123.032C550.831 123.256 551.247 123.44 551.743 123.584C552.255 123.728 552.791 123.888 553.351 124.064C553.911 124.224 554.447 124.44 554.959 124.712C555.471 124.968 555.887 125.32 556.207 125.768C556.527 126.2 556.687 126.776 556.687 127.496C556.687 128.232 556.487 128.888 556.087 129.464C555.687 130.04 555.087 130.488 554.287 130.808C553.503 131.128 552.511 131.288 551.311 131.288Z" fill="white"/>
<rect x="20" y="223" width="576.857" height="205.95" rx="20" fill="#7DA75B"/>
<path d="M67.752 371V296.888L88.616 283.96V371H67.752ZM61.096 310.712C59.048 312.248 56.9573 313.229 54.824 313.656C52.6907 313.997 50.6853 313.827 48.808 313.144C47.016 312.461 45.5227 311.352 44.328 309.816C43.2187 308.28 42.664 306.317 42.664 303.928C42.664 301.539 43.3467 299.533 44.712 297.912C46.0773 296.205 48.2107 294.584 51.112 293.048L68.904 283.96H88.616L82.088 295.608L61.096 310.712ZM138.832 372.536C130.725 372.536 123.899 370.701 118.352 367.032C112.805 363.363 108.581 358.2 105.68 351.544C102.779 344.803 101.328 336.824 101.328 327.608C101.328 318.307 102.779 310.285 105.68 303.544C108.581 296.803 112.848 291.597 118.48 287.928C124.197 284.259 131.109 282.424 139.216 282.424C147.323 282.424 154.064 284.259 159.44 287.928C164.901 291.512 168.997 296.675 171.728 303.416C174.459 310.072 175.824 318.051 175.824 327.352C175.824 336.739 174.416 344.803 171.6 351.544C168.869 358.285 164.731 363.491 159.184 367.16C153.723 370.744 146.939 372.536 138.832 372.536ZM138.448 353.848C141.861 353.848 144.72 352.824 147.024 350.776C149.328 348.643 151.077 345.613 152.272 341.688C153.467 337.677 154.064 332.899 154.064 327.352C154.064 321.976 153.467 317.325 152.272 313.4C151.163 309.475 149.499 306.445 147.28 304.312C145.061 302.179 142.203 301.112 138.704 301.112C135.376 301.112 132.56 302.179 130.256 304.312C127.952 306.36 126.203 309.389 125.008 313.4C123.813 317.325 123.216 322.061 123.216 327.608C123.216 332.984 123.771 337.635 124.88 341.56C125.989 345.485 127.696 348.515 130 350.648C132.304 352.781 135.12 353.848 138.448 353.848ZM222.457 372.536C214.35 372.536 207.524 370.701 201.977 367.032C196.43 363.363 192.206 358.2 189.305 351.544C186.404 344.803 184.953 336.824 184.953 327.608C184.953 318.307 186.404 310.285 189.305 303.544C192.206 296.803 196.473 291.597 202.105 287.928C207.822 284.259 214.734 282.424 222.841 282.424C230.948 282.424 237.689 284.259 243.065 287.928C248.526 291.512 252.622 296.675 255.353 303.416C258.084 310.072 259.449 318.051 259.449 327.352C259.449 336.739 258.041 344.803 255.225 351.544C252.494 358.285 248.356 363.491 242.809 367.16C237.348 370.744 230.564 372.536 222.457 372.536ZM222.073 353.848C225.486 353.848 228.345 352.824 230.649 350.776C232.953 348.643 234.702 345.613 235.897 341.688C237.092 337.677 237.689 332.899 237.689 327.352C237.689 321.976 237.092 317.325 235.897 313.4C234.788 309.475 233.124 306.445 230.905 304.312C228.686 302.179 225.828 301.112 222.329 301.112C219.001 301.112 216.185 302.179 213.881 304.312C211.577 306.36 209.828 309.389 208.633 313.4C207.438 317.325 206.841 322.061 206.841 327.608C206.841 332.984 207.396 337.635 208.505 341.56C209.614 345.485 211.321 348.515 213.625 350.648C215.929 352.781 218.745 353.848 222.073 353.848ZM334.623 283.96H353.055L306.207 371H287.903L334.623 283.96ZM267.551 306.616C267.551 302.008 268.49 297.869 270.367 294.2C272.33 290.531 275.103 287.672 278.687 285.624C282.356 283.491 286.751 282.424 291.871 282.424C299.039 282.424 304.628 284.515 308.639 288.696C312.735 292.877 314.783 298.509 314.783 305.592C314.783 310.2 313.844 314.339 311.967 318.008C310.175 321.592 307.487 324.408 303.903 326.456C300.404 328.504 296.138 329.528 291.103 329.528C283.85 329.528 278.09 327.437 273.823 323.256C269.642 318.989 267.551 313.443 267.551 306.616ZM283.039 306.232C283.039 309.731 283.807 312.461 285.343 314.424C286.879 316.387 288.842 317.368 291.231 317.368C293.62 317.368 295.54 316.387 296.991 314.424C298.442 312.376 299.167 309.517 299.167 305.848C299.167 302.264 298.442 299.491 296.991 297.528C295.54 295.565 293.663 294.584 291.359 294.584C288.884 294.584 286.879 295.651 285.343 297.784C283.807 299.832 283.039 302.648 283.039 306.232ZM325.919 349.624C325.919 345.016 326.858 340.877 328.735 337.208C330.698 333.539 333.471 330.68 337.055 328.632C340.724 326.499 345.119 325.432 350.239 325.432C357.407 325.432 362.996 327.523 367.007 331.704C371.103 335.885 373.151 341.517 373.151 348.6C373.151 353.208 372.212 357.347 370.335 361.016C368.543 364.6 365.898 367.416 362.399 369.464C358.9 371.512 354.591 372.536 349.471 372.536C342.218 372.536 336.458 370.445 332.191 366.264C328.01 361.997 325.919 356.451 325.919 349.624ZM341.535 349.24C341.535 352.739 342.26 355.469 343.711 357.432C345.247 359.395 347.21 360.376 349.599 360.376C351.988 360.376 353.908 359.395 355.359 357.432C356.81 355.384 357.535 352.525 357.535 348.856C357.535 345.272 356.81 342.499 355.359 340.536C353.908 338.573 352.031 337.592 349.727 337.592C347.338 337.592 345.375 338.659 343.839 340.792C342.303 342.84 341.535 345.656 341.535 349.24Z" fill="white"/>
<path d="M412.616 305.288C411.688 305.288 410.84 305.184 410.072 304.976C409.304 304.752 408.624 304.48 408.032 304.16V301.52C408.832 302.064 409.648 302.488 410.48 302.792C411.312 303.08 412.072 303.224 412.76 303.224C413.448 303.224 413.952 303.096 414.272 302.84C414.592 302.584 414.752 302.272 414.752 301.904C414.752 301.536 414.584 301.248 414.248 301.04C413.928 300.816 413.512 300.632 413 300.488C412.504 300.328 411.968 300.168 411.392 300.008C410.832 299.848 410.296 299.64 409.784 299.384C409.288 299.128 408.88 298.776 408.56 298.328C408.24 297.88 408.08 297.304 408.08 296.6C408.08 295.864 408.272 295.2 408.656 294.608C409.056 294.016 409.64 293.552 410.408 293.216C411.192 292.88 412.152 292.712 413.288 292.712C414.2 292.712 414.984 292.824 415.64 293.048C416.312 293.256 416.824 293.544 417.176 293.912C417.544 294.28 417.728 294.704 417.728 295.184C417.728 295.52 417.624 295.792 417.416 296C417.224 296.192 416.968 296.288 416.648 296.288C416.344 296.288 416.08 296.216 415.856 296.072C415.648 295.912 415.424 295.736 415.184 295.544C414.944 295.336 414.664 295.16 414.344 295.016C414.04 294.856 413.648 294.776 413.168 294.776C412.544 294.776 412.08 294.912 411.776 295.184C411.472 295.456 411.32 295.768 411.32 296.12C411.32 296.504 411.48 296.808 411.8 297.032C412.136 297.256 412.552 297.44 413.048 297.584C413.56 297.728 414.096 297.888 414.656 298.064C415.216 298.224 415.752 298.44 416.264 298.712C416.776 298.968 417.192 299.32 417.512 299.768C417.832 300.2 417.992 300.776 417.992 301.496C417.992 302.232 417.792 302.888 417.392 303.464C416.992 304.04 416.392 304.488 415.592 304.808C414.808 305.128 413.816 305.288 412.616 305.288ZM427.335 304.784C426.967 304.944 426.575 305.064 426.159 305.144C425.743 305.24 425.303 305.288 424.839 305.288C423.655 305.288 422.751 304.952 422.127 304.28C421.503 303.608 421.191 302.624 421.191 301.328V295.736H420.519C420.119 295.736 419.791 295.624 419.535 295.4C419.279 295.176 419.151 294.856 419.151 294.44C419.151 294.072 419.255 293.76 419.463 293.504C419.671 293.248 419.975 293.016 420.375 292.808L424.263 290.792V293H427.815V295.736H424.263V300.824C424.263 301.464 424.391 301.92 424.647 302.192C424.919 302.448 425.303 302.576 425.799 302.576C426.055 302.576 426.303 302.552 426.543 302.504C426.799 302.44 427.063 302.36 427.335 302.264V304.784ZM429.796 305V293H432.868V305H429.796ZM432.868 299.192L432.46 295.808C432.78 294.8 433.228 294.032 433.804 293.504C434.38 292.976 435.028 292.712 435.748 292.712C436.116 292.712 436.444 292.784 436.732 292.928C437.036 293.072 437.276 293.288 437.452 293.576C437.644 293.848 437.74 294.2 437.74 294.632C437.74 295.192 437.596 295.616 437.308 295.904C437.036 296.176 436.684 296.312 436.252 296.312C435.964 296.312 435.708 296.272 435.484 296.192C435.276 296.096 435.052 296.048 434.812 296.048C434.236 296.048 433.764 296.328 433.396 296.888C433.044 297.448 432.868 298.216 432.868 299.192ZM444.708 305.288C442.9 305.288 441.516 304.832 440.556 303.92C439.612 302.992 439.14 301.632 439.14 299.84V293H442.236V299.816C442.236 300.728 442.452 301.408 442.884 301.856C443.316 302.304 443.924 302.528 444.708 302.528C445.492 302.528 446.092 302.304 446.508 301.856C446.94 301.408 447.156 300.728 447.156 299.816V293H450.252V299.84C450.252 301.632 449.772 302.992 448.812 303.92C447.868 304.832 446.5 305.288 444.708 305.288ZM458.323 310.088C457.251 310.088 456.339 310.008 455.587 309.848C454.851 309.688 454.267 309.48 453.835 309.224C453.531 309.048 453.299 308.848 453.139 308.624C452.979 308.416 452.899 308.168 452.899 307.88C452.899 307.56 453.003 307.304 453.211 307.112C453.419 306.92 453.707 306.824 454.075 306.824C454.363 306.824 454.643 306.872 454.915 306.968C455.187 307.064 455.491 307.184 455.827 307.328C456.163 307.472 456.563 307.592 457.027 307.688C457.507 307.8 458.083 307.856 458.755 307.856C459.667 307.856 460.395 307.728 460.939 307.472C461.483 307.216 461.755 306.808 461.755 306.248C461.755 305.896 461.611 305.608 461.323 305.384C461.035 305.16 460.475 305.048 459.643 305.048H456.379C455.467 305.048 454.723 304.944 454.147 304.736C453.587 304.512 453.179 304.208 452.923 303.824C452.667 303.424 452.539 302.976 452.539 302.48C452.539 301.728 452.803 301.112 453.331 300.632C453.859 300.136 454.579 299.84 455.491 299.744L458.155 300.44C457.419 300.44 456.851 300.496 456.451 300.608C456.051 300.704 455.771 300.84 455.611 301.016C455.467 301.176 455.395 301.352 455.395 301.544C455.395 301.816 455.515 302.016 455.755 302.144C455.995 302.256 456.395 302.312 456.955 302.312H460.171C461.643 302.312 462.787 302.592 463.603 303.152C464.435 303.712 464.851 304.624 464.851 305.888C464.851 307.264 464.323 308.304 463.267 309.008C462.211 309.728 460.563 310.088 458.323 310.088ZM458.155 300.44C456.491 300.44 455.179 300.128 454.219 299.504C453.259 298.864 452.779 297.92 452.779 296.672C452.779 295.808 453.011 295.088 453.475 294.512C453.939 293.92 454.595 293.472 455.443 293.168C456.307 292.864 457.323 292.712 458.491 292.712L461.803 293.888C462.171 294.064 462.491 294.296 462.763 294.584C463.051 294.856 463.275 295.176 463.435 295.544C463.595 295.912 463.675 296.336 463.675 296.816C463.675 297.584 463.459 298.24 463.027 298.784C462.595 299.328 461.971 299.744 461.155 300.032C460.339 300.304 459.339 300.44 458.155 300.44ZM458.275 298.592C458.979 298.592 459.547 298.416 459.979 298.064C460.411 297.712 460.627 297.208 460.627 296.552C460.627 295.896 460.419 295.4 460.003 295.064C459.587 294.728 459.035 294.56 458.347 294.56C457.643 294.56 457.075 294.736 456.643 295.088C456.211 295.44 455.995 295.944 455.995 296.6C455.995 297.256 456.203 297.752 456.619 298.088C457.035 298.424 457.587 298.592 458.275 298.592ZM465.307 295.616C464.651 295.616 464.035 295.584 463.459 295.52C462.899 295.456 462.259 295.384 461.539 295.304L458.491 292.712C459.643 292.712 460.779 292.76 461.899 292.856C463.019 292.952 464.155 293 465.307 293V295.616ZM472.432 310.088C471.36 310.088 470.448 310.008 469.696 309.848C468.96 309.688 468.376 309.48 467.944 309.224C467.64 309.048 467.408 308.848 467.248 308.624C467.088 308.416 467.008 308.168 467.008 307.88C467.008 307.56 467.112 307.304 467.32 307.112C467.528 306.92 467.816 306.824 468.184 306.824C468.472 306.824 468.752 306.872 469.024 306.968C469.296 307.064 469.6 307.184 469.936 307.328C470.272 307.472 470.672 307.592 471.136 307.688C471.616 307.8 472.192 307.856 472.864 307.856C473.776 307.856 474.504 307.728 475.048 307.472C475.592 307.216 475.864 306.808 475.864 306.248C475.864 305.896 475.72 305.608 475.432 305.384C475.144 305.16 474.584 305.048 473.752 305.048H470.488C469.576 305.048 468.832 304.944 468.256 304.736C467.696 304.512 467.288 304.208 467.032 303.824C466.776 303.424 466.648 302.976 466.648 302.48C466.648 301.728 466.912 301.112 467.44 300.632C467.968 300.136 468.688 299.84 469.6 299.744L472.264 300.44C471.528 300.44 470.96 300.496 470.56 300.608C470.16 300.704 469.88 300.84 469.72 301.016C469.576 301.176 469.504 301.352 469.504 301.544C469.504 301.816 469.624 302.016 469.864 302.144C470.104 302.256 470.504 302.312 471.064 302.312H474.28C475.752 302.312 476.896 302.592 477.712 303.152C478.544 303.712 478.96 304.624 478.96 305.888C478.96 307.264 478.432 308.304 477.376 309.008C476.32 309.728 474.672 310.088 472.432 310.088ZM472.264 300.44C470.6 300.44 469.288 300.128 468.328 299.504C467.368 298.864 466.888 297.92 466.888 296.672C466.888 295.808 467.12 295.088 467.584 294.512C468.048 293.92 468.704 293.472 469.552 293.168C470.416 292.864 471.432 292.712 472.6 292.712L475.912 293.888C476.28 294.064 476.6 294.296 476.872 294.584C477.16 294.856 477.384 295.176 477.544 295.544C477.704 295.912 477.784 296.336 477.784 296.816C477.784 297.584 477.568 298.24 477.136 298.784C476.704 299.328 476.08 299.744 475.264 300.032C474.448 300.304 473.448 300.44 472.264 300.44ZM472.384 298.592C473.088 298.592 473.656 298.416 474.088 298.064C474.52 297.712 474.736 297.208 474.736 296.552C474.736 295.896 474.528 295.4 474.112 295.064C473.696 294.728 473.144 294.56 472.456 294.56C471.752 294.56 471.184 294.736 470.752 295.088C470.32 295.44 470.104 295.944 470.104 296.6C470.104 297.256 470.312 297.752 470.728 298.088C471.144 298.424 471.696 298.592 472.384 298.592ZM479.416 295.616C478.76 295.616 478.144 295.584 477.568 295.52C477.008 295.456 476.368 295.384 475.648 295.304L472.6 292.712C473.752 292.712 474.888 292.76 476.008 292.856C477.128 292.952 478.264 293 479.416 293V295.616ZM484.501 287.72V301.064C484.501 301.624 484.581 302.008 484.741 302.216C484.917 302.424 485.197 302.528 485.581 302.528C485.741 302.528 485.893 302.52 486.037 302.504C486.197 302.472 486.365 302.432 486.541 302.384V304.856C485.917 305.144 485.245 305.288 484.525 305.288C483.405 305.288 482.605 304.96 482.125 304.304C481.661 303.632 481.429 302.744 481.429 301.64V287.72H484.501ZM493.771 305.288C491.723 305.288 490.147 304.76 489.043 303.704C487.939 302.632 487.387 301.144 487.387 299.24C487.387 297.912 487.643 296.76 488.155 295.784C488.683 294.808 489.419 294.056 490.363 293.528C491.323 292.984 492.427 292.712 493.675 292.712C494.779 292.712 495.707 292.904 496.459 293.288C497.227 293.656 497.811 294.152 498.211 294.776C498.611 295.4 498.811 296.08 498.811 296.816C498.811 297.52 498.635 298.112 498.283 298.592C497.931 299.056 497.443 299.416 496.819 299.672C496.211 299.912 495.507 300.064 494.707 300.128C493.923 300.192 493.083 300.176 492.187 300.08C491.307 299.968 490.427 299.784 489.547 299.528V297.632C490.395 297.84 491.187 297.984 491.923 298.064C492.659 298.128 493.307 298.128 493.867 298.064C494.443 297.984 494.891 297.832 495.211 297.608C495.531 297.368 495.691 297.04 495.691 296.624C495.691 296.192 495.515 295.816 495.163 295.496C494.811 295.16 494.307 294.992 493.651 294.992C493.043 294.992 492.507 295.144 492.043 295.448C491.579 295.752 491.211 296.208 490.939 296.816C490.683 297.424 490.555 298.184 490.555 299.096C490.555 299.944 490.683 300.656 490.939 301.232C491.195 301.792 491.595 302.216 492.139 302.504C492.683 302.792 493.387 302.936 494.251 302.936C494.955 302.936 495.659 302.856 496.363 302.696C497.067 302.52 497.755 302.256 498.427 301.904V304.112C497.883 304.448 497.211 304.728 496.411 304.952C495.627 305.176 494.747 305.288 493.771 305.288ZM411.32 333L414.68 322.416C414.872 321.824 415.112 321.392 415.4 321.12C415.704 320.848 416.096 320.712 416.576 320.712C417.04 320.712 417.416 320.848 417.704 321.12C418.008 321.392 418.248 321.824 418.424 322.416L421.784 333H419.144L416.168 323.76H416.96L413.984 333H411.32ZM410.72 333L407.216 321H410.552L413.12 333H410.72ZM420.008 333L422.552 321H425.888L422.384 333H420.008ZM427.616 333V320.928C428.64 321.168 429.664 321.168 430.688 320.928V333H427.616ZM429.152 319.296C428.544 319.296 428.08 319.144 427.76 318.84C427.456 318.536 427.304 318.136 427.304 317.64C427.304 317.144 427.456 316.744 427.76 316.44C428.08 316.12 428.544 315.96 429.152 315.96C429.776 315.96 430.24 316.12 430.544 316.44C430.864 316.744 431.024 317.144 431.024 317.64C431.024 318.136 430.864 318.536 430.544 318.84C430.24 319.144 429.776 319.296 429.152 319.296ZM440.671 332.784C440.303 332.944 439.911 333.064 439.495 333.144C439.079 333.24 438.639 333.288 438.175 333.288C436.991 333.288 436.087 332.952 435.463 332.28C434.839 331.608 434.527 330.624 434.527 329.328V323.736H433.855C433.455 323.736 433.127 323.624 432.871 323.4C432.615 323.176 432.487 322.856 432.487 322.44C432.487 322.072 432.591 321.76 432.799 321.504C433.007 321.248 433.311 321.016 433.711 320.808L437.599 318.792V321H441.151V323.736H437.599V328.824C437.599 329.464 437.727 329.92 437.983 330.192C438.255 330.448 438.639 330.576 439.135 330.576C439.391 330.576 439.639 330.552 439.879 330.504C440.135 330.44 440.399 330.36 440.671 330.264V332.784ZM451.268 333V326.328C451.268 325.688 451.164 325.176 450.956 324.792C450.748 324.392 450.46 324.096 450.092 323.904C449.74 323.712 449.348 323.616 448.916 323.616C448.452 323.616 448.012 323.72 447.596 323.928C447.18 324.136 446.844 324.456 446.588 324.888C446.332 325.304 446.204 325.84 446.204 326.496L445.676 323.808C445.948 323.104 446.3 322.528 446.732 322.08C447.18 321.616 447.684 321.272 448.244 321.048C448.804 320.824 449.388 320.712 449.996 320.712C450.764 320.712 451.476 320.888 452.132 321.24C452.804 321.592 453.34 322.144 453.74 322.896C454.14 323.648 454.34 324.632 454.34 325.848V333H451.268ZM443.132 333V315.72H446.204V333H443.132ZM418.856 351.64C418.856 352.072 418.728 352.408 418.472 352.648C418.216 352.872 417.88 352.984 417.464 352.984C417.112 352.984 416.824 352.904 416.6 352.744C416.376 352.568 416.16 352.368 415.952 352.144C415.744 351.92 415.496 351.72 415.208 351.544C414.936 351.368 414.56 351.28 414.08 351.28C413.184 351.28 412.48 351.608 411.968 352.264C411.456 352.92 411.2 353.792 411.2 354.88C411.2 355.616 411.328 356.264 411.584 356.824C411.84 357.368 412.232 357.792 412.76 358.096C413.304 358.4 413.992 358.552 414.824 358.552C415.384 358.552 415.96 358.48 416.552 358.336C417.16 358.176 417.792 357.944 418.448 357.64V360.16C417.968 360.448 417.392 360.712 416.72 360.952C416.048 361.176 415.24 361.288 414.296 361.288C412.296 361.288 410.72 360.736 409.568 359.632C408.432 358.528 407.864 357.016 407.864 355.096C407.864 353.816 408.12 352.696 408.632 351.736C409.144 350.776 409.864 350.032 410.792 349.504C411.736 348.976 412.864 348.712 414.176 348.712C415.056 348.712 415.84 348.84 416.528 349.096C417.216 349.336 417.768 349.672 418.184 350.104C418.632 350.568 418.856 351.08 418.856 351.64ZM428.956 361V354.328C428.956 353.688 428.852 353.176 428.644 352.792C428.436 352.392 428.148 352.096 427.78 351.904C427.428 351.712 427.036 351.616 426.604 351.616C426.14 351.616 425.7 351.72 425.284 351.928C424.868 352.136 424.532 352.456 424.276 352.888C424.02 353.304 423.892 353.84 423.892 354.496L423.364 351.808C423.636 351.104 423.988 350.528 424.42 350.08C424.868 349.616 425.372 349.272 425.932 349.048C426.492 348.824 427.076 348.712 427.684 348.712C428.452 348.712 429.164 348.888 429.82 349.24C430.492 349.592 431.028 350.144 431.428 350.896C431.828 351.648 432.028 352.632 432.028 353.848V361H428.956ZM420.82 361V343.72H423.892V361H420.82ZM434.741 361V348.928C435.765 349.168 436.789 349.168 437.813 348.928V361H434.741ZM436.277 347.296C435.669 347.296 435.205 347.144 434.885 346.84C434.581 346.536 434.429 346.136 434.429 345.64C434.429 345.144 434.581 344.744 434.885 344.44C435.205 344.12 435.669 343.96 436.277 343.96C436.901 343.96 437.365 344.12 437.669 344.44C437.989 344.744 438.149 345.144 438.149 345.64C438.149 346.136 437.989 346.536 437.669 346.84C437.365 347.144 436.901 347.296 436.277 347.296ZM443.837 343.72V357.064C443.837 357.624 443.917 358.008 444.077 358.216C444.253 358.424 444.533 358.528 444.917 358.528C445.077 358.528 445.229 358.52 445.373 358.504C445.533 358.472 445.701 358.432 445.877 358.384V360.856C445.253 361.144 444.581 361.288 443.861 361.288C442.741 361.288 441.941 360.96 441.461 360.304C440.997 359.632 440.765 358.744 440.765 357.64V343.72H443.837ZM458.914 343.72V361H455.818V343.72H458.914ZM456.346 358.192C455.978 359.168 455.418 359.928 454.666 360.472C453.93 361.016 453.05 361.288 452.026 361.288C451.034 361.288 450.138 361.04 449.338 360.544C448.554 360.032 447.93 359.312 447.466 358.384C447.002 357.44 446.77 356.32 446.77 355.024C446.77 353.744 446.994 352.64 447.442 351.712C447.906 350.768 448.538 350.032 449.338 349.504C450.154 348.976 451.098 348.712 452.17 348.712C453.194 348.712 454.05 348.96 454.738 349.456C455.426 349.936 455.898 350.608 456.154 351.472L455.818 354.232C455.818 353.672 455.698 353.176 455.458 352.744C455.218 352.312 454.89 351.976 454.474 351.736C454.074 351.48 453.602 351.352 453.058 351.352C452.466 351.352 451.938 351.504 451.474 351.808C451.026 352.112 450.674 352.536 450.418 353.08C450.178 353.624 450.058 354.256 450.058 354.976C450.058 355.696 450.178 356.328 450.418 356.872C450.674 357.4 451.026 357.808 451.474 358.096C451.938 358.384 452.474 358.528 453.082 358.528C453.898 358.528 454.554 358.264 455.05 357.736C455.562 357.208 455.818 356.512 455.818 355.648L456.346 358.192ZM472.012 351.64C472.012 352.072 471.884 352.408 471.628 352.648C471.372 352.872 471.036 352.984 470.62 352.984C470.268 352.984 469.98 352.904 469.756 352.744C469.532 352.568 469.316 352.368 469.108 352.144C468.9 351.92 468.652 351.72 468.364 351.544C468.092 351.368 467.716 351.28 467.236 351.28C466.34 351.28 465.636 351.608 465.124 352.264C464.612 352.92 464.356 353.792 464.356 354.88C464.356 355.616 464.484 356.264 464.74 356.824C464.996 357.368 465.388 357.792 465.916 358.096C466.46 358.4 467.148 358.552 467.98 358.552C468.54 358.552 469.116 358.48 469.708 358.336C470.316 358.176 470.948 357.944 471.604 357.64V360.16C471.124 360.448 470.548 360.712 469.876 360.952C469.204 361.176 468.396 361.288 467.452 361.288C465.452 361.288 463.876 360.736 462.724 359.632C461.588 358.528 461.02 357.016 461.02 355.096C461.02 353.816 461.276 352.696 461.788 351.736C462.3 350.776 463.02 350.032 463.948 349.504C464.892 348.976 466.02 348.712 467.332 348.712C468.212 348.712 468.996 348.84 469.684 349.096C470.372 349.336 470.924 349.672 471.34 350.104C471.788 350.568 472.012 351.08 472.012 351.64ZM484.652 361H481.532C481.42 360.76 481.332 360.424 481.268 359.992C481.22 359.544 481.188 359.04 481.172 358.48L481.028 357.856V352.816C481.028 352.224 480.844 351.816 480.476 351.592C480.124 351.368 479.644 351.256 479.036 351.256C478.444 351.256 477.956 351.328 477.572 351.472C477.188 351.616 476.868 351.784 476.612 351.976C476.356 352.168 476.108 352.336 475.868 352.48C475.644 352.624 475.38 352.696 475.076 352.696C474.692 352.696 474.38 352.592 474.14 352.384C473.9 352.16 473.78 351.864 473.78 351.496C473.78 351.224 473.844 350.96 473.972 350.704C474.1 350.448 474.324 350.2 474.644 349.96C475.62 349.128 477.076 348.712 479.012 348.712C480.116 348.712 481.044 348.856 481.796 349.144C482.548 349.432 483.124 349.904 483.524 350.56C483.924 351.216 484.124 352.096 484.124 353.2V357.232C484.124 358.064 484.172 358.8 484.268 359.44C484.364 360.064 484.492 360.584 484.652 361ZM477.236 361.288C476.084 361.288 475.164 360.976 474.476 360.352C473.788 359.728 473.444 358.88 473.444 357.808C473.444 356.848 473.748 356.088 474.356 355.528C474.98 354.952 475.908 354.56 477.14 354.352L479.492 353.968C480.116 353.84 480.524 353.704 480.716 353.56C480.924 353.416 481.028 353.184 481.028 352.864V355.12C480.948 355.216 480.812 355.312 480.62 355.408C480.428 355.488 480.14 355.568 479.756 355.648L478.364 355.936C477.868 356.032 477.468 356.2 477.164 356.44C476.86 356.68 476.708 357.04 476.708 357.52C476.708 358 476.86 358.376 477.164 358.648C477.484 358.92 477.9 359.056 478.412 359.056C478.892 359.056 479.324 358.944 479.708 358.72C480.108 358.48 480.428 358.152 480.668 357.736C480.908 357.304 481.028 356.8 481.028 356.224L481.484 358.384C481.116 359.376 480.556 360.112 479.804 360.592C479.052 361.056 478.196 361.288 477.236 361.288ZM486.984 361V349H490.056V361H486.984ZM490.056 355.192L489.648 351.808C489.968 350.8 490.416 350.032 490.992 349.504C491.568 348.976 492.216 348.712 492.936 348.712C493.304 348.712 493.632 348.784 493.92 348.928C494.224 349.072 494.464 349.288 494.64 349.576C494.832 349.848 494.928 350.2 494.928 350.632C494.928 351.192 494.784 351.616 494.496 351.904C494.224 352.176 493.872 352.312 493.44 352.312C493.152 352.312 492.896 352.272 492.672 352.192C492.464 352.096 492.24 352.048 492 352.048C491.424 352.048 490.952 352.328 490.584 352.888C490.232 353.448 490.056 354.216 490.056 355.192ZM501.787 361.288C499.739 361.288 498.163 360.76 497.059 359.704C495.955 358.632 495.403 357.144 495.403 355.24C495.403 353.912 495.659 352.76 496.171 351.784C496.699 350.808 497.435 350.056 498.379 349.528C499.339 348.984 500.443 348.712 501.691 348.712C502.795 348.712 503.723 348.904 504.475 349.288C505.243 349.656 505.827 350.152 506.227 350.776C506.627 351.4 506.827 352.08 506.827 352.816C506.827 353.52 506.651 354.112 506.299 354.592C505.947 355.056 505.459 355.416 504.835 355.672C504.227 355.912 503.523 356.064 502.723 356.128C501.939 356.192 501.099 356.176 500.203 356.08C499.323 355.968 498.443 355.784 497.563 355.528V353.632C498.411 353.84 499.203 353.984 499.939 354.064C500.675 354.128 501.323 354.128 501.883 354.064C502.459 353.984 502.907 353.832 503.227 353.608C503.547 353.368 503.707 353.04 503.707 352.624C503.707 352.192 503.531 351.816 503.179 351.496C502.827 351.16 502.323 350.992 501.667 350.992C501.059 350.992 500.523 351.144 500.059 351.448C499.595 351.752 499.227 352.208 498.955 352.816C498.699 353.424 498.571 354.184 498.571 355.096C498.571 355.944 498.699 356.656 498.955 357.232C499.211 357.792 499.611 358.216 500.155 358.504C500.699 358.792 501.403 358.936 502.267 358.936C502.971 358.936 503.675 358.856 504.379 358.696C505.083 358.52 505.771 358.256 506.443 357.904V360.112C505.899 360.448 505.227 360.728 504.427 360.952C503.643 361.176 502.763 361.288 501.787 361.288Z" fill="white"/>
</svg>
