<svg width="1193" height="258" viewBox="0 0 1193 258" fill="none" xmlns="http://www.w3.org/2000/svg">
<rect width="580" height="206" rx="20" fill="#64BCAD"/>
<path d="M87.5585 155.536C74.8438 155.536 65.3718 151.781 59.1425 144.272C52.9132 136.763 49.7985 126.096 49.7985 112.272C49.7985 105.701 50.5665 99.5573 52.1025 93.84C53.6385 88.1227 56.0278 83.1733 59.2705 78.992C62.5132 74.7253 66.6945 71.3973 71.8145 69.008C76.9345 66.6187 83.1212 65.424 90.3745 65.424C96.0918 65.424 101.169 66.192 105.607 67.728C110.129 69.264 113.585 71.312 115.975 73.872C117.084 74.9813 117.937 76.176 118.535 77.456C119.132 78.736 119.431 80.144 119.431 81.68C119.431 84.496 118.535 86.5867 116.743 87.952C115.036 89.3173 113.031 90 110.727 90C108.935 90 107.313 89.6587 105.863 88.976C104.412 88.2933 102.919 87.4827 101.383 86.544C99.9318 85.6053 98.2678 84.7947 96.3905 84.112C94.5132 83.344 92.2945 82.96 89.7345 82.96C85.7238 82.96 82.3532 84.0693 79.6225 86.288C76.8918 88.5067 74.8438 91.792 73.4785 96.144C72.1985 100.411 71.5585 105.787 71.5585 112.272C71.5585 118.501 72.1558 123.621 73.3505 127.632C74.6305 131.557 76.4652 134.459 78.8545 136.336C81.3292 138.213 84.2732 139.152 87.6865 139.152C90.5025 139.152 92.9345 138.597 94.9825 137.488C97.0305 136.379 98.6092 134.885 99.7185 133.008C100.913 131.131 101.511 128.997 101.511 126.608C101.511 123.365 100.359 120.763 98.0545 118.8C95.8358 116.752 92.6785 115.728 88.5825 115.728C85.6812 115.728 82.6945 116.283 79.6225 117.392C76.5505 118.501 73.5212 120.251 70.5345 122.64L69.1265 108.176C72.7105 105.531 76.6785 103.44 81.0305 101.904C85.3825 100.368 90.0332 99.6 94.9825 99.6C100.7 99.6 105.649 100.667 109.831 102.8C114.012 104.848 117.212 107.792 119.431 111.632C121.735 115.472 122.887 120.123 122.887 125.584C122.887 131.643 121.436 136.933 118.535 141.456C115.719 145.979 111.665 149.477 106.375 151.952C101.169 154.341 94.8972 155.536 87.5585 155.536ZM161.406 155.536C155.688 155.536 150.44 155.067 145.662 154.128C140.968 153.189 136.872 151.995 133.374 150.544V133.008C137.982 134.629 142.504 135.952 146.942 136.976C151.464 137.915 156.03 138.384 160.638 138.384C166.27 138.384 170.536 137.531 173.438 135.824C176.339 134.117 177.79 131.813 177.79 128.912C177.79 126.352 176.766 124.389 174.718 123.024C172.755 121.573 170.024 120.592 166.526 120.08C163.027 119.483 158.974 119.184 154.366 119.184H147.966V102.672H154.366C158.376 102.672 162.003 102.373 165.246 101.776C168.488 101.093 171.091 99.984 173.054 98.448C175.016 96.912 175.998 94.8213 175.998 92.176C175.998 89.36 174.888 87.0987 172.67 85.392C170.536 83.6853 167.592 82.832 163.838 82.832C160.851 82.832 158.291 83.344 156.158 84.368C154.024 85.392 152.104 86.544 150.398 87.824C148.776 89.104 147.112 90.256 145.406 91.28C143.784 92.304 141.907 92.816 139.774 92.816C136.958 92.816 134.739 92.0053 133.118 90.384C131.496 88.7627 130.686 86.672 130.686 84.112C130.686 81.9787 131.24 80.0587 132.35 78.352C133.459 76.6453 134.867 75.152 136.574 73.872C139.219 71.6533 142.76 69.6907 147.198 67.984C151.72 66.2773 157.224 65.424 163.71 65.424C170.792 65.424 176.851 66.448 181.886 68.496C187.006 70.544 190.888 73.488 193.534 77.328C196.264 81.0827 197.63 85.6053 197.63 90.896C197.63 96.3573 195.923 100.795 192.51 104.208C189.182 107.536 183.848 109.925 176.51 111.376L175.87 107.024C181.502 107.792 186.11 109.157 189.694 111.12C193.278 113.083 195.923 115.6 197.63 118.672C199.336 121.744 200.19 125.371 200.19 129.552C200.19 135.355 198.568 140.219 195.326 144.144C192.083 147.984 187.56 150.843 181.758 152.72C175.955 154.597 169.171 155.536 161.406 155.536ZM275.186 66.96H293.618L246.77 154H228.466L275.186 66.96ZM208.114 89.616C208.114 85.008 209.052 80.8693 210.93 77.2C212.892 73.5307 215.666 70.672 219.25 68.624C222.919 66.4907 227.314 65.424 232.434 65.424C239.602 65.424 245.191 67.5147 249.202 71.696C253.298 75.8773 255.346 81.5093 255.346 88.592C255.346 93.2 254.407 97.3387 252.53 101.008C250.738 104.592 248.05 107.408 244.466 109.456C240.967 111.504 236.7 112.528 231.666 112.528C224.412 112.528 218.652 110.437 214.385 106.256C210.204 101.989 208.114 96.4427 208.114 89.616ZM223.602 89.232C223.602 92.7307 224.37 95.4613 225.906 97.424C227.442 99.3867 229.404 100.368 231.794 100.368C234.183 100.368 236.103 99.3867 237.554 97.424C239.004 95.376 239.729 92.5173 239.729 88.848C239.729 85.264 239.004 82.4907 237.554 80.528C236.103 78.5653 234.226 77.584 231.922 77.584C229.447 77.584 227.442 78.6507 225.906 80.784C224.37 82.832 223.602 85.648 223.602 89.232ZM266.482 132.624C266.482 128.016 267.42 123.877 269.298 120.208C271.26 116.539 274.034 113.68 277.618 111.632C281.287 109.499 285.682 108.432 290.802 108.432C297.97 108.432 303.559 110.523 307.57 114.704C311.666 118.885 313.714 124.517 313.714 131.6C313.714 136.208 312.775 140.347 310.898 144.016C309.106 147.6 306.46 150.416 302.962 152.464C299.463 154.512 295.154 155.536 290.034 155.536C282.78 155.536 277.02 153.445 272.754 149.264C268.572 144.997 266.482 139.451 266.482 132.624ZM282.098 132.24C282.098 135.739 282.823 138.469 284.274 140.432C285.81 142.395 287.772 143.376 290.162 143.376C292.551 143.376 294.471 142.395 295.922 140.432C297.372 138.384 298.098 135.525 298.098 131.856C298.098 128.272 297.372 125.499 295.922 123.536C294.471 121.573 292.594 120.592 290.29 120.592C287.9 120.592 285.938 121.659 284.402 123.792C282.866 125.84 282.098 128.656 282.098 132.24Z" fill="white"/>
<path d="M334.864 97.096C334.864 95.816 335.12 94.704 335.632 93.76C336.144 92.8 336.872 92.056 337.816 91.528C338.76 90.984 339.88 90.712 341.176 90.712C342.408 90.712 343.488 90.968 344.416 91.48C345.344 91.976 346.064 92.688 346.576 93.616C347.104 94.528 347.368 95.632 347.368 96.928C347.368 98.192 347.112 99.304 346.6 100.264C346.104 101.208 345.384 101.952 344.44 102.496C343.496 103.024 342.384 103.288 341.104 103.288C339.872 103.288 338.784 103.04 337.84 102.544C336.912 102.032 336.184 101.312 335.656 100.384C335.128 99.456 334.864 98.36 334.864 97.096ZM338.104 97.048C338.104 97.8 338.232 98.448 338.488 98.992C338.744 99.52 339.096 99.928 339.544 100.216C340.008 100.488 340.52 100.624 341.08 100.624C341.656 100.624 342.176 100.48 342.64 100.192C343.104 99.888 343.464 99.464 343.72 98.92C343.992 98.36 344.128 97.704 344.128 96.952C344.128 96.2 344 95.56 343.744 95.032C343.488 94.488 343.136 94.08 342.688 93.808C342.256 93.52 341.752 93.376 341.176 93.376C340.584 93.376 340.056 93.528 339.592 93.832C339.144 94.12 338.784 94.536 338.512 95.08C338.24 95.624 338.104 96.28 338.104 97.048ZM350.254 103V89.752C350.254 88.76 350.446 87.952 350.83 87.328C351.214 86.688 351.734 86.216 352.39 85.912C353.046 85.592 353.782 85.432 354.598 85.432C355.43 85.432 356.062 85.584 356.494 85.888C356.942 86.176 357.166 86.592 357.166 87.136C357.166 87.52 357.062 87.824 356.854 88.048C356.662 88.256 356.414 88.36 356.11 88.36C355.902 88.36 355.686 88.328 355.462 88.264C355.254 88.184 355.014 88.144 354.742 88.144C354.358 88.144 354.022 88.272 353.734 88.528C353.462 88.784 353.326 89.224 353.326 89.848V103H350.254ZM349.63 93.736C349.246 93.736 348.91 93.624 348.622 93.4C348.35 93.176 348.214 92.832 348.214 92.368C348.214 91.92 348.35 91.584 348.622 91.36C348.91 91.12 349.246 91 349.63 91H356.878V93.736H349.63ZM371.843 102.784C371.475 102.944 371.083 103.064 370.667 103.144C370.251 103.24 369.811 103.288 369.347 103.288C368.163 103.288 367.259 102.952 366.635 102.28C366.011 101.608 365.699 100.624 365.699 99.328V93.736H365.027C364.627 93.736 364.299 93.624 364.043 93.4C363.787 93.176 363.659 92.856 363.659 92.44C363.659 92.072 363.763 91.76 363.971 91.504C364.179 91.248 364.483 91.016 364.883 90.808L368.771 88.792V91H372.323V93.736H368.771V98.824C368.771 99.464 368.899 99.92 369.155 100.192C369.427 100.448 369.811 100.576 370.307 100.576C370.563 100.576 370.811 100.552 371.051 100.504C371.307 100.44 371.571 100.36 371.843 100.264V102.784ZM374.304 103V91H377.376V103H374.304ZM377.376 97.192L376.968 93.808C377.288 92.8 377.736 92.032 378.312 91.504C378.888 90.976 379.536 90.712 380.256 90.712C380.624 90.712 380.952 90.784 381.24 90.928C381.544 91.072 381.784 91.288 381.96 91.576C382.152 91.848 382.248 92.2 382.248 92.632C382.248 93.192 382.104 93.616 381.816 93.904C381.544 94.176 381.192 94.312 380.76 94.312C380.472 94.312 380.216 94.272 379.992 94.192C379.784 94.096 379.56 94.048 379.32 94.048C378.744 94.048 378.272 94.328 377.904 94.888C377.552 95.448 377.376 96.216 377.376 97.192ZM394.332 103H391.212C391.1 102.76 391.012 102.424 390.948 101.992C390.9 101.544 390.868 101.04 390.852 100.48L390.708 99.856V94.816C390.708 94.224 390.524 93.816 390.156 93.592C389.804 93.368 389.324 93.256 388.716 93.256C388.124 93.256 387.636 93.328 387.252 93.472C386.868 93.616 386.548 93.784 386.292 93.976C386.036 94.168 385.788 94.336 385.548 94.48C385.324 94.624 385.06 94.696 384.756 94.696C384.372 94.696 384.06 94.592 383.82 94.384C383.58 94.16 383.46 93.864 383.46 93.496C383.46 93.224 383.524 92.96 383.652 92.704C383.78 92.448 384.004 92.2 384.324 91.96C385.3 91.128 386.756 90.712 388.692 90.712C389.796 90.712 390.724 90.856 391.476 91.144C392.228 91.432 392.804 91.904 393.204 92.56C393.604 93.216 393.804 94.096 393.804 95.2V99.232C393.804 100.064 393.852 100.8 393.948 101.44C394.044 102.064 394.172 102.584 394.332 103ZM386.916 103.288C385.764 103.288 384.844 102.976 384.156 102.352C383.468 101.728 383.124 100.88 383.124 99.808C383.124 98.848 383.428 98.088 384.036 97.528C384.66 96.952 385.588 96.56 386.82 96.352L389.172 95.968C389.796 95.84 390.204 95.704 390.396 95.56C390.604 95.416 390.708 95.184 390.708 94.864V97.12C390.628 97.216 390.492 97.312 390.3 97.408C390.108 97.488 389.82 97.568 389.436 97.648L388.044 97.936C387.548 98.032 387.148 98.2 386.844 98.44C386.54 98.68 386.388 99.04 386.388 99.52C386.388 100 386.54 100.376 386.844 100.648C387.164 100.92 387.58 101.056 388.092 101.056C388.572 101.056 389.004 100.944 389.388 100.72C389.788 100.48 390.108 100.152 390.348 99.736C390.588 99.304 390.708 98.8 390.708 98.224L391.164 100.384C390.796 101.376 390.236 102.112 389.484 102.592C388.732 103.056 387.876 103.288 386.916 103.288ZM408.016 85.72V103H404.92V85.72H408.016ZM405.448 100.192C405.08 101.168 404.52 101.928 403.768 102.472C403.032 103.016 402.152 103.288 401.128 103.288C400.136 103.288 399.24 103.04 398.44 102.544C397.656 102.032 397.032 101.312 396.568 100.384C396.104 99.44 395.872 98.32 395.872 97.024C395.872 95.744 396.096 94.64 396.544 93.712C397.008 92.768 397.64 92.032 398.44 91.504C399.256 90.976 400.2 90.712 401.272 90.712C402.296 90.712 403.152 90.96 403.84 91.456C404.528 91.936 405 92.608 405.256 93.472L404.92 96.232C404.92 95.672 404.8 95.176 404.56 94.744C404.32 94.312 403.992 93.976 403.576 93.736C403.176 93.48 402.704 93.352 402.16 93.352C401.568 93.352 401.04 93.504 400.576 93.808C400.128 94.112 399.776 94.536 399.52 95.08C399.28 95.624 399.16 96.256 399.16 96.976C399.16 97.696 399.28 98.328 399.52 98.872C399.776 99.4 400.128 99.808 400.576 100.096C401.04 100.384 401.576 100.528 402.184 100.528C403 100.528 403.656 100.264 404.152 99.736C404.664 99.208 404.92 98.512 404.92 97.648L405.448 100.192ZM416.506 103.288C414.458 103.288 412.882 102.76 411.778 101.704C410.674 100.632 410.122 99.144 410.122 97.24C410.122 95.912 410.378 94.76 410.89 93.784C411.418 92.808 412.154 92.056 413.098 91.528C414.058 90.984 415.162 90.712 416.41 90.712C417.514 90.712 418.442 90.904 419.194 91.288C419.962 91.656 420.546 92.152 420.946 92.776C421.346 93.4 421.546 94.08 421.546 94.816C421.546 95.52 421.37 96.112 421.018 96.592C420.666 97.056 420.178 97.416 419.554 97.672C418.946 97.912 418.242 98.064 417.442 98.128C416.658 98.192 415.818 98.176 414.922 98.08C414.042 97.968 413.162 97.784 412.282 97.528V95.632C413.13 95.84 413.922 95.984 414.658 96.064C415.394 96.128 416.042 96.128 416.602 96.064C417.178 95.984 417.626 95.832 417.946 95.608C418.266 95.368 418.426 95.04 418.426 94.624C418.426 94.192 418.25 93.816 417.898 93.496C417.546 93.16 417.042 92.992 416.386 92.992C415.778 92.992 415.242 93.144 414.778 93.448C414.314 93.752 413.946 94.208 413.674 94.816C413.418 95.424 413.29 96.184 413.29 97.096C413.29 97.944 413.418 98.656 413.674 99.232C413.93 99.792 414.33 100.216 414.874 100.504C415.418 100.792 416.122 100.936 416.986 100.936C417.69 100.936 418.394 100.856 419.098 100.696C419.802 100.52 420.49 100.256 421.162 99.904V102.112C420.618 102.448 419.946 102.728 419.146 102.952C418.362 103.176 417.482 103.288 416.506 103.288ZM427.905 103.288C426.977 103.288 426.129 103.184 425.361 102.976C424.593 102.752 423.913 102.48 423.321 102.16V99.52C424.121 100.064 424.937 100.488 425.769 100.792C426.601 101.08 427.361 101.224 428.049 101.224C428.737 101.224 429.241 101.096 429.561 100.84C429.881 100.584 430.041 100.272 430.041 99.904C430.041 99.536 429.873 99.248 429.537 99.04C429.217 98.816 428.801 98.632 428.289 98.488C427.793 98.328 427.257 98.168 426.681 98.008C426.121 97.848 425.585 97.64 425.073 97.384C424.577 97.128 424.169 96.776 423.849 96.328C423.529 95.88 423.369 95.304 423.369 94.6C423.369 93.864 423.561 93.2 423.945 92.608C424.345 92.016 424.929 91.552 425.697 91.216C426.481 90.88 427.441 90.712 428.577 90.712C429.489 90.712 430.273 90.824 430.929 91.048C431.601 91.256 432.113 91.544 432.465 91.912C432.833 92.28 433.017 92.704 433.017 93.184C433.017 93.52 432.913 93.792 432.705 94C432.513 94.192 432.257 94.288 431.937 94.288C431.633 94.288 431.369 94.216 431.145 94.072C430.937 93.912 430.713 93.736 430.473 93.544C430.233 93.336 429.953 93.16 429.633 93.016C429.329 92.856 428.937 92.776 428.457 92.776C427.833 92.776 427.369 92.912 427.065 93.184C426.761 93.456 426.609 93.768 426.609 94.12C426.609 94.504 426.769 94.808 427.089 95.032C427.425 95.256 427.841 95.44 428.337 95.584C428.849 95.728 429.385 95.888 429.945 96.064C430.505 96.224 431.041 96.44 431.553 96.712C432.065 96.968 432.481 97.32 432.801 97.768C433.121 98.2 433.281 98.776 433.281 99.496C433.281 100.232 433.081 100.888 432.681 101.464C432.281 102.04 431.681 102.488 430.881 102.808C430.097 103.128 429.105 103.288 427.905 103.288ZM438.258 103L441.618 92.416C441.81 91.824 442.05 91.392 442.338 91.12C442.642 90.848 443.034 90.712 443.514 90.712C443.978 90.712 444.354 90.848 444.642 91.12C444.946 91.392 445.186 91.824 445.362 92.416L448.722 103H446.082L443.106 93.76H443.898L440.922 103H438.258ZM437.658 103L434.154 91H437.49L440.058 103H437.658ZM446.946 103L449.49 91H452.826L449.322 103H446.946ZM453.505 97.096C453.505 95.816 453.761 94.704 454.273 93.76C454.785 92.8 455.513 92.056 456.457 91.528C457.401 90.984 458.521 90.712 459.817 90.712C461.049 90.712 462.129 90.968 463.057 91.48C463.985 91.976 464.705 92.688 465.217 93.616C465.745 94.528 466.009 95.632 466.009 96.928C466.009 98.192 465.753 99.304 465.241 100.264C464.745 101.208 464.025 101.952 463.081 102.496C462.137 103.024 461.025 103.288 459.745 103.288C458.513 103.288 457.425 103.04 456.481 102.544C455.553 102.032 454.825 101.312 454.297 100.384C453.769 99.456 453.505 98.36 453.505 97.096ZM456.745 97.048C456.745 97.8 456.873 98.448 457.129 98.992C457.385 99.52 457.737 99.928 458.185 100.216C458.649 100.488 459.161 100.624 459.721 100.624C460.297 100.624 460.817 100.48 461.281 100.192C461.745 99.888 462.105 99.464 462.361 98.92C462.633 98.36 462.769 97.704 462.769 96.952C462.769 96.2 462.641 95.56 462.385 95.032C462.129 94.488 461.777 94.08 461.329 93.808C460.897 93.52 460.393 93.376 459.817 93.376C459.225 93.376 458.697 93.528 458.233 93.832C457.785 94.12 457.425 94.536 457.153 95.08C456.881 95.624 456.745 96.28 456.745 97.048ZM483.748 103V96.256C483.748 95.312 483.54 94.64 483.124 94.24C482.724 93.824 482.228 93.616 481.636 93.616C481.204 93.616 480.788 93.72 480.388 93.928C479.988 94.136 479.66 94.456 479.404 94.888C479.164 95.304 479.044 95.84 479.044 96.496L478.036 93.808C478.356 93.104 478.764 92.528 479.26 92.08C479.772 91.616 480.324 91.272 480.916 91.048C481.524 90.824 482.132 90.712 482.74 90.712C483.508 90.712 484.196 90.888 484.804 91.24C485.428 91.592 485.924 92.128 486.292 92.848C486.66 93.568 486.844 94.504 486.844 95.656V103H483.748ZM468.148 103V91H471.22V103H468.148ZM475.948 103V96.256C475.948 95.312 475.74 94.64 475.324 94.24C474.924 93.824 474.42 93.616 473.812 93.616C473.38 93.616 472.964 93.72 472.564 93.928C472.18 94.136 471.86 94.456 471.604 94.888C471.348 95.304 471.22 95.84 471.22 96.496L470.692 93.808C470.948 93.104 471.292 92.528 471.724 92.08C472.172 91.616 472.668 91.272 473.212 91.048C473.772 90.824 474.356 90.712 474.964 90.712C475.748 90.712 476.444 90.888 477.052 91.24C477.66 91.576 478.14 92.104 478.492 92.824C478.86 93.528 479.044 94.432 479.044 95.536V103H475.948ZM495.256 103.288C493.208 103.288 491.632 102.76 490.528 101.704C489.424 100.632 488.872 99.144 488.872 97.24C488.872 95.912 489.128 94.76 489.64 93.784C490.168 92.808 490.904 92.056 491.848 91.528C492.808 90.984 493.912 90.712 495.16 90.712C496.264 90.712 497.192 90.904 497.944 91.288C498.712 91.656 499.296 92.152 499.696 92.776C500.096 93.4 500.296 94.08 500.296 94.816C500.296 95.52 500.12 96.112 499.768 96.592C499.416 97.056 498.928 97.416 498.304 97.672C497.696 97.912 496.992 98.064 496.192 98.128C495.408 98.192 494.568 98.176 493.672 98.08C492.792 97.968 491.912 97.784 491.032 97.528V95.632C491.88 95.84 492.672 95.984 493.408 96.064C494.144 96.128 494.792 96.128 495.352 96.064C495.928 95.984 496.376 95.832 496.696 95.608C497.016 95.368 497.176 95.04 497.176 94.624C497.176 94.192 497 93.816 496.648 93.496C496.296 93.16 495.792 92.992 495.136 92.992C494.528 92.992 493.992 93.144 493.528 93.448C493.064 93.752 492.696 94.208 492.424 94.816C492.168 95.424 492.04 96.184 492.04 97.096C492.04 97.944 492.168 98.656 492.424 99.232C492.68 99.792 493.08 100.216 493.624 100.504C494.168 100.792 494.872 100.936 495.736 100.936C496.44 100.936 497.144 100.856 497.848 100.696C498.552 100.52 499.24 100.256 499.912 99.904V102.112C499.368 102.448 498.696 102.728 497.896 102.952C497.112 103.176 496.232 103.288 495.256 103.288ZM510.69 103V96.328C510.69 95.688 510.586 95.176 510.378 94.792C510.17 94.392 509.882 94.096 509.514 93.904C509.162 93.712 508.77 93.616 508.338 93.616C507.874 93.616 507.434 93.72 507.018 93.928C506.602 94.136 506.266 94.456 506.01 94.888C505.754 95.304 505.626 95.84 505.626 96.496L505.098 93.808C505.354 93.104 505.698 92.528 506.13 92.08C506.578 91.616 507.082 91.272 507.642 91.048C508.218 90.824 508.81 90.712 509.418 90.712C510.186 90.712 510.898 90.888 511.554 91.24C512.226 91.592 512.762 92.144 513.162 92.896C513.562 93.648 513.762 94.632 513.762 95.848V103H510.69ZM502.554 103V91H505.626V103H502.554ZM335.632 131V118.928C336.656 119.168 337.68 119.168 338.704 118.928V131H335.632ZM337.168 117.296C336.56 117.296 336.096 117.144 335.776 116.84C335.472 116.536 335.32 116.136 335.32 115.64C335.32 115.144 335.472 114.744 335.776 114.44C336.096 114.12 336.56 113.96 337.168 113.96C337.792 113.96 338.256 114.12 338.56 114.44C338.88 114.744 339.04 115.144 339.04 115.64C339.04 116.136 338.88 116.536 338.56 116.84C338.256 117.144 337.792 117.296 337.168 117.296ZM353.008 113.72V131H349.912V113.72H353.008ZM350.44 128.192C350.072 129.168 349.512 129.928 348.76 130.472C348.024 131.016 347.144 131.288 346.12 131.288C345.128 131.288 344.232 131.04 343.432 130.544C342.648 130.032 342.024 129.312 341.56 128.384C341.096 127.44 340.864 126.32 340.864 125.024C340.864 123.744 341.088 122.64 341.536 121.712C342 120.768 342.632 120.032 343.432 119.504C344.248 118.976 345.192 118.712 346.264 118.712C347.288 118.712 348.144 118.96 348.832 119.456C349.52 119.936 349.992 120.608 350.248 121.472L349.912 124.232C349.912 123.672 349.792 123.176 349.552 122.744C349.312 122.312 348.984 121.976 348.568 121.736C348.168 121.48 347.696 121.352 347.152 121.352C346.56 121.352 346.032 121.504 345.568 121.808C345.12 122.112 344.768 122.536 344.512 123.08C344.272 123.624 344.152 124.256 344.152 124.976C344.152 125.696 344.272 126.328 344.512 126.872C344.768 127.4 345.12 127.808 345.568 128.096C346.032 128.384 346.568 128.528 347.176 128.528C347.992 128.528 348.648 128.264 349.144 127.736C349.656 127.208 349.912 126.512 349.912 125.648L350.44 128.192ZM361.498 131.288C359.45 131.288 357.874 130.76 356.77 129.704C355.666 128.632 355.114 127.144 355.114 125.24C355.114 123.912 355.37 122.76 355.882 121.784C356.41 120.808 357.146 120.056 358.09 119.528C359.05 118.984 360.154 118.712 361.402 118.712C362.506 118.712 363.434 118.904 364.186 119.288C364.954 119.656 365.538 120.152 365.938 120.776C366.338 121.4 366.538 122.08 366.538 122.816C366.538 123.52 366.362 124.112 366.01 124.592C365.658 125.056 365.17 125.416 364.546 125.672C363.938 125.912 363.234 126.064 362.434 126.128C361.65 126.192 360.81 126.176 359.914 126.08C359.034 125.968 358.154 125.784 357.274 125.528V123.632C358.122 123.84 358.914 123.984 359.65 124.064C360.386 124.128 361.034 124.128 361.594 124.064C362.17 123.984 362.618 123.832 362.938 123.608C363.258 123.368 363.418 123.04 363.418 122.624C363.418 122.192 363.242 121.816 362.89 121.496C362.538 121.16 362.034 120.992 361.378 120.992C360.77 120.992 360.234 121.144 359.77 121.448C359.306 121.752 358.938 122.208 358.666 122.816C358.41 123.424 358.282 124.184 358.282 125.096C358.282 125.944 358.41 126.656 358.666 127.232C358.922 127.792 359.322 128.216 359.866 128.504C360.41 128.792 361.114 128.936 361.978 128.936C362.682 128.936 363.386 128.856 364.09 128.696C364.794 128.52 365.482 128.256 366.154 127.904V130.112C365.61 130.448 364.938 130.728 364.138 130.952C363.354 131.176 362.474 131.288 361.498 131.288ZM376.932 131V124.328C376.932 123.688 376.828 123.176 376.62 122.792C376.412 122.392 376.124 122.096 375.756 121.904C375.404 121.712 375.012 121.616 374.58 121.616C374.116 121.616 373.676 121.72 373.26 121.928C372.844 122.136 372.508 122.456 372.252 122.888C371.996 123.304 371.868 123.84 371.868 124.496L371.34 121.808C371.596 121.104 371.94 120.528 372.372 120.08C372.82 119.616 373.324 119.272 373.884 119.048C374.46 118.824 375.052 118.712 375.66 118.712C376.428 118.712 377.14 118.888 377.796 119.24C378.468 119.592 379.004 120.144 379.404 120.896C379.804 121.648 380.004 122.632 380.004 123.848V131H376.932ZM368.796 131V119H371.868V131H368.796ZM389.585 130.784C389.217 130.944 388.825 131.064 388.409 131.144C387.993 131.24 387.553 131.288 387.089 131.288C385.905 131.288 385.001 130.952 384.377 130.28C383.753 129.608 383.441 128.624 383.441 127.328V121.736H382.769C382.369 121.736 382.041 121.624 381.785 121.4C381.529 121.176 381.401 120.856 381.401 120.44C381.401 120.072 381.505 119.76 381.713 119.504C381.921 119.248 382.225 119.016 382.625 118.808L386.513 116.792V119H390.065V121.736H386.513V126.824C386.513 127.464 386.641 127.92 386.897 128.192C387.169 128.448 387.553 128.576 388.049 128.576C388.305 128.576 388.553 128.552 388.793 128.504C389.049 128.44 389.313 128.36 389.585 128.264V130.784ZM392.046 131V118.928C393.07 119.168 394.094 119.168 395.118 118.928V131H392.046ZM393.582 117.296C392.974 117.296 392.51 117.144 392.19 116.84C391.886 116.536 391.734 116.136 391.734 115.64C391.734 115.144 391.886 114.744 392.19 114.44C392.51 114.12 392.974 113.96 393.582 113.96C394.206 113.96 394.67 114.12 394.974 114.44C395.294 114.744 395.454 115.144 395.454 115.64C395.454 116.136 395.294 116.536 394.974 116.84C394.67 117.144 394.206 117.296 393.582 117.296ZM398.98 131V117.752C398.98 116.76 399.172 115.952 399.556 115.328C399.94 114.688 400.46 114.216 401.116 113.912C401.772 113.592 402.508 113.432 403.324 113.432C404.156 113.432 404.788 113.584 405.22 113.888C405.668 114.176 405.892 114.592 405.892 115.136C405.892 115.52 405.788 115.824 405.58 116.048C405.388 116.256 405.14 116.36 404.836 116.36C404.628 116.36 404.412 116.328 404.188 116.264C403.98 116.184 403.74 116.144 403.468 116.144C403.084 116.144 402.748 116.272 402.46 116.528C402.188 116.784 402.052 117.224 402.052 117.848V131H398.98ZM398.356 121.736C397.972 121.736 397.636 121.624 397.348 121.4C397.076 121.176 396.94 120.832 396.94 120.368C396.94 119.92 397.076 119.584 397.348 119.36C397.636 119.12 397.972 119 398.356 119H405.604V121.736H398.356ZM409.356 136.088C408.908 136.088 408.484 136.024 408.084 135.896C407.7 135.784 407.388 135.6 407.148 135.344C406.908 135.088 406.788 134.768 406.788 134.384C406.788 134 406.9 133.704 407.124 133.496C407.348 133.288 407.628 133.184 407.964 133.184C408.188 133.184 408.388 133.216 408.564 133.28C408.74 133.344 408.932 133.376 409.14 133.376C409.364 133.376 409.58 133.312 409.788 133.184C409.996 133.056 410.22 132.816 410.46 132.464C410.7 132.128 410.948 131.64 411.204 131L419.412 119L414.348 131.576C413.708 133.192 412.98 134.344 412.164 135.032C411.364 135.736 410.428 136.088 409.356 136.088ZM411.204 131L406.38 119H409.884L413.964 131H411.204ZM414.588 131H412.068L415.98 119H419.412L414.588 131ZM437.761 131H434.641C434.529 130.76 434.441 130.424 434.377 129.992C434.329 129.544 434.297 129.04 434.281 128.48L434.137 127.856V122.816C434.137 122.224 433.953 121.816 433.585 121.592C433.233 121.368 432.753 121.256 432.145 121.256C431.553 121.256 431.065 121.328 430.681 121.472C430.297 121.616 429.977 121.784 429.721 121.976C429.465 122.168 429.217 122.336 428.977 122.48C428.753 122.624 428.489 122.696 428.185 122.696C427.801 122.696 427.489 122.592 427.249 122.384C427.009 122.16 426.889 121.864 426.889 121.496C426.889 121.224 426.953 120.96 427.081 120.704C427.209 120.448 427.433 120.2 427.753 119.96C428.729 119.128 430.185 118.712 432.121 118.712C433.225 118.712 434.153 118.856 434.905 119.144C435.657 119.432 436.233 119.904 436.633 120.56C437.033 121.216 437.233 122.096 437.233 123.2V127.232C437.233 128.064 437.281 128.8 437.377 129.44C437.473 130.064 437.601 130.584 437.761 131ZM430.345 131.288C429.193 131.288 428.273 130.976 427.585 130.352C426.897 129.728 426.553 128.88 426.553 127.808C426.553 126.848 426.857 126.088 427.465 125.528C428.089 124.952 429.017 124.56 430.249 124.352L432.601 123.968C433.225 123.84 433.633 123.704 433.825 123.56C434.033 123.416 434.137 123.184 434.137 122.864V125.12C434.057 125.216 433.921 125.312 433.729 125.408C433.537 125.488 433.249 125.568 432.865 125.648L431.473 125.936C430.977 126.032 430.577 126.2 430.273 126.44C429.969 126.68 429.817 127.04 429.817 127.52C429.817 128 429.969 128.376 430.273 128.648C430.593 128.92 431.009 129.056 431.521 129.056C432.001 129.056 432.433 128.944 432.817 128.72C433.217 128.48 433.537 128.152 433.777 127.736C434.017 127.304 434.137 126.8 434.137 126.224L434.593 128.384C434.225 129.376 433.665 130.112 432.913 130.592C432.161 131.056 431.305 131.288 430.345 131.288ZM444.077 131.288C443.149 131.288 442.301 131.184 441.533 130.976C440.765 130.752 440.085 130.48 439.493 130.16V127.52C440.293 128.064 441.109 128.488 441.941 128.792C442.773 129.08 443.533 129.224 444.221 129.224C444.909 129.224 445.413 129.096 445.733 128.84C446.053 128.584 446.213 128.272 446.213 127.904C446.213 127.536 446.045 127.248 445.709 127.04C445.389 126.816 444.973 126.632 444.461 126.488C443.965 126.328 443.429 126.168 442.853 126.008C442.293 125.848 441.757 125.64 441.245 125.384C440.749 125.128 440.341 124.776 440.021 124.328C439.701 123.88 439.541 123.304 439.541 122.6C439.541 121.864 439.733 121.2 440.117 120.608C440.517 120.016 441.101 119.552 441.869 119.216C442.653 118.88 443.613 118.712 444.749 118.712C445.661 118.712 446.445 118.824 447.101 119.048C447.773 119.256 448.285 119.544 448.637 119.912C449.005 120.28 449.189 120.704 449.189 121.184C449.189 121.52 449.085 121.792 448.877 122C448.685 122.192 448.429 122.288 448.109 122.288C447.805 122.288 447.541 122.216 447.317 122.072C447.109 121.912 446.885 121.736 446.645 121.544C446.405 121.336 446.125 121.16 445.805 121.016C445.501 120.856 445.109 120.776 444.629 120.776C444.005 120.776 443.541 120.912 443.237 121.184C442.933 121.456 442.781 121.768 442.781 122.12C442.781 122.504 442.941 122.808 443.261 123.032C443.597 123.256 444.013 123.44 444.509 123.584C445.021 123.728 445.557 123.888 446.117 124.064C446.677 124.224 447.213 124.44 447.725 124.712C448.237 124.968 448.653 125.32 448.973 125.768C449.293 126.2 449.453 126.776 449.453 127.496C449.453 128.232 449.253 128.888 448.853 129.464C448.453 130.04 447.853 130.488 447.053 130.808C446.269 131.128 445.277 131.288 444.077 131.288ZM457.835 135.8V119H460.907V135.8H457.835ZM460.379 121.808C460.763 120.816 461.323 120.056 462.059 119.528C462.811 118.984 463.699 118.712 464.723 118.712C465.715 118.712 466.603 118.968 467.387 119.48C468.187 119.976 468.811 120.696 469.259 121.64C469.723 122.568 469.955 123.68 469.955 124.976C469.955 126.24 469.731 127.344 469.283 128.288C468.835 129.232 468.203 129.968 467.387 130.496C466.587 131.024 465.651 131.288 464.579 131.288C463.555 131.288 462.699 131.048 462.011 130.568C461.323 130.072 460.851 129.392 460.595 128.528L460.907 125.768C460.907 126.328 461.027 126.824 461.267 127.256C461.507 127.688 461.835 128.032 462.251 128.288C462.667 128.528 463.139 128.648 463.667 128.648C464.275 128.648 464.803 128.496 465.251 128.192C465.699 127.888 466.051 127.464 466.307 126.92C466.563 126.36 466.691 125.728 466.691 125.024C466.691 124.288 466.563 123.656 466.307 123.128C466.051 122.6 465.699 122.192 465.251 121.904C464.803 121.616 464.275 121.472 463.667 121.472C462.851 121.472 462.187 121.736 461.675 122.264C461.163 122.792 460.907 123.488 460.907 124.352L460.379 121.808ZM482.644 131H479.524C479.412 130.76 479.324 130.424 479.26 129.992C479.212 129.544 479.18 129.04 479.164 128.48L479.02 127.856V122.816C479.02 122.224 478.836 121.816 478.468 121.592C478.116 121.368 477.636 121.256 477.028 121.256C476.436 121.256 475.948 121.328 475.564 121.472C475.18 121.616 474.86 121.784 474.604 121.976C474.348 122.168 474.1 122.336 473.86 122.48C473.636 122.624 473.372 122.696 473.068 122.696C472.684 122.696 472.372 122.592 472.132 122.384C471.892 122.16 471.772 121.864 471.772 121.496C471.772 121.224 471.836 120.96 471.964 120.704C472.092 120.448 472.316 120.2 472.636 119.96C473.612 119.128 475.068 118.712 477.004 118.712C478.108 118.712 479.036 118.856 479.788 119.144C480.54 119.432 481.116 119.904 481.516 120.56C481.916 121.216 482.116 122.096 482.116 123.2V127.232C482.116 128.064 482.164 128.8 482.26 129.44C482.356 130.064 482.484 130.584 482.644 131ZM475.228 131.288C474.076 131.288 473.156 130.976 472.468 130.352C471.78 129.728 471.436 128.88 471.436 127.808C471.436 126.848 471.74 126.088 472.348 125.528C472.972 124.952 473.9 124.56 475.132 124.352L477.484 123.968C478.108 123.84 478.516 123.704 478.708 123.56C478.916 123.416 479.02 123.184 479.02 122.864V125.12C478.94 125.216 478.804 125.312 478.612 125.408C478.42 125.488 478.132 125.568 477.748 125.648L476.356 125.936C475.86 126.032 475.46 126.2 475.156 126.44C474.852 126.68 474.7 127.04 474.7 127.52C474.7 128 474.852 128.376 475.156 128.648C475.476 128.92 475.892 129.056 476.404 129.056C476.884 129.056 477.316 128.944 477.7 128.72C478.1 128.48 478.42 128.152 478.66 127.736C478.9 127.304 479.02 126.8 479.02 126.224L479.476 128.384C479.108 129.376 478.548 130.112 477.796 130.592C477.044 131.056 476.188 131.288 475.228 131.288ZM484.976 131V119H488.048V131H484.976ZM488.048 125.192L487.64 121.808C487.96 120.8 488.408 120.032 488.984 119.504C489.56 118.976 490.208 118.712 490.928 118.712C491.296 118.712 491.624 118.784 491.912 118.928C492.216 119.072 492.456 119.288 492.632 119.576C492.824 119.848 492.92 120.2 492.92 120.632C492.92 121.192 492.776 121.616 492.488 121.904C492.216 122.176 491.864 122.312 491.432 122.312C491.144 122.312 490.888 122.272 490.664 122.192C490.456 122.096 490.232 122.048 489.992 122.048C489.416 122.048 488.944 122.328 488.576 122.888C488.224 123.448 488.048 124.216 488.048 125.192ZM499.779 131.288C497.731 131.288 496.155 130.76 495.051 129.704C493.947 128.632 493.395 127.144 493.395 125.24C493.395 123.912 493.651 122.76 494.163 121.784C494.691 120.808 495.427 120.056 496.371 119.528C497.331 118.984 498.435 118.712 499.683 118.712C500.787 118.712 501.715 118.904 502.467 119.288C503.235 119.656 503.819 120.152 504.219 120.776C504.619 121.4 504.819 122.08 504.819 122.816C504.819 123.52 504.643 124.112 504.291 124.592C503.939 125.056 503.451 125.416 502.827 125.672C502.219 125.912 501.515 126.064 500.715 126.128C499.931 126.192 499.091 126.176 498.195 126.08C497.315 125.968 496.435 125.784 495.555 125.528V123.632C496.403 123.84 497.195 123.984 497.931 124.064C498.667 124.128 499.315 124.128 499.875 124.064C500.451 123.984 500.899 123.832 501.219 123.608C501.539 123.368 501.699 123.04 501.699 122.624C501.699 122.192 501.523 121.816 501.171 121.496C500.819 121.16 500.315 120.992 499.659 120.992C499.051 120.992 498.515 121.144 498.051 121.448C497.587 121.752 497.219 122.208 496.947 122.816C496.691 123.424 496.563 124.184 496.563 125.096C496.563 125.944 496.691 126.656 496.947 127.232C497.203 127.792 497.603 128.216 498.147 128.504C498.691 128.792 499.395 128.936 500.259 128.936C500.963 128.936 501.667 128.856 502.371 128.696C503.075 128.52 503.763 128.256 504.435 127.904V130.112C503.891 130.448 503.219 130.728 502.419 130.952C501.635 131.176 500.755 131.288 499.779 131.288ZM515.213 131V124.328C515.213 123.688 515.109 123.176 514.901 122.792C514.693 122.392 514.405 122.096 514.037 121.904C513.685 121.712 513.293 121.616 512.861 121.616C512.397 121.616 511.957 121.72 511.541 121.928C511.125 122.136 510.789 122.456 510.533 122.888C510.277 123.304 510.149 123.84 510.149 124.496L509.621 121.808C509.877 121.104 510.221 120.528 510.653 120.08C511.101 119.616 511.605 119.272 512.165 119.048C512.741 118.824 513.333 118.712 513.941 118.712C514.709 118.712 515.421 118.888 516.077 119.24C516.749 119.592 517.285 120.144 517.685 120.896C518.085 121.648 518.285 122.632 518.285 123.848V131H515.213ZM507.077 131V119H510.149V131H507.077ZM527.867 130.784C527.499 130.944 527.107 131.064 526.691 131.144C526.275 131.24 525.835 131.288 525.371 131.288C524.187 131.288 523.283 130.952 522.659 130.28C522.035 129.608 521.723 128.624 521.723 127.328V121.736H521.051C520.651 121.736 520.323 121.624 520.067 121.4C519.811 121.176 519.683 120.856 519.683 120.44C519.683 120.072 519.787 119.76 519.995 119.504C520.203 119.248 520.507 119.016 520.907 118.808L524.795 116.792V119H528.347V121.736H524.795V126.824C524.795 127.464 524.923 127.92 525.179 128.192C525.451 128.448 525.835 128.576 526.331 128.576C526.587 128.576 526.835 128.552 527.075 128.504C527.331 128.44 527.595 128.36 527.867 128.264V130.784ZM534.311 131.288C533.383 131.288 532.535 131.184 531.767 130.976C530.999 130.752 530.319 130.48 529.727 130.16V127.52C530.527 128.064 531.343 128.488 532.175 128.792C533.007 129.08 533.767 129.224 534.455 129.224C535.143 129.224 535.647 129.096 535.967 128.84C536.287 128.584 536.447 128.272 536.447 127.904C536.447 127.536 536.279 127.248 535.943 127.04C535.623 126.816 535.207 126.632 534.695 126.488C534.199 126.328 533.663 126.168 533.087 126.008C532.527 125.848 531.991 125.64 531.479 125.384C530.983 125.128 530.575 124.776 530.255 124.328C529.935 123.88 529.775 123.304 529.775 122.6C529.775 121.864 529.967 121.2 530.351 120.608C530.751 120.016 531.335 119.552 532.103 119.216C532.887 118.88 533.847 118.712 534.983 118.712C535.895 118.712 536.679 118.824 537.335 119.048C538.007 119.256 538.519 119.544 538.871 119.912C539.239 120.28 539.423 120.704 539.423 121.184C539.423 121.52 539.319 121.792 539.111 122C538.919 122.192 538.663 122.288 538.343 122.288C538.039 122.288 537.775 122.216 537.551 122.072C537.343 121.912 537.119 121.736 536.879 121.544C536.639 121.336 536.359 121.16 536.039 121.016C535.735 120.856 535.343 120.776 534.863 120.776C534.239 120.776 533.775 120.912 533.471 121.184C533.167 121.456 533.015 121.768 533.015 122.12C533.015 122.504 533.175 122.808 533.495 123.032C533.831 123.256 534.247 123.44 534.743 123.584C535.255 123.728 535.791 123.888 536.351 124.064C536.911 124.224 537.447 124.44 537.959 124.712C538.471 124.968 538.887 125.32 539.207 125.768C539.527 126.2 539.687 126.776 539.687 127.496C539.687 128.232 539.487 128.888 539.087 129.464C538.687 130.04 538.087 130.488 537.287 130.808C536.503 131.128 535.511 131.288 534.311 131.288Z" fill="white"/>
<rect x="616" width="576.857" height="205.95" rx="20" fill="#7DA75B"/>
<path d="M663.752 148V73.888L684.616 60.96V148H663.752ZM657.096 87.712C655.048 89.248 652.957 90.2293 650.824 90.656C648.691 90.9973 646.685 90.8267 644.808 90.144C643.016 89.4613 641.523 88.352 640.328 86.816C639.219 85.28 638.664 83.3173 638.664 80.928C638.664 78.5387 639.347 76.5333 640.712 74.912C642.077 73.2053 644.211 71.584 647.112 70.048L664.904 60.96H684.616L678.088 72.608L657.096 87.712ZM734.832 149.536C726.725 149.536 719.899 147.701 714.352 144.032C708.805 140.363 704.581 135.2 701.68 128.544C698.779 121.803 697.328 113.824 697.328 104.608C697.328 95.3067 698.779 87.2853 701.68 80.544C704.581 73.8027 708.848 68.5973 714.48 64.928C720.197 61.2587 727.109 59.424 735.216 59.424C743.323 59.424 750.064 61.2587 755.44 64.928C760.901 68.512 764.997 73.6747 767.728 80.416C770.459 87.072 771.824 95.0507 771.824 104.352C771.824 113.739 770.416 121.803 767.6 128.544C764.869 135.285 760.731 140.491 755.184 144.16C749.723 147.744 742.939 149.536 734.832 149.536ZM734.448 130.848C737.861 130.848 740.72 129.824 743.024 127.776C745.328 125.643 747.077 122.613 748.272 118.688C749.467 114.677 750.064 109.899 750.064 104.352C750.064 98.976 749.467 94.3253 748.272 90.4C747.163 86.4747 745.499 83.4453 743.28 81.312C741.061 79.1787 738.203 78.112 734.704 78.112C731.376 78.112 728.56 79.1787 726.256 81.312C723.952 83.36 722.203 86.3893 721.008 90.4C719.813 94.3253 719.216 99.0613 719.216 104.608C719.216 109.984 719.771 114.635 720.88 118.56C721.989 122.485 723.696 125.515 726 127.648C728.304 129.781 731.12 130.848 734.448 130.848ZM818.457 149.536C810.35 149.536 803.524 147.701 797.977 144.032C792.43 140.363 788.206 135.2 785.305 128.544C782.404 121.803 780.953 113.824 780.953 104.608C780.953 95.3067 782.404 87.2853 785.305 80.544C788.206 73.8027 792.473 68.5973 798.105 64.928C803.822 61.2587 810.734 59.424 818.841 59.424C826.948 59.424 833.689 61.2587 839.065 64.928C844.526 68.512 848.622 73.6747 851.353 80.416C854.084 87.072 855.449 95.0507 855.449 104.352C855.449 113.739 854.041 121.803 851.225 128.544C848.494 135.285 844.356 140.491 838.809 144.16C833.348 147.744 826.564 149.536 818.457 149.536ZM818.073 130.848C821.486 130.848 824.345 129.824 826.649 127.776C828.953 125.643 830.702 122.613 831.897 118.688C833.092 114.677 833.689 109.899 833.689 104.352C833.689 98.976 833.092 94.3253 831.897 90.4C830.788 86.4747 829.124 83.4453 826.905 81.312C824.686 79.1787 821.828 78.112 818.329 78.112C815.001 78.112 812.185 79.1787 809.881 81.312C807.577 83.36 805.828 86.3893 804.633 90.4C803.438 94.3253 802.841 99.0613 802.841 104.608C802.841 109.984 803.396 114.635 804.505 118.56C805.614 122.485 807.321 125.515 809.625 127.648C811.929 129.781 814.745 130.848 818.073 130.848ZM930.623 60.96H949.055L902.207 148H883.903L930.623 60.96ZM863.551 83.616C863.551 79.008 864.49 74.8693 866.367 71.2C868.33 67.5307 871.103 64.672 874.687 62.624C878.356 60.4907 882.751 59.424 887.871 59.424C895.039 59.424 900.628 61.5147 904.639 65.696C908.735 69.8773 910.783 75.5093 910.783 82.592C910.783 87.2 909.844 91.3387 907.967 95.008C906.175 98.592 903.487 101.408 899.903 103.456C896.404 105.504 892.138 106.528 887.103 106.528C879.85 106.528 874.09 104.437 869.823 100.256C865.642 95.9893 863.551 90.4427 863.551 83.616ZM879.039 83.232C879.039 86.7307 879.807 89.4613 881.343 91.424C882.879 93.3867 884.842 94.368 887.231 94.368C889.62 94.368 891.54 93.3867 892.991 91.424C894.442 89.376 895.167 86.5173 895.167 82.848C895.167 79.264 894.442 76.4907 892.991 74.528C891.54 72.5653 889.663 71.584 887.359 71.584C884.884 71.584 882.879 72.6507 881.343 74.784C879.807 76.832 879.039 79.648 879.039 83.232ZM921.919 126.624C921.919 122.016 922.858 117.877 924.735 114.208C926.698 110.539 929.471 107.68 933.055 105.632C936.724 103.499 941.119 102.432 946.239 102.432C953.407 102.432 958.996 104.523 963.007 108.704C967.103 112.885 969.151 118.517 969.151 125.6C969.151 130.208 968.212 134.347 966.335 138.016C964.543 141.6 961.898 144.416 958.399 146.464C954.9 148.512 950.591 149.536 945.471 149.536C938.218 149.536 932.458 147.445 928.191 143.264C924.01 138.997 921.919 133.451 921.919 126.624ZM937.535 126.24C937.535 129.739 938.26 132.469 939.711 134.432C941.247 136.395 943.21 137.376 945.599 137.376C947.988 137.376 949.908 136.395 951.359 134.432C952.81 132.384 953.535 129.525 953.535 125.856C953.535 122.272 952.81 119.499 951.359 117.536C949.908 115.573 948.031 114.592 945.727 114.592C943.338 114.592 941.375 115.659 939.839 117.792C938.303 119.84 937.535 122.656 937.535 126.24Z" fill="white"/>
<path d="M1008.62 82.288C1007.69 82.288 1006.84 82.184 1006.07 81.976C1005.3 81.752 1004.62 81.48 1004.03 81.16V78.52C1004.83 79.064 1005.65 79.488 1006.48 79.792C1007.31 80.08 1008.07 80.224 1008.76 80.224C1009.45 80.224 1009.95 80.096 1010.27 79.84C1010.59 79.584 1010.75 79.272 1010.75 78.904C1010.75 78.536 1010.58 78.248 1010.25 78.04C1009.93 77.816 1009.51 77.632 1009 77.488C1008.5 77.328 1007.97 77.168 1007.39 77.008C1006.83 76.848 1006.3 76.64 1005.78 76.384C1005.29 76.128 1004.88 75.776 1004.56 75.328C1004.24 74.88 1004.08 74.304 1004.08 73.6C1004.08 72.864 1004.27 72.2 1004.66 71.608C1005.06 71.016 1005.64 70.552 1006.41 70.216C1007.19 69.88 1008.15 69.712 1009.29 69.712C1010.2 69.712 1010.98 69.824 1011.64 70.048C1012.31 70.256 1012.82 70.544 1013.18 70.912C1013.54 71.28 1013.73 71.704 1013.73 72.184C1013.73 72.52 1013.62 72.792 1013.42 73C1013.22 73.192 1012.97 73.288 1012.65 73.288C1012.34 73.288 1012.08 73.216 1011.86 73.072C1011.65 72.912 1011.42 72.736 1011.18 72.544C1010.94 72.336 1010.66 72.16 1010.34 72.016C1010.04 71.856 1009.65 71.776 1009.17 71.776C1008.54 71.776 1008.08 71.912 1007.78 72.184C1007.47 72.456 1007.32 72.768 1007.32 73.12C1007.32 73.504 1007.48 73.808 1007.8 74.032C1008.14 74.256 1008.55 74.44 1009.05 74.584C1009.56 74.728 1010.1 74.888 1010.66 75.064C1011.22 75.224 1011.75 75.44 1012.26 75.712C1012.78 75.968 1013.19 76.32 1013.51 76.768C1013.83 77.2 1013.99 77.776 1013.99 78.496C1013.99 79.232 1013.79 79.888 1013.39 80.464C1012.99 81.04 1012.39 81.488 1011.59 81.808C1010.81 82.128 1009.82 82.288 1008.62 82.288ZM1023.34 81.784C1022.97 81.944 1022.58 82.064 1022.16 82.144C1021.74 82.24 1021.3 82.288 1020.84 82.288C1019.66 82.288 1018.75 81.952 1018.13 81.28C1017.5 80.608 1017.19 79.624 1017.19 78.328V72.736H1016.52C1016.12 72.736 1015.79 72.624 1015.54 72.4C1015.28 72.176 1015.15 71.856 1015.15 71.44C1015.15 71.072 1015.26 70.76 1015.46 70.504C1015.67 70.248 1015.98 70.016 1016.38 69.808L1020.26 67.792V70H1023.82V72.736H1020.26V77.824C1020.26 78.464 1020.39 78.92 1020.65 79.192C1020.92 79.448 1021.3 79.576 1021.8 79.576C1022.06 79.576 1022.3 79.552 1022.54 79.504C1022.8 79.44 1023.06 79.36 1023.34 79.264V81.784ZM1025.8 82V70H1028.87V82H1025.8ZM1028.87 76.192L1028.46 72.808C1028.78 71.8 1029.23 71.032 1029.8 70.504C1030.38 69.976 1031.03 69.712 1031.75 69.712C1032.12 69.712 1032.44 69.784 1032.73 69.928C1033.04 70.072 1033.28 70.288 1033.45 70.576C1033.64 70.848 1033.74 71.2 1033.74 71.632C1033.74 72.192 1033.6 72.616 1033.31 72.904C1033.04 73.176 1032.68 73.312 1032.25 73.312C1031.96 73.312 1031.71 73.272 1031.48 73.192C1031.28 73.096 1031.05 73.048 1030.81 73.048C1030.24 73.048 1029.76 73.328 1029.4 73.888C1029.04 74.448 1028.87 75.216 1028.87 76.192ZM1040.71 82.288C1038.9 82.288 1037.52 81.832 1036.56 80.92C1035.61 79.992 1035.14 78.632 1035.14 76.84V70H1038.24V76.816C1038.24 77.728 1038.45 78.408 1038.88 78.856C1039.32 79.304 1039.92 79.528 1040.71 79.528C1041.49 79.528 1042.09 79.304 1042.51 78.856C1042.94 78.408 1043.16 77.728 1043.16 76.816V70H1046.25V76.84C1046.25 78.632 1045.77 79.992 1044.81 80.92C1043.87 81.832 1042.5 82.288 1040.71 82.288ZM1054.32 87.088C1053.25 87.088 1052.34 87.008 1051.59 86.848C1050.85 86.688 1050.27 86.48 1049.83 86.224C1049.53 86.048 1049.3 85.848 1049.14 85.624C1048.98 85.416 1048.9 85.168 1048.9 84.88C1048.9 84.56 1049 84.304 1049.21 84.112C1049.42 83.92 1049.71 83.824 1050.07 83.824C1050.36 83.824 1050.64 83.872 1050.91 83.968C1051.19 84.064 1051.49 84.184 1051.83 84.328C1052.16 84.472 1052.56 84.592 1053.03 84.688C1053.51 84.8 1054.08 84.856 1054.75 84.856C1055.67 84.856 1056.39 84.728 1056.94 84.472C1057.48 84.216 1057.75 83.808 1057.75 83.248C1057.75 82.896 1057.61 82.608 1057.32 82.384C1057.03 82.16 1056.47 82.048 1055.64 82.048H1052.38C1051.47 82.048 1050.72 81.944 1050.15 81.736C1049.59 81.512 1049.18 81.208 1048.92 80.824C1048.67 80.424 1048.54 79.976 1048.54 79.48C1048.54 78.728 1048.8 78.112 1049.33 77.632C1049.86 77.136 1050.58 76.84 1051.49 76.744L1054.15 77.44C1053.42 77.44 1052.85 77.496 1052.45 77.608C1052.05 77.704 1051.77 77.84 1051.61 78.016C1051.47 78.176 1051.39 78.352 1051.39 78.544C1051.39 78.816 1051.51 79.016 1051.75 79.144C1051.99 79.256 1052.39 79.312 1052.95 79.312H1056.17C1057.64 79.312 1058.79 79.592 1059.6 80.152C1060.43 80.712 1060.85 81.624 1060.85 82.888C1060.85 84.264 1060.32 85.304 1059.27 86.008C1058.21 86.728 1056.56 87.088 1054.32 87.088ZM1054.15 77.44C1052.49 77.44 1051.18 77.128 1050.22 76.504C1049.26 75.864 1048.78 74.92 1048.78 73.672C1048.78 72.808 1049.01 72.088 1049.47 71.512C1049.94 70.92 1050.59 70.472 1051.44 70.168C1052.31 69.864 1053.32 69.712 1054.49 69.712L1057.8 70.888C1058.17 71.064 1058.49 71.296 1058.76 71.584C1059.05 71.856 1059.27 72.176 1059.43 72.544C1059.59 72.912 1059.67 73.336 1059.67 73.816C1059.67 74.584 1059.46 75.24 1059.03 75.784C1058.59 76.328 1057.97 76.744 1057.15 77.032C1056.34 77.304 1055.34 77.44 1054.15 77.44ZM1054.27 75.592C1054.98 75.592 1055.55 75.416 1055.98 75.064C1056.41 74.712 1056.63 74.208 1056.63 73.552C1056.63 72.896 1056.42 72.4 1056 72.064C1055.59 71.728 1055.03 71.56 1054.35 71.56C1053.64 71.56 1053.07 71.736 1052.64 72.088C1052.21 72.44 1051.99 72.944 1051.99 73.6C1051.99 74.256 1052.2 74.752 1052.62 75.088C1053.03 75.424 1053.59 75.592 1054.27 75.592ZM1061.31 72.616C1060.65 72.616 1060.03 72.584 1059.46 72.52C1058.9 72.456 1058.26 72.384 1057.54 72.304L1054.49 69.712C1055.64 69.712 1056.78 69.76 1057.9 69.856C1059.02 69.952 1060.15 70 1061.31 70V72.616ZM1068.43 87.088C1067.36 87.088 1066.45 87.008 1065.7 86.848C1064.96 86.688 1064.38 86.48 1063.94 86.224C1063.64 86.048 1063.41 85.848 1063.25 85.624C1063.09 85.416 1063.01 85.168 1063.01 84.88C1063.01 84.56 1063.11 84.304 1063.32 84.112C1063.53 83.92 1063.82 83.824 1064.18 83.824C1064.47 83.824 1064.75 83.872 1065.02 83.968C1065.3 84.064 1065.6 84.184 1065.94 84.328C1066.27 84.472 1066.67 84.592 1067.14 84.688C1067.62 84.8 1068.19 84.856 1068.86 84.856C1069.78 84.856 1070.5 84.728 1071.05 84.472C1071.59 84.216 1071.86 83.808 1071.86 83.248C1071.86 82.896 1071.72 82.608 1071.43 82.384C1071.14 82.16 1070.58 82.048 1069.75 82.048H1066.49C1065.58 82.048 1064.83 81.944 1064.26 81.736C1063.7 81.512 1063.29 81.208 1063.03 80.824C1062.78 80.424 1062.65 79.976 1062.65 79.48C1062.65 78.728 1062.91 78.112 1063.44 77.632C1063.97 77.136 1064.69 76.84 1065.6 76.744L1068.26 77.44C1067.53 77.44 1066.96 77.496 1066.56 77.608C1066.16 77.704 1065.88 77.84 1065.72 78.016C1065.58 78.176 1065.5 78.352 1065.5 78.544C1065.5 78.816 1065.62 79.016 1065.86 79.144C1066.1 79.256 1066.5 79.312 1067.06 79.312H1070.28C1071.75 79.312 1072.9 79.592 1073.71 80.152C1074.54 80.712 1074.96 81.624 1074.96 82.888C1074.96 84.264 1074.43 85.304 1073.38 86.008C1072.32 86.728 1070.67 87.088 1068.43 87.088ZM1068.26 77.44C1066.6 77.44 1065.29 77.128 1064.33 76.504C1063.37 75.864 1062.89 74.92 1062.89 73.672C1062.89 72.808 1063.12 72.088 1063.58 71.512C1064.05 70.92 1064.7 70.472 1065.55 70.168C1066.42 69.864 1067.43 69.712 1068.6 69.712L1071.91 70.888C1072.28 71.064 1072.6 71.296 1072.87 71.584C1073.16 71.856 1073.38 72.176 1073.54 72.544C1073.7 72.912 1073.78 73.336 1073.78 73.816C1073.78 74.584 1073.57 75.24 1073.14 75.784C1072.7 76.328 1072.08 76.744 1071.26 77.032C1070.45 77.304 1069.45 77.44 1068.26 77.44ZM1068.38 75.592C1069.09 75.592 1069.66 75.416 1070.09 75.064C1070.52 74.712 1070.74 74.208 1070.74 73.552C1070.74 72.896 1070.53 72.4 1070.11 72.064C1069.7 71.728 1069.14 71.56 1068.46 71.56C1067.75 71.56 1067.18 71.736 1066.75 72.088C1066.32 72.44 1066.1 72.944 1066.1 73.6C1066.1 74.256 1066.31 74.752 1066.73 75.088C1067.14 75.424 1067.7 75.592 1068.38 75.592ZM1075.42 72.616C1074.76 72.616 1074.14 72.584 1073.57 72.52C1073.01 72.456 1072.37 72.384 1071.65 72.304L1068.6 69.712C1069.75 69.712 1070.89 69.76 1072.01 69.856C1073.13 69.952 1074.26 70 1075.42 70V72.616ZM1080.5 64.72V78.064C1080.5 78.624 1080.58 79.008 1080.74 79.216C1080.92 79.424 1081.2 79.528 1081.58 79.528C1081.74 79.528 1081.89 79.52 1082.04 79.504C1082.2 79.472 1082.36 79.432 1082.54 79.384V81.856C1081.92 82.144 1081.24 82.288 1080.52 82.288C1079.4 82.288 1078.6 81.96 1078.12 81.304C1077.66 80.632 1077.43 79.744 1077.43 78.64V64.72H1080.5ZM1089.77 82.288C1087.72 82.288 1086.15 81.76 1085.04 80.704C1083.94 79.632 1083.39 78.144 1083.39 76.24C1083.39 74.912 1083.64 73.76 1084.16 72.784C1084.68 71.808 1085.42 71.056 1086.36 70.528C1087.32 69.984 1088.43 69.712 1089.68 69.712C1090.78 69.712 1091.71 69.904 1092.46 70.288C1093.23 70.656 1093.81 71.152 1094.21 71.776C1094.61 72.4 1094.81 73.08 1094.81 73.816C1094.81 74.52 1094.64 75.112 1094.28 75.592C1093.93 76.056 1093.44 76.416 1092.82 76.672C1092.21 76.912 1091.51 77.064 1090.71 77.128C1089.92 77.192 1089.08 77.176 1088.19 77.08C1087.31 76.968 1086.43 76.784 1085.55 76.528V74.632C1086.4 74.84 1087.19 74.984 1087.92 75.064C1088.66 75.128 1089.31 75.128 1089.87 75.064C1090.44 74.984 1090.89 74.832 1091.21 74.608C1091.53 74.368 1091.69 74.04 1091.69 73.624C1091.69 73.192 1091.52 72.816 1091.16 72.496C1090.81 72.16 1090.31 71.992 1089.65 71.992C1089.04 71.992 1088.51 72.144 1088.04 72.448C1087.58 72.752 1087.21 73.208 1086.94 73.816C1086.68 74.424 1086.56 75.184 1086.56 76.096C1086.56 76.944 1086.68 77.656 1086.94 78.232C1087.2 78.792 1087.6 79.216 1088.14 79.504C1088.68 79.792 1089.39 79.936 1090.25 79.936C1090.96 79.936 1091.66 79.856 1092.36 79.696C1093.07 79.52 1093.76 79.256 1094.43 78.904V81.112C1093.88 81.448 1093.21 81.728 1092.41 81.952C1091.63 82.176 1090.75 82.288 1089.77 82.288ZM1007.32 110L1010.68 99.416C1010.87 98.824 1011.11 98.392 1011.4 98.12C1011.7 97.848 1012.1 97.712 1012.58 97.712C1013.04 97.712 1013.42 97.848 1013.7 98.12C1014.01 98.392 1014.25 98.824 1014.42 99.416L1017.78 110H1015.14L1012.17 100.76H1012.96L1009.98 110H1007.32ZM1006.72 110L1003.22 98H1006.55L1009.12 110H1006.72ZM1016.01 110L1018.55 98H1021.89L1018.38 110H1016.01ZM1023.62 110V97.928C1024.64 98.168 1025.66 98.168 1026.69 97.928V110H1023.62ZM1025.15 96.296C1024.54 96.296 1024.08 96.144 1023.76 95.84C1023.46 95.536 1023.3 95.136 1023.3 94.64C1023.3 94.144 1023.46 93.744 1023.76 93.44C1024.08 93.12 1024.54 92.96 1025.15 92.96C1025.78 92.96 1026.24 93.12 1026.54 93.44C1026.86 93.744 1027.02 94.144 1027.02 94.64C1027.02 95.136 1026.86 95.536 1026.54 95.84C1026.24 96.144 1025.78 96.296 1025.15 96.296ZM1036.67 109.784C1036.3 109.944 1035.91 110.064 1035.5 110.144C1035.08 110.24 1034.64 110.288 1034.18 110.288C1032.99 110.288 1032.09 109.952 1031.46 109.28C1030.84 108.608 1030.53 107.624 1030.53 106.328V100.736H1029.86C1029.46 100.736 1029.13 100.624 1028.87 100.4C1028.62 100.176 1028.49 99.856 1028.49 99.44C1028.49 99.072 1028.59 98.76 1028.8 98.504C1029.01 98.248 1029.31 98.016 1029.71 97.808L1033.6 95.792V98H1037.15V100.736H1033.6V105.824C1033.6 106.464 1033.73 106.92 1033.98 107.192C1034.26 107.448 1034.64 107.576 1035.14 107.576C1035.39 107.576 1035.64 107.552 1035.88 107.504C1036.14 107.44 1036.4 107.36 1036.67 107.264V109.784ZM1047.27 110V103.328C1047.27 102.688 1047.16 102.176 1046.96 101.792C1046.75 101.392 1046.46 101.096 1046.09 100.904C1045.74 100.712 1045.35 100.616 1044.92 100.616C1044.45 100.616 1044.01 100.72 1043.6 100.928C1043.18 101.136 1042.84 101.456 1042.59 101.888C1042.33 102.304 1042.2 102.84 1042.2 103.496L1041.68 100.808C1041.95 100.104 1042.3 99.528 1042.73 99.08C1043.18 98.616 1043.68 98.272 1044.24 98.048C1044.8 97.824 1045.39 97.712 1046 97.712C1046.76 97.712 1047.48 97.888 1048.13 98.24C1048.8 98.592 1049.34 99.144 1049.74 99.896C1050.14 100.648 1050.34 101.632 1050.34 102.848V110H1047.27ZM1039.13 110V92.72H1042.2V110H1039.13ZM1014.86 128.64C1014.86 129.072 1014.73 129.408 1014.47 129.648C1014.22 129.872 1013.88 129.984 1013.46 129.984C1013.11 129.984 1012.82 129.904 1012.6 129.744C1012.38 129.568 1012.16 129.368 1011.95 129.144C1011.74 128.92 1011.5 128.72 1011.21 128.544C1010.94 128.368 1010.56 128.28 1010.08 128.28C1009.18 128.28 1008.48 128.608 1007.97 129.264C1007.46 129.92 1007.2 130.792 1007.2 131.88C1007.2 132.616 1007.33 133.264 1007.58 133.824C1007.84 134.368 1008.23 134.792 1008.76 135.096C1009.3 135.4 1009.99 135.552 1010.82 135.552C1011.38 135.552 1011.96 135.48 1012.55 135.336C1013.16 135.176 1013.79 134.944 1014.45 134.64V137.16C1013.97 137.448 1013.39 137.712 1012.72 137.952C1012.05 138.176 1011.24 138.288 1010.3 138.288C1008.3 138.288 1006.72 137.736 1005.57 136.632C1004.43 135.528 1003.86 134.016 1003.86 132.096C1003.86 130.816 1004.12 129.696 1004.63 128.736C1005.14 127.776 1005.86 127.032 1006.79 126.504C1007.74 125.976 1008.86 125.712 1010.18 125.712C1011.06 125.712 1011.84 125.84 1012.53 126.096C1013.22 126.336 1013.77 126.672 1014.18 127.104C1014.63 127.568 1014.86 128.08 1014.86 128.64ZM1024.96 138V131.328C1024.96 130.688 1024.85 130.176 1024.64 129.792C1024.44 129.392 1024.15 129.096 1023.78 128.904C1023.43 128.712 1023.04 128.616 1022.6 128.616C1022.14 128.616 1021.7 128.72 1021.28 128.928C1020.87 129.136 1020.53 129.456 1020.28 129.888C1020.02 130.304 1019.89 130.84 1019.89 131.496L1019.36 128.808C1019.64 128.104 1019.99 127.528 1020.42 127.08C1020.87 126.616 1021.37 126.272 1021.93 126.048C1022.49 125.824 1023.08 125.712 1023.68 125.712C1024.45 125.712 1025.16 125.888 1025.82 126.24C1026.49 126.592 1027.03 127.144 1027.43 127.896C1027.83 128.648 1028.03 129.632 1028.03 130.848V138H1024.96ZM1016.82 138V120.72H1019.89V138H1016.82ZM1030.74 138V125.928C1031.77 126.168 1032.79 126.168 1033.81 125.928V138H1030.74ZM1032.28 124.296C1031.67 124.296 1031.21 124.144 1030.89 123.84C1030.58 123.536 1030.43 123.136 1030.43 122.64C1030.43 122.144 1030.58 121.744 1030.89 121.44C1031.21 121.12 1031.67 120.96 1032.28 120.96C1032.9 120.96 1033.37 121.12 1033.67 121.44C1033.99 121.744 1034.15 122.144 1034.15 122.64C1034.15 123.136 1033.99 123.536 1033.67 123.84C1033.37 124.144 1032.9 124.296 1032.28 124.296ZM1039.84 120.72V134.064C1039.84 134.624 1039.92 135.008 1040.08 135.216C1040.25 135.424 1040.53 135.528 1040.92 135.528C1041.08 135.528 1041.23 135.52 1041.37 135.504C1041.53 135.472 1041.7 135.432 1041.88 135.384V137.856C1041.25 138.144 1040.58 138.288 1039.86 138.288C1038.74 138.288 1037.94 137.96 1037.46 137.304C1037 136.632 1036.76 135.744 1036.76 134.64V120.72H1039.84ZM1054.91 120.72V138H1051.82V120.72H1054.91ZM1052.35 135.192C1051.98 136.168 1051.42 136.928 1050.67 137.472C1049.93 138.016 1049.05 138.288 1048.03 138.288C1047.03 138.288 1046.14 138.04 1045.34 137.544C1044.55 137.032 1043.93 136.312 1043.47 135.384C1043 134.44 1042.77 133.32 1042.77 132.024C1042.77 130.744 1042.99 129.64 1043.44 128.712C1043.91 127.768 1044.54 127.032 1045.34 126.504C1046.15 125.976 1047.1 125.712 1048.17 125.712C1049.19 125.712 1050.05 125.96 1050.74 126.456C1051.43 126.936 1051.9 127.608 1052.15 128.472L1051.82 131.232C1051.82 130.672 1051.7 130.176 1051.46 129.744C1051.22 129.312 1050.89 128.976 1050.47 128.736C1050.07 128.48 1049.6 128.352 1049.06 128.352C1048.47 128.352 1047.94 128.504 1047.47 128.808C1047.03 129.112 1046.67 129.536 1046.42 130.08C1046.18 130.624 1046.06 131.256 1046.06 131.976C1046.06 132.696 1046.18 133.328 1046.42 133.872C1046.67 134.4 1047.03 134.808 1047.47 135.096C1047.94 135.384 1048.47 135.528 1049.08 135.528C1049.9 135.528 1050.55 135.264 1051.05 134.736C1051.56 134.208 1051.82 133.512 1051.82 132.648L1052.35 135.192ZM1068.01 128.64C1068.01 129.072 1067.88 129.408 1067.63 129.648C1067.37 129.872 1067.04 129.984 1066.62 129.984C1066.27 129.984 1065.98 129.904 1065.76 129.744C1065.53 129.568 1065.32 129.368 1065.11 129.144C1064.9 128.92 1064.65 128.72 1064.36 128.544C1064.09 128.368 1063.72 128.28 1063.24 128.28C1062.34 128.28 1061.64 128.608 1061.12 129.264C1060.61 129.92 1060.36 130.792 1060.36 131.88C1060.36 132.616 1060.48 133.264 1060.74 133.824C1061 134.368 1061.39 134.792 1061.92 135.096C1062.46 135.4 1063.15 135.552 1063.98 135.552C1064.54 135.552 1065.12 135.48 1065.71 135.336C1066.32 135.176 1066.95 134.944 1067.6 134.64V137.16C1067.12 137.448 1066.55 137.712 1065.88 137.952C1065.2 138.176 1064.4 138.288 1063.45 138.288C1061.45 138.288 1059.88 137.736 1058.72 136.632C1057.59 135.528 1057.02 134.016 1057.02 132.096C1057.02 130.816 1057.28 129.696 1057.79 128.736C1058.3 127.776 1059.02 127.032 1059.95 126.504C1060.89 125.976 1062.02 125.712 1063.33 125.712C1064.21 125.712 1065 125.84 1065.68 126.096C1066.37 126.336 1066.92 126.672 1067.34 127.104C1067.79 127.568 1068.01 128.08 1068.01 128.64ZM1080.65 138H1077.53C1077.42 137.76 1077.33 137.424 1077.27 136.992C1077.22 136.544 1077.19 136.04 1077.17 135.48L1077.03 134.856V129.816C1077.03 129.224 1076.84 128.816 1076.48 128.592C1076.12 128.368 1075.64 128.256 1075.04 128.256C1074.44 128.256 1073.96 128.328 1073.57 128.472C1073.19 128.616 1072.87 128.784 1072.61 128.976C1072.36 129.168 1072.11 129.336 1071.87 129.48C1071.64 129.624 1071.38 129.696 1071.08 129.696C1070.69 129.696 1070.38 129.592 1070.14 129.384C1069.9 129.16 1069.78 128.864 1069.78 128.496C1069.78 128.224 1069.84 127.96 1069.97 127.704C1070.1 127.448 1070.32 127.2 1070.64 126.96C1071.62 126.128 1073.08 125.712 1075.01 125.712C1076.12 125.712 1077.04 125.856 1077.8 126.144C1078.55 126.432 1079.12 126.904 1079.52 127.56C1079.92 128.216 1080.12 129.096 1080.12 130.2V134.232C1080.12 135.064 1080.17 135.8 1080.27 136.44C1080.36 137.064 1080.49 137.584 1080.65 138ZM1073.24 138.288C1072.08 138.288 1071.16 137.976 1070.48 137.352C1069.79 136.728 1069.44 135.88 1069.44 134.808C1069.44 133.848 1069.75 133.088 1070.36 132.528C1070.98 131.952 1071.91 131.56 1073.14 131.352L1075.49 130.968C1076.12 130.84 1076.52 130.704 1076.72 130.56C1076.92 130.416 1077.03 130.184 1077.03 129.864V132.12C1076.95 132.216 1076.81 132.312 1076.62 132.408C1076.43 132.488 1076.14 132.568 1075.76 132.648L1074.36 132.936C1073.87 133.032 1073.47 133.2 1073.16 133.44C1072.86 133.68 1072.71 134.04 1072.71 134.52C1072.71 135 1072.86 135.376 1073.16 135.648C1073.48 135.92 1073.9 136.056 1074.41 136.056C1074.89 136.056 1075.32 135.944 1075.71 135.72C1076.11 135.48 1076.43 135.152 1076.67 134.736C1076.91 134.304 1077.03 133.8 1077.03 133.224L1077.48 135.384C1077.12 136.376 1076.56 137.112 1075.8 137.592C1075.05 138.056 1074.2 138.288 1073.24 138.288ZM1082.98 138V126H1086.06V138H1082.98ZM1086.06 132.192L1085.65 128.808C1085.97 127.8 1086.42 127.032 1086.99 126.504C1087.57 125.976 1088.22 125.712 1088.94 125.712C1089.3 125.712 1089.63 125.784 1089.92 125.928C1090.22 126.072 1090.46 126.288 1090.64 126.576C1090.83 126.848 1090.93 127.2 1090.93 127.632C1090.93 128.192 1090.78 128.616 1090.5 128.904C1090.22 129.176 1089.87 129.312 1089.44 129.312C1089.15 129.312 1088.9 129.272 1088.67 129.192C1088.46 129.096 1088.24 129.048 1088 129.048C1087.42 129.048 1086.95 129.328 1086.58 129.888C1086.23 130.448 1086.06 131.216 1086.06 132.192ZM1097.79 138.288C1095.74 138.288 1094.16 137.76 1093.06 136.704C1091.96 135.632 1091.4 134.144 1091.4 132.24C1091.4 130.912 1091.66 129.76 1092.17 128.784C1092.7 127.808 1093.44 127.056 1094.38 126.528C1095.34 125.984 1096.44 125.712 1097.69 125.712C1098.8 125.712 1099.72 125.904 1100.48 126.288C1101.24 126.656 1101.83 127.152 1102.23 127.776C1102.63 128.4 1102.83 129.08 1102.83 129.816C1102.83 130.52 1102.65 131.112 1102.3 131.592C1101.95 132.056 1101.46 132.416 1100.84 132.672C1100.23 132.912 1099.52 133.064 1098.72 133.128C1097.94 133.192 1097.1 133.176 1096.2 133.08C1095.32 132.968 1094.44 132.784 1093.56 132.528V130.632C1094.41 130.84 1095.2 130.984 1095.94 131.064C1096.68 131.128 1097.32 131.128 1097.88 131.064C1098.46 130.984 1098.91 130.832 1099.23 130.608C1099.55 130.368 1099.71 130.04 1099.71 129.624C1099.71 129.192 1099.53 128.816 1099.18 128.496C1098.83 128.16 1098.32 127.992 1097.67 127.992C1097.06 127.992 1096.52 128.144 1096.06 128.448C1095.6 128.752 1095.23 129.208 1094.96 129.816C1094.7 130.424 1094.57 131.184 1094.57 132.096C1094.57 132.944 1094.7 133.656 1094.96 134.232C1095.21 134.792 1095.61 135.216 1096.16 135.504C1096.7 135.792 1097.4 135.936 1098.27 135.936C1098.97 135.936 1099.68 135.856 1100.38 135.696C1101.08 135.52 1101.77 135.256 1102.44 134.904V137.112C1101.9 137.448 1101.23 137.728 1100.43 137.952C1099.64 138.176 1098.76 138.288 1097.79 138.288Z" fill="white"/>
</svg>
